<svg width="68" height="68" viewBox="0 0 68 68" fill="none" xmlns="http://www.w3.org/2000/svg">
<g clip-path="url(#clip0)" filter="url(#filter0_d)">
<path d="M40.4996 55.6184C39.8283 55.8918 39.0826 55.7426 38.5853 55.2455L8.75431 25.4145C8.25708 24.9173 8.1079 24.1715 8.38141 23.5003C8.65493 22.8291 9.27649 22.4064 9.99743 22.4313C12.707 22.4064 15.3421 21.3126 17.2314 19.4233L17.455 19.1997H22.4268L44.8001 41.573V46.5448L44.5765 46.7684C42.6623 48.6827 41.5686 51.2679 41.5686 54.0024C41.5934 54.7234 41.1707 55.3449 40.4996 55.6184Z" fill="#FEA832"/>
<path d="M40.4996 55.6186C39.8283 55.892 39.0825 55.7428 38.5853 55.2457L23.6698 40.3302L33.6135 30.3865L44.8001 41.5731V46.5449L44.5765 46.7685C42.6623 48.6827 41.5686 51.268 41.5686 54.0025C41.5934 54.7236 41.1707 55.3451 40.4996 55.6186Z" fill="#FE9923"/>
<path d="M62.4524 1.54749C60.3891 -0.51583 57.058 -0.51583 54.9946 1.54749C52.9314 3.61069 52.9313 6.94186 54.9946 9.0053C57.0579 11.0686 60.3892 11.0685 62.4524 9.0053C64.5159 6.94198 64.5159 3.61093 62.4524 1.54749Z" fill="#FEA832"/>
<path d="M54.9947 9.00518L62.4525 1.54736C64.5159 3.61068 64.5159 6.94174 62.4525 9.00518C60.3892 11.0684 57.058 11.0685 54.9947 9.00518Z" fill="#FE9923"/>
<path d="M28.6417 47.7879C25.2112 51.2184 19.6427 51.2184 16.2121 47.7879C12.7816 44.3573 12.7816 38.7888 16.2121 35.3583C16.9082 34.6622 18.0019 34.6622 18.698 35.3583L28.6417 45.302C29.3378 45.9981 29.3378 47.0918 28.6417 47.7879Z" fill="#FEA832"/>
<path d="M28.6417 47.7879C25.2112 51.2184 19.6427 51.2184 16.2121 47.7879L23.6699 40.3301L28.6417 45.3019C29.3378 45.9981 29.3378 47.0918 28.6417 47.7879Z" fill="#FE9923"/>
<path d="M57.4806 33.8646L44.8001 46.5451L17.455 19.1999L30.1355 6.51946C37.668 -1.013 49.9483 -1.013 57.4806 6.51946C65.013 14.0519 65.0131 26.3322 57.4806 33.8646Z" fill="#FEDB41"/>
<path d="M57.4806 33.8644L44.8001 46.5449L31.1276 32.8723L57.4806 6.51929C65.0131 14.0517 65.0131 26.3321 57.4806 33.8644Z" fill="#FCBF29"/>
<path d="M42.3142 58.9746C40.947 60.3419 38.7096 60.3419 37.3424 58.9746L5.02539 26.6576C3.65816 25.2904 3.65816 23.053 5.02539 21.6858C6.39262 20.3186 8.62996 20.3186 9.99718 21.6858L42.3142 54.0028C43.6814 55.37 43.6814 57.6074 42.3142 58.9746Z" fill="#FEDB41"/>
<path d="M42.3142 58.9746C40.947 60.3418 38.7096 60.3418 37.3424 58.9746L21.1839 42.816L26.1557 37.8442L42.3142 54.0028C43.6814 55.3699 43.6814 57.6073 42.3142 58.9746Z" fill="#FCBF29"/>
</g>
<defs>
<filter id="filter0_d" x="0" y="0" width="68" height="68" filterUnits="userSpaceOnUse" color-interpolation-filters="sRGB">
<feFlood flood-opacity="0" result="BackgroundImageFix"/>
<feColorMatrix in="SourceAlpha" type="matrix" values="0 0 0 0 0 0 0 0 0 0 0 0 0 0 0 0 0 0 127 0"/>
<feOffset dy="4"/>
<feGaussianBlur stdDeviation="2"/>
<feColorMatrix type="matrix" values="0 0 0 0 0 0 0 0 0 0 0 0 0 0 0 0 0 0 0.25 0"/>
<feBlend mode="normal" in2="BackgroundImageFix" result="effect1_dropShadow"/>
<feBlend mode="normal" in="SourceGraphic" in2="effect1_dropShadow" result="shape"/>
</filter>
<clipPath id="clip0">
<rect width="60" height="60" fill="white" transform="translate(4)"/>
</clipPath>
</defs>
</svg>
