<svg width="53" height="50" viewBox="0 0 53 50" fill="none" xmlns="http://www.w3.org/2000/svg">
<g filter="url(#filter0_d)">
<path d="M12.8853 12.8811V6.45138C12.8853 5.90681 12.4438 5.46533 11.8993 5.46533H8.61364C8.06907 5.46533 7.62759 5.90681 7.62759 6.45138V12.8811" fill="#E5E9EA"/>
<path d="M10.0153 12.8811V5.46533H8.61364C8.06907 5.46533 7.62759 5.90681 7.62759 6.45138V12.8811" fill="#D1D1D1"/>
<path d="M49 14.0529V38.1095C49 39.7589 47.6628 41.096 46.0135 41.096H6.98652C5.33717 41.096 4 39.7589 4 38.1095V14.0529C4 12.4035 5.33717 11.0663 6.98652 11.0663H12.8919C14.1638 11.0663 15.2971 10.2609 15.7141 9.05884L16.8042 5.91253C17.2211 4.71036 18.3534 3.90405 19.6263 3.90405H37.0475C38.3194 3.90405 39.4517 4.71036 39.8687 5.91253L40.9597 9.05884C41.3766 10.261 42.5089 11.0663 43.7809 11.0663H46.0134C47.6628 11.0663 49 12.4035 49 14.0529Z" fill="#FFD300"/>
<path d="M9.32837 41.0961H6.98652C5.33717 41.0961 4 39.7589 4 38.1096V14.0529C4 12.4036 5.33717 11.0664 6.98652 11.0664H9.14283V11.0719C7.57979 11.1684 6.34185 12.4661 6.34185 14.0529V38.1096C6.34185 39.759 7.67901 41.0961 9.32837 41.0961Z" fill="#E29A4B"/>
<path d="M21.9681 3.90405C20.6953 3.90405 19.5629 4.71036 19.1459 5.91253L18.0558 9.05884C17.6389 10.261 16.5056 11.0663 15.2337 11.0663H13.2297V11.0471C14.3612 10.9185 15.3346 10.1535 15.7139 9.05884L16.804 5.91253C17.2209 4.71036 18.3532 3.90405 19.6262 3.90405C19.6263 3.90405 21.9681 3.90405 21.9681 3.90405Z" fill="#E29A4B"/>
<path d="M48 20.1938V38.1095C48 39.2066 47.1105 40.096 46.0135 40.096H6.98652C5.88945 40.096 5 39.2066 5 38.1095V20.1938H48Z" fill="#404A58" stroke="black" stroke-width="2"/>
<path d="M9.32837 41.0959H6.98652C5.33717 41.0959 4 39.7588 4 38.1094V19.1938H6.34185V38.1095C6.34185 39.7589 7.67901 41.0959 9.32837 41.0959Z" fill="#333333"/>
<path d="M26.5 38.2951C33.372 38.2951 38.9429 32.7242 38.9429 25.8521C38.9429 18.9801 33.372 13.4092 26.5 13.4092C19.628 13.4092 14.0571 18.9801 14.0571 25.8521C14.0571 32.7242 19.628 38.2951 26.5 38.2951Z" fill="#E5E9EA"/>
<path d="M35.2979 25.852C35.2979 28.4427 34.1785 30.7717 32.3959 32.3825C30.8356 33.7922 28.7692 34.6508 26.5 34.6508C24.2316 34.6508 22.1644 33.7921 20.6041 32.3824C18.8216 30.7725 17.7012 28.4426 17.7012 25.8519C17.7012 23.2611 18.8216 20.9312 20.6041 19.3223C22.1644 17.9117 24.2316 17.054 26.5 17.054C28.7692 17.054 30.8356 17.9126 32.3959 19.3223C34.1785 20.9323 35.2979 23.2612 35.2979 25.852Z" fill="#566368"/>
<path d="M32.7206 19.6306C34.5525 21.4625 35.4078 23.901 35.2863 26.3005C32.8868 26.4219 30.4484 25.5667 28.6165 23.7348C26.7846 21.9029 25.9293 19.4644 26.0514 17.0656C28.4502 16.9436 30.8887 17.7988 32.7206 19.6306Z" fill="#6F7B7F"/>
<path d="M24.3825 27.9689C26.2144 29.8008 27.0697 32.2392 26.9482 34.6387C24.5494 34.7608 22.1096 33.9056 20.2778 32.0736C18.4459 30.2417 17.5906 27.802 17.7133 25.4038C20.1122 25.2816 22.5506 26.1369 24.3825 27.9689Z" fill="#6F7B7F"/>
<path d="M26.4997 35.3392C21.2686 35.3392 17.0126 31.0832 17.0126 25.8521C17.0126 20.6209 21.2686 16.365 26.4997 16.365C31.7309 16.365 35.9868 20.6208 35.9868 25.8521C35.9868 31.0833 31.7309 35.3392 26.4997 35.3392ZM26.4997 17.7425C22.0281 17.7425 18.3902 21.3805 18.3902 25.8521C18.3902 30.3237 22.0281 33.9617 26.4997 33.9617C30.9714 33.9617 34.6093 30.3237 34.6093 25.8521C34.6093 21.3805 30.9714 17.7425 26.4997 17.7425Z" fill="#435054"/>
<path d="M26.4997 22.3201C24.5523 22.3201 22.9679 23.9045 22.9679 25.852C22.9679 27.7996 24.5523 29.3839 26.4997 29.3839C28.4472 29.3839 30.0316 27.7995 30.0316 25.852C30.0316 23.9046 28.4472 22.3201 26.4997 22.3201Z" fill="#435054"/>
<path d="M30.9699 10.3779H36.3824C37.094 10.3779 37.6709 9.80104 37.6709 9.08938V7.67153C37.6709 6.95997 37.0941 6.38306 36.3824 6.38306H30.9699C30.2583 6.38306 29.6814 6.95988 29.6814 7.67153V9.08938C29.6814 9.80095 30.2583 10.3779 30.9699 10.3779Z" fill="#E5E9EA"/>
<path d="M36.3824 11.0666H30.9699C29.8796 11.0666 28.9926 10.1796 28.9926 9.08929V7.67161C28.9926 6.58133 29.8796 5.69434 30.9699 5.69434H36.3824C37.4727 5.69434 38.3597 6.58133 38.3597 7.67161V9.08937C38.3596 10.1797 37.4726 11.0666 36.3824 11.0666ZM30.9699 7.07185C30.6391 7.07185 30.3702 7.34088 30.3702 7.67152V9.08929C30.3702 9.42002 30.6391 9.68896 30.9699 9.68896H36.3824C36.7132 9.68896 36.9821 9.41993 36.9821 9.08929V7.67161C36.9821 7.34088 36.7131 7.07193 36.3824 7.07193C36.3824 7.07185 30.9699 7.07185 30.9699 7.07185Z" fill="#E29A4B"/>
<path d="M12.5546 38.5467C13.9301 38.5467 15.0452 37.4316 15.0452 36.0561C15.0452 34.6805 13.9301 33.5654 12.5546 33.5654C11.179 33.5654 10.0639 34.6805 10.0639 36.0561C10.0639 37.4316 11.179 38.5467 12.5546 38.5467Z" fill="#566368"/>
</g>
<defs>
<filter id="filter0_d" x="0" y="0" width="53" height="53" filterUnits="userSpaceOnUse" color-interpolation-filters="sRGB">
<feFlood flood-opacity="0" result="BackgroundImageFix"/>
<feColorMatrix in="SourceAlpha" type="matrix" values="0 0 0 0 0 0 0 0 0 0 0 0 0 0 0 0 0 0 127 0"/>
<feOffset dy="4"/>
<feGaussianBlur stdDeviation="2"/>
<feColorMatrix type="matrix" values="0 0 0 0 0 0 0 0 0 0 0 0 0 0 0 0 0 0 0.25 0"/>
<feBlend mode="normal" in2="BackgroundImageFix" result="effect1_dropShadow"/>
<feBlend mode="normal" in="SourceGraphic" in2="effect1_dropShadow" result="shape"/>
</filter>
</defs>
</svg>
