<svg width="53" height="53" viewBox="0 0 53 53" fill="none" xmlns="http://www.w3.org/2000/svg">
<g filter="url(#filter0_d)">
<path d="M37.25 41.7042H33.2885L28.75 33.6868L43.75 36.4307V39.0674L37.25 41.7042Z" fill="#A2ABB8"/>
<path d="M37.25 41.7041H42.25C43.075 41.7041 43.75 41.1108 43.75 40.3857V39.0674H37.25V41.7041Z" fill="#C8D2DC"/>
<path d="M40.75 4.76367H46.75C47.575 4.76367 48.25 5.35693 48.25 6.08203V35.1123C48.25 35.8374 47.575 36.4307 46.75 36.4307H21.25C20.425 36.4307 19.75 35.8374 19.75 35.1123V25.708L40.75 4.76367Z" fill="#E9EDF1"/>
<path d="M21.25 4.76367H40.75V29.1505C40.75 29.8756 40.075 30.4689 39.25 30.4689H35.25V36.4307H32.25L19.75 6.08203C19.75 5.35693 20.425 4.76367 21.25 4.76367Z" fill="#C8D2DC"/>
<path d="M6.25 8.71875C5.425 8.71875 4.75 9.31201 4.75 10.0371V43.65C4.75 44.0299 5.1037 44.3408 5.536 44.3408H32.464C32.8963 44.3408 33.25 44.0299 33.25 43.65V42.583L6.25 8.71875Z" fill="#FFD064"/>
<path d="M11.75 8.71875H6.25V41.9555C6.25 42.3006 6.5713 42.583 6.964 42.583H33.25V28.7842L11.75 8.71875Z" fill="#FFF0AF"/>
<path d="M31.75 8.71875H11.75V27.4658C11.75 28.1909 12.425 28.7842 13.25 28.7842H33.25V10.0371C33.25 9.31201 32.575 8.71875 31.75 8.71875Z" fill="#FFD064"/>
<path d="M37.75 27.0264H15.25C14.425 27.0264 13.75 26.4331 13.75 25.708V1.97754C13.75 1.25244 14.425 0.65918 15.25 0.65918H37.75C38.575 0.65918 39.25 1.25244 39.25 1.97754V25.708C39.25 26.4331 38.575 27.0264 37.75 27.0264Z" fill="#DCE7EF"/>
<path d="M29.7472 16.7031C28.8356 17.2865 24.1645 17.2865 23.2529 16.7031C21.6623 18.5869 16.7501 17.5614 16.7501 22.0997V24.3896H36.2501C36.2501 24.3896 36.2501 23.9723 36.2501 22.0997C36.25 17.5615 31.3378 18.587 29.7472 16.7031Z" fill="#81A9C8"/>
<path d="M29.7472 16.7031C29.44 16.3392 29.2559 15.8675 29.2559 15.2256H23.7441C23.7441 15.8676 23.56 16.3393 23.2528 16.7031C24.1644 17.2864 25.2861 17.6314 26.5 17.6314C27.7139 17.6314 28.8356 17.2864 29.7472 16.7031Z" fill="#4980AC"/>
<path d="M32.0241 8.30048C32.0241 5.61911 29.5509 3.44531 26.5 3.44531C23.4492 3.44531 20.9759 5.61902 20.9759 8.30048V11.0185C20.9759 13.6999 23.4491 15.8737 26.5 15.8737C29.5509 15.8737 32.0241 13.6999 32.0241 11.0185C32.0241 10.4268 32.0241 8.89207 32.0241 8.30048Z" fill="#81A9C8"/>
<path d="M31.75 45H6.25C5.0093 45 4 44.1128 4 43.0225V10.0371C4 8.94674 5.0093 8.05957 6.25 8.05957H10.561C10.9752 8.05957 11.311 8.35462 11.311 8.71875C11.311 9.08288 10.9752 9.37793 10.561 9.37793H6.25C5.8364 9.37793 5.5 9.67359 5.5 10.0371V43.0225C5.5 43.386 5.8364 43.6816 6.25 43.6816H31.75C32.1636 43.6816 32.5 43.386 32.5 43.0225V27.6855H15.25C14.0093 27.6855 13 26.7984 13 25.708V1.97754C13 0.887168 14.0093 0 15.25 0H37.75C38.9907 0 40 0.887168 40 1.97754V8.56934C40 8.93347 39.6642 9.22852 39.25 9.22852C38.8358 9.22852 38.5 8.93347 38.5 8.56934V1.97754C38.5 1.61402 38.1636 1.31836 37.75 1.31836H15.25C14.8364 1.31836 14.5 1.61402 14.5 1.97754V25.708C14.5 26.0715 14.8364 26.3672 15.25 26.3672H37.75C38.1636 26.3672 38.5 26.0715 38.5 25.708V11.2061C38.5 10.8419 38.8358 10.5469 39.25 10.5469H43.75C44.1642 10.5469 44.5 10.8419 44.5 11.2061C44.5 11.5702 44.1642 11.8652 43.75 11.8652H40V14.502H43.75C44.1642 14.502 44.5 14.797 44.5 15.1611C44.5 15.5253 44.1642 15.8203 43.75 15.8203H40V18.457H43.75C44.1642 18.457 44.5 18.7521 44.5 19.1162C44.5 19.4803 44.1642 19.7754 43.75 19.7754H40V22.4121H43.75C44.1642 22.4121 44.5 22.7072 44.5 23.0713C44.5 23.4354 44.1642 23.7305 43.75 23.7305H40V25.708C40 25.939 39.9547 26.1609 39.8715 26.3672H43.75C44.1642 26.3672 44.5 26.6622 44.5 27.0264C44.5 27.3905 44.1642 27.6855 43.75 27.6855H34V30.3223H43.75C44.1642 30.3223 44.5 30.6173 44.5 30.9814C44.5 31.3456 44.1642 31.6406 43.75 31.6406H34V35.7715H46.75C47.1636 35.7715 47.5 35.4758 47.5 35.1123V6.08203C47.5 5.71852 47.1636 5.42285 46.75 5.42285H42.25C41.8358 5.42285 41.5 5.1278 41.5 4.76367C41.5 4.39954 41.8358 4.10449 42.25 4.10449H46.75C47.9907 4.10449 49 4.99166 49 6.08203V35.1123C49 36.2027 47.9907 37.0898 46.75 37.0898H34V41.0449H42.25C42.6636 41.0449 43 40.7493 43 40.3857V39.0674C43 38.7033 43.3358 38.4082 43.75 38.4082C44.1642 38.4082 44.5 38.7033 44.5 39.0674V40.3857C44.5 41.4761 43.4907 42.3633 42.25 42.3633H34V43.0225C34 44.1128 32.9907 45 31.75 45ZM36.25 25.0488H16.75C16.3358 25.0488 16 24.7538 16 24.3896V22.0997C16 18.7125 18.548 17.9375 20.4085 17.3716C21.944 16.9045 22.8159 16.5899 22.9696 15.5748C21.3144 14.581 20.2259 12.9095 20.2259 11.0185V8.30039C20.2259 5.25981 23.0405 2.78613 26.5 2.78613C29.9595 2.78613 32.7741 5.2599 32.7741 8.30039V11.0185C32.7741 12.9095 31.6857 14.581 30.0304 15.5748C30.1841 16.59 31.056 16.9045 32.5915 17.3716C34.452 17.9375 37 18.7125 37 22.0997V24.3896C37 24.7538 36.6642 25.0488 36.25 25.0488ZM17.5 23.7305H35.5V22.0997C35.5 19.6514 33.9248 19.1722 32.1009 18.6174C30.7539 18.2078 29.13 17.7137 28.6475 16.2C27.9772 16.4153 27.254 16.5328 26.5 16.5328C25.746 16.5328 25.0228 16.4153 24.3525 16.2C23.87 17.7137 22.2461 18.2078 20.8991 18.6174C19.0752 19.1723 17.5 19.6514 17.5 22.0997V23.7305ZM26.5 4.10449C23.8676 4.10449 21.7259 5.98676 21.7259 8.30039V11.0185C21.7259 13.3321 23.8676 15.2144 26.5 15.2144C29.1324 15.2144 31.2741 13.3321 31.2741 11.0185V8.30039C31.2741 5.98676 29.1324 4.10449 26.5 4.10449Z" fill="black"/>
</g>
<defs>
<filter id="filter0_d" x="0" y="0" width="53" height="53" filterUnits="userSpaceOnUse" color-interpolation-filters="sRGB">
<feFlood flood-opacity="0" result="BackgroundImageFix"/>
<feColorMatrix in="SourceAlpha" type="matrix" values="0 0 0 0 0 0 0 0 0 0 0 0 0 0 0 0 0 0 127 0"/>
<feOffset dy="4"/>
<feGaussianBlur stdDeviation="2"/>
<feColorMatrix type="matrix" values="0 0 0 0 0 0 0 0 0 0 0 0 0 0 0 0 0 0 0.25 0"/>
<feBlend mode="normal" in2="BackgroundImageFix" result="effect1_dropShadow"/>
<feBlend mode="normal" in="SourceGraphic" in2="effect1_dropShadow" result="shape"/>
</filter>
</defs>
</svg>
