<svg height="511pt" viewBox="-15 0 511 511.99965" width="511pt" xmlns="http://www.w3.org/2000/svg"><path d="m407.539062 206.5625c-1.144531 0-2.300781-.117188-3.464843-.359375-9.152344-1.90625-15.03125-10.871094-13.125-20.023437l17.898437-85.984376-23.375-78.429687c-2.671875-8.957031 2.425782-18.386719 11.386719-21.054687 8.957031-2.671876 18.386719 2.425781 21.058594 11.386718l24.59375 82.527344c.804687 2.691406.921875 5.535156.351562 8.285156l-18.769531 90.167969c-1.660156 7.988281-8.703125 13.484375-16.554688 13.484375zm0 0" fill="#f7a78d"/><path d="m398.324219 150.753906-7.375 35.425782c-1.90625 9.152343 3.96875 18.117187 13.121093 20.023437 1.164063.242187 2.324219.359375 3.46875.359375 7.847657 0 14.890626-5.496094 16.554688-13.484375l7.71875-37.085937zm0 0" fill="#ff7885"/><path d="m167.640625 297.375-31.265625-72.707031c-3.691406-8.589844.277344-18.546875 8.863281-22.238281 8.589844-3.695313 18.546875.273437 22.238281 8.863281l25.058594 58.273437 58.136719-20.019531c8.84375-3.042969 18.472656 1.65625 21.519531 10.496094 3.042969 8.839843-1.65625 18.472656-10.496094 21.515625l-72.992187 25.132812c-8.386719 2.890625-17.566406-1.183594-21.0625-9.316406zm0 0" fill="#f7a78d"/><path d="m153.277344 263.976562 30.738281-14.222656-16.539063-38.460937c-3.691406-8.585938-13.648437-12.558594-22.238281-8.863281-8.585937 3.691406-12.554687 13.648437-8.863281 22.238281zm0 0" fill="#4699f2"/><path d="m7.40625 506.820312c-8.484375-7.53125-9.257812-20.515624-1.726562-29l77.003906-86.757812 7.226562-65.660156c1.238282-11.277344 11.382813-19.417969 22.664063-18.171875 11.277343 1.242187 19.414062 11.390625 18.171875 22.667969l-7.941406 72.160156c-.464844 4.226562-2.230469 8.207031-5.054688 11.390625l-81.34375 91.644531c-7.53125 8.484375-20.515625 9.257812-29 1.726562zm0 0" fill="#414b82"/><path d="m142.035156 511.996094c-11.144531 0-20.292968-8.910156-20.527344-20.105469l-1.691406-80.097656-87.089844-50.453125c-9.816406-5.6875-13.164062-18.253906-7.480468-28.074219 5.6875-9.816406 18.257812-13.164063 28.074218-7.476563l97.085938 56.246094c6.207031 3.597656 10.089844 10.167969 10.238281 17.34375l1.9375 91.644532c.238281 11.339843-8.761719 20.730468-20.105469 20.96875-.144531.003906-.292968.003906-.441406.003906zm0 0" fill="#5f6e9b"/><path d="m23.832031 336.050781 103.878907 21.421875 49.007812-128.519531c4.820312-12.640625-1.515625-26.796875-14.15625-31.621094l-52-19.84375c-12.644531-4.824219-26.804688 1.511719-31.628906 14.15625zm0 0" fill="#64afff"/><path d="m213.144531 136.585938c0 22.617187-18.335937 40.949218-40.949219 40.949218-22.617187 0-40.949218-18.332031-40.949218-40.949218 0-22.617188 18.332031-40.949219 40.949218-40.949219 22.613282 0 40.949219 18.332031 40.949219 40.949219zm0 0" fill="#ffb69e"/><path d="m71.058594 319.191406-48.457032-64.652344c-6.445312-8.605468-3.332031-20.964843 6.398438-25.496093l78.878906-36.757813c8.472656-3.949218 18.542969-.28125 22.492188 8.195313 3.949218 8.472656.28125 18.542969-8.191406 22.492187l-59.980469 27.949219 35.949219 47.964844c5.605468 7.480469 4.085937 18.089843-3.394532 23.695312-7.496094 5.621094-18.101562 4.074219-23.695312-3.390625zm0 0" fill="#ffb69e"/><path d="m130.371094 200.480469c-3.945313-8.476563-14.015625-12.144531-22.492188-8.195313l-39.105468 18.222656 13.863281 30.890626 39.542969-18.425782c8.472656-3.949218 12.140624-14.019531 8.191406-22.492187zm0 0" fill="#4699f2"/><path d="m420.113281 498.128906-30.734375-89.421875c-.484375-1.414062-.8125-2.871093-.984375-4.355469l-10.859375-95.472656c-1.28125-11.273437 10.082032-21.453125 21.355469-22.734375 11.269531-1.28125 21.449219 6.816407 22.730469 18.089844l7.34375 93.242187 30.003906 87.296876c3.6875 10.730468-2.019531 22.417968-12.75 26.101562-10.777344 3.707031-22.433594-2.066406-26.105469-12.746094zm0 0" fill="#f7a78d"/><path d="m471.917969 319.691406-92.136719 8.226563-15.421875-134.890625c-2.265625-13.339844 5.449219-25.777344 17.230469-27.777344l37.171875-6.589844c11.78125-2 23.167969 7.195313 25.433593 20.535156zm0 0" fill="#ff6473"/><path d="m250.480469 269.457031c-2.703125-8.949219 2.359375-18.398437 11.308593-21.101562l79.800782-24.105469 54.863281-47.425781c7.074219-6.113281 17.761719-5.335938 23.875 1.738281 6.113281 7.070312 5.335937 17.761719-1.734375 23.875l-57.589844 49.78125c-1.796875 1.554688-3.902344 2.710938-6.175781 3.398438l-83.246094 25.148437c-8.949219 2.703125-18.394531-2.359375-21.101562-11.308594zm0 0" fill="#ffb69e"/><path d="m420.328125 178.558594c-6.113281-7.070313-16.800781-7.847656-23.875-1.734375l-19.515625 16.867187 21.460938 26.199219 20.195312-17.453125c7.070312-6.113281 7.847656-16.804688 1.734375-23.878906zm0 0" fill="#ff7885"/><path d="m329.515625 510.230469c-10.371094-4.597657-15.054687-16.734375-10.457031-27.105469l40.628906-91.644531c1.023438-2.308594 2.464844-4.414063 4.253906-6.199219l73.953125-73.945312c8.019531-8.023438 21.027344-8.023438 29.050781 0 8.019532 8.023437 8.019532 21.027343-.003906 29.050781l-71.246094 71.242187-39.078124 88.148438c-4.59375 10.367187-16.730469 15.050781-27.101563 10.453125zm0 0" fill="#ffb69e"/><path d="m418.878906 110.957031c-1.828125-10.761719-7.707031-19.816406-15.800781-25.886719 1.523437-2.804687 2.386719-6.019531 2.386719-9.433593 0-10.957031-8.882813-19.835938-19.839844-19.835938-10.953125 0-19.835938 8.878907-19.835938 19.835938 0 1.078125.109376 2.132812.277344 3.164062-19.152344 6.082031-31.390625 25.488281-27.933594 45.863281 3.785157 22.296876 24.929688 37.304688 47.226563 33.519532 22.292969-3.785156 37.300781-24.925782 33.519531-47.226563zm0 0" fill="#ffb69e"/><path d="m418.878906 110.957031c-1.828125-10.761719-7.707031-19.816406-15.800781-25.886719 1.523437-2.804687 2.386719-6.019531 2.386719-9.433593 0-10.957031-8.882813-19.835938-19.839844-19.835938s-19.835938 8.878907-19.835938 19.835938c0 1.078125.109376 2.132812.277344 3.164062-13.429687 4.265625-23.453125 15.085938-27.054687 28.195313 7.074219 3.113281 15.105469 4.265625 23.296875 2.875 4.539062-.769532 8.765625-2.269532 12.605468-4.34375 7.136719 16.367187 24.421876 26.589844 42.761719 24.210937 1.800781-5.894531 2.300781-12.285156 1.203125-18.78125zm0 0" fill="#80391b"/><path d="m377.535156 307.121094-13.113281 50.773437c-1.914063 5.8125 2.414063 11.796875 8.53125 11.796875h100.15625c5.691406 0 9.945313-5.222656 8.796875-10.792968l-15.175781-65.496094zm0 0" fill="#ff6473"/></svg>