<svg width="51" height="53" viewBox="0 0 51 53" fill="none" xmlns="http://www.w3.org/2000/svg">
<g clip-path="url(#clip0)" filter="url(#filter0_d)">
<path d="M30.8231 37.9688H10.8019C8.16188 37.9688 6.01313 35.8219 6.01313 33.18V6.195C6.01313 3.555 8.16 1.40625 10.8019 1.40625H30.825C33.465 1.40625 35.6137 3.55312 35.6137 6.195V33.1819C35.6119 35.8219 33.465 37.9688 30.8231 37.9688Z" fill="#6A727C"/>
<path d="M39.8906 43.125H20.4844C17.925 43.125 15.8438 41.0438 15.8438 38.4844V14.0156C15.8438 11.4562 17.925 9.375 20.4844 9.375H39.8906C42.45 9.375 44.5312 11.4562 44.5312 14.0156V38.4844C44.5312 41.0438 42.45 43.125 39.8906 43.125Z" fill="#FFD300"/>
<path d="M37.2188 31.875H23.1562C22.38 31.875 21.75 31.245 21.75 30.4688C21.75 29.6925 22.38 29.0625 23.1562 29.0625H37.2188C37.995 29.0625 38.625 29.6925 38.625 30.4688C38.625 31.245 37.995 31.875 37.2188 31.875Z" fill="black"/>
<path d="M37.2188 39.375H23.1562C22.38 39.375 21.75 38.745 21.75 37.9688C21.75 37.1925 22.38 36.5625 23.1562 36.5625H37.2188C37.995 36.5625 38.625 37.1925 38.625 37.9688C38.625 38.745 37.995 39.375 37.2188 39.375Z" fill="black"/>
<path d="M37.2188 25.3125H23.1562C22.38 25.3125 21.75 24.6825 21.75 23.9062C21.75 23.13 22.38 22.5 23.1562 22.5H37.2188C37.995 22.5 38.625 23.13 38.625 23.9062C38.625 24.6825 37.995 25.3125 37.2188 25.3125Z" fill="black"/>
<path d="M37.2188 17.8125H23.1562C22.38 17.8125 21.75 17.1825 21.75 16.4062C21.75 15.63 22.38 15 23.1562 15H37.2188C37.995 15 38.625 15.63 38.625 16.4062C38.625 17.1825 37.995 17.8125 37.2188 17.8125Z" fill="black"/>
<path d="M10.0312 39.375C7.18687 39.375 4.875 37.0631 4.875 34.2188V5.15625C4.875 2.31188 7.18687 0 10.0312 0H31.5938C33.4313 0 35.1375 0.99 36.0431 2.5875C36.4275 3.2625 36.1894 4.12125 35.5144 4.50375C34.8394 4.88438 33.9788 4.64812 33.5981 3.975C33.1856 3.24562 32.4356 2.8125 31.5956 2.8125H10.0312C8.73937 2.8125 7.6875 3.86437 7.6875 5.15625V34.2188C7.6875 35.5106 8.73937 36.5625 10.0312 36.5625C10.8075 36.5625 11.4375 37.1925 11.4375 37.9688C11.4375 38.745 10.8075 39.375 10.0312 39.375Z" fill="black"/>
<path d="M40.9688 45H19.4062C16.5619 45 14.25 42.6881 14.25 39.8438V12.6563C14.25 9.81188 16.5619 7.5 19.4062 7.5H40.9688C43.8131 7.5 46.125 9.81188 46.125 12.6563V39.8438C46.125 42.6881 43.8131 45 40.9688 45ZM19.4062 10.3125C18.1144 10.3125 17.0625 11.3644 17.0625 12.6563V39.8438C17.0625 41.1356 18.1144 42.1875 19.4062 42.1875H40.9688C42.2606 42.1875 43.3125 41.1356 43.3125 39.8438V12.6563C43.3125 11.3644 42.2606 10.3125 40.9688 10.3125H19.4062Z" fill="black"/>
</g>
<defs>
<filter id="filter0_d" x="-1" y="0" width="53" height="53" filterUnits="userSpaceOnUse" color-interpolation-filters="sRGB">
<feFlood flood-opacity="0" result="BackgroundImageFix"/>
<feColorMatrix in="SourceAlpha" type="matrix" values="0 0 0 0 0 0 0 0 0 0 0 0 0 0 0 0 0 0 127 0"/>
<feOffset dy="4"/>
<feGaussianBlur stdDeviation="2"/>
<feColorMatrix type="matrix" values="0 0 0 0 0 0 0 0 0 0 0 0 0 0 0 0 0 0 0.25 0"/>
<feBlend mode="normal" in2="BackgroundImageFix" result="effect1_dropShadow"/>
<feBlend mode="normal" in="SourceGraphic" in2="effect1_dropShadow" result="shape"/>
</filter>
<clipPath id="clip0">
<rect width="45" height="45" fill="white" transform="translate(3)"/>
</clipPath>
</defs>
</svg>
