<svg width="150" height="150" viewBox="0 0 150 150" fill="none" xmlns="http://www.w3.org/2000/svg">
<path d="M59.6191 30.0293C55.9788 30.0293 53.0273 32.9807 53.0273 36.6211C53.0273 40.2615 55.9788 43.2129 59.6191 43.2129H75V30.0293H59.6191Z" fill="#85453D"/>
<path d="M90.3809 30.0293H75V43.2129H90.3809C94.0224 43.2129 96.9727 40.2615 96.9727 36.6211C96.9727 32.9807 94.0224 30.0293 90.3809 30.0293Z" fill="#60312C"/>
<path d="M75 16.8457V30.4264H85.1646V21.6373C82.7477 18.7134 79.0924 16.8457 75 16.8457Z" fill="#60312C"/>
<path d="M64.8353 30.4264V21.6373C67.2523 18.7134 70.9076 16.8457 75 16.8457C76.7841 16.8457 78.3165 20.0329 79.0054 24.6094C78.9665 24.5911 79.0054 30.4264 79.0054 30.4264H64.8353Z" fill="#85453D"/>
<path d="M85.1646 21.6373C84.8511 22.9706 83.9264 24.1379 82.5668 24.7032C81.2084 25.2651 79.731 25.0923 78.5683 24.3725L75 43.2129C82.2807 43.2129 88.1836 37.31 88.1836 30.0293C88.1836 26.8421 87.0483 23.9193 85.1646 21.6373Z" fill="#F5BF93"/>
<path d="M79.0054 24.6094C78.8555 24.5396 78.709 24.4594 78.5683 24.3725C77.7718 25.4825 76.4706 26.2058 75 26.2058C73.8052 26.2058 72.7238 25.7286 71.9296 24.9527C71.7476 24.773 71.5805 24.5796 71.4317 24.3725C70.269 25.0923 68.7916 25.2651 67.4332 24.7032C66.8381 24.4572 66.3277 24.0932 65.9122 23.6515C65.3824 23.0862 65.0116 22.3869 64.8354 21.6373C62.9517 23.9193 61.8164 26.8421 61.8164 30.0293C61.8164 37.31 67.7193 43.2129 75 43.2129C77.4261 43.2129 79.3945 37.31 79.3945 30.0293C79.3945 28.0952 79.2538 26.2619 79.0054 24.6094Z" fill="#FAD5B3"/>
<path d="M82.3242 52.002H75L61.8164 84.2285H88.1836V57.8613C88.1836 54.6249 85.5595 52.002 82.3242 52.002Z" fill="#DBF4FF"/>
<path d="M75 52.002H67.6758C64.4394 52.002 61.8164 54.6249 61.8164 57.8613V84.2285H75V52.002Z" fill="white"/>
<path d="M88.1836 75.4395H79.3945L83.7891 97.4121H92.5781V87.0598C92.5781 82.6035 90.9164 78.5374 88.1836 75.4395Z" fill="#002F42"/>
<path d="M79.3945 75.4395H61.8164C59.0836 78.5374 57.4219 82.6035 57.4219 87.0598V97.4121H83.7891V87.0598C83.7879 82.6035 82.1274 78.5374 79.3945 75.4395Z" fill="#084F6D"/>
<path d="M114.844 66.6504L119.238 93.0176C126.519 93.0176 132.422 87.1147 132.422 79.834L114.844 66.6504Z" fill="#002F42"/>
<path d="M106.055 79.834C106.055 87.1147 111.958 93.0176 119.238 93.0176V66.6504L106.055 79.834Z" fill="#084F6D"/>
<path d="M128.027 52.002L119.238 51.9985L110.449 65.9146L119.238 79.8306L132.422 79.834V56.3965L128.027 52.002Z" fill="#DBF4FF"/>
<path d="M119.238 51.9985L110.449 52.002L106.055 56.3965V79.834L119.238 79.8306V51.9985Z" fill="white"/>
<path d="M107.522 52.002C104.285 52.002 101.662 54.6249 101.662 57.8613L101.66 89.6587H110.449V52.002H107.522Z" fill="#1990C2"/>
<path d="M130.957 52.002H128.027V89.6587H136.816V57.8613C136.816 54.6249 134.193 52.002 130.957 52.002Z" fill="#116F97"/>
<path d="M119.238 16.8457V43.2129C126.519 43.2129 132.422 37.31 132.422 30.0293C132.422 22.7486 126.519 16.8457 119.238 16.8457Z" fill="#FFB4A9"/>
<path d="M123.633 30.0293C123.633 22.7486 121.666 16.8457 119.238 16.8457C111.958 16.8457 106.055 22.7486 106.055 30.0293C106.055 37.31 111.958 43.2129 119.238 43.2129C121.666 43.2129 123.633 37.31 123.633 30.0293Z" fill="#FFD9D0"/>
<path d="M26.3672 66.6504L30.7617 93.0176C38.0424 93.0176 43.9453 87.1147 43.9453 79.834L26.3672 66.6504Z" fill="#002F42"/>
<path d="M17.5781 79.834C17.5781 87.1147 23.481 93.0176 30.7617 93.0176V66.6504L17.5781 79.834Z" fill="#084F6D"/>
<path d="M39.5508 52.002L30.7617 51.9985L21.9727 65.9146L30.7617 79.8306L43.9453 79.834V56.3965L39.5508 52.002Z" fill="#DBF4FF"/>
<path d="M30.7617 51.9985L21.9727 52.002L17.5781 56.3965V79.834L30.7617 79.8306V51.9985Z" fill="white"/>
<path d="M19.0453 52.002C15.8089 52.002 13.1859 54.6249 13.1859 57.8613L13.1836 89.6587H21.9727V52.002H19.0453Z" fill="#1990C2"/>
<path d="M42.4805 52.002H39.5508V89.6587H48.3398V57.8613C48.3398 54.6249 45.7169 52.002 42.4805 52.002Z" fill="#116F97"/>
<path d="M34.8907 25.502L30.7617 43.2128C38.0424 43.2128 43.9453 37.31 43.9453 30.0292L34.8907 25.502Z" fill="#FFD9D4"/>
<path d="M35.1562 30.0293C35.1562 28.4385 35.0624 26.9142 34.8907 25.502L22.8504 19.4835C19.6495 21.8879 17.5781 25.7171 17.5781 30.0293C17.5781 37.31 23.481 43.2129 30.7617 43.2129C33.189 43.2129 35.1562 37.31 35.1562 30.0293Z" fill="#FFF0D3"/>
<path d="M30.7617 16.8457L35.1265 28.5152C37.8845 29.4937 40.852 30.0293 43.9453 30.0293C43.9453 22.7486 38.0424 16.8457 30.7617 16.8457Z" fill="#FFA754"/>
<path d="M30.7617 16.8457C27.7931 16.8457 25.0545 17.8276 22.8504 19.4836C25.9357 23.5909 30.1941 26.7654 35.1265 28.5152C34.8759 21.9475 33.0173 16.8457 30.7617 16.8457Z" fill="#FFCB63"/>
<path d="M90.3809 27.832H90.2218C89.1518 20.3888 82.7351 14.6484 75 14.6484C67.2649 14.6484 60.8482 20.3888 59.7782 27.832H59.6191C54.7737 27.832 50.8301 31.7745 50.8301 36.6211C50.8301 41.4677 54.7737 45.4102 59.6191 45.4102H90.3809C95.2274 45.4102 99.1699 41.4677 99.1699 36.6211C99.1699 31.7745 95.2274 27.832 90.3809 27.832ZM75 41.0156C68.9438 41.0156 64.016 36.0889 64.0137 30.0327C64.0148 28.4924 64.3318 27.0332 64.9006 25.7069C65.4041 26.1269 65.9729 26.4759 66.592 26.7334C67.9733 27.3056 69.5 27.38 70.9122 26.9794C72.0646 27.8893 73.5031 28.4031 75 28.4031C76.4957 28.4031 77.9354 27.8893 79.0867 26.9794C80.5 27.3788 82.0267 27.3033 83.4114 26.7323C84.0282 26.4748 84.5959 26.1269 85.0983 25.7069C85.6693 27.0344 85.9863 28.4958 85.9863 30.0293C85.9863 36.0878 81.0585 41.0156 75 41.0156ZM82.5588 22.0676C82.3368 22.3286 82.0553 22.5368 81.728 22.673C81.0677 22.9465 80.3387 22.8848 79.7253 22.5048C78.7434 21.896 77.457 22.1523 76.783 23.0907C76.3641 23.6744 75.7153 24.0086 75 24.0086C74.2847 24.0086 73.6359 23.6744 73.217 23.0907C72.543 22.1523 71.2578 21.8948 70.2747 22.5048C69.6613 22.8848 68.9312 22.9454 68.2766 22.6742C67.947 22.5369 67.6643 22.3286 67.4423 22.0676C69.413 20.1954 72.0737 19.043 75 19.043C77.9263 19.043 80.587 20.1954 82.5588 22.0676ZM59.6191 41.0156C57.1964 41.0156 55.2246 39.0438 55.2246 36.6211C55.2246 34.1984 57.1964 32.2266 59.6191 32.2266H59.7782C60.2703 35.6472 61.8908 38.7062 64.2506 41.0156H59.6191ZM90.3809 41.0156H85.7494C88.1092 38.7062 89.7297 35.6472 90.2218 32.2266H90.3809C92.8047 32.2266 94.7754 34.1984 94.7754 36.6211C94.7754 39.0438 92.8047 41.0156 90.3809 41.0156Z" fill="black"/>
<path d="M93.2728 131.07L85.9864 128.641V99.6094H92.577C93.7912 99.6094 94.7743 98.6263 94.7743 97.4121V87.0598C94.7743 82.5268 93.2202 78.1483 90.3797 74.6361V57.8613C90.3797 53.4187 86.7657 49.8047 82.3231 49.8047H67.6758C63.2332 49.8047 59.6192 53.4187 59.6192 57.8613V74.6361C56.7787 78.1483 55.2246 82.5279 55.2246 87.0598V97.4121C55.2246 98.6263 56.2077 99.6094 57.4219 99.6094H64.0137V128.641L56.7272 131.07C55.576 131.454 54.9534 132.698 55.3379 133.849C55.6446 134.77 56.5018 135.353 57.4219 135.353C57.6519 135.353 57.8865 135.316 58.1166 135.238L66.9056 132.309C67.8028 132.01 68.4082 131.17 68.4082 130.225V99.6094H81.5918V130.225C81.5918 131.171 82.1972 132.01 83.0944 132.309L91.8835 135.238C92.1135 135.316 92.3481 135.353 92.5782 135.353C93.4983 135.353 94.3554 134.77 94.6621 133.849C95.0466 132.698 94.4241 131.454 93.2728 131.07ZM67.6758 54.1992H72.8028V66.647C72.8028 67.8612 73.7858 68.8442 75 68.8442C76.2142 68.8442 77.1973 67.8612 77.1973 66.647V54.1992H82.3231C84.343 54.1992 85.9852 55.8414 85.9852 57.8613V73.2422H64.0137V57.8613C64.0137 55.8414 65.6559 54.1992 67.6758 54.1992ZM59.6192 87.0598C59.6192 83.6357 60.7624 80.3272 62.8533 77.6367H87.1468C89.2365 80.3272 90.3809 83.6357 90.3809 87.0598V95.2148H59.6192V87.0598Z" fill="black"/>
<path d="M136.816 91.856C138.031 91.856 139.014 90.873 139.014 89.6587V81.8447C145.24 80.7953 150 75.3685 150 68.8477C150 62.2341 145.104 56.7444 138.747 55.8071C137.836 52.3567 134.689 49.8047 130.957 49.8047H107.52C103.077 49.8047 99.4629 53.4187 99.4629 57.8613V89.6587C99.4629 90.873 100.446 91.856 101.66 91.856H108.252V128.641L100.966 131.07C99.8143 131.454 99.1917 132.698 99.5762 133.849C99.8829 134.77 100.74 135.353 101.66 135.353C101.89 135.353 102.125 135.316 102.355 135.238L111.144 132.309C112.041 132.01 112.647 131.17 112.647 130.225V93.7294C114.689 94.6987 116.936 95.2148 119.238 95.2148C121.541 95.2148 123.787 94.6987 125.83 93.7294V130.225C125.83 131.171 126.435 132.01 127.333 132.309L136.122 135.238C136.352 135.316 136.586 135.353 136.816 135.353C137.737 135.353 138.594 134.77 138.9 133.849C139.285 132.698 138.662 131.454 137.511 131.07L130.225 128.641V91.856H136.816ZM145.605 68.8477C145.605 72.9355 142.801 76.3802 139.014 77.3586V60.3367C142.801 61.3152 145.605 64.7598 145.605 68.8477ZM134.619 57.8613V87.4615H130.225V54.1992H130.957C132.977 54.1992 134.619 55.8414 134.619 57.8613ZM112.647 54.1992H117.041V71.0415C117.041 72.2557 118.024 73.2388 119.238 73.2388C120.453 73.2388 121.436 72.2557 121.436 71.0415V54.1992H125.83V77.6367H112.647V54.1992ZM103.857 87.4615V57.8613C103.857 55.8414 105.5 54.1992 107.52 54.1992H108.252V87.4615H103.857ZM119.238 90.8203C116.848 90.8203 114.542 90.0444 112.647 88.6219V82.0312H125.83V88.6219C123.935 90.0455 121.629 90.8203 119.238 90.8203Z" fill="black"/>
<path d="M119.238 45.4102C127.719 45.4102 134.619 38.5105 134.619 30.0293C134.619 21.5481 127.719 14.6484 119.238 14.6484C110.757 14.6484 103.857 21.5481 103.857 30.0293C103.857 38.5105 110.757 45.4102 119.238 45.4102ZM119.238 19.043C125.297 19.043 130.225 23.9708 130.225 30.0293C130.225 36.0878 125.297 41.0156 119.238 41.0156C113.18 41.0156 108.252 36.0878 108.252 30.0293C108.252 23.9708 113.18 19.043 119.238 19.043Z" fill="black"/>
<path d="M49.0345 131.07L41.748 128.641V91.856H48.3398C49.5541 91.856 50.5371 90.873 50.5371 89.6587V57.8613C50.5371 53.4187 46.9231 49.8047 42.4805 49.8047H19.043C15.3111 49.8047 12.1639 52.3567 11.253 55.8071C4.89578 56.7444 0 62.2341 0 68.8477C0 75.3685 4.7596 80.7953 10.9863 81.8447V89.6587C10.9863 90.873 11.9694 91.856 13.1836 91.856H19.7754V128.641L12.4889 131.07C11.3377 131.454 10.7151 132.698 11.0996 133.849C11.4063 134.77 12.2635 135.353 13.1836 135.353C13.4136 135.353 13.6482 135.316 13.8783 135.238L22.6673 132.309C23.5645 132.01 24.1699 131.17 24.1699 130.225V93.7294C26.2127 94.6987 28.4592 95.2148 30.7617 95.2148C33.0643 95.2148 35.3107 94.6987 37.3535 93.7294V130.225C37.3535 131.171 37.9589 132.01 38.8561 132.309L47.6452 135.238C47.8752 135.316 48.1098 135.353 48.3398 135.353C49.2599 135.353 50.1171 134.77 50.4238 133.849C50.8083 132.698 50.1858 131.454 49.0345 131.07ZM46.1426 57.8613V87.4615H41.748V54.1992H42.4805C44.5004 54.1992 46.1426 55.8414 46.1426 57.8613ZM24.1699 54.1992H28.5645V71.0415C28.5645 72.2557 29.5475 73.2388 30.7617 73.2388C31.9759 73.2388 32.959 72.2557 32.959 71.0415V54.1992H37.3535V77.6367H24.1699V54.1992ZM4.39453 68.8477C4.39453 64.7598 7.19948 61.3152 10.9863 60.3367V77.3586C7.19948 76.3802 4.39453 72.9355 4.39453 68.8477ZM15.3809 87.4615V57.8613C15.3809 55.8414 17.0231 54.1992 19.043 54.1992H19.7754V87.4615H15.3809ZM30.7617 90.8203C28.371 90.8203 26.0651 90.0444 24.1699 88.6219V82.0312H37.3535V88.6219C35.4584 90.0455 33.1524 90.8203 30.7617 90.8203Z" fill="black"/>
<path d="M30.7617 45.4102C39.2429 45.4102 46.1426 38.5105 46.1426 30.0293C46.1426 21.5481 39.2429 14.6484 30.7617 14.6484C22.2805 14.6484 15.3809 21.5481 15.3809 30.0293C15.3809 38.5105 22.2805 45.4102 30.7617 45.4102ZM41.4997 27.7084C35.5946 27.1225 30.1964 24.424 26.1784 20.0489C27.5745 19.4046 29.1264 19.043 30.7617 19.043C36.0237 19.043 40.4308 22.7623 41.4997 27.7084ZM22.617 22.6639C27.507 28.1731 34.211 31.525 41.5443 32.127C40.5624 37.1853 36.1027 41.0156 30.7617 41.0156C24.7032 41.0156 19.7754 36.0878 19.7754 30.0293C19.7754 27.198 20.8523 24.614 22.617 22.6639Z" fill="black"/>
</svg>
