<svg xmlns="http://www.w3.org/2000/svg" viewBox="0 0 935.84 865.96"><defs><style>.cls-1{fill:#fad104;}.cls-2{fill:#f5fafe;}</style></defs><g id="Шар_2" data-name="Шар 2"><g id="Фон_Зображення" data-name="Фон Зображення"><path class="cls-1" d="M867.37,307a9.75,9.75,0,0,1-5.9-2.55,31.7,31.7,0,0,0-10-6.18c-5-2-8.89-5.67-13.57-8.14-6.94-3.66-13.91-7.25-20.51-11.62-4-2.66-8.92-4.22-13.16-6.71-8.54-5-17.7-8.63-26.65-12.7-8.46-3.85-17.35-6.81-25.59-11.06-9.08-4.68-19-7.33-27.82-12.65-2.94-1.78-6.49-2.52-9.68-3.94-9-4-17.72-8.42-26.81-12.07-12.12-4.88-23.8-10.73-35.92-15.62-6.29-2.54-12.49-5.48-18.65-8.41-5.72-2.73-11.59-5.16-17.38-7.75-6.79-3-13.69-5.79-20.34-9.18-6-3-12.45-5-18.48-7.92-9-4.33-18.25-7.9-27.27-12.09-9.56-4.45-19.43-8.34-29-12.77-8.78-4.06-17.92-7.3-26.49-11.9-7.52-4-15.64-7-23.5-10.34a4.08,4.08,0,0,0-3.3,0c-8.55,4-17.32,7.44-25.79,11.6-5.8,2.85-12.06,4.76-17.86,7.61-14,6.9-28.58,12.71-42.79,19.21-11.83,5.42-23.69,10.94-35.92,15.56-6.47,2.44-12.45,6.21-18.9,8.73-5.46,2.13-10.72,4.65-16,7.08-7,3.2-14.24,5.78-21.08,9.38-5.93,3.11-12.39,5.19-18.55,7.89q-18.78,8.22-37.47,16.62c-13.26,6-26.65,11.67-39.91,17.64-11.31,5.09-22.64,10.16-34,15-6.58,2.81-13,6-19.61,8.76-3.5,1.45-6.79,3.76-10.31,5.49-10.39,5.13-20.28,11.22-30.3,17-7.55,4.34-15.61,8-22.6,13.34-2.2,1.7-5,2.62-7.52,3.88-.84.42-1.36-.21-2-.6-8.07-5.05-16.39-9.73-24.14-15.22-6-4.21-12.23-7.93-18.18-12.16-7.09-5.05-14.77-9.29-22.24-13.8-1-.58-2.21-.71-2.11-2.19s1.2-1.65,2.18-2.24C12,256.13,22.29,251.18,32,245c7.21-4.6,15-8.26,22.5-12.45,10.37-5.81,20.67-11.77,31-17.6,8.87-5,17.65-10.11,26.69-14.81,6.71-3.48,13-7.78,19.53-11.57q8.39-4.84,17-9.32c6.29-3.29,12.14-7.37,18.41-10.61,9.29-4.79,18.17-10.26,27.26-15.37,7.48-4.2,15.17-8,22.33-12.81,3.27-2.19,6.88-3.86,10.29-5.85,11.77-6.9,24-13,35.71-20,10.75-6.45,22.13-11.88,32.76-18.53,9.36-5.86,19.33-10.61,28.76-16.37,8.21-5,16.69-9.75,25.23-14.29,9.54-5.06,18.82-10.6,28.27-15.82,11-6,21.76-12.41,32.71-18.49,11.28-6.26,22.38-12.91,33.67-19.17,5.66-3.14,11-6.77,16.71-9.8,7.26-3.86,14-2.12,20.74,1.92,9.05,5.43,18.41,10.33,27.58,15.55,9.69,5.53,19.27,11.24,29,16.73,10.49,5.93,21.33,11.28,31.53,17.67,7.7,4.82,15.93,8.6,23.64,13.39,8,5,16.56,9.1,24.78,13.75,6.9,3.9,13.8,7.86,20.48,12.13,3,1.91,6.23,3.12,9.31,4.75,11.55,6.09,22.68,12.93,34.06,19.3,9.42,5.27,19.21,10.05,28.09,16.36,4.93,3.5,10.83,5.51,16,8.84,10.94,7.11,22.9,12.39,34,19.24,11.72,7.22,24,13.47,36,20.27,5.29,3,10.23,6.66,15.65,9.37s10.47,5.59,15.62,8.6c10.19,5.94,20.86,11.08,30.94,17.18,11.17,6.76,22.72,12.82,34,19.3,6.45,3.7,12.59,8,19.22,11.31,7.57,3.79,14.69,8.29,22,12.48,2.9,1.65,3.26,3.06.53,4.74-3.58,2.2-7.36,4.07-10.9,6.39-5.65,3.72-11.68,6.86-17.27,10.73s-11,8.41-17.34,11.3a15.19,15.19,0,0,0-4.79,3.41c-4.23,4.55-10.85,5.43-15,10C868.39,307.14,867.68,307,867.37,307Z"/><path class="cls-2" d="M146.19,539.05c.59-25.23.13-50.46-.42-75.68-.43-19.61-.93-39.23-2-58.8a49.36,49.36,0,0,0-6.92-22.67c-3.43-5.75-8.78-8-14.8-8.88-7.91-1.09-13.67-4.88-16.36-12.34s-1.36-14.52,4.3-20.45c2.38-2.49,5.7-2.32,8.67-2.85,19.67-3.5,39.62-4.83,59.43-7.21,11.88-1.44,23.92-1.75,35.89-2.08,21-.57,41.93-2.13,62.91-1.55,14.88.41,29.72-.23,44.57-.43A417.61,417.61,0,0,1,382.67,330c11.65,1.56,23.68,3.7,34.08,9.41,15.83,8.67,30.72,18.79,41.85,33.66,10.54,14.08,18.66,29.45,26,45.32,2.13,4.62,3.73,9.49,5.48,14.28a5.29,5.29,0,0,0,3.36,3.61c3.72,1.38,4.36,3.66,2.23,7-.71,1.12-1.22,2-.67,3.43a199.4,199.4,0,0,1,11.57,44.4c2.56,17.28,4,34.64,1.74,52.24a228.38,228.38,0,0,1-6.22,32.27,99.09,99.09,0,0,1-4.42,13.08,66,66,0,0,0-4.35,15c-4.14,22.58-17.22,39.34-35.33,52.66a169.81,169.81,0,0,1-39.67,21.42,274.45,274.45,0,0,1-33.49,10.39c-15.66,3.84-31.53,6.2-47.46,8.42-5.38.75-10.83,1.24-16.19,2-4.87.72-10.32.34-15.52.47-29,.78-57.93.48-86.9-.41-4.6-.14-8.94-.56-13.46-1-14.5-1.5-29.14-1.73-43.73-2.14-10.25-.28-20.49-.72-30.65-1.87-5-.57-10.25-1.87-14.22-5.8a8,8,0,0,1-2.11-8.61c2-6.09,5-11.65,10.27-15.73,4.11-3.21,8.46-6.14,11.58-10.51,6.48-9.08,9.23-19.39,9.42-30.26.39-23,.27-46,.36-69C146.21,548.79,146.19,543.92,146.19,539.05Zm111.9,69c1.56-.26,3.08-1.47,4.66-.76,3.77,1.68,4.2-.54,4.26-3.39,0-1.86.15-3.72.13-5.57,0-1.58-1.22-2.25-2.11-1.11-2.62,3.32-6.28,5.93-7.47,10.28-.41.29-.75.62-.18,1C257.46,608.58,257.85,608.22,258.09,608.05Zm110.77,13.33c2-.31,2.27-2.16,3-3.52,4.71-9.06,10.59-17.47,14.74-26.86-5.61,6.71-10.9,13.7-14.93,21.44-1.37,2.62-3.67,5.47-2.73,9-.86,0-1.32.36-1.27,1.22,0,.16.3.46.37.44C368.91,622.84,368.67,622,368.86,621.38Zm-166.34-225c-3.64,2.66-7.34,5.24-10.91,8-9.55,7.36-19.92,13.71-28,22.94-1.79,2.06-3.64,4.81-6,5.49-4.71,1.36-4.2,4.52-4,7.87.09,1.61.46,3.21.57,4.83.22,3.53,1.82,3.3,4,1.56a12.92,12.92,0,0,0,2.3-1.9c10.74-13.63,22.32-26.53,33.89-39.45,2.75-3.08,5.41-6.23,8.1-9.35l0-.13ZM213,466.82c6.4-2.58,10.33-8,14.73-12.86,6-6.66,12-13.37,18.08-20,2.71-2.93,5.41-3.11,7.14-.15,2.14,3.68,3.11,1.71,4.92-.15C265,426.36,269,418,267,407.53c-.33-1.72,1.11-4.3-.89-5s-3,1.82-4.11,3.24c-1.52,2-4.69,3.11-4,6.32.56,2.45-.52,4.17-1.93,5.75-7.29,8.21-14.69,16.31-22,24.52s-15,15.61-21.22,24.51l-.11.58-.41-.31ZM276,509.38h.81c0,37.73-.05,75.47.06,113.2a100.82,100.82,0,0,0,1.51,18.19c2.13,11.58,10.89,18.72,23.2,19.17,7,.25,14,.08,21-.27a8.29,8.29,0,0,0,4.5-1.57,91.73,91.73,0,0,0,22-22.17c3.84-5.35,7.84-10.89,9.56-17.22a89.91,89.91,0,0,1,4.79-14c1.14-2.49,2.81-4.86,3.36-7.47,2-9.51,4.42-19,5.25-28.69A483.89,483.89,0,0,0,373.56,502c-1.38-26.19-2.33-52.39-8.49-78-1.57-6.52-1.93-13.8-6-19.1s-5.07-11.79-8.49-17.31c-3.86-6.21-7.74-12.15-13.7-16.51s-12.58-6.49-19.8-8.07c-12-2.64-23-.42-33.72,4.63-3.34,1.57-5.71,3.58-4.38,7.82a3.5,3.5,0,0,1-.83,3.85c-2.3,1.85-2.14,4.29-2.14,6.81Q276,447.73,276,509.38ZM231.25,610c5.9-5.71,12.07-11.17,17.61-17.22,4.16-4.55,9.21-5.72,14.63-4.87,3.79.59,3.81-.79,3.8-3.6-.11-23.62-.13-47.24-.18-70.86,0-7.74,0-15.49-.08-23.24,0-1,.52-2.55-.93-2.89-1.26-.29-1.8,1-2.42,2-.82,1.25-2,2.3-2.62,3.63-.82,1.75-4.8,2.93-2.15,5.22,2.23,1.95.66,4.53,2.42,6.33,4.1,4.19,3.89,6.75,0,11.09-3.39,3.82-6.52,7.87-9.74,11.84-.59.74-1.55,1.55-.73,2.6.71.89,1.57.1,2.38-.11,3.64-.93,6.88,1.61,6.2,5.11-.8,4.15-1.65,8.31-3.81,12.06-1.62,2.81-3.11,5.68-4.62,8.54-.4.75-1,1.58-.22,2.4a1.48,1.48,0,0,0,2,0c2.21-1.53,4.26-2,6.18.48s1.34,4.76-.32,7.16c-5.18,7.48-11.5,14.13-16.16,22C238.32,594.8,233.61,601.7,231.25,610Zm-21.54-89.22a14.75,14.75,0,0,0,5.78-2.86c6.38-5.57,12.68-11.23,19.13-16.71,7.31-6.21,14.72-12.29,22.14-18.36,2.18-1.78,4.62-2.53,7.14-.46.67.55,1.32,1.31,2.27.89,1.19-.53.77-1.72.78-2.65.05-3.74,0-7.49,0-11.24q-.06-13.29-.13-26.58c0-1.11.27-2.44-1-3-1.39-.65-1.93.67-2.6,1.53-1.62,2.06-3.32,4.06-4.78,6.22-.72,1.06-2.07,2.34-1.19,3.7,2,3.17-.15,5.21-1.73,7.34-12.4,16.71-24.89,33.35-37.26,50.07C215.53,512.45,212.26,515.87,209.71,520.81Zm250.13-87.34c-6.27,3.14-11.24,7-16.24,10.83-13,9.91-24.58,21.51-38.22,30.54-5.84,3.87-11.37,8.63-18.92,9-2.15.11-1.7,1.79-1.69,3.08q.14,14,.36,28.07c0,.89-.46,2.21,1,2.41,1.3.18,1.5-1.07,2-1.91a152.9,152.9,0,0,1,15.19-21.72c15.3-18.47,33.11-34.54,49.66-51.81C455.31,439.55,458.39,437.65,459.84,433.47Zm-250.42-96c-6.68.53-13.37,1-20,1.61a2.9,2.9,0,0,0-1.68.69c-5.41,5-11.93,8.56-17.67,13.15-5.15,4.12-10.3,8.26-15.34,12.52-2.79,2.35-4.93,2-7.34-.65-2.58-2.87-.63-4.49,1.26-6.18,2.78-2.48,5.7-4.81,8.48-7.3.71-.63,2.58-1,1.49-2.41-.74-.93-2.06-.25-3,.48a129.57,129.57,0,0,0-16.31,15.37c-1.16,1.27-1.33,2.81.24,3.4,4.39,1.67,6,5.62,7.58,9.29,1.49,3.36,2.64,3.06,5,.93A250,250,0,0,1,197.7,345.5C201.76,343.24,206.43,341.9,209.42,337.48ZM226.3,427c-5.63,2.1-11,4.51-14.66,8.59-18,20.05-35.93,40.13-53.27,60.74-1.87,2.23-3,4.56-2.63,7.51.14,1.05-.44,2.49.89,3s1.92-.73,2.68-1.57q8.25-9.18,16.56-18.3c13.83-15.23,27.93-30.23,40.63-46.44C219.93,436.11,223,431.49,226.3,427Zm228.2,55.67c-3.61,2.11-6.05,5.25-8.79,8-19.67,19.85-38.5,40.41-54.41,63.49-1.62,2.36-3.42,5.1-7.16,4.43a1.63,1.63,0,0,0-2,1.66c-.21,3-.38,6-.57,9.08,1.9,0,2.25-1.18,2.87-2.1a320.34,320.34,0,0,1,26.19-34.41c7.08-8.07,14.66-15.63,22.46-23,1.86-1.75,4.36-3.33,6.27-1.41,3.32,3.34,5.1,1.12,7.25-1a57.69,57.69,0,0,1,4.6-4.39c1.72-1.38,3.16-3.83,5.46-3.68,5.79.39,5.59-4.33,7.94-8a7.76,7.76,0,0,0-4.52,2.35c-1.88,1.73-4.14,2.13-6.14.63s-2.62-3.7-1.17-6.29C453.59,486.51,455.22,485.11,454.5,482.65Zm2.48-16.6-.84-.79c-1.07.83-2.09,1.72-3.21,2.47a235.76,235.76,0,0,0-47.36,42.6c-3.79,4.45-7.26,9.18-11,13.66-2,2.43-3.93,5.47-8,3.55-.92-.43-1.7.08-1.75,1.25-.27,5.8-.91,11.6-.06,17.65C406.43,517.44,431.27,491.36,457,466.05ZM370.4,404.89c1.94.09,2.59-1.37,3.46-2.31,9.51-10.37,18.78-21,27.49-32,2.09-2.64,4.2-5.25,6.25-7.91.45-.57.87-1.39.22-2-.79-.8-1.26.18-1.86.51-14.12,7.86-27.68,16.63-41.29,25.33-1.84,1.17-2.57,2.5-1.82,5,1.42,4.71,5.78,7.82,6.58,12.79C369.48,404.54,370.19,404.75,370.4,404.89ZM260.65,366.41c-31,16.49-49.14,45.64-70.64,71.49C218,418.46,237.43,390.6,260.65,366.41ZM476.3,489.57c3.2-.85,4.46-3,6.1-4.64,2.29-2.24,4.66-2.95,7.31-.93,2.87,2.19,2.05,4.6.29,7.17-5.49,8-11.8,15.53-14.83,24.69.72-.62,1.69-1.39,2.58-2.24,5.59-5.34,10.77-11.2,16.88-15.86,3.66-2.8,3.4-5.25,2.64-8.86a318.19,318.19,0,0,0-8.2-31.43c-1.9-6-2.41-6.24-6.79-1.88-1,1-2.91,1.66-2.15,3.51.64,1.55,2.35,1.58,3.85,1.83,4.79.8,6.11,4,3.64,8.07C483.7,475.49,479.91,482.06,476.3,489.57ZM174.91,606.7c2.36-2.44,4.23-5.55,8.09-5.94.65-.07,1.29-1.13,1.79-1.83Q205.21,570.6,227,543.27a36.21,36.21,0,0,0,2.58-4.4,32.83,32.83,0,0,0-6.74,5.47,205.61,205.61,0,0,0-21.13,25.16c-1.6,2.21-3.48,3.65-6.34,2.26-1.94-1-3,.07-3.94,1.6a309.51,309.51,0,0,0-16.54,30.43C174.43,604.66,173.84,605.55,174.91,606.7Zm236.78-5c3.11-1.91,5.32-5.31,7.88-8.29A565.6,565.6,0,0,1,458.44,552c4.18-4,6.19-9.12,9.29-14.47a10,10,0,0,0-5.09,3.4c-1.29,1.39-2.77,2.91-4.79,2.37-3.37-.9-5,1-6.67,3.33-6.44,8.85-13,17.63-19.51,26.41C424.62,582.49,417.53,591.91,411.69,601.71ZM336.83,338c-1.82-1.08-3.23-.67-4.57-.83-5.64-.67-11.2,1.78-16.74.81-10.17-1.8-20.39-.63-30.57-1a5.68,5.68,0,0,0-4.25,1c-5.47,4.77-11.6,8.79-16.32,14.52,4.05-1.06,8.05-2,12-3.19,2.82-.88,5.21-.63,7.09,1.7,1.54,1.92,2.81,1.39,4.34,0,2.21-2,3.66-4.75,6.26-6.37a44.89,44.89,0,0,1,25.54-6.82c3.1.1,6.53.12,8.86,3,.93,1.17,2.26.87,3.41.2C333.42,340.15,335,339.16,336.83,338ZM214.58,610.15a9.16,9.16,0,0,0-3.85,2.44c-9.64,9.58-18.62,19.76-27.88,29.69-3.13,3.35-2.54,7.59-4.46,11.12,5.9-5.07,9.12-4.33,11.73,1.66C197.78,639.53,206.17,624.84,214.58,610.15Zm44-271.87c-.19-1-.7-1.21-1.17-1.21-5.85,0-11.71-.07-17.56,0a2.92,2.92,0,0,0-2,.87c-5.71,6.87-12.91,12-19.93,17.4-.89.68-1.88,1.25-1,2.7,1.37,2.36.39,4.18-1.37,6a9.56,9.56,0,0,0-3,5A322.21,322.21,0,0,1,258.63,338.28ZM156.48,555.51c0,6,0,12,0,18,0,1.07-.42,2.51.88,3,1.59.59,1.64-1.12,2.11-2a292.55,292.55,0,0,1,22.89-36.22c.51-.68,1.35-1.43.51-2.25s-1.59.07-2.26.55c-4.44,3.19-8.87,6.41-13.3,9.61a4.62,4.62,0,0,1-5.56.41c-3-1.91-3.25-3.89-1.12-7.17.82-1.26,3-2.66.93-4.33a5.22,5.22,0,0,0-3.9-.7c-1.48.31-1.19,2-1.2,3.19C156.46,543.54,156.47,549.53,156.48,555.51Zm318.06,40.58c-1.66.34-2.2,1.6-3.14,2.35-5.09,4.07-7.5,11.49-15.27,12.26-.46,0-.94.78-1.25,1.29-3.12,5.26-8.58,9.13-9.21,15.89-.1,1-1.39,2-2.15,3-4.45,5.7-9.43,11-12.71,18.75,1.71-1.63,2.73-2.53,3.68-3.51,8.82-9,16.45-19,24.11-28.92,1.59-2.06,3-3.64,5.81-2.89,1.43.38,2.09-.63,2.57-1.64C469.52,607.25,473,602.29,474.54,596.09ZM444,432.55c2.75-1.79,5.44-3.69,8.27-5.36a77.08,77.08,0,0,1,16.56-7.72c1.82-.55,5.05-.82,3.5-4.3a102,102,0,0,0-7.61-14.54c-.59-.91-1.19-1.77-2.34-.81-4.23,3.52-8.9,6.58-12.44,11.48a17.64,17.64,0,0,0,2.35-1.35c1.92-1.61,3.89-2.53,5.8-.15s2.25,4.74.12,7.12c-1,1.12-2.11,2.13-3.14,3.21C451.23,424.13,446.84,427.59,444,432.55Zm-288.1,229c5.29-6.22,11.36-11.56,15.2-19.35,3.66-7.44,10.08-13.51,15.32-20.17,5.08-6.46,10.2-12.89,15.27-19.36.65-.84,1.67-1.93.51-2.95s-2,.18-2.76,1c-2.07,2.32-4,4.73-6.15,7A246,246,0,0,0,155.85,661.54ZM381,440.92c.28-.15.7-.25.9-.51,4.17-5.51,10.86-8.8,13.44-15.73,1.33-3.58,3.22-7,4.87-10.42.32-.67.9-1.43.25-2-.86-.8-1.62,0-2.23.58a128.62,128.62,0,0,1-19.61,14.75c-1.06.67-2.14,1.61-1.8,3,.68,2.89,1.51,5.75,2.38,8.6A2.08,2.08,0,0,0,381,440.92Zm3.08,35.22c4-2.25,6.19-5.23,8.2-8-2.1.38-4.53,1.81-6.59-.81a4.46,4.46,0,0,1-.17-5.86,105.51,105.51,0,0,1,9.31-11.13c5.58-5.81,11.17-11.65,17-17.28.84-.81,2.2-2,1.2-3.16-1.3-1.45-2.42.1-3.38,1-5.34,5.1-9.67,11-13.83,17.08-2.93,4.27-3.56,4.45-8.47,2.6-3.05-1.16-6,.81-5.87,3.79C381.8,461.52,384.14,468.33,384.09,476.14Zm-198.22-94c-4.05,2.1-6.71,4.94-9.34,7.7-6.11,6.43-13.85,10.82-20.44,16.65-3.19,2.82-4.64,5.63-3.43,9.72.27.91-.27,2.23.88,2.66,1.42.52,1.85-1,2.54-1.75q12-13.49,24-27C182.17,387.78,184.41,385.58,185.87,382.15Zm220.87-2.71c10-4.7,19.11-10.69,30.09-12.42,2.23-.35,1.17-1.87.21-2.65-3.26-2.67-6.63-5.22-10-7.79a2.09,2.09,0,0,0-3.27.39Q415.25,368.19,406.74,379.44ZM436.23,399a3.66,3.66,0,0,0,.79-.19c6.21-3.21,12.85-5.3,19.4-7.64,1.65-.58,1.5-1.86.79-3a69.77,69.77,0,0,0-7.55-10.65c-1.77-2-3-1.29-3.67,1a27.09,27.09,0,0,1-3.08,6.36c-2.38,4.08-4.75,8.17-7.2,12.2C435.07,398.09,434.62,398.8,436.23,399Zm-55-44.3c-1.49-.71-2.59,0-3.66.49a138.78,138.78,0,0,0-21,11.82c-6,4.3-6.16,4-1.68,9.74,1.39,1.79,2.28,1.72,3.79.21,5.55-5.54,11.22-10.95,16.8-16.46C377.39,358.68,379.87,357.37,381.27,354.74ZM188.92,557.92c2.38.28,4.16-.12,5.42,1.08,1.86,1.75,3,.88,4.19-.82,3.58-4.95,7.42-9.72,10.89-14.75,4.05-5.89,8.84-11.27,12-17.79C210.4,535.82,199.59,546.22,188.92,557.92ZM455.51,453.55l.58.63c1.29-.7,2.59-1.39,3.87-2.11,5.73-3.22,11.35-6.64,17.19-9.63,5-2.52,5.34-3,3.22-8.22-.38-.92-.64-1.9-1.07-2.78-1-2.09-2.3-2.49-3.91-.51-2.12,2.6-4.22,5.22-6.44,7.72C464.51,443.65,460,448.59,455.51,453.55ZM325.08,677.28c-4.15,1.71-7,4.64-10.36,6.65-3.61,2.14-5.33,2-7.11-1.76-1.26-2.63-3.28-2.62-4.85-1.69a60,60,0,0,0-11.28,8.41c.65.35,1,.64,1.27.65a191.93,191.93,0,0,0,23.5-.48,4.23,4.23,0,0,0,3.18-1.76C321.54,684.28,324.14,681.53,325.08,677.28Zm48.85-34.58c-9.76,14.57-20.06,28.76-30.43,42.9C356.41,673.28,368.67,660.49,373.93,642.7ZM214.45,654.18c7.77-10.3,13.31-20.87,18.68-31.59-6.15,6.37-11.92,13-17.67,19.65-.48.56-1.05,1.41-.59,2C217.1,647.37,215.19,650.24,214.45,654.18Zm49.09-3.34,1.87-.63c4.18-1.46,7,.71,6.33,5a18.76,18.76,0,0,1-1.67,4.53c-1.67,3.77-4.12,7.26-4.37,12,4.41-2.59,6.67-6.81,10-9.94,1.56-1.47,1.61-2.84.55-4.63-2.39-4.05-4.84-8.07-5.93-12.76-.24-1-.29-2.58-2.15-2.89C266.93,644.8,264.33,647.33,263.54,650.84ZM415.19,405.21c2.24,0,2.9-1.39,3.72-2.34A135.59,135.59,0,0,0,429,389.94a84.55,84.55,0,0,0,6.41-10.9c.44-.9,1.08-2-.76-2.06a7.11,7.11,0,0,0-7.58,7.19c0,1.76.14,3.59-1.51,4.76C419.88,392.92,419.13,399.82,415.19,405.21ZM144.08,663.05c.1-1.26.34-2.14-.31-2.62s-1.44.09-1.9.66c-5,6-10.28,11.79-14.23,18.59-.93,1.58-.26,2.88,1.18,3.8,3.05,1.94,6.1.87,7.45-2.54.45-1.15,1-2.25,1.5-3.38ZM438.66,540.61a23.65,23.65,0,0,0,4.83-3.77c4.28-4.16,8.49-8.41,13-12.28,3.73-3.2,3.67-2.65-.1-5.47-2.52-1.87-3.59-.68-4.67,1C447.48,526.8,442.34,532.92,438.66,540.61Zm1.74,53.07.89.86c2.61-2.48,6.59-3.07,8.62-6.28,4.19-6.63,8.22-13.37,12.27-20.09.32-.53.88-1.35-.56-2.08ZM253.31,638.9c4.2-2.1,6.71-5.95,10.07-8.82,3.74-3.19,4.28-7.05,3.35-11.45-.18-.9.32-2.26-1-2.49-1.2-.2-1.56,1-2.05,1.85-3.06,5.42-6.21,10.8-9.19,16.26C253.74,635.56,252.47,636.89,253.31,638.9Zm-31.22,27.43c-7.77,5-11.8,12.4-16.55,19.18-1.16,1.66-.26,2.61,1.44,2.82,1.9.24,3.49.07,4.73-2A212.73,212.73,0,0,0,222.09,666.33Zm139.57,16.92c6.21-.39,11.79-2.45,17.54-3.64,1-.21,1.55-1.21,1.87-2.19a10.66,10.66,0,0,1,2.14-4.31c.43-.46.78-1.1.32-1.66-.65-.8-1.27-.15-1.93.18-5,2.46-9.78,5.34-15,7.38A9.49,9.49,0,0,0,361.66,683.25ZM131.26,344.89c-5.2.65-9.57.83-13.72,1.87-2.25.55-3.32,3-2.37,5.49.6,1.57,1.54,3.79,3.71,2.45C123.06,352.12,127.66,350,131.26,344.89Zm135.26,36.44c0-1.34,0-2.09,0-2.83s.2-1.64-.69-1.94a1.93,1.93,0,0,0-2,.78c-3.12,3.37-6.26,6.71-9.35,10.09-.39.42-1.13,1-.72,1.57s1.37.47,2.06.21c2.2-.84,4.3-2.16,6.56-2.52C266.16,386.1,267.15,384.1,266.52,381.33Zm-72.44,290c-5,3.75-8.74,8.57-12.92,12.95-.67.7-1.5,1.52-.86,2.6.53.87,1.56.57,2.41.64,1.15.09,2.4.05,3.11-.91C189.3,681.94,192.51,677.08,194.08,671.35Zm202.48,3c8.85-.19,15.18-6.35,14.58-13.81C406.21,665,401.12,668.85,396.56,674.37Zm91.54-150c.49.11.75.26.94.19A1.93,1.93,0,0,0,490,524c2.36-3.15,4.83-4.05,8.06-1,1.36,1.3,2,0,1.95-1.29-.11-3.23-.34-6.46-.54-9.69-.05-.76-.23-1.56-1.05-1.82-1-.3-1.6.35-2.12,1.11-1.34,1.95-2.74,3.86-4,5.82C490.7,519.4,488.55,521.36,488.1,524.32ZM299,670c-1.29-1-2.58-.8-3.75-1.07a55.74,55.74,0,0,1-7.44-2.07c-1.07-.4-1.83-1.93-3.19-.9a3.47,3.47,0,0,0-1.09,4.17l1.33-.7c4.35-2.36,6-1.82,7.56,2.86.56,1.69,1.35,1.38,2.49.94C296.54,672.59,297.49,671.14,299,670Zm17.87-322.78c-5.94.25-11.56,1.51-16.05,5.93C306.53,352.4,312.65,352.75,316.83,347.24Zm-82,330.15c-3.59,2.6-5.74,5.94-8.25,8.92-.65.77-2.28,1.69-1.44,2.67,1.21,1.38,3.25.48,4.93.62,1.06.08,2.23-.33,2-1.58C231.42,684.2,234.16,681.32,234.85,677.39Zm114.66-321c-2.84,1.19-5.13,2.11-7.39,3.1-.84.38-2.49,0-2.39,1.25.16,1.7,1.89,2.49,3.21,3.37a1.72,1.72,0,0,0,2.52-.83C346.64,361.13,348.67,359.51,349.51,356.38ZM157.6,674.81c-3.55,2.13-5.1,5-7.14,7.44-.76.9-2.62,2-1.09,3.15a2.91,2.91,0,0,0,4.29-.81C155.24,681.74,157.21,679,157.6,674.81ZM398.54,354.27c3.16-1.79,6.34-3.55,9.46-5.39.72-.43,2.4-.43,1.64-1.88s-2.19-1.29-3.3-.59C403.22,348.39,400.36,350.71,398.54,354.27Zm-24.2-7.93,11.54-4.5C379.18,338.88,378.63,339.06,374.34,346.34Zm54.78,269.47c-4.4,1.25-6.77,5.2-10.17,7.82-.65.5-1.56,1.26-.69,2.13a1.78,1.78,0,0,0,2.67-.25C423.74,622.32,427.35,619.8,429.12,615.81ZM163.61,471.32c-2.73,1-4.56,3.3-7,4.65-1.72.93-1.15,2.55-1.12,4,0,.42.37,1.15.64,1.18,1.57.19,1.85-1.37,2.6-2.23A37.69,37.69,0,0,0,163.61,471.32Zm90-70.9c-2.76.27-5.05,1.73-7.23,3.31-.76.56-3,.83-1.6,2.49.88,1.06,2.79,1.79,3.88.28C250.21,404.35,252.73,403,253.61,400.42ZM497.48,555.68c-3,.89-3.5,3.44-4.62,5.42-.47.83-1.61,2.08.13,2.76,1.44.57,2.76.22,3.15-1.57C496.58,560.23,497,558.16,497.48,555.68ZM245.32,689.73c1.35-.26,3.38.57,3.63-1.57a22.79,22.79,0,0,1,1.63-6c.31-.78.57-1.82-.37-2.33s-1.44.61-2.1,1.07c-2.17,1.5-2.59,4.14-4.06,6.08-.55.73-2.21.81-1.73,2S244.3,689.47,245.32,689.73Zm17.47,0h1.44c2.07-.05,2.54-1.64,3-3.18.23-.7.63-1.66-.09-2-1.62-.84-2.16,1.19-3.39,1.56a5.14,5.14,0,0,0-1.52,1c-.72.57-2.22.74-1.79,2S262.19,689.63,262.79,689.71ZM155,614.58c0,1.69-.06,2.45,0,3.19.09.92-.37,2.28,1,2.49,1,.17,1.11-1.1,1.45-1.86,1-2.27,2-4.53,3-6.8.25-.58.48-1.2,0-1.75s-1-.12-1.64,0C155.9,610.68,154.43,612.37,155,614.58ZM327.27,355.22c3.64,1.08,4.06.79,4.68-3.25C328.91,352.64,328.91,352.64,327.27,355.22ZM157.65,584.51c-1.77.45-1.68,2-1.54,3.22.16,1.51-1.16,4.07,1.24,4.27,2.13.18,2.19-2.71,2.83-4.23S159.2,585.21,157.65,584.51ZM316,671.3a1.64,1.64,0,0,0-2.2-1.47c-1.7.36-4.35-.91-4.54,2.28-.07,1.17.1,2.83,1.81,2.63C313.21,674.49,314.74,673,316,671.3Zm44.94-332c-.73-1.76-2.41-1.29-3.75-1.21-1.53.1-3.68,3.43-2.79,4,1.66,1.05,2.88-.87,4.42-1C359.78,341,360.82,340.69,360.94,339.26ZM154.25,390.93c.2-1.1-.43-1.39-1.25-1.37-1.07,0-2.35-.08-2.59,1.38a1.78,1.78,0,0,0,1.45,2.2C153.39,393.34,153.72,391.91,154.25,390.93Z"/><path class="cls-1" d="M474.53,865.87H29.4c-6.15,0-5.25.31-5.25-5.15q0-40.86,0-81.73c0-4.93,0-4.93,5.11-4.93h891c5.15,0,5.15,0,5.15,5,0,27.36-.08,54.73.08,82.09,0,3.75-.8,4.83-4.7,4.82Q697.65,865.8,474.53,865.87Zm-93.66-44.32h.8c0-4.11,0-8.23,0-12.35,0-.84,0-1.91,1.15-2.06s1,.86,1.31,1.48c4.91,10.08,9.75,20.18,13.37,30.82.4,1.15.72,2.8,2,3,1.55.19,1.65-1.64,2.08-2.7,3.85-9.62,8.58-18.83,13.19-28.08.64-1.3.78-3.79,2.86-3.3,1.61.39,1.13,2.57,1.19,4,.3,7.11.42,14.24.83,21.35.18,3.11-.7,5.09-3.9,5.72-.7.14-1.68.18-1.59,1.19.1,1.24,1.2,1,2,1.05,4.12,0,8.24,0,12.36,0,.89,0,2,.08,2.31-.84.42-1.21-.87-1.32-1.58-1.63-2.94-1.3-3.87-3.8-3.95-6.69-.27-9.62-.46-19.24-.67-28.85a4,4,0,0,1,1.47-3.61c1.32-1.08,4.65-.88,3.8-3-.76-1.89-3.6-.11-5.5-.3-4.78-.45-7.4,1.77-9.31,6.18-3.6,8.34-7.79,16.44-11.81,24.6-.45.91-.34,2.61-1.82,2.49s-1.8-1.61-2.28-2.74c-3.95-9.14-7.85-18.3-11.8-27.45-.65-1.51-1.47-3-3.39-3.09-3.12-.13-6.24-.18-9.36-.17-.55,0-1.41.33-1.57.73-.39,1,.62,1.11,1.23,1.48,3,1.79,4.11,4.35,3.89,7.87-.56,9-.92,18-1.27,26.95-.11,2.9-.92,5.12-4,5.93-.67.18-1.67.24-1.47,1.28.13.64.89.84,1.54.84,4.12,0,8.24,0,12.36,0,.63,0,1.33-.15,1.52-.83s-.5-1-1.08-1.24c-4.69-1.68-5.31-5.36-5-9.69C381,827.05,380.87,824.29,380.87,821.55Zm237.46-23.47c6.93.75,6.49,5.39,6.29,9.92-.07,1.63,0,3.25,0,4.88-.09,2.39-1.28,3.63-3.78,3.61q-10.3,0-20.61,0c-2.87,0-4-1.51-4-4.22,0-2.49.12-5,0-7.49-.17-2.85.63-4.88,3.59-5.72.78-.22,1.94-.45,1.83-1.53s-1.28-1-2.12-1q-6.18,0-12.36,0c-.85,0-1.92-.17-2.17.94s.87,1.39,1.59,1.78c1.91,1,3.66,1.93,3.63,4.64-.1,10.37,0,20.75,0,31.12,0,2-.36,3.76-2.66,4.36-.72.19-1.6.37-1.39,1.38s1,1.06,1.78,1.05q6.18-.08,12.36-.21c.74,0,1.63-.11,1.82-1s-.8-1.2-1.43-1.43c-3.87-1.41-4.77-4.31-4.41-8.07a47.52,47.52,0,0,0,0-6.75c-.18-3.27,1.4-4.44,4.52-4.4q9.93.15,19.86,0c2.91,0,4.09,1.32,4.08,4.07,0,3.12,0,6.25,0,9.37,0,2.57-.65,4.7-3.24,5.78-.7.29-1.5.59-1.2,1.55.19.65.87.83,1.53.85l13.11.22c.78,0,1.6-.2,1.72-1.09s-.75-1.16-1.49-1.26c-3.09-.41-4.14-2.36-4.13-5.25,0-10.24,0-20.49,0-30.74,0-1.35.09-2.67,1.35-3.7,1.05-.86,3.62-.86,2.94-2.59s-2.93-.61-4.49-.66c-2.74-.08-5.49-.09-8.24-.06C621.34,796.52,620,796.12,618.33,798.08Zm-430.54-1.34c-3.87,0-7.74,0-11.61,0-1.08,0-2.53-.23-2.85,1.16-.36,1.54,1.07,1.83,2.14,2,2.78.41,3.26,2.38,3.27,4.65,0,9.87,0,19.74,0,29.61,0,2.33-.61,4.5-3.24,5.33-.59.19-1.3.33-1.19,1.15.13,1,1,1.07,1.71,1,7.85-.58,15.73.88,23.56-.26,10-1.46,17.66-5.87,20.45-16.4,2.38-9-.54-20.33-9.93-25C202.9,796.39,195.4,796.51,187.79,796.74Zm457,22.39c0,13.44,10.6,23.51,24.81,23.47,13.28-.05,24.64-10.86,24.73-23.55.09-13-10.74-23.32-24.57-23.46S644.8,806.05,644.76,819.13Zm57.86.06c0,13.41,10.7,23.49,24.85,23.38C740.91,842.47,752,831.82,752,819c0-13.16-10.67-23.35-24.51-23.35S702.64,806.07,702.62,819.19Zm-461.9-22.46c-2.62,0-5.23,0-7.85,0-1,0-2.29-.48-2.66.65-.44,1.34.93,2,1.91,2.36,2.25.91,2.8,2.75,2.81,4.82q.06,15,0,30c0,2-.44,4-2.7,4.88-.76.29-2,.22-1.65,1.49.29,1,1.4.86,2.25.85,3.87,0,7.74-.07,11.6-.11,1,0,2.26.23,2.41-1.1s-1.28-1.33-2.13-1.63c-1.83-.64-3.54-1.2-3.46-3.69.12-3.74.07-7.49.14-11.23,0-1,.07-2.08,1.24-2.49a2.61,2.61,0,0,1,3,.88c1.28,1.67,2.34,3.49,3.54,5.22,4.58,6.6,9.25,13.09,18,14.54.71.12,1.51.64,1.84-.46a1.48,1.48,0,0,0-.92-1.84c-6.93-3.12-10.38-9.3-14-15.49-1.7-2.92-1.43-4.12,1.77-5.55a11.17,11.17,0,0,0,6.9-11c-.11-5.09-2.35-7.7-7.66-9.76C250.41,796.15,245.56,796.75,240.72,796.73Zm35.32,1c2.1,1.68,4.95,2.35,4.92,5.74-.1,10.75,0,21.49,0,32.24,0,1.91-.53,3.46-2.79,3.75-.7.09-1.69.19-1.56,1.19s1,1.08,1.77,1.08q14.42,0,28.84-.13a1.71,1.71,0,0,0,1.84-1.51c.38-2,.8-3.92,1.18-5.88.15-.79,0-1.51-.84-1.83a1.49,1.49,0,0,0-1.95.64c-3.78,7-10.28,5.3-16.26,5.1a3.88,3.88,0,0,1-4.07-4c-.12-4-.07-8-.05-12a2.66,2.66,0,0,1,2-2.8,8,8,0,0,1,9.68,3.8c.44.82.81,1.65,1.89,1.43s.83-1.11.84-1.82c.07-3.12.12-6.24.17-9.36,0-.77,0-1.71-.76-2-1.09-.32-1.53.65-1.78,1.49a3.69,3.69,0,0,1-2.67,2.84c-7.48,2.07-9.38.66-9.39-7v-.38c.14-8.7-1.79-8.3,8.42-8.4,4.15,0,7.76.47,9.55,4.83.34.83,1.2,1.41,1.68.71,1.52-2.17.87-4.83,1-7.25.08-1.91-1.87-1.64-3.18-1.65-8.49,0-17,0-25.48-.06A3,3,0,0,0,276,797.76Zm284.21-1.9c-13.77-1.3-24.64,6.56-27.56,19.27-2.23,9.75,3.52,20.76,12.55,24.71,7.09,3.1,14.25,3.06,21.61,1.6,5.91-1.17,7.82-3.17,8.45-9.14.13-1.24.54-2.76-1-3.23s-2.34.82-3,2.15c-3.71,7.52-10.91,10.32-18.75,7.35-8.12-3.07-12.9-9.94-12.88-19.49,0-7.07,1.82-13.52,8.29-17.84,2-1.33,4.14-.47,6.09-1.32,6.18-2.69,12.26-.44,15.28,5.54a24.8,24.8,0,0,0,1.78,3.29,1.74,1.74,0,0,0,3.09,0c1.58-2.19-.38-9.05-2.79-10.42C567.7,796.18,563.52,796.3,560.25,795.86ZM357,841.64v-.17l6,.3c.86,0,1.85.26,2.17-.9s-.58-1.19-1.25-1.52c-3.31-1.65-5.08-4.47-6.48-7.85-4.77-11.48-9.82-22.85-14.68-34.3-1-2.25-2.2-1.72-3.39-.58a7.58,7.58,0,0,0-1.61,2.92,304.08,304.08,0,0,1-13.54,32.36c-1.51,3.1-3,6-6.21,7.63-.57.29-1.2.54-1.05,1.3.18.94,1,1,1.77,1,3.62,0,7.23-.12,10.85-.18.87,0,1.95.07,2.18-1,.27-1.19-1-1.33-1.7-1.64-2.8-1.27-3-3.47-2.21-6,.47-1.54,1.3-3,1.76-4.52.75-2.47,2.31-3.3,4.81-3a33.45,33.45,0,0,0,9.32.08c3.38-.62,5.15,1,6.23,3.93a17.63,17.63,0,0,0,1.09,2.78c1.68,2.9,2,5.42-1.62,7.09-.58.27-1.22.61-1,1.34s1.07.93,1.85.92Zm149.22.94a39.83,39.83,0,0,0,6.44-1.05c4.88-1.5,8.64-4.35,9.66-9.77,1-5.23-1.33-9-5.57-11.64-4.74-3-9.7-5.52-14.43-8.49-2.67-1.69-4.37-4.35-3.62-7.61.82-3.51,3.76-4.71,7.07-5.09a10.64,10.64,0,0,1,4.77.64,11.34,11.34,0,0,1,6.25,5.6,3,3,0,0,0,2.33,1.69c.67,0,1-.49,1.29-1.13,1-2.81-1.55-8.37-4.46-8.83-4.4-.69-8.84-1.82-13.33-.47-2.39.72-4.71,1.52-6.36,3.55-4.61,5.65-4,11.22,1.68,15.87,4.38,3.55,9.64,5.65,14.31,8.71,3.63,2.38,5.37,5.73,4.53,9.05s-4.13,5.56-8.32,5.8c-5.23.3-9-2.32-12.05-6.26-.83-1.06-1.68-2.78-3.12-2s-.76,2.69-.29,4.07C494.89,840.81,497.68,842.46,506.2,842.58Zm254.34-2.32c1.42.84,1.83,1.29,2.24,1.29q14.4.06,28.8,0a2.12,2.12,0,0,0,2.31-2c.21-1.86.42-3.72.61-5.59.08-.77,0-1.53-.86-1.86s-1.4.31-1.74,1c-3,5.86-8.29,5.67-13.6,5.11s-6.14-1.64-6.15-6.92c0-8.61,0-17.22,0-25.83,0-3.12.82-5.66,4-6.84.6-.23,1.21-.45,1.11-1.25-.13-1-.9-1.1-1.67-1.09-4.11.06-8.22.12-12.33.26a2.07,2.07,0,0,0-1.55.79c-.37.69.42,1,.91,1.38,3,2,3.66,5,3.59,8.48q-.24,12.72,0,25.46C766.29,836.35,765.82,839.36,760.54,840.26Z"/><path class="cls-2" d="M809.41,377.65c-.12,13.37.09,26.77-2,40-1.1,7-2.29,14.05-6,20.3-4.3,7.32-10.76,8.18-17.48,2.86-5.36-4.24-8.11-9.9-10.37-16.08C769,412,765,399,757.17,387.65c-7.12-10.3-16.62-16.71-28.48-20.57a131.93,131.93,0,0,0-31.85-5.89c-10.42-.72-20.69.17-30.55,3.86a46.86,46.86,0,0,0-7.26,3.79c-1,.62-2.37,1.5-2.65,2.52-1.9,6.83-6.82,12.07-9.47,18.5-1.08,2.62-2,4.9,1.54,6.46a3.46,3.46,0,0,1,2,4.11c-1,3.35.81,5.48,2.85,7.53a300.26,300.26,0,0,0,31,27,537.51,537.51,0,0,0,46.13,31.13c12,7.34,24.29,14.21,36.55,21.12,13.56,7.64,27.82,14,40.87,22.55,11,7.17,17.74,17.17,20.26,30.5a209.31,209.31,0,0,1,3.67,44.65c-.58,22.15-8.76,41.46-22,58.82-12.41,16.24-28.77,27.41-47,36-12.87,6.06-26.39,10.2-40.13,13.89-24.89,6.69-50.1,8.49-75.68,7.07-.25,0-.54-.11-.74,0-4.46,2.06-8.17.55-12.21-1.73-5.09-2.88-11.19-3-16.72-5.13a121.57,121.57,0,0,1-23.44-12.2c-3.62-2.39-6.83-2.24-10.47-.28-6.75,3.63-12.54,8.59-18.54,13.23a24,24,0,0,1-10.22,4.27c-3.41.71-5.94-1.18-7.83-4-3.12-4.61-3.75-10-4.54-15.26a359.73,359.73,0,0,1-3.9-65.74c.42-11.61,1.76-23.14,3.19-34.66.23-1.84.81-3.53,2.72-4.12a4.89,4.89,0,0,1,5.42,1.55c3.76,4.21,6.48,9.15,9.5,13.86,6.19,9.65,12,19.56,18.6,28.91,6.88,9.69,14.31,18.92,23.42,26.63,9.91,8.38,21.89,12.41,34.21,15.09,15.76,3.42,31.81,5.3,48,3.87,14.76-1.3,28.5-5.24,39.78-15.85,14.27-13.42,15.5-29.82,5.06-45.87-9.53-14.64-22.55-25.52-37.33-34.46-17.75-10.73-36.92-18.53-55.75-27-19.2-8.67-38.09-17.95-55.26-30.26-15.82-11.34-30.13-24.31-40.16-41.29-10.7-18.1-14-37.69-9.26-58.07,4-17,14.06-30.71,26.79-42.42,14.42-13.26,31.27-22.34,49.65-29,26.84-9.71,54.51-12.64,82.81-11.36,16.73.76,33.11,4.06,49.6,6.76a76.82,76.82,0,0,0,33.35-1.53c7-2,13.46-5.19,20.15-7.86,3.5-1.4,7.8.52,11,4.93a28.28,28.28,0,0,1,5.69,17.43C809.34,358.66,809.41,368.15,809.41,377.65Zm-87.48,142.6c2,.08,3.69-1.32,5.5,0,2.29,1.69,4.36.84,6.6-.34,8.36-4.4,16.82-8.61,25.17-13,2.8-1.48,4.53-.26,6,1.82,1.63,2.26,1,4.31-1.1,5.86a40.31,40.31,0,0,1-4.21,2.41c-9.67,5.58-19.41,11.08-28,18.26-.74.62-2.17,1.2-1.49,2.23.91,1.36,1.9,0,2.77-.56a310.42,310.42,0,0,1,32.09-19.06A95.23,95.23,0,0,1,776.49,513c2.17-.8,4.1,0,5.33,2.26,1.07,1.95.95,3.76-.71,5-1.83,1.42-1.38,1.9.27,3.1,4.51,3.29,4.23,6.09-.45,9.13-3.12,2-6.65,3.52-9.06,6.64a35.53,35.53,0,0,0,5.38-2.3q8.1-4.2,16.17-8.45c2.13-1.11,4.67-1.17,5.69.88,1.91,3.84,3.9,2.32,6.2.83a25.53,25.53,0,0,1,3.85-2.29c3.42-1.41,3.13-2.94.57-5.08-6.35-5.3-13.59-9.18-20.77-13.11-14-7.64-28.08-15-42.1-22.52-2.46-1.33-4.28-1.86-5.39,1.54-.29.91-1.54,1.58-2.44,2.22-4,2.81-8.12,5.37-11.88,8.43-3.06,2.49-6.58,4.59-8.95,8.17a3.54,3.54,0,0,0,3.09-.63c7.57-4.3,15.23-8.45,22.77-12.82,2.58-1.49,4.78-1.64,6.51.91s.79,5-1.63,6.78c-3,2.17-6.2,4.17-9.3,6.25C733.69,511.93,727.33,515.3,721.93,520.25ZM537.16,425.59c3-2.72,4.09-6.46,6-9.73,2.28-3.93,2.85-9.83,9.65-9.12.65.07,1.42-.9,2.11-1.4,12.77-9.34,25.47-18.77,38.69-27.46Q605,370.4,616.45,363c2.11-1.35,2.52-3.13,1.39-5.08-1.38-2.39-2.72.09-3.57.61-13.53,8.41-27,17-40.43,25.52-4.63,2.93-8.94,7.09-14,8.42s-7.15,4.09-9.2,8c-.86,1.64-2.6,2.82-4.39,1.91-2.63-1.34-3.28.34-4.09,2.05s-1.5,3.15-2.14,4.77A39.8,39.8,0,0,0,537.16,425.59Zm241.59-74.45a15.68,15.68,0,0,0-4.83,1.77A207,207,0,0,0,753.82,365c-3.29,2.15-5.8,1-6.59-2.86a7.62,7.62,0,0,0-5.05-5.9c-2.63-.82-5.3.88-7.88,2.74,9.68,4.35,18.51,9.16,25.52,16.65,1.72,1.84,3.18,1.41,4.93.35,8.08-4.92,16.22-9.74,24.25-14.75,3.3-2.06,6.44-3.85,10.64-.55,0-7.84-1.9-14.47-4.34-21.64-1.24,2.28-1.44,4.3-3,5.49-1.34,1-.88,2-.3,3.26,2,4.34,1.62,5.62-2.4,8.37-6.46,4.44-13,8.7-19.42,13.26-2.57,1.84-4.57,2.32-6.69-.42s-1.63-4.73.94-6.7c1.37-1.06,2.83-2.07,4.1-3.18C771.69,356.38,776.11,355.16,778.75,351.14Zm-93.18-13.56c-5.17.38-10.41-1.6-13.27,4.12-.26.53-1.25.78-1.95,1-1.62.5-2.82,1.36-2.38,3.2.57,2.33,2.32,1.19,3.67,1,5.84-.86,11.11-3.56,16.7-5.24,3.92-1.19,5.64-.46,6.68,3.38.56,2.08,1.75,2,3.35,1.89,5.15-.2,10-1.92,15.09-2.59,4.41-.58,6.51.76,6.66,5.18.09,2.47,1,2.33,2.74,1.84,1.43-.41,2.92-.61,4.37-1,3-.77,6-1.59,9-2.42.85-.24,1.89-.7,1.88-1.59,0-1.42-1.42-1.09-2.31-1.25-1.83-.33-3.73-.38-5.54-.81C715.34,340.77,700.31,338.08,685.57,337.58ZM653.2,450c2.87.17,5.19-1.53,7.72-2.45,4.64-1.7,9.62-1.31,14.27-2.75.83-.26,1.82-.35,2.11-1.33.34-1.17-.84-1.34-1.45-1.88-5.35-4.66-10.73-9.28-16.05-14s-5.24-4.7-10.56-.17c-5.85,5-11.61,10-17.41,15a14.74,14.74,0,0,0,6.73-1c5.38-2.43,11.16-3.46,16.72-5.26a4.12,4.12,0,0,1,5.19,1.84,4.21,4.21,0,0,1-.58,5.5,36.55,36.55,0,0,1-4.27,3.59C654.51,448,653.35,448.62,653.2,450Zm-95.74,6.23c1.65,1.38,4.06.51,5.18,2.17,2,2.94,3.75,1.68,5.77,0,11.36-9.51,22.78-18.94,34.17-28.42,4.51-3.75,9-7.55,13.48-11.33l-.64-.87C594.94,428.66,576.38,442.45,557.46,456.27Zm40.3,214.28c3.45-.79,5.25-2.81,7.47-4.14,2.51-1.52,5.16-2.26,7.2.76.77,1.14,1.55,2.23,2.93,1.4,1.09-.66,2.93-1,2.93-2.48,0-1.28-1.7-1.69-2.8-2.19-11-5-20.24-12.54-28.74-21-1.49-1.48-2.59-2.37-4.12-.24-1.24,1.72-2,3.2.82,4.23a3.58,3.58,0,0,1,2.2,3.26c.08,1.79,1.07,2.91,2.19,4.15,2.58,2.87,2.34,4.5-.39,7.32-2.93,3-6.82,5-10.05,9.33,5.16-3,9.44-5.32,13.59-7.87,2.38-1.46,4.82-2.75,7.15-.61C600.64,664.77,600.11,667.57,597.76,670.55ZM620.48,438.9a3.39,3.39,0,0,0-3.4.51c-3.82,2.32-7.72,4.53-11.55,6.84q-16.77,10.13-32.83,21.34c-2.7,1.9-1.32,3.84-1.14,5.88.16,1.88,1.5,2,3,1.94,2.15,0,4-.21,4.19-3,.09-1.76,1.64-2.46,2.79-3.32,6.08-4.53,12.33-8.85,18.34-13.48C606.71,450.32,613.84,445.37,620.48,438.9ZM804.86,565.47a9.25,9.25,0,0,0,5.27-2.1c2.27-1.67,4.54-2.3,6.64,0s2.59,4.51-.12,6.78c-1,.82-1.65,1.81,0,3,5.12,3.52,5,5.41,0,9.36-4.4,3.47-8.66,7.11-12.91,10.76-.73.64-2.38,1.27-1.5,2.57.72,1.07,2.19.37,3.11-.08,4.55-2.26,9-4.83,13.58-7,2.72-1.25,3.49-3.09,3.55-5.87a195.59,195.59,0,0,0-1.91-33.94c-1.15-7.37-1.47-7.56-7.44-3.14-.2.15-.36.39-.58.47-3.1,1.22-2.38,2.44-.33,4.29,3.57,3.21,3.32,5.07-.26,8.22C809.7,560.79,806.56,561.88,804.86,565.47ZM642.27,465.55a144.13,144.13,0,0,0-25.77,13.16c-5.07,3.17-10,6.6-14.92,9.93-.6.4-1.41.8-1.24,1.7.13.74.88.86,1.48.81,2.75-.24,5.12.18,7,2.6.86,1.11,1.73-.18,2.46-.77,5.28-4.36,10.68-8.58,15.8-13.13S637.83,471.07,642.27,465.55Zm-15.84-9.71L608,464.59c-8.66,4.1-16.33,10-25.16,13.78a1.37,1.37,0,0,0-.77,2.14,1.5,1.5,0,0,0,2.26.47l4-2.08c3-1.54,5.9-2.86,8.93,0,1.32,1.23,2.23-.06,3.19-.8,4.65-3.57,9.38-7,13.94-10.72C618.63,463.89,623.66,461.22,626.43,455.84Zm-32.26-46.27-.76-.85c-7.24,4.71-14.87,8.85-21,15.22-3.62,3.77-7.63,7.17-11.42,10.79q-3.91,3.75-7.68,7.64c-1.36,1.41-2.36,3.64-1.06,4.94s2.45-1,3.49-1.94q13.89-12.8,27.73-25.62C587.11,416.4,590.62,413,594.17,409.57Zm-45.92,245c.16,1.07-.17,2.41,1,3.05,1.3.74,2-.51,2.83-1.2,8.09-6.78,16-13.79,24.7-19.82,2.42-1.68,1.58-3.17.2-4.92s-2.82-2.69-4.91-.75q-11.09,10.26-22.31,20.4A3.53,3.53,0,0,0,548.25,654.54Zm241.8-234.28c-2.68-1.11-5.09-1.83-5.35-4.16-.38-3.46-3.33-6.24-2.39-10,.28-1.12-.77-1.72-1.49-2.41-4.26-4-3.89-6.62,1.19-9.42,5.44-3,10.83-6.09,16.24-9.15,1.12-.63,2.34-1.4,1.7-2.88-.82-1.89-2.22-.57-3.14-.1-4,2-7.88,4.23-11.81,6.36-3.27,1.76-6.42,3.88-9.87,5.13-2.16.79-2.83,1.2-2,3.49,3.61,9.66,7.05,19.37,10.6,29.06a8.67,8.67,0,0,0,1.36,2.22,1.37,1.37,0,0,0,1.68.43,1.12,1.12,0,0,0,.53-1.58C786,424.41,786.87,422.23,790.05,420.26ZM677.72,550.5c-2.3-3.27-2.13-6,.62-8.61,1.5-1.43.64-2.21-1.05-2.23-3.24,0-6.49,0-9.74.05a4.13,4.13,0,0,1-4.49-3.16c-.32-1.09-.44-2.43-1.91-2.38-5,.16-10,.44-15,.68C656.14,541.39,667,545.48,677.72,550.5Zm-69.47-140c7.69-3.65,15.41-7,23.12-10.39a3.15,3.15,0,0,0,1.83-3c.22-3.85.61-7.69.89-11.54.07-.89.75-2.23-.78-2.42a1.85,1.85,0,0,0-2.08,2.12c.21,2.65-1.52,4.08-3.16,5.61-4.83,4.5-9.72,8.94-14.47,13.52C611.67,406.25,609.34,407.78,608.25,410.49Zm41.49,71.44c-.56.2-1.14.36-1.68.61a211,211,0,0,0-29.28,17.08c-2.71,1.84-.95,2.91-.37,4.39,1,2.39,2.36,1.53,3.82.49,4.88-3.45,10-6.66,14.62-10.39S646.41,487.11,649.74,481.93ZM655,523.24c3.6-2.14,7.19-4.36,10.85-6.45a207.46,207.46,0,0,0,18.28-12.2c.79-.57,1.91-1.08,1-2.32a2,2,0,0,0-2.67-.57c-.46.19-.94.36-1.38.57-7.37,3.61-14.4,7.82-21.45,12C656.07,516.34,651.64,518,655,523.24Zm161.9,85.58c-9.73,8.1-19.24,16.38-29.14,24.3a62.66,62.66,0,0,0,9.36-4.09c3.48-1.8,6.61-4.57,11-3.5.93.23,1.68-.51,2.17-1.23A45,45,0,0,0,816.85,608.82ZM663.29,497.59c-.83-.32-1.21.38-1.77.53-9.09,2.52-17,7.71-25.4,11.64-2.31,1.07-4,5.54-2.62,7,2,2.13,4,.42,5.61-.74C647.33,510.15,656.16,505,663.29,497.59Zm59.64,65c-4.35,1.56-8.91,2.57-12.86,5.13-.82.54-1.24,1.14-.13,2a140,140,0,0,1,16.4,14.67c.73.78,1.45,1.34,2.55.43s.78-1.8,0-2.51c-3.17-2.74-2.11-5.14.41-7.56a22,22,0,0,0,2-2.55c-2.53.59-4.63,1.85-6.85,2.83-2.43,1.07-5,1.3-6.73-1.19s-.93-4.69,1.21-6.68C720.33,565.85,722.29,565,722.93,562.6ZM561.8,612.71c3.42,4.39,3.24,6.41-1.1,10.55s-8.48,8.07-12.73,12.1a2.69,2.69,0,0,0-.6,3.7c1,1.44,2,.21,2.78-.48,5.7-5.2,11.33-10.48,17-15.69,1.18-1.08,1.66-2.14.7-3.56A31.32,31.32,0,0,0,561.8,612.71Zm111.48,61.06a4.57,4.57,0,0,0-3-1.07c-2.68-.29-5.13,1-8.07.28-6.91-1.62-14.08-1.9-21.19-2.18-.71,0-1.69-.13-1.78.88s.86,1.07,1.59,1.13c1.27.11,2.6.26,3.39,1.33,3.22,4.35,7.12,4.22,11.43,1.92a5,5,0,0,1,2.07-.83c3,0,5.86-2.72,9-.86C668.93,675.68,670.92,675.51,673.28,673.77ZM800,366.33c-4.4,1.18-7.09,3.47-10,5.23-6.73,4-13.38,8.16-20.06,12.26-1,.58-2.26,1.24-1.3,2.54s1.86-.12,2.55-.56a146.07,146.07,0,0,1,18-9.72A25.32,25.32,0,0,0,800,366.33ZM734.79,482.07c.05-2.36-1.88-2.46-3-3.19C724,474,724,474,719.29,478c-.19.16-.4.3-.58.47-.64.61-1.31,1.27-1.05,2.24.32,1.22,1.4,1.29,2.42,1.26,2-.06,4,0,5.08,2.22.63,1.35,1.15,3.15,3.14,2.2A24.89,24.89,0,0,0,734.79,482.07ZM752,607.25c-2.92,1.12-5,2.51-7.24,2.65-3,.21-3.22,1.74-2.78,3.93a60.79,60.79,0,0,1,1.31,14.86c-.06,1.15-.57,2.83,1.15,3.1a2.67,2.67,0,0,0,3-2.3c.59-3.51,3.51-5,5.76-7,.72-.67,1.57-1.2,2.31-1.86.53-.46,1.32-1,.63-1.81-.5-.57-1.14-.14-1.64.24s-.76.66-1.18.92c-2.7,1.65-4.85,1.13-6.73-1.47s-1-4.32,1-6.17C749,611,750.91,610.15,752,607.25Zm-46.08,63.64c-.09,3.25.88,4.34,3,3.18,5.25-2.85,10.4-5.88,15.6-8.8,1.14-.64,1.23-1.38.6-2.45s-1.29-1.17-2.16-.56c-4.69,3.25-10.32,4.28-15.42,6.57C706.61,669.26,705.63,669.53,705.92,670.89Zm-6.19-202.35h0a43.4,43.4,0,0,0,4.84-.34c1.75-.3,4.47.79,5.06-1.06.79-2.46-2.48-2.55-3.8-3.88a20.14,20.14,0,0,0-2.06-1.59,2.5,2.5,0,0,0-2.8-.45c-3,1.7-6,3.51-9,5.29-.65.39-1.34.9-1,1.76s1.26.68,2,.64C695.25,468.81,697.49,468.66,699.73,468.54ZM739.3,602.88c.92.07,7.92-5.75,7.51-6.23a32.44,32.44,0,0,0-5.9-6c-1.18-.82-6.26,2.92-6.43,4.23C734.36,595.84,738.55,602.82,739.3,602.88Zm-54.52-79c-3.44-.33-6.82-3-10.32.37-1.1,1.06-2.46,1.39-1.89,3.33s1.57,2.8,3.49,2.66c2.35-.16,4.86.07,7-.7,2-.7.21-3.56,1.65-5C684.84,524.43,684.76,524.11,684.78,523.89ZM564.63,411c-7.45,4.39-15,7.26-15.93,15.48C553.84,422.65,559.69,418.11,564.63,411Zm60.09-34.13c.57-.32,1.13-.6,1.64-.94,3-2,5.82-4.27,8.95-6,3.3-1.85,4-5.22,5.48-8.14a1.47,1.47,0,0,0,0-1.74,1.09,1.09,0,0,0-1.65.08q-7.67,7.37-15.26,14.78a1.14,1.14,0,0,0-.21,1.65C623.91,376.79,624.35,376.8,624.72,376.91ZM662.4,487c6.43-1.55,11.54-5,17.4-6.28C672.18,478.31,667.54,480,662.4,487Zm-38.12-61.72c4.45-2,8.91-3.9,13.35-5.88a1.13,1.13,0,0,0,.57-1.56c-.43-1.12-1.24-.91-2.15-.68C631.3,418.43,627,420.44,624.28,425.31Zm69.19,60.1a55,55,0,0,0,8.34-5.82c1.06-.82,1.22-2-.27-2-2.81-.05-5.89-.18-8.36.88-1.69.72.76,3.19.23,5A6.52,6.52,0,0,0,693.47,485.41Zm6.93,64.23-.78-1c-3.27,1.58-6.6,3.06-9.79,4.79-.8.44-2.57,1.26-1.7,2.38s3,2.59,4.51,1.41A96,96,0,0,0,700.4,549.64ZM584.61,501.1c2.32,2.76,5.42,3.68,7.74,5.66.67.57,1.54,1.24,2.34.61,1.43-1.13.94-3,1.23-4.51a1.39,1.39,0,0,0-1.48-1.73C591.35,501.06,588.26,501.1,584.61,501.1Zm46,187.26c1-.06,2.48.27,1.93-1-.62-1.46-1.34-3.43-3.17-3.71s-3.12,1.73-3,2.73C626.6,688.94,629.34,687.54,630.62,688.36Zm-81.5-95.48c-.12,3-1.62,5.3.7,7a1.89,1.89,0,0,0,2.6-.78C553.15,596.58,551.34,595.1,549.12,592.88Zm30.32-94.76c1.89-.51,1-2.33,1.68-3.37.49-.79.41-1.46-.65-1.56a2.89,2.89,0,0,0-3.14,2.09C577,496.6,578.67,497.11,579.44,498.12Zm41,22.08c.17-1-.33-1.15-1-1.09-1.18.1-2.23.41-2.34,1.8a1.36,1.36,0,0,0,1.59,1.55C620.13,522.36,620.13,521,620.48,520.2ZM618.4,679.72c.15-1-.36-1.44-1-1.23-1.8.59-4,1-4.61,3-.25.8,1.34,1.31,2.29,1.37C617.35,683,617.68,681,618.4,679.72Zm7.63-6.8a4.3,4.3,0,0,0,3.25-2.68c.37-1.37-1.42-1.31-2.42-1.58-1.28-.34-2.29-.09-2.13,1.54C624.83,671.21,624.46,672.52,626,672.92Zm-5.63,4.8c-.11-.2-.19-.5-.33-.53a.72.72,0,0,0-.6.24c-.2.38,0,.68.42.66C620.07,678.08,620.23,677.85,620.4,677.72Zm2.45-300.37c-.07-.08-.13-.22-.21-.23s-.17.12-.26.18c.07.09.14.23.22.24S622.77,377.42,622.85,377.35Z"/><path class="cls-1" d="M185.07,818c0-4.87-.07-9.75,0-14.62.06-3.21,2.1-4.72,5.2-3.72a11.92,11.92,0,0,0,4.77.64c12.27-1.1,18.3,7.83,18.47,17.65.14,8.09-1.76,15.32-10,18.76-4.89,2-10.18,2.06-15.39,1.18-2.46-.41-3-2.37-3-4.52C185.05,828.24,185.07,823.11,185.07,818Z"/><path class="cls-1" d="M667.59,799.29a18.41,18.41,0,0,1,18.6,14.44,23.94,23.94,0,0,1-1.93,17.32c-5.16,10-20.37,10.7-27.32,2.31-6-7.23-6.72-19-1.77-27A14.46,14.46,0,0,1,667.59,799.29Z"/><path class="cls-1" d="M709.86,819.74c-.27-12.09,5.74-19.75,15-20.44a18.36,18.36,0,0,1,19.25,15.06c1.19,6.2.74,11.83-2.31,17.26-5.47,9.72-21.93,10.08-27.94.68C711.22,828.09,709.57,823.61,709.86,819.74Z"/><path class="cls-1" d="M256.3,808.22c0,6.5-7.19,12.17-13.46,10.63-1.27-.32-1.44-1.16-1.45-2.22q-.06-6.9-.13-13.8a3,3,0,0,1,2-3.19C249.24,797.36,256.28,802,256.3,808.22Z"/><path class="cls-1" d="M339.54,822.73c-6.49,0-6.53,0-4.42-6.31a65.5,65.5,0,0,1,2.86-7.26c.86-1.82,2-2.18,3,0L346,820c.75,1.64.43,2.67-1.56,2.71C342.78,822.75,341.16,822.73,339.54,822.73Z"/></g></g></svg>