<svg width="48" height="52" viewBox="0 0 48 52" fill="none" xmlns="http://www.w3.org/2000/svg">
<g filter="url(#filter0_d)">
<path d="M36.5625 42.8906V23.9062H13.3594L11.6613 21.7969H7.73438L5.625 23.9062V42.8906H36.5625Z" fill="#F7B023"/>
<path d="M9.84375 2.10938H33.75V33.0469H9.84375V2.10938Z" fill="#AFEAEF"/>
<path d="M9.84375 2.10938V4.21875H22.6694C24.6757 4.21875 26.5999 5.01578 28.0186 6.43449C29.4373 7.8532 30.2344 9.77739 30.2344 11.7838V18.4506C30.2344 20.457 29.4373 22.3812 28.0186 23.7999C26.5999 25.2186 24.6757 26.0156 22.6694 26.0156H9.84375V33.0469H33.75V2.10938H9.84375Z" fill="#77D5D8"/>
<path d="M31.6406 7.73438H29.5312V5.625H26.7188V7.73438H24.6094V10.5469H26.7188V12.6562H29.5312V10.5469H31.6406V7.73438Z" fill="#4ABDCC"/>
<path d="M30.9375 7.03125H28.8281V4.92188H26.0156V7.03125H23.9062V9.84375H26.0156V11.9531H28.8281V9.84375H30.9375V7.03125Z" fill="#F44A2A"/>
<path d="M17.5781 14.7656H18.9844V16.1719H17.5781V14.7656Z" fill="#3B9DAF"/>
<path d="M20.3906 14.7656H30.2344V16.1719H20.3906V14.7656Z" fill="#3B9DAF"/>
<path d="M36.5625 42.8906H5.625L11.9531 28.125H42.8906L36.5625 42.8906Z" fill="#FFD300"/>
<path d="M34.9344 28.125C33.7482 30.893 31.7758 33.252 29.2617 34.9098C26.7477 36.5675 23.8024 37.4512 20.791 37.4512H7.95621L5.625 42.8906H36.5625L42.8906 28.125H34.9344Z" fill="#F7CE23"/>
<path d="M17.5781 19.6875H26.0156V21.0938H17.5781V19.6875Z" fill="#3B9DAF"/>
<path d="M27.4219 19.6875H29.5312V21.0938H27.4219V19.6875Z" fill="#3B9DAF"/>
<path d="M17.5781 22.5H23.2031V23.9062H17.5781V22.5Z" fill="#3B9DAF"/>
<path d="M24.6094 22.5H30.9375V23.9062H24.6094V22.5Z" fill="#3B9DAF"/>
<path d="M12.6562 14.0625H15.4688V16.875H12.6562V14.0625Z" fill="#066991"/>
<path d="M12.6562 20.3906H15.4688V23.2031H12.6562V20.3906Z" fill="#066991"/>
<path d="M33.75 23.9062H35.1562V28.125H33.75V23.9062Z" fill="#F99321"/>
<path d="M42.8906 27.4219H37.2656V23.9062C37.2656 23.7198 37.1915 23.5409 37.0597 23.4091C36.9278 23.2772 36.749 23.2031 36.5625 23.2031H34.4531V2.10938C34.4531 1.92289 34.379 1.74405 34.2472 1.61219C34.1153 1.48033 33.9365 1.40625 33.75 1.40625H9.84375C9.65727 1.40625 9.47843 1.48033 9.34657 1.61219C9.2147 1.74405 9.14062 1.92289 9.14062 2.10938V21.0938H7.73438C7.64204 21.0937 7.5506 21.1119 7.4653 21.1473C7.37999 21.1826 7.30247 21.2344 7.23718 21.2997L5.1278 23.4091C5.06251 23.4743 5.01072 23.5519 4.97539 23.6372C4.94006 23.7225 4.92187 23.8139 4.92188 23.9062V42.8906H4.92293C4.92262 42.983 4.94056 43.0744 4.97571 43.1598C5.01087 43.2452 5.06256 43.3228 5.1278 43.3881C5.19304 43.4535 5.27055 43.5053 5.35588 43.5406C5.44121 43.5758 5.53267 43.5939 5.625 43.5938H36.5625C36.7001 43.5938 36.8347 43.5534 36.9496 43.4776C37.0645 43.4019 37.1546 43.2941 37.2088 43.1676L43.537 28.4019C43.5828 28.295 43.6014 28.1783 43.591 28.0624C43.5807 27.9465 43.5417 27.835 43.4777 27.7379C43.4136 27.6408 43.3264 27.561 43.224 27.5059C43.1215 27.4507 43.007 27.4219 42.8906 27.4219ZM35.8594 24.6094V27.4219H34.4531V24.6094H35.8594ZM33.0469 2.8125V27.4219H11.9531C11.8155 27.4219 11.6809 27.4623 11.5661 27.538C11.4512 27.6138 11.3611 27.7216 11.3069 27.8481L10.5469 29.6212V2.8125H33.0469ZM8.02564 22.5H9.14062V32.9025L6.32812 39.465V24.1974L8.02564 22.5ZM36.0989 42.1875H6.69129L12.4168 28.8281H41.8243L36.0989 42.1875Z" fill="black"/>
<path d="M23.9062 10.5469H25.3125V11.9531C25.3125 12.1396 25.3866 12.3184 25.5184 12.4503C25.6503 12.5822 25.8291 12.6562 26.0156 12.6562H28.8281C29.0146 12.6562 29.1934 12.5822 29.3253 12.4503C29.4572 12.3184 29.5312 12.1396 29.5312 11.9531V10.5469H30.9375C31.124 10.5469 31.3028 10.4728 31.4347 10.3409C31.5665 10.2091 31.6406 10.0302 31.6406 9.84375V7.03125C31.6406 6.84477 31.5665 6.66593 31.4347 6.53407C31.3028 6.4022 31.124 6.32812 30.9375 6.32812H29.5312V4.92188C29.5312 4.73539 29.4572 4.55655 29.3253 4.42469C29.1934 4.29283 29.0146 4.21875 28.8281 4.21875H26.0156C25.8291 4.21875 25.6503 4.29283 25.5184 4.42469C25.3866 4.55655 25.3125 4.73539 25.3125 4.92188V6.32812H23.9062C23.7198 6.32812 23.5409 6.4022 23.4091 6.53407C23.2772 6.66593 23.2031 6.84477 23.2031 7.03125V9.84375C23.2031 10.0302 23.2772 10.2091 23.4091 10.3409C23.5409 10.4728 23.7198 10.5469 23.9062 10.5469ZM24.6094 7.73438H26.0156C26.2021 7.73438 26.3809 7.6603 26.5128 7.52843C26.6447 7.39657 26.7188 7.21773 26.7188 7.03125V5.625H28.125V7.03125C28.125 7.21773 28.1991 7.39657 28.3309 7.52843C28.4628 7.6603 28.6416 7.73438 28.8281 7.73438H30.2344V9.14062H28.8281C28.6416 9.14062 28.4628 9.2147 28.3309 9.34657C28.1991 9.47843 28.125 9.65727 28.125 9.84375V11.25H26.7188V9.84375C26.7188 9.65727 26.6447 9.47843 26.5128 9.34657C26.3809 9.2147 26.2021 9.14062 26.0156 9.14062H24.6094V7.73438Z" fill="black"/>
<path d="M17.5781 14.7656H18.9844V16.1719H17.5781V14.7656Z" fill="black"/>
<path d="M20.3906 14.7656H30.2344V16.1719H20.3906V14.7656Z" fill="black"/>
<path d="M17.5781 19.6875H26.0156V21.0938H17.5781V19.6875Z" fill="black"/>
<path d="M27.4219 19.6875H29.5312V21.0938H27.4219V19.6875Z" fill="black"/>
<path d="M17.5781 22.5H23.2031V23.9062H17.5781V22.5Z" fill="black"/>
<path d="M24.6094 22.5H30.9375V23.9062H24.6094V22.5Z" fill="black"/>
<path d="M12.6562 17.5781H15.4688C15.6552 17.5781 15.8341 17.504 15.9659 17.3722C16.0978 17.2403 16.1719 17.0615 16.1719 16.875V14.0625C16.1719 13.876 16.0978 13.6972 15.9659 13.5653C15.8341 13.4335 15.6552 13.3594 15.4688 13.3594H12.6562C12.4698 13.3594 12.2909 13.4335 12.1591 13.5653C12.0272 13.6972 11.9531 13.876 11.9531 14.0625V16.875C11.9531 17.0615 12.0272 17.2403 12.1591 17.3722C12.2909 17.504 12.4698 17.5781 12.6562 17.5781ZM13.3594 14.7656H14.7656V16.1719H13.3594V14.7656Z" fill="black"/>
<path d="M12.6562 23.9062H15.4688C15.6552 23.9062 15.8341 23.8322 15.9659 23.7003C16.0978 23.5684 16.1719 23.3896 16.1719 23.2031V20.3906C16.1719 20.2041 16.0978 20.0253 15.9659 19.8934C15.8341 19.7616 15.6552 19.6875 15.4688 19.6875H12.6562C12.4698 19.6875 12.2909 19.7616 12.1591 19.8934C12.0272 20.0253 11.9531 20.2041 11.9531 20.3906V23.2031C11.9531 23.3896 12.0272 23.5684 12.1591 23.7003C12.2909 23.8322 12.4698 23.9062 12.6562 23.9062ZM13.3594 21.0938H14.7656V22.5H13.3594V21.0938Z" fill="black"/>
</g>
<defs>
<filter id="filter0_d" x="-4" y="0" width="53" height="53" filterUnits="userSpaceOnUse" color-interpolation-filters="sRGB">
<feFlood flood-opacity="0" result="BackgroundImageFix"/>
<feColorMatrix in="SourceAlpha" type="matrix" values="0 0 0 0 0 0 0 0 0 0 0 0 0 0 0 0 0 0 127 0"/>
<feOffset dy="4"/>
<feGaussianBlur stdDeviation="2"/>
<feColorMatrix type="matrix" values="0 0 0 0 0 0 0 0 0 0 0 0 0 0 0 0 0 0 0.25 0"/>
<feBlend mode="normal" in2="BackgroundImageFix" result="effect1_dropShadow"/>
<feBlend mode="normal" in="SourceGraphic" in2="effect1_dropShadow" result="shape"/>
</filter>
</defs>
</svg>
