<svg width="400" height="116" viewBox="0 0 400 116" fill="none" xmlns="http://www.w3.org/2000/svg">
<path fill-rule="evenodd" clip-rule="evenodd" d="M76.1979 13.0992C76.0139 13.1892 75.4889 13.4902 75.0309 13.7662C74.5729 14.0432 73.8599 14.4362 73.4479 14.6392C73.0349 14.8422 72.5989 15.1022 72.4769 15.2172C72.3559 15.3322 72.1959 15.4252 72.1209 15.4252C72.0459 15.4252 71.2829 15.8372 70.4249 16.3402C69.5669 16.8432 68.8159 17.2562 68.7569 17.2572C68.6989 17.2582 67.9529 17.6712 67.0989 18.1752C66.2459 18.6802 65.4509 19.0922 65.3309 19.0922C65.2119 19.0922 65.1139 19.1622 65.1139 19.2472C65.1139 19.3332 64.9579 19.4522 64.7669 19.5132C64.5759 19.5742 63.8069 19.9742 63.0589 20.4022C62.3099 20.8302 61.5099 21.2732 61.2809 21.3852C61.0519 21.4982 60.7519 21.6602 60.6139 21.7472C59.9519 22.1652 57.4049 23.5922 57.3219 23.5922C57.2709 23.5922 56.4589 24.0422 55.5179 24.5922C54.5769 25.1422 53.7259 25.5922 53.6269 25.5922C53.5279 25.5922 53.4479 25.6672 53.4479 25.7592C53.4479 25.8502 53.3639 25.9252 53.2609 25.9252C53.1579 25.9252 52.4269 26.2902 51.6359 26.7362C49.7069 27.8242 47.0899 29.2732 45.8639 29.9312C45.3139 30.2272 44.2269 30.8252 43.4479 31.2602C42.6679 31.6962 41.6759 32.2462 41.2419 32.4842C40.8079 32.7222 39.8539 33.2562 39.1219 33.6712C38.3909 34.0862 37.7539 34.4252 37.7059 34.4252C37.6589 34.4252 37.1129 34.7372 36.4919 35.1182C35.8719 35.4992 35.0639 35.9512 34.6979 36.1232C34.3309 36.2952 33.9179 36.5062 33.7809 36.5922C32.9479 37.1152 31.2549 38.0842 30.6139 38.4052C27.9259 39.7532 27.3619 40.5722 28.6879 41.2042C29.0139 41.3602 29.2809 41.5482 29.2809 41.6232C29.2809 41.6982 29.3589 41.7592 29.4549 41.7592C29.5509 41.7592 30.2069 42.1522 30.9139 42.6342C31.6199 43.1152 32.3229 43.5602 32.4769 43.6242C32.6299 43.6872 33.1359 44.0062 33.5999 44.3322C34.0639 44.6582 34.4989 44.9252 34.5659 44.9252C34.7709 44.9252 41.1829 41.6892 41.4179 41.4672C41.5389 41.3522 41.7339 41.2592 41.8509 41.2592C41.9679 41.2592 42.7529 40.8842 43.5949 40.4272C44.4359 39.9702 45.3069 39.5502 45.5289 39.4942C45.7519 39.4382 46.0209 39.2872 46.1279 39.1592C46.2349 39.0302 46.3909 38.9252 46.4749 38.9252C46.5589 38.9252 47.1309 38.6932 47.7459 38.4102C50.0529 37.3472 50.5619 37.1182 51.7809 36.5922C52.8919 36.1132 53.4139 35.8822 55.3639 35.0052C57.4349 34.0742 58.1809 33.7592 58.3149 33.7592C58.3989 33.7592 58.8579 33.5802 59.3329 33.3612C59.8089 33.1432 61.1119 32.5432 62.2299 32.0282C63.3469 31.5132 64.3699 31.0922 64.5009 31.0922C64.6329 31.0922 64.8339 30.9792 64.9479 30.8422C65.0619 30.7052 65.2479 30.5922 65.3619 30.5922C65.4749 30.5922 66.2349 30.2862 67.0499 29.9132C67.8639 29.5402 68.7559 29.1342 69.0309 29.0122C69.3059 28.8892 70.4519 28.3702 71.5779 27.8572C72.7039 27.3452 73.6719 26.9252 73.7279 26.9252C73.7849 26.9252 74.3079 26.7002 74.8899 26.4252C76.1859 25.8132 76.2009 25.8132 77.4889 26.4012C78.0619 26.6632 78.9059 27.0322 79.3639 27.2202C80.2119 27.5692 82.7549 28.6802 84.1139 29.2962C84.5269 29.4832 85.1829 29.7762 85.5729 29.9472C85.9619 30.1192 86.6369 30.4202 87.0729 30.6182C87.5079 30.8162 88.2019 31.1062 88.6139 31.2642C89.0269 31.4212 90.1519 31.9032 91.1139 32.3352C92.0769 32.7672 93.0139 33.1852 93.1979 33.2632C93.3809 33.3422 94.1919 33.7102 94.9989 34.0822C95.8069 34.4542 96.5659 34.7592 96.6869 34.7592C96.8079 34.7592 96.9999 34.8712 97.1139 35.0092C97.2279 35.1462 97.4279 35.2592 97.5569 35.2592C97.6869 35.2592 98.6919 35.6702 99.7909 36.1732C100.891 36.6762 101.976 37.1352 102.202 37.1912C102.429 37.2482 102.614 37.3622 102.614 37.4432C102.614 37.5252 102.72 37.5922 102.849 37.5922C102.978 37.5922 103.559 37.8072 104.14 38.0692C104.722 38.3312 105.573 38.7112 106.031 38.9132C107.078 39.3742 111.336 41.4802 111.448 41.5922C111.493 41.6382 112.864 42.3472 114.492 43.1682L117.454 44.6602L117.992 44.3412C118.79 43.8692 119.832 43.2782 120.094 43.1522C120.22 43.0902 120.936 42.6882 121.685 42.2572C122.434 41.8262 123.328 41.3402 123.671 41.1772C124.787 40.6472 125.419 41.0882 112.448 33.3512C110.568 32.2302 107.868 30.6192 106.448 29.7702C105.027 28.9212 103.752 28.1642 103.614 28.0882C103.477 28.0122 102.314 27.3532 101.031 26.6232C95.5699 23.5182 92.8489 21.9812 92.6139 21.8712C92.2239 21.6892 90.9179 20.9502 88.1009 19.3192C86.6729 18.4932 85.3979 17.7652 85.2679 17.7022C84.8649 17.5082 83.4609 16.7122 81.1139 15.3472C79.8769 14.6282 78.6409 13.9202 78.3689 13.7742C78.0959 13.6282 77.7959 13.4162 77.7019 13.3032C77.4649 13.0172 76.5999 12.9002 76.1979 13.0992ZM30.5169 92.9412C30.4339 93.0702 30.3399 95.2192 30.3069 97.7172L30.2459 102.259H76.8469H123.448V97.7012V93.1442L115.156 93.0352C94.8689 92.7692 30.6719 92.6972 30.5169 92.9412Z" fill="#FCD404"/>
<path fill-rule="evenodd" clip-rule="evenodd" d="M50.0309 46.9252C49.5729 47.0012 48.5289 47.0692 47.7109 47.0772C46.8939 47.0852 45.7689 47.1612 45.2109 47.2462C44.6539 47.3312 43.1189 47.5332 41.7999 47.6952C38.9899 48.0392 38.7809 48.1622 38.7809 49.4652C38.7809 50.7602 39.1119 51.2102 40.3079 51.5432C42.8669 52.2542 42.8229 52.0172 42.9369 65.5922C43.0549 79.7562 43.0539 79.7642 41.0229 81.2652C40.0799 81.9612 39.7289 82.5932 39.8109 83.4472C39.9169 84.5622 41.4689 84.8902 46.7389 84.9132C48.2749 84.9202 49.4479 84.9922 49.4479 85.0792C49.4479 85.3352 61.3969 85.1432 63.5309 84.8522C72.1359 83.6812 78.0479 80.1752 78.6409 75.8912C78.7339 75.2222 78.8649 74.6002 78.9329 74.5092C79.0009 74.4172 79.1929 73.9672 79.3589 73.5092C79.5249 73.0502 79.7179 72.6002 79.7859 72.5092C80.5329 71.5142 80.5329 63.3272 79.7859 61.6752C79.4899 61.0222 79.1139 59.4482 79.1139 58.8642C79.1139 58.4412 79.0189 58.2192 78.7809 58.0922C78.5979 57.9942 78.4479 57.7822 78.4479 57.6202C78.4479 57.4592 78.1119 56.6582 77.7009 55.8402C77.2909 55.0222 76.8789 54.1632 76.7849 53.9312C76.6199 53.5212 76.1249 52.6602 75.6139 51.8942C74.9829 50.9472 73.3749 49.4442 72.5719 49.0502C72.0909 48.8142 71.4749 48.4292 71.2019 48.1952C70.8969 47.9312 70.4189 47.7322 69.9519 47.6732C69.5369 47.6212 68.9349 47.5032 68.6139 47.4102C68.2929 47.3182 67.6179 47.1652 67.1139 47.0702C65.9879 46.8572 51.1989 46.7322 50.0309 46.9252ZM108.698 47.1672C106.999 47.9432 105.498 48.0872 103.448 47.6712C102.76 47.5322 101.748 47.3462 101.198 47.2582C99.8539 47.0442 95.0299 47.0562 94.1979 47.2762C93.8309 47.3732 92.8559 47.5922 92.0309 47.7632C88.5719 48.4802 84.3769 51.3652 83.2119 53.8282C80.7629 59.0032 83.6899 64.2582 90.9989 67.8122C94.0259 69.2842 96.0929 70.2592 96.1879 70.2592C96.3499 70.2592 99.6929 72.1572 99.9179 72.3772C100.039 72.4952 100.199 72.5922 100.273 72.5922C101.02 72.5922 103.451 75.9672 103.714 77.3712C103.928 78.5102 102.749 80.0752 101.137 80.7912C100.712 80.9812 100.24 81.1972 100.088 81.2722C99.3649 81.6302 96.9269 81.8102 95.3999 81.6172C91.9749 81.1872 89.6429 79.8032 87.8379 77.1302C87.4859 76.6082 87.0659 76.0342 86.9059 75.8552C86.7459 75.6762 86.6139 75.4722 86.6139 75.4022C86.6139 75.2722 85.6289 73.7422 85.4479 73.5922C85.3929 73.5462 85.1749 73.2612 84.9629 72.9582C83.7389 71.2052 83.0809 74.0392 83.4429 79.5092C83.5999 81.8952 84.0129 84.3572 84.3459 84.8952C84.6869 85.4472 86.1189 84.9252 87.2969 83.8192C88.0029 83.1562 88.8299 83.1182 89.6629 83.7112C90.452 84.2722 92.4009 85.0922 92.9459 85.0922C93.1429 85.0922 93.4229 85.2102 93.5669 85.3542C93.7319 85.5192 93.9749 85.5792 94.2239 85.5172C94.4419 85.4622 95.9119 85.3452 97.4919 85.2552C99.0719 85.1662 100.814 84.9762 101.364 84.8332C101.914 84.6912 103.002 84.4342 103.781 84.2622C106.253 83.7182 109.54 81.7702 110.913 80.0352C111.214 79.6542 111.559 79.2242 111.678 79.0802C111.797 78.9352 112.037 78.5602 112.211 78.2462C112.385 77.9322 112.609 77.5632 112.71 77.4252C113.889 75.8102 114.065 69.4522 112.989 67.3502C112.462 66.3192 110.708 65.0292 108.781 64.2552C107.801 63.8612 105.628 62.6122 103.677 61.3202C102.657 60.6442 101.748 60.0922 101.657 60.0922C101.565 60.0922 101.032 59.7362 100.471 59.3002C99.9109 58.8652 99.0439 58.2532 98.5459 57.9412C95.8219 56.2372 94.2909 54.0972 94.9559 52.9262C95.1389 52.6052 95.4079 52.0662 95.5559 51.7282C96.5719 49.3952 103.837 50.1602 105.732 52.7992C106.385 53.7082 107.224 55.3562 107.365 56.0092C107.425 56.2842 107.535 56.6592 107.61 56.8422C107.686 57.0252 107.838 57.4152 107.948 57.7092C108.496 59.1702 110.352 59.2712 110.84 57.8662C111.385 56.2972 111.698 49.1072 111.27 47.9782C110.802 46.7422 110.107 46.5232 108.698 47.1672ZM204.599 47.3842C204.163 48.5322 201.582 55.0442 201.445 55.3422C201.361 55.5252 200.985 56.4632 200.611 57.4252C200.237 58.3882 199.831 59.4002 199.708 59.6752C199.585 59.9502 199.433 60.3472 199.37 60.5562C198.975 61.8642 198.236 63.1382 197.771 63.3132C196.966 63.6172 197.207 63.7592 198.531 63.7592C199.693 63.7592 200.12 63.5912 199.532 63.3652C199.246 63.2562 199.354 62.9252 201.044 58.7192L202.031 56.2622L204.381 56.2602L206.731 56.2592L207.164 57.3002C209.607 63.1792 209.616 63.2052 209.215 63.3582C208.527 63.6232 209.115 63.7592 210.948 63.7592C212.17 63.7592 212.948 63.6942 212.948 63.5922C212.948 63.5002 212.829 63.4252 212.685 63.4252C212.228 63.4252 211.514 62.5412 211.137 61.5072C210.936 60.9582 210.702 60.3592 210.617 60.1752C210.434 59.7862 208.38 54.7262 207.909 53.5092C207.732 53.0502 207.486 52.4502 207.363 52.1752C207.24 51.9002 206.823 50.8882 206.437 49.9252C206.052 48.9632 205.622 47.8942 205.483 47.5502C205.184 46.8122 204.841 46.7472 204.599 47.3842ZM252.364 47.0472C250.06 47.6212 248.635 50.3992 249.425 52.7742C249.988 54.4662 251.071 55.3612 253.554 56.1862C257.052 57.3482 258.412 59.0812 257.379 61.0592C255.651 64.3682 249.128 63.3172 249.112 59.7272C249.11 59.4242 249.037 59.0632 248.948 58.9252C248.839 58.7582 248.785 59.5212 248.784 61.2362L248.781 63.7982L252.073 63.7072C256.002 63.5982 256.068 63.5842 257.102 62.6542C259.121 60.8402 259.363 57.9792 257.658 56.0832C256.779 55.1052 256.245 54.8082 253.782 53.9262C250.972 52.9192 250.281 52.2922 250.281 50.7482C250.281 47.7462 254.065 46.5382 256.713 48.6952C257.886 49.6502 258.015 49.5862 257.488 48.3092C257.071 47.2972 257.045 47.2712 256.247 47.1002C255.429 46.9252 252.989 46.8912 252.364 47.0472ZM269.316 47.1772C264.859 48.4162 262.206 52.4472 262.792 57.0922C263.487 62.6012 268.652 65.1382 276.165 63.6592L278.364 63.2262L278.923 62.3152C279.625 61.1692 279.518 61.0572 278.462 61.8322C272.475 66.2272 264.042 61.3512 264.483 53.7492C264.806 48.1702 271.779 45.5672 276.631 49.2152C277.948 50.2042 277.971 50.1682 277.183 48.3362C276.696 47.2022 271.813 46.4832 269.316 47.1772ZM309.611 47.0902C308.285 47.4232 307.174 48.0322 305.805 49.1752C304.13 50.5752 302.792 53.7272 302.784 56.2922C302.754 66.1952 317.41 66.7992 319.711 56.9902C321.039 51.3292 317.911 47.0592 312.374 46.9762C311.177 46.9582 309.934 47.0092 309.611 47.0902ZM330.749 47.1612C329.008 47.6612 327.093 49.1022 325.738 50.9342C322.435 55.3962 324.674 62.4352 329.821 63.7722C337.389 65.7382 344.016 57.7782 340.609 50.8132C339.12 47.7692 334.541 46.0732 330.749 47.1612ZM139.948 47.3142C139.948 47.4692 140.128 47.5912 140.403 47.6232C141.084 47.7012 141.142 48.4162 141.083 56.0042C141.028 63.0262 140.985 63.4252 140.275 63.4252C140.095 63.4252 139.948 63.5002 139.948 63.5922C139.948 63.8152 149.311 63.8082 150.859 63.5842C159.191 62.3802 160.273 50.2402 152.283 47.6212C150.669 47.0922 139.948 46.8262 139.948 47.3142ZM161.989 47.3002C162.027 47.4152 162.202 47.5352 162.378 47.5682C163.125 47.7082 163.114 47.5892 163.114 55.4342C163.114 63.4632 163.118 63.4252 162.269 63.4252C162.092 63.4252 161.948 63.5002 161.948 63.5922C161.948 63.6952 162.809 63.7592 164.198 63.7592C166.312 63.7592 167.068 63.5912 165.957 63.3692C165.247 63.2272 165.116 62.5422 165.115 58.9672L165.114 55.9252H166.529H167.943L168.383 56.6342C169.933 59.1312 172.283 62.4032 172.974 63.0282C174.265 64.1942 177.971 64.1862 178.943 63.0142C179.285 62.6022 179.024 62.5252 178.285 62.8212C176.013 63.7302 174.619 62.5282 170.417 56.0342L169.894 55.2262L170.463 54.7852C173.521 52.4122 173.401 48.5372 170.234 47.4242C169.07 47.0152 161.858 46.9072 161.989 47.3002ZM182.948 47.3312C182.948 47.4682 183.144 47.5922 183.405 47.6232C184.062 47.6982 184.072 47.8152 184.095 55.5392C184.115 62.7662 184.077 63.1782 183.37 63.3552C182.153 63.6612 183.442 63.7592 188.698 63.7592H194.448V62.6752C194.448 61.4922 194.077 61.1252 193.863 62.0982C193.666 62.9932 193.246 63.1212 190.411 63.1502C186.028 63.1942 186.231 63.3972 186.143 58.8702L186.079 55.5642L189.025 55.6202C191.636 55.6692 191.99 55.7092 192.137 55.9712C192.404 56.4492 192.614 56.1322 192.614 55.2492C192.614 54.6282 192.553 54.4252 192.364 54.4252C192.227 54.4252 192.114 54.5282 192.114 54.6532C192.114 54.9662 191.03 55.0922 188.341 55.0922H186.114V51.4252V47.7592H189.166C192.525 47.7592 192.665 47.7962 192.903 48.7472C193.167 49.8032 193.448 49.5582 193.448 48.2732V47.0922H188.198C183.75 47.0922 182.948 47.1292 182.948 47.3312ZM216.948 47.3422C216.948 47.4982 217.105 47.5922 217.364 47.5922C218.536 47.5922 218.739 48.4822 218.305 51.7252C217.999 54.0162 217.794 55.4842 216.95 61.4252C216.728 62.9922 216.547 63.4252 216.118 63.4252C215.933 63.4252 215.781 63.5002 215.781 63.5922C215.781 63.6892 216.337 63.7592 217.114 63.7592C217.892 63.7592 218.448 63.6892 218.448 63.5922C218.448 63.5002 218.344 63.4252 218.218 63.4252C217.711 63.4252 217.59 62.9952 217.767 61.8142C217.86 61.1882 218.126 59.2882 218.358 57.5922C218.59 55.8962 218.89 53.7212 219.025 52.7592C219.16 51.7962 219.275 50.8962 219.281 50.7592C219.299 50.3202 219.305 50.3332 222.702 58.1752C223.099 59.0922 223.798 60.7042 224.254 61.7592C225.2 63.9422 225.333 64.0252 225.859 62.7592C226.068 62.2552 226.815 60.5302 227.518 58.9252C228.221 57.3212 229.334 54.7462 229.992 53.2022C230.65 51.6592 231.207 50.4592 231.229 50.5352C231.252 50.6122 231.42 51.8002 231.602 53.1752C231.784 54.5502 232.134 57.1002 232.379 58.8422C232.958 62.9462 232.963 63.1322 232.489 63.3402C231.764 63.6582 232.133 63.7592 234.031 63.7592C235.946 63.7592 236.312 63.6452 235.536 63.2912C235.06 63.0752 235.028 62.9672 234.688 60.5092C233.816 54.1992 233.601 52.6602 233.376 51.0922C232.969 48.2552 233.062 47.7442 234.017 47.5682C234.988 47.3892 234.4 47.0922 233.073 47.0922H231.671L231.242 48.0532C231.006 48.5822 230.385 50.0262 229.861 51.2622C229.338 52.4982 228.731 53.9042 228.513 54.3882C228.294 54.8712 227.92 55.7342 227.681 56.3042C227.442 56.8752 227.113 57.6422 226.951 58.0092C226.788 58.3752 226.491 59.0502 226.29 59.5092L225.924 60.3422L225.644 59.7592C225.49 59.4382 225.126 58.6132 224.834 57.9252C223.602 55.0182 223.226 54.1392 222.944 53.5092C222.781 53.1422 222.186 51.7552 221.622 50.4252C221.059 49.0962 220.508 47.8022 220.399 47.5502C220.159 46.9982 216.948 46.8052 216.948 47.3422ZM283.281 47.3312C283.281 47.4682 283.477 47.5922 283.739 47.6232L284.198 47.6752L284.241 55.3232C284.286 63.2692 284.274 63.4252 283.594 63.4252C283.422 63.4252 283.281 63.5002 283.281 63.5922C283.281 63.6952 284.114 63.7592 285.448 63.7592C286.781 63.7592 287.614 63.6952 287.614 63.5922C287.614 63.5002 287.469 63.4252 287.29 63.4252C286.547 63.4252 286.448 62.9222 286.448 59.1382V55.5922H290.965H295.481L295.402 59.0502C295.313 62.9802 295.264 63.2372 294.593 63.3712C293.493 63.5912 294.259 63.7592 296.364 63.7592C297.753 63.7592 298.614 63.6952 298.614 63.5922C298.614 63.5002 298.47 63.4252 298.293 63.4252C297.435 63.4252 297.441 63.4872 297.488 55.2882L297.531 47.6792L298.017 47.5942C299.424 47.3482 298.581 47.0922 296.364 47.0922C294.617 47.0922 294.103 47.1402 294.155 47.3002C294.193 47.4152 294.381 47.5322 294.574 47.5602C295.291 47.6662 295.355 47.9632 295.422 51.5302L295.486 54.9252H290.967H286.448V51.5812C286.448 48.0152 286.528 47.5922 287.204 47.5922C287.458 47.5922 287.614 47.4972 287.614 47.3422C287.614 47.1332 287.262 47.0922 285.448 47.0922C283.677 47.0922 283.281 47.1362 283.281 47.3312ZM345.114 47.3372C345.114 47.4922 345.265 47.5922 345.498 47.5922C346.285 47.5922 346.281 47.5512 346.281 55.4472C346.281 63.4622 346.285 63.4252 345.436 63.4252C345.259 63.4252 345.114 63.5002 345.114 63.5922C345.114 63.7002 347.142 63.7592 350.864 63.7592H356.614V61.6752C356.614 59.3762 356.448 59.0122 356.162 60.6842C355.805 62.7662 355.184 63.1682 352.364 63.1472C348.383 63.1162 348.543 63.4562 348.484 54.8952C348.434 47.6172 348.43 47.6552 349.252 47.5602C349.497 47.5322 349.679 47.4342 349.656 47.3422C349.582 47.0392 345.114 47.0342 345.114 47.3372ZM149.698 48.2582C155.324 50.0222 157.462 55.5852 154.299 60.2302C152.845 62.3652 151.265 63.0042 147.448 63.0022C142.982 63.0002 143.212 63.4462 143.147 54.6182L143.097 47.7112L145.814 47.8022C147.961 47.8742 148.776 47.9692 149.698 48.2582ZM168.675 48.1722C170.652 49.1212 171.411 52.3762 170.015 53.9212C169.211 54.8112 168.606 55.0432 166.739 55.1802L165.114 55.2982V51.5082V47.7182L166.573 47.7902C167.52 47.8382 168.256 47.9712 168.675 48.1722ZM49.3559 48.1062C49.2939 48.2052 48.8969 48.4352 48.4729 48.6172C48.0479 48.7992 47.3999 49.1692 47.0329 49.4402C46.6649 49.7112 45.9519 50.2032 45.4479 50.5332C44.9439 50.8642 44.3019 51.3502 44.0229 51.6132C43.3709 52.2282 43.2909 52.2152 42.7279 51.4012L42.2589 50.7232L43.0229 49.9912C43.4429 49.5882 43.8789 49.2622 43.9919 49.2652C44.1049 49.2692 43.9539 49.4812 43.6559 49.7362C43.3529 49.9962 43.1139 50.3592 43.1139 50.5622C43.1139 51.1362 43.8319 51.0302 44.5049 50.3572C44.8179 50.0442 45.2909 49.6762 45.5569 49.5392C45.8219 49.4012 46.3289 49.0232 46.6839 48.6992C47.3679 48.0722 47.6109 47.9842 48.7489 47.9482C49.2269 47.9332 49.4299 47.9862 49.3559 48.1062ZM54.0309 48.2592C53.7559 48.4412 53.4709 48.5902 53.3979 48.5912C53.3239 48.5922 52.6549 49.0072 51.9109 49.5142C51.0849 50.0762 50.4979 50.3752 50.4039 50.2822C50.2319 50.1102 50.5299 49.4252 50.7759 49.4252C50.8589 49.4252 51.2879 49.0902 51.7289 48.6802C52.4919 47.9712 52.5789 47.9352 53.5309 47.9312L54.5309 47.9282L54.0309 48.2592ZM58.8639 48.3202C58.4059 48.5352 57.8879 48.8722 57.7139 49.0682C57.4729 49.3392 57.3439 49.3802 57.1739 49.2392C56.9509 49.0542 56.2939 49.0992 55.7369 49.3372C55.2269 49.5552 55.5739 49.0532 56.3309 48.4772C56.9799 47.9832 57.1279 47.9442 58.3639 47.9372L59.6979 47.9292L58.8639 48.3202ZM62.2409 48.0402C62.0819 48.0822 61.7819 48.0832 61.5749 48.0432C61.3669 48.0032 61.4979 47.9692 61.8639 47.9672C62.2309 47.9662 62.4009 47.9982 62.2409 48.0402ZM65.1139 48.0032C65.1139 48.0452 64.9659 48.1602 64.7849 48.2572C64.5159 48.4012 64.4729 48.3862 64.5529 48.1792C64.6389 47.9542 65.1139 47.8052 65.1139 48.0032ZM102.864 48.4992C103.598 48.7212 104.025 48.9082 103.814 48.9142C103.604 48.9202 103.209 49.0402 102.938 49.1802C102.46 49.4272 102.439 49.4222 102.244 48.9942C102.046 48.5592 102.025 48.5542 100.829 48.6632C99.7979 48.7562 99.6139 48.7342 99.6139 48.5162C99.6139 48.1772 99.1939 48.1912 97.9699 48.5722C96.7959 48.9382 96.6329 48.8792 97.2499 48.3152C97.8509 47.7662 100.754 47.8612 102.864 48.4992ZM312.65 48.2632C314.5 48.9732 315.443 49.5922 316.599 50.8572C323.107 57.9782 313.722 67.4392 306.883 60.6512C302.615 56.4152 303.654 49.8162 308.864 48.0702C309.629 47.8142 311.762 47.9232 312.65 48.2632ZM335.114 48.7232C341.303 51.7692 342.007 59.4932 336.349 62.2792C329.439 65.6802 322.057 55.4212 327.45 49.9102C329.606 47.7072 332.226 47.3012 335.114 48.7232ZM67.4339 48.3192C67.0979 48.6132 66.5509 48.7892 66.7599 48.5362C66.8859 48.3832 67.1039 48.2592 67.2459 48.2592C67.3869 48.2592 67.4719 48.2862 67.4339 48.3192ZM110.307 49.4502C110.375 50.0452 110.363 50.0592 109.733 50.1442C109.378 50.1922 108.926 50.3682 108.726 50.5362L108.364 50.8422L108.678 50.4712C108.85 50.2672 109.132 50.0562 109.303 50.0022C109.525 49.9312 109.614 49.7432 109.614 49.3442C109.614 48.0372 110.155 48.1202 110.307 49.4502ZM41.2809 48.8312C41.2809 49.0332 40.2349 49.6102 40.0179 49.5272C39.5329 49.3412 40.0529 48.7592 40.7039 48.7592C41.0209 48.7592 41.2809 48.7912 41.2809 48.8312ZM60.4479 49.0132C60.4479 49.1052 59.9749 49.3022 59.2809 49.4992C58.8979 49.6082 58.9049 49.5902 59.3639 49.2832C59.8329 48.9712 60.4479 48.8172 60.4479 49.0132ZM66.0629 50.8542C65.1159 51.7512 64.4479 52.1652 64.4479 51.8562C64.4479 51.8172 64.4049 51.6752 64.3529 51.5402C64.2859 51.3652 64.6339 51.0882 65.5619 50.5792C66.2779 50.1862 66.8909 49.7982 66.9229 49.7182C66.9559 49.6372 67.0299 49.6192 67.0879 49.6772C67.1459 49.7352 66.6849 50.2652 66.0629 50.8542ZM107.522 49.8892C107.334 50.0472 107.002 50.2932 106.784 50.4372C106.175 50.8422 106.439 51.3312 107.201 51.2072L107.782 51.1132L107.299 51.5192C106.755 51.9772 106.522 52.0192 106.204 51.7172C106.084 51.6022 105.819 51.3712 105.615 51.2032L105.246 50.8982L106.472 50.2702C107.906 49.5352 107.976 49.5102 107.522 49.8892ZM72.2919 50.2082C73.0409 50.6512 73.0239 50.8942 72.2319 51.0912C71.8469 51.1872 71.4179 51.3382 71.2809 51.4272C71.1429 51.5152 70.8079 51.7122 70.5349 51.8642L70.0379 52.1402L70.4609 51.5742C70.6929 51.2632 71.0529 50.7652 71.2599 50.4672C71.6999 49.8352 71.6719 49.8422 72.2919 50.2082ZM91.6139 50.1572C91.6139 50.2852 91.0839 50.7162 90.4359 51.1162C87.6519 52.8312 87.0769 53.2432 85.3639 54.7462C85.1809 54.9072 84.8359 55.0872 84.5969 55.1462C84.2859 55.2232 84.0519 55.4882 83.7699 56.0812C83.2429 57.1912 83.1899 57.0432 83.6319 55.6972C83.9479 54.7352 84.0469 54.5922 84.4019 54.5922C84.7019 54.5922 84.8599 54.4602 84.9989 54.0922C85.1299 53.7452 85.2999 53.5922 85.5549 53.5922C85.7569 53.5922 86.1339 53.4202 86.3929 53.2102C86.6519 53.0002 87.2269 52.6432 87.6689 52.4182C88.1119 52.1932 88.6369 51.8542 88.8359 51.6662C89.0349 51.4772 89.6209 51.1192 90.1389 50.8702C90.6559 50.6212 91.1719 50.3072 91.2839 50.1722C91.5389 49.8652 91.6139 49.8612 91.6139 50.1572ZM104.748 50.1252C105.091 50.4692 104.968 50.5822 104.448 50.4002C104.173 50.3042 103.948 50.1582 103.948 50.0762C103.948 49.8572 104.514 49.8922 104.748 50.1252ZM63.6229 50.3322C63.5129 50.4642 63.3029 50.5262 63.1559 50.4702C62.9259 50.3812 62.9329 50.3502 63.2099 50.2412C63.7129 50.0442 63.8389 50.0722 63.6229 50.3322ZM61.1469 50.6662C62.7329 51.1482 64.4479 52.9022 64.4479 54.0452C64.4479 54.2322 64.5639 54.4812 64.7069 54.6002C65.1199 54.9422 65.2829 55.3532 65.5499 56.7232C66.0889 59.4862 66.2759 60.9012 66.2909 62.3422C66.2999 63.1672 66.3669 64.4792 66.4389 65.2592C66.6789 67.8572 66.1499 73.9712 65.6039 74.8962C65.4239 75.2012 65.1229 75.9272 64.9359 76.5082C64.5169 77.8042 63.8159 78.8872 62.6559 80.0282L61.7739 80.8962L60.3549 81.0142C58.2109 81.1932 57.1179 80.6732 56.6599 79.2592C56.5279 78.8502 56.4569 74.7102 56.4209 65.4252C56.3629 50.3132 56.2819 51.2132 57.7389 50.8472C58.1159 50.7532 58.4799 50.6192 58.5469 50.5502C58.7499 50.3432 60.3119 50.4132 61.1469 50.6662ZM69.5889 50.8842C68.6869 51.8672 68.4479 52.1592 68.4479 52.2782C68.4479 52.3462 68.3509 52.5012 68.2329 52.6222C68.1139 52.7432 67.9079 52.9962 67.7739 53.1852C67.6399 53.3742 67.2199 53.8072 66.8389 54.1482L66.1469 54.7682L65.7969 54.2022C65.2849 53.3732 65.3459 53.0362 66.0669 52.6922C66.4069 52.5292 66.9809 52.1592 67.3409 51.8692C67.9539 51.3762 69.5049 50.4992 69.8539 50.4482C69.9399 50.4362 69.8209 50.6322 69.5889 50.8842ZM93.9479 50.5022C93.9479 50.6372 93.0419 51.4412 92.6979 51.6112C92.5139 51.7012 92.6929 51.4722 93.0939 51.1002C93.8039 50.4442 93.9479 50.3432 93.9479 50.5022ZM204.946 51.8462C205.232 52.5772 205.534 53.3252 205.619 53.5092C205.703 53.6922 205.923 54.2362 206.107 54.7172L206.443 55.5922H204.378H202.313L202.639 54.7172C202.818 54.2362 203.062 53.6172 203.181 53.3422C203.3 53.0672 203.614 52.3032 203.878 51.6452C204.143 50.9862 204.374 50.4632 204.393 50.4822C204.412 50.5012 204.661 51.1142 204.946 51.8462ZM110.096 51.1982C109.725 51.6452 107.872 52.7592 107.499 52.7592C107.457 52.7592 107.645 52.5712 107.917 52.3422C108.19 52.1132 108.477 51.9252 108.555 51.9252C108.633 51.9242 109.035 51.7002 109.448 51.4252C110.307 50.8542 110.411 50.8172 110.096 51.1982ZM53.7599 51.9732C53.3359 52.3592 52.2949 53.5242 51.4459 54.5622C50.5969 55.6002 49.6319 56.6292 49.2999 56.8482C48.9689 57.0672 48.4729 57.4182 48.1979 57.6272L47.6979 58.0092L48.0879 57.5092C48.3019 57.2342 48.8639 56.5952 49.3379 56.0902C49.8109 55.5852 50.4729 54.7982 50.8089 54.3402C51.5539 53.3262 52.1639 52.7352 53.3169 51.9122C54.4909 51.0742 54.7139 51.1042 53.7599 51.9732ZM55.4479 52.3262C55.4479 52.6222 55.3069 52.7812 54.9059 52.9402C54.6079 53.0572 54.2889 53.1872 54.1979 53.2272C54.1059 53.2672 54.3269 52.9912 54.6899 52.6132C55.4639 51.8052 55.4479 51.8112 55.4479 52.3262ZM72.7809 52.2302C72.7809 52.4572 71.8319 53.8202 71.3739 54.2502C70.8039 54.7852 70.8349 54.6132 71.4479 53.8422C71.7229 53.4962 71.9479 53.0512 71.9479 52.8522C71.9479 52.6542 72.0379 52.4022 72.1479 52.2922C72.3759 52.0632 72.7809 52.0242 72.7809 52.2302ZM74.5309 52.4252C74.5889 52.6092 74.6989 52.7592 74.7739 52.7592C75.3409 52.7592 75.0119 53.3092 74.2359 53.6622C72.7959 54.3152 72.6939 54.3332 72.9859 53.8872C73.1219 53.6792 73.3949 53.1902 73.5939 52.8002C73.9809 52.0402 74.3599 51.8882 74.5309 52.4252ZM109.928 52.9022C109.71 53.0732 109.212 53.3752 108.823 53.5722C108.109 53.9352 107.906 54.3562 108.361 54.5302C108.509 54.5872 108.651 54.9572 108.718 55.4572C108.826 56.2712 108.839 56.2882 109.334 56.2152L109.84 56.1412L109.477 56.4352C109.278 56.5972 109.112 56.9042 109.109 57.1192C109.105 57.4122 109.002 57.3022 108.695 56.6752C108.065 55.3932 107.58 53.8532 107.785 53.7852C107.882 53.7532 108.427 53.4822 108.996 53.1832C110.198 52.5532 110.488 52.4662 109.928 52.9022ZM93.1999 53.5772C93.0939 54.2062 93.0139 54.2872 92.0139 54.7802C90.7719 55.3912 90.4869 55.3332 91.3749 54.6502C92.6409 53.6752 93.1139 53.2172 93.1139 52.9642C93.1139 52.8202 93.1589 52.7482 93.2139 52.8032C93.2689 52.8582 93.2629 53.2062 93.1999 53.5772ZM46.2889 53.5802C46.0979 53.8492 45.6539 54.2962 45.3039 54.5742C44.9529 54.8522 44.4859 55.3442 44.2649 55.6682C43.7939 56.3592 43.6139 56.4112 43.6139 55.8562C43.6139 55.4752 44.6769 54.4252 45.0629 54.4252C45.1459 54.4252 45.5059 54.1252 45.8639 53.7592C46.6369 52.9672 46.7639 52.9142 46.2889 53.5802ZM47.8419 54.9672C47.4709 55.3572 46.8089 56.1252 46.3709 56.6752C45.9329 57.2252 45.2179 58.0632 44.7809 58.5382L43.9879 59.4002L43.8939 58.7042C43.8379 58.2902 43.8689 57.9842 43.9719 57.9482C44.0669 57.9152 44.5309 57.4962 45.0039 57.0172C45.4769 56.5392 46.2019 55.9282 46.6139 55.6612C47.0269 55.3942 47.5889 54.9702 47.8639 54.7182C48.6169 54.0292 48.6049 54.1672 47.8419 54.9672ZM53.7419 54.7592C53.5319 55.0952 53.2809 55.2042 53.2809 54.9592C53.2809 54.7852 53.6419 54.4252 53.8159 54.4252C53.8899 54.4252 53.8569 54.5752 53.7419 54.7592ZM76.2509 55.2642C76.7039 56.1212 76.6989 56.1272 75.0729 56.9262C73.9679 57.4682 73.8769 57.3872 74.6979 56.5922C75.3649 55.9452 75.4889 55.2592 74.9379 55.2592C74.6259 55.2592 74.6379 55.2222 75.0629 54.8482C75.6559 54.3272 75.7779 54.3692 76.2509 55.2642ZM55.4039 55.5812C55.3379 56.3092 55.1909 56.7382 54.8459 57.2062C54.5889 57.5562 54.3579 57.8712 54.3329 57.9072C54.3089 57.9432 54.1779 57.8812 54.0429 57.7692C53.7249 57.5052 53.2089 57.6732 52.9019 58.1402C52.5959 58.6062 51.1639 60.0812 50.6139 60.4982C50.3849 60.6712 50.6479 60.3642 51.1979 59.8142C51.7479 59.2642 52.4219 58.5212 52.6969 58.1622C52.9709 57.8032 53.4779 57.2152 53.8219 56.8572C54.1659 56.4992 54.4479 56.0532 54.4479 55.8662C54.4479 55.5762 55.1969 54.5922 55.4189 54.5922C55.4599 54.5922 55.4539 55.0372 55.4039 55.5812ZM88.5309 55.8692C87.5869 56.6862 85.5439 58.5092 85.2459 58.8002C85.0819 58.9612 84.9479 59.0472 84.9479 58.9922C84.9479 58.7992 87.8699 56.0232 88.3639 55.7462C89.0699 55.3512 89.1019 55.3742 88.5309 55.8692ZM68.9369 56.4092C68.2159 57.6912 67.1819 58.6992 67.0579 58.2392C66.8469 57.4502 66.9759 57.2502 68.3479 56.2382C69.2239 55.5922 69.3719 55.6352 68.9369 56.4092ZM85.7809 55.9772C85.7809 56.0062 85.5369 56.1992 85.2389 56.4062L84.6979 56.7832L85.1649 56.3542C85.5969 55.9592 85.7809 55.8462 85.7809 55.9772ZM90.8989 56.6402C90.6439 56.8432 90.1269 57.2912 89.7519 57.6362C89.3769 57.9812 88.6859 58.5372 88.2169 58.8732C87.7479 59.2082 87.1309 59.6982 86.8469 59.9632C86.4389 60.3422 86.2349 60.4202 85.8849 60.3322L85.4399 60.2212L85.8189 59.8612C86.0269 59.6632 86.5349 59.2842 86.9479 59.0202C87.3599 58.7562 87.8849 58.4132 88.1139 58.2582C88.3439 58.1042 88.778 57.8492 89.0799 57.6932C89.3829 57.5372 89.7579 57.3042 89.9139 57.1762C90.8439 56.4132 91.0469 56.2702 91.1979 56.2702C91.2889 56.2702 91.1549 56.4372 90.8989 56.6402ZM96.3569 57.6752C96.8689 58.1792 97.3679 58.5922 97.4649 58.5922C98.0639 58.5922 97.3349 59.0272 96.4759 59.1822C95.4649 59.3652 95.4519 59.3632 95.7799 59.0572C96.5989 58.2942 95.9879 57.9182 94.5409 58.2962C93.3509 58.6082 93.2279 58.5622 93.8799 58.0532C94.1459 57.8452 94.5879 57.4712 94.8639 57.2222C95.1389 56.9722 95.3779 56.7662 95.3949 56.7642C95.4119 56.7612 95.8449 57.1712 96.3569 57.6752ZM50.7609 57.7422C50.5429 58.0082 49.7639 58.9632 49.0309 59.8642C47.1959 62.1182 47.0539 62.2872 46.8639 62.4442C46.2339 62.9672 45.7819 63.4432 45.2779 64.1182C44.5049 65.1522 44.1139 65.4032 44.1139 64.8662C44.1139 64.5082 44.4719 64.0692 46.9819 61.3522C47.1469 61.1752 47.2809 60.9792 47.2809 60.9182C47.2809 60.8572 47.4499 60.6192 47.6559 60.3892C47.8619 60.1592 48.2659 59.6922 48.5519 59.3512C48.9909 58.8302 50.8919 57.2662 51.0939 57.2602C51.1289 57.2592 50.9789 57.4762 50.7609 57.7422ZM77.4479 57.9402C77.4479 58.3652 76.9589 58.8052 75.8929 59.3382C74.9899 59.7912 75.0209 59.7132 76.2809 58.3852C77.0929 57.5282 77.4479 57.3932 77.4479 57.9402ZM73.4479 59.8022C71.4219 61.7802 69.9799 63.3812 68.5959 65.1862L67.6139 66.4662V64.6962C67.6139 62.9592 67.6219 62.9252 67.9979 62.9252C68.2089 62.9252 68.7529 62.7382 69.2069 62.5092C70.0349 62.0912 70.4979 61.7242 72.0199 60.2862C72.7309 59.6132 74.8729 58.0962 75.1139 58.0932C75.1599 58.0932 74.4099 58.8622 73.4479 59.8022ZM55.4479 66.0092V73.5922H54.8889C54.2269 73.5922 53.2889 74.2242 52.3859 75.2782C52.0419 75.6802 51.8169 75.8592 51.8869 75.6752C52.1439 75.0012 53.4989 72.8192 54.1309 72.0622C54.9489 71.0802 54.8889 70.1562 54.0279 70.4872C53.8409 70.5582 53.8869 70.3882 54.1929 69.8662C55.0719 68.3652 54.5639 67.1422 53.4729 68.1342C52.5989 68.9282 53.8669 67.3342 54.9059 66.3322C55.3299 65.9232 55.3979 65.3412 55.0439 65.1422C54.6169 64.9012 54.5589 64.1942 54.9379 63.8512C55.1269 63.6802 55.2809 63.3642 55.2809 63.1502C55.2809 62.4802 54.4759 62.6312 53.5889 63.4672C50.6769 66.2122 48.5179 67.6562 50.4599 65.5602C50.7399 65.2572 51.3029 64.5592 51.7089 64.0092C52.1159 63.4592 52.5059 62.9342 52.5759 62.8422C52.6459 62.7502 52.9419 62.3002 53.2339 61.8422C53.5259 61.3842 53.9189 60.8782 54.1059 60.7192C54.3069 60.5482 54.4479 60.2272 54.4479 59.9402C54.4479 59.5322 55.1289 58.4252 55.3789 58.4252C55.4169 58.4252 55.4479 61.8382 55.4479 66.0092ZM91.0459 58.9012C90.9979 58.9792 90.2059 59.6292 89.2859 60.3462C88.3669 61.0632 87.6139 61.7542 87.6139 61.8822C87.6139 62.1622 86.9219 62.1032 86.8269 61.8152C86.7489 61.5792 86.9099 61.4442 89.2729 59.7592C89.5509 59.5602 90.8439 58.8592 91.0829 58.7762C91.1109 58.7672 91.0949 58.8232 91.0459 58.9012ZM68.2809 59.6682C68.2809 59.9342 67.4689 60.8882 67.3989 60.7052C67.2079 60.2092 67.4769 59.5922 67.8839 59.5922C68.1019 59.5922 68.2809 59.6262 68.2809 59.6682ZM78.2899 60.1982C78.5009 60.7552 78.4309 60.8202 77.8849 60.5712C77.4709 60.3822 77.4609 60.3532 77.7219 60.0652C78.0779 59.6722 78.0909 59.6752 78.2899 60.1982ZM92.2809 60.3362C92.2809 60.3782 91.8119 60.7932 91.2389 61.2572C90.6659 61.7212 90.0999 62.1812 89.9799 62.2792C89.8599 62.3762 89.5769 62.4102 89.3509 62.3542C89.1259 62.2972 88.7879 62.3322 88.6019 62.4322C88.4149 62.5322 88.1869 62.5882 88.0949 62.5582C87.9289 62.5022 88.9279 61.9102 90.5309 61.1152C90.9889 60.8872 91.5519 60.6042 91.7809 60.4842C92.2549 60.2382 92.2809 60.2302 92.2809 60.3362ZM100.834 60.9992C101.103 61.2032 101.026 61.2342 100.138 61.2852C99.0829 61.3452 99.0559 61.3302 99.6529 61.0002C100.156 60.7222 100.469 60.7222 100.834 60.9992ZM79.1459 63.2502L79.3219 63.9912L78.2729 64.9582C77.6969 65.4902 77.1989 65.9252 77.1669 65.9252C77.0179 65.9252 77.9519 64.3052 78.2629 64.0252C78.7979 63.5412 78.7329 62.9252 78.1479 62.9252C77.8909 62.9252 77.5829 63.0192 77.4629 63.1342C77.3429 63.2482 77.4589 62.9382 77.7209 62.4452C77.9829 61.9512 78.2719 61.4062 78.3629 61.2342C78.5369 60.9052 78.6739 61.2572 79.1459 63.2502ZM93.7069 61.4762C93.4369 61.6772 92.6869 62.2982 92.0389 62.8552C91.3899 63.4122 90.7489 63.8382 90.6119 63.8002C90.4759 63.7632 90.2559 63.6972 90.1239 63.6552C89.9699 63.6062 90.1879 63.3842 90.7239 63.0432C91.1869 62.7492 91.9719 62.2362 92.4679 61.9032C93.2339 61.3892 93.6919 61.1722 94.1139 61.1212C94.1599 61.1152 93.9769 61.2752 93.7069 61.4762ZM67.9919 61.7592C67.8349 61.9422 67.6859 62.0922 67.6609 62.0922C67.6349 62.0922 67.6139 61.9422 67.6139 61.7592C67.6139 61.5372 67.7249 61.4252 67.9459 61.4252C68.2619 61.4252 68.2639 61.4412 67.9919 61.7592ZM73.2269 62.8842C72.5099 63.5942 71.8609 64.2882 71.7839 64.4252C71.7069 64.5632 71.0529 65.2772 70.3299 66.0112C69.6079 66.7462 68.7319 67.7782 68.3829 68.3032C67.6149 69.4602 67.6139 69.4602 67.6139 68.4462C67.6139 67.6952 67.6489 67.6262 68.0729 67.5342C68.3509 67.4732 68.6949 67.1882 68.9479 66.8102C69.4189 66.1042 72.8239 62.6402 73.4219 62.2582C73.6369 62.1212 73.9369 61.9172 74.0889 61.8062C74.7149 61.3442 74.4599 61.6642 73.2269 62.8842ZM103.778 62.7592C103.779 63.0182 102.947 63.2092 102.766 62.9902C102.66 62.8632 102.47 62.7592 102.344 62.7592C102.068 62.7592 102.047 62.5602 102.296 62.3112C102.467 62.1392 103.777 62.5352 103.778 62.7592ZM100.114 62.4832C100.114 62.5142 99.9639 62.6762 99.7809 62.8422C99.4569 63.1352 99.4479 63.1332 99.4479 62.7842C99.4479 62.5362 99.5509 62.4252 99.7809 62.4252C99.9639 62.4252 100.114 62.4512 100.114 62.4832ZM97.3639 62.7942C97.0889 62.8912 96.7709 63.0442 96.6559 63.1352C96.5409 63.2252 96.4479 63.2502 96.4479 63.1892C96.4479 62.8992 96.9139 62.6052 97.3639 62.6112L97.8639 62.6182L97.3639 62.7942ZM94.5329 63.2572C94.3679 63.4392 93.8499 63.8312 93.3819 64.1282C92.9139 64.4252 92.4319 64.7642 92.3109 64.8802C92.0509 65.1302 91.8369 65.1512 91.7059 64.9392C91.6539 64.8542 91.8179 64.6302 92.0709 64.4402C92.3239 64.2512 92.6059 64.0392 92.6989 63.9692C92.8679 63.8402 94.6409 62.9542 94.7649 62.9352C94.8019 62.9302 94.6979 63.0742 94.5329 63.2572ZM74.5399 63.4102C74.2199 63.9292 75.1259 64.3342 75.6009 63.8842C75.7729 63.7202 75.7719 63.7562 75.5939 64.0502C75.4689 64.2572 75.2429 64.4252 75.0909 64.4252C74.9389 64.4252 74.5589 64.6802 74.2479 64.9922C73.7889 65.4512 73.5899 65.5412 73.2039 65.4672C72.7709 65.3852 72.5629 65.5462 70.9839 67.1922C70.0249 68.1912 69.3239 68.8462 69.4259 68.6482C69.5269 68.4502 69.6679 68.2622 69.7369 68.2322C69.8069 68.2012 70.0759 67.9132 70.3349 67.5922C71.2709 66.4342 74.9059 62.8182 74.5399 63.4102ZM105.948 63.9392C106.177 64.0922 106.983 64.5002 107.739 64.8452C108.496 65.1902 109.114 65.5362 109.114 65.6152C109.114 65.6942 109.19 65.7592 109.283 65.7592C109.529 65.7592 111.448 67.0962 111.448 67.2672C111.448 67.5412 110.81 67.7562 110.303 67.6552C110.025 67.5992 109.569 67.6332 109.289 67.7312C108.813 67.8972 108.781 67.8822 108.781 67.5002C108.781 67.2762 108.721 67.0922 108.648 67.0922C108.575 67.0922 108.546 66.8192 108.585 66.4862L108.656 65.8802L108.021 65.9992C107.268 66.1412 104.612 67.4812 103.834 68.1122C103.667 68.2472 103.6 68.2602 103.67 68.1432C103.807 67.9142 104.958 67.1282 105.698 66.7592C105.973 66.6212 106.297 66.4152 106.418 66.3002C106.539 66.1862 106.713 66.0922 106.804 66.0922C106.896 66.0922 106.947 65.9232 106.918 65.7172C106.835 65.1332 106.02 65.2692 104.732 66.0822C103.851 66.6392 103.503 66.7692 103.003 66.7272L102.378 66.6752L103.538 65.9032C104.176 65.4772 104.866 65.0442 105.073 64.9382C105.463 64.7392 105.578 64.1922 105.27 64.0022C105.057 63.8702 103.114 64.5702 103.114 64.7792C103.114 64.8592 103.026 64.9252 102.919 64.9252C102.812 64.9252 102.568 65.0572 102.377 65.2172L102.031 65.5092L102.353 65.1282C102.531 64.9192 102.943 64.5842 103.27 64.3832C103.597 64.1822 104.034 63.8492 104.242 63.6432C104.65 63.2382 104.992 63.2982 105.948 63.9392ZM95.3639 65.1752C94.6259 65.8072 93.5059 66.3722 93.3329 66.2002C93.1419 66.0082 93.8829 65.4522 94.8939 65.0282C96.1469 64.5032 96.1489 64.5032 95.3639 65.1752ZM89.2809 65.0982C89.2809 65.3822 89.2289 65.4092 88.9569 65.2642C88.4369 64.9852 88.3909 64.7592 88.8539 64.7592C89.1719 64.7592 89.2809 64.8452 89.2809 65.0982ZM98.2839 65.1722C98.1039 65.3882 95.6729 66.9252 95.5099 66.9252C95.2419 66.9252 95.5369 66.3832 95.8759 66.2542C96.1109 66.1652 96.5449 65.9082 96.8389 65.6832C97.6619 65.0562 98.6789 64.6962 98.2839 65.1722ZM79.4199 67.0502C79.4039 67.7852 79.3629 68.0542 79.3249 67.6752C79.2419 66.8442 79.0829 66.6742 78.6199 66.9232C78.2759 67.1072 78.2669 67.0962 78.4559 66.7302C79.1439 65.4022 79.4529 65.5052 79.4199 67.0502ZM75.3069 66.7592C75.3989 66.7592 75.1109 67.0342 74.6689 67.3712C74.2259 67.7072 73.7659 68.1012 73.6469 68.2462C73.2669 68.7052 73.7679 67.7482 74.2359 67.1222C74.4939 66.7772 74.7409 66.6052 74.8949 66.6642C75.0309 66.7162 75.2159 66.7592 75.3069 66.7592ZM98.1839 67.0262C98.6709 67.2132 98.5029 67.7592 97.9579 67.7592C97.3459 67.7592 97.1309 67.4472 97.5369 67.1502C97.8949 66.8892 97.8479 66.8982 98.1839 67.0262ZM50.4479 67.8302C50.4479 67.8692 50.3539 68.0012 50.2389 68.1222C50.1249 68.2432 49.6299 68.8672 49.1409 69.5092C48.6509 70.1502 48.1819 70.6682 48.0989 70.6592C48.0159 70.6502 47.8159 70.6312 47.6559 70.6172C47.4559 70.5992 47.8289 70.1462 48.8409 69.1752C50.2389 67.8352 50.4479 67.6602 50.4479 67.8302ZM44.5899 68.2402C44.7479 68.3402 44.7609 68.4182 44.6319 68.4982C44.5309 68.5602 44.4479 68.7952 44.4479 69.0192C44.4479 69.5692 45.0329 69.5622 45.8609 69.0002C46.7049 68.4272 46.7239 68.5382 45.9549 69.5622C45.5969 70.0392 45.0609 70.9342 44.7649 71.5522C44.1079 72.9212 43.9899 72.7262 43.9639 70.2312C43.9429 68.1992 44.0399 67.8922 44.5899 68.2402ZM96.3409 68.5092C96.4079 68.6812 96.6769 68.7592 97.2129 68.7592C97.8119 68.7592 97.9499 68.8062 97.8189 68.9672C97.7259 69.0822 97.6229 69.3042 97.5909 69.4622C97.5389 69.7122 97.3639 69.6672 96.2369 69.1132C94.6049 68.3102 94.5599 68.2592 95.4849 68.2592C96.0069 68.2592 96.2749 68.3372 96.3409 68.5092ZM75.9479 68.9072C75.9479 68.9882 74.9589 70.0572 73.7509 71.2822C72.5429 72.5062 71.7709 73.2092 72.0359 72.8422C72.5049 72.1922 73.6359 70.6912 73.9309 70.3262C74.0119 70.2262 74.2009 69.9072 74.3509 69.6182C74.5769 69.1812 74.7209 69.0922 75.2019 69.0922C75.5199 69.0922 75.7809 69.0172 75.7809 68.9252C75.7809 68.8342 75.8179 68.7592 75.8639 68.7592C75.9099 68.7592 75.9479 68.8252 75.9479 68.9072ZM51.0959 69.3842C50.9719 69.5442 50.4569 70.1282 49.9509 70.6822C49.4449 71.2362 48.7339 72.1732 48.3719 72.7652C48.0089 73.3582 47.5779 73.9872 47.4129 74.1652C47.2489 74.3432 47.1139 74.5442 47.1139 74.6122C47.1139 74.6802 46.8779 74.9042 46.5889 75.1102L46.0629 75.4842L46.1829 74.9962C46.2479 74.7282 46.4719 74.2462 46.6799 73.9252C46.8879 73.6042 47.2389 73.0612 47.4609 72.7182C47.6959 72.3552 47.9979 72.0942 48.1849 72.0932C48.5619 72.0922 49.1139 71.6342 49.1139 71.3222C49.1139 71.2022 49.5799 70.6512 50.1489 70.0982C51.1869 69.0892 51.5169 68.8402 51.0959 69.3842ZM112.534 70.1582C113.025 72.0462 112.748 73.7592 111.898 74.0772C110.768 74.4992 110.73 74.4742 111.45 73.7752C111.838 73.4002 112.22 73.0922 112.301 73.0922C112.382 73.0922 112.448 72.8672 112.448 72.5922C112.448 72.3172 112.386 72.0922 112.31 72.0922C112.234 72.0922 112.205 71.8672 112.245 71.5922C112.333 70.9962 111.769 70.8932 110.983 71.3622L110.531 71.6322L110.948 71.2812C111.177 71.0892 111.496 70.8872 111.656 70.8342C112.036 70.7072 112.037 69.9952 111.657 69.8492C111.399 69.7502 111.412 69.7042 111.78 69.4262C112.281 69.0482 112.232 69.0012 112.534 70.1582ZM99.6689 70.1122C99.4749 70.3062 99.2149 70.4312 99.0919 70.3902C98.9519 70.3432 99.0539 70.2182 99.3659 70.0552C100.046 69.6992 100.076 69.7052 99.6689 70.1122ZM67.7659 71.0502C67.2599 71.8902 67.2139 71.9242 67.3519 71.3522C67.4489 70.9502 67.8439 70.4542 68.0859 70.4312C68.1169 70.4282 67.9719 70.7072 67.7659 71.0502ZM102.072 71.4992C101.912 71.6162 101.781 71.8512 101.781 72.0212C101.781 72.3062 101.76 72.3092 101.511 72.0602C101.202 71.7522 101.322 71.4622 101.84 71.2662C102.306 71.0902 102.444 71.2272 102.072 71.4992ZM75.0189 72.5852C74.5239 73.4932 74.0269 74.0922 73.7659 74.0922C73.5599 74.0922 73.6579 73.9282 74.5929 72.7092C75.4879 71.5412 75.6059 71.5072 75.0189 72.5852ZM103.031 72.7592C103.031 73.3642 102.955 73.3752 102.391 72.8522L101.953 72.4462L102.492 72.3792C102.788 72.3422 103.031 72.3002 103.031 72.2852C103.031 72.2712 103.031 72.4842 103.031 72.7592ZM44.4479 73.6652C44.4479 73.7982 44.3729 73.9522 44.2809 74.0092C44.1889 74.0652 44.1139 73.9572 44.1139 73.7692C44.1139 73.5802 44.1889 73.4252 44.2809 73.4252C44.3729 73.4252 44.4479 73.5332 44.4479 73.6652ZM104.781 74.6032C104.781 74.9142 104.278 75.1302 104.031 74.9252C103.703 74.6532 103.715 74.4282 104.073 74.1602C104.354 73.9492 104.781 74.2162 104.781 74.6032ZM55.3909 75.7052C55.3469 75.7482 55.1159 75.7592 54.8779 75.7302L54.4449 75.6752L54.8629 75.1912C55.0929 74.9252 55.2939 74.6252 55.3089 74.5242C55.3239 74.4242 55.3669 74.6312 55.4029 74.9842C55.4399 75.3372 55.4339 75.6612 55.3909 75.7052ZM205.111 74.8352C198.492 77.0942 196.709 86.5202 202.198 90.2372C204.822 92.0142 208.953 92.0142 211.84 90.2382C217.182 86.9512 217.663 78.4272 212.671 75.5022C210.698 74.3462 207.399 74.0552 205.111 74.8352ZM66.9279 75.6342C66.2989 76.7102 66.0279 77.0052 66.2009 76.4252C66.3149 76.0452 67.2199 74.7592 67.3739 74.7592C67.4099 74.7592 67.2089 75.1522 66.9279 75.6342ZM76.3229 75.5902C76.0439 76.0942 75.7489 76.4212 75.5709 76.4232C75.4099 76.4242 75.0719 76.7272 74.8209 77.0962C74.3329 77.8142 72.7809 79.5632 72.7809 79.3962C72.7809 79.3412 73.0419 79.0062 73.3599 78.6522C73.6789 78.2982 73.9419 77.8922 73.9439 77.7502C73.9509 77.2452 74.8229 76.1252 75.2809 76.0342C75.5259 75.9852 75.9299 75.6782 76.1789 75.3522C76.8089 74.5252 76.8619 74.6122 76.3229 75.5902ZM220.364 75.0642C221.863 75.5642 221.857 75.5282 221.909 83.3422C221.958 90.6172 221.938 90.7942 221.059 90.8962C220.794 90.9262 220.622 91.0342 220.66 91.1462C220.768 91.4732 223.948 91.5082 223.948 91.1812C223.948 91.0412 223.835 90.9252 223.698 90.9252C222.805 90.9252 222.781 90.7462 222.781 84.0092C222.781 80.5712 222.814 77.7592 222.855 77.7592C222.896 77.7592 223.295 78.1522 223.742 78.6342C224.576 79.5302 231.877 87.3212 233.689 89.2472C235.298 90.9582 235.764 91.4252 235.859 91.4252C235.908 91.4252 235.948 87.8742 235.948 83.5342C235.948 74.8942 235.925 75.0922 236.919 75.0922C237.118 75.0922 237.281 75.0172 237.281 74.9252C237.281 74.8252 236.614 74.7592 235.614 74.7592C234.094 74.7592 233.305 74.9952 234.399 75.1232C235.061 75.2002 235.08 75.3842 235.093 81.8422L235.105 87.6752L234.584 87.0922C234.298 86.7712 233.532 85.9482 232.881 85.2622C232.23 84.5762 230.535 82.7752 229.114 81.2602C227.693 79.7442 226.034 77.9802 225.426 77.3402C224.818 76.6992 224.037 75.8572 223.69 75.4672L223.06 74.7592L221.295 74.7722L219.531 74.7852L220.364 75.0642ZM240.864 74.9252C240.921 75.0172 241.135 75.0922 241.341 75.0922C242.117 75.0922 242.114 75.0652 242.114 82.9472C242.114 90.9622 242.118 90.9252 241.269 90.9252C241.092 90.9252 240.948 91.0392 240.948 91.1782C240.948 91.3992 241.652 91.4242 246.656 91.3862L252.364 91.3422L252.411 89.3002C252.458 87.2372 252.256 86.5652 252.034 88.0462C251.71 90.2082 251.019 90.6682 248.114 90.6562C244.106 90.6412 244.116 90.6602 244.118 82.0922C244.119 75.4832 244.152 75.2202 244.993 75.1232C246.29 74.9722 245.182 74.7592 243.104 74.7592C241.585 74.7592 240.798 74.8172 240.864 74.9252ZM257.114 75.0602L257.698 75.3452V83.0102V90.6752L257.156 90.8352C255.902 91.2042 256.542 91.4252 258.864 91.4252C260.753 91.4252 261.114 91.3852 261.114 91.1752C261.114 91.0382 260.97 90.9252 260.793 90.9252C259.944 90.9252 259.948 90.9622 259.948 82.9472C259.948 75.2022 259.957 75.0922 260.638 75.0922C260.797 75.0922 260.974 75.0172 261.031 74.9252C261.098 74.8172 260.326 74.7612 258.833 74.7672C256.542 74.7752 256.534 74.7762 257.114 75.0602ZM264.948 74.9242C265.177 75.0002 265.553 75.1042 265.783 75.1542C266.836 75.3832 266.864 75.5992 266.864 83.5092V90.6752L266.281 90.8642C265.311 91.1772 265.694 91.3422 267.392 91.3422C269.075 91.3422 269.597 91.1122 268.578 90.8202L268.031 90.6632L267.987 84.1812C267.963 80.6162 267.968 77.7312 267.999 77.7712C268.029 77.8102 269.324 79.1952 270.876 80.8492C272.428 82.5022 274.71 84.9392 275.948 86.2632C277.185 87.5882 278.798 89.2972 279.531 90.0612L280.864 91.4502L280.948 83.5472C281.037 75.0662 281.034 75.0922 281.885 75.0922C282.103 75.0922 282.281 75.0172 282.281 74.9252C282.281 74.8252 281.614 74.7592 280.614 74.7592C279.614 74.7592 278.948 74.8252 278.948 74.9252C278.948 75.0172 279.12 75.0922 279.331 75.0922C280.108 75.0922 280.114 75.1422 280.114 81.4532C280.114 86.1632 280.071 87.3942 279.906 87.3172C279.791 87.2642 279.215 86.6852 278.624 86.0312C278.034 85.3772 276.489 83.7172 275.191 82.3422C273.894 80.9672 272.652 79.6452 272.431 79.4042C272.211 79.1642 271.138 78.0202 270.047 76.8632L268.064 74.7592L266.297 74.7722C265.117 74.7812 264.669 74.8312 264.948 74.9242ZM286.614 74.9142C286.614 75.0002 286.82 75.0942 287.072 75.1232C287.729 75.1982 287.739 75.3152 287.761 83.0392C287.782 90.2662 287.744 90.6782 287.037 90.8552C286.804 90.9142 286.614 91.0672 286.614 91.1962C286.614 91.3932 287.511 91.4232 292.323 91.3862L298.031 91.3422L298.08 90.2172C298.134 88.9952 297.756 88.5692 297.53 89.5982C297.329 90.5142 296.91 90.6362 293.9 90.6572C289.684 90.6862 289.899 90.9062 289.81 86.4672L289.746 83.2592H292.672C295.285 83.2592 295.615 83.2902 295.762 83.5502C296.03 84.0242 296.309 83.5672 296.25 82.7532C296.203 82.1072 295.781 81.5542 295.781 82.1392C295.781 82.4672 294.744 82.5922 292.008 82.5922H289.781V78.9252V75.2592L292.823 75.2612C296.184 75.2642 296.21 75.2702 296.525 76.1862C296.882 77.2252 297.114 77.0942 297.114 75.8562V74.7592H291.864C288.724 74.7592 286.614 74.8212 286.614 74.9142ZM48.6599 75.2172C48.5989 75.3772 48.2449 75.8342 47.8739 76.2312C47.5019 76.6292 47.1299 77.0792 47.0469 77.2312C46.9649 77.3842 46.5709 77.8622 46.1719 78.2932C45.7129 78.7912 45.4479 79.2332 45.4479 79.5022C45.4479 79.7602 45.3539 79.9252 45.2069 79.9252C45.0749 79.9252 44.8499 80.0922 44.7069 80.2962C44.5639 80.4992 44.4479 80.6132 44.4479 80.5492C44.4479 80.4002 45.7829 78.2042 45.9419 78.0922C46.0069 78.0462 46.1279 77.8862 46.2119 77.7362C46.3449 77.4972 48.6379 74.9482 48.7339 74.9312C48.7539 74.9282 48.7209 75.0572 48.6599 75.2172ZM208.722 75.7762C216.306 78.1052 217.101 88.0842 209.877 90.2812C205.379 91.6502 200.421 87.2372 200.394 81.8422C200.373 77.4662 204.481 74.4742 208.722 75.7762ZM105.222 76.0012C104.979 76.2252 104.782 76.4692 104.784 76.5422C104.79 76.8822 105.108 77.1332 105.426 77.0492C105.722 76.9722 105.695 77.0502 105.236 77.5972C104.942 77.9472 104.691 78.2212 104.68 78.2052C104.668 78.1892 104.609 77.7212 104.548 77.1662L104.438 76.1572L104.985 75.8852C105.718 75.5202 105.733 75.5272 105.222 76.0012ZM111.742 76.8162C111.443 77.4302 111.278 77.5912 110.948 77.5932C110.719 77.5932 110.306 77.7062 110.031 77.8432C109.606 78.0552 109.631 78.0112 110.196 77.5512C110.562 77.2522 111.125 76.7712 111.446 76.4802C112.177 75.8192 112.21 75.8552 111.742 76.8162ZM44.2319 76.5862C44.1299 76.8572 44.0149 77.0482 43.9769 77.0102C43.8579 76.8912 44.1129 76.0922 44.2699 76.0922C44.3519 76.0922 44.3349 76.3142 44.2319 76.5862ZM48.9769 77.7902C48.5159 78.4602 48.0119 79.3292 47.8569 79.7212C47.6299 80.2942 47.5299 80.3962 47.3459 80.2432C47.2189 80.1382 46.9629 80.0932 46.7749 80.1422C45.9769 80.3502 46.6389 79.3622 48.5079 77.5502C49.9439 76.1592 50.0579 76.2182 48.9769 77.7902ZM55.3849 77.3192C55.3069 77.6312 54.1139 79.0602 54.1139 78.8422C54.1139 78.6722 54.5589 77.7822 54.9359 77.1972C55.3519 76.5512 55.5629 76.6082 55.3849 77.3192ZM86.4479 76.9642C86.4479 77.1922 84.6629 78.9252 84.4289 78.9252C84.1179 78.9252 84.3319 78.6502 85.2029 77.9252C85.6989 77.5132 86.1069 77.0822 86.1099 76.9672C86.1159 76.6962 86.4479 76.6942 86.4479 76.9642ZM51.4849 78.2312C51.2349 78.6742 50.8649 79.2552 50.6609 79.5232L50.2919 80.0092L50.2859 79.5682C50.2829 79.2752 50.5369 78.8442 51.0459 78.2772C51.9949 77.2212 52.0569 77.2152 51.4849 78.2312ZM87.3549 78.2442C87.5289 78.5252 87.2749 78.8392 86.3329 79.5092C85.8169 79.8752 85.2219 80.3592 85.0109 80.5842C84.7989 80.8092 84.5759 80.9422 84.5139 80.8812C84.3759 80.7432 84.7739 80.1192 85.3019 79.6452C87.1979 77.9442 87.1779 77.9582 87.3549 78.2442ZM90.2959 81.0182C90.8159 81.3342 91.3399 81.5922 91.4609 81.5922C91.6199 81.5922 91.6309 81.6422 91.4989 81.7742C91.3669 81.9062 91.2199 81.9042 90.9659 81.7682C90.7189 81.6362 90.5179 81.6322 90.2919 81.7532C89.8599 81.9842 89.7809 81.9712 89.7809 81.6702C89.7809 81.3162 89.4219 81.2132 88.8879 81.4162C88.4749 81.5732 88.4519 81.5612 88.6099 81.2672C88.8579 80.8042 88.8289 80.6752 88.3519 80.1082C87.7209 79.3582 88.0269 79.1572 88.7419 79.8522C89.0769 80.1782 89.7759 80.7022 90.2959 81.0182ZM56.0789 80.2122C56.4449 81.0572 56.3729 81.4422 55.7939 81.7522C55.4629 81.9292 55.4699 81.3682 55.8009 81.1632C56.1169 80.9682 55.9639 80.0922 55.6139 80.0922C55.2469 80.0922 55.2349 80.0712 55.3819 79.6892C55.5489 79.2552 55.7199 79.3832 56.0789 80.2122ZM42.2869 82.4962C41.7469 83.6272 41.6869 83.6852 41.3049 83.4442C41.0099 83.2572 41.2679 82.7382 42.0819 81.8872C42.8709 81.0602 42.9129 81.1842 42.2869 82.4962ZM70.0629 81.9252C69.9599 82.2002 69.7849 82.4252 69.6749 82.4252C69.5649 82.4252 69.3379 82.4692 69.1699 82.5222C69.0019 82.5742 69.1579 82.3492 69.5169 82.0222C70.3059 81.3012 70.2979 81.3022 70.0629 81.9252ZM102.614 81.4842C102.614 81.5522 100.961 82.5922 100.853 82.5922C100.397 82.5922 100.93 81.9582 101.574 81.7342C102.423 81.4382 102.614 81.3922 102.614 81.4842ZM58.4239 82.0742C58.5809 82.1742 58.5939 82.2522 58.4649 82.3312C58.2539 82.4622 57.9479 82.3142 57.9479 82.0822C57.9479 81.8882 58.1259 81.8852 58.4239 82.0742ZM92.7809 82.0722C92.7809 82.1522 92.6689 82.3112 92.5309 82.4252C92.3219 82.5992 92.2809 82.5752 92.2809 82.2792C92.2809 82.0762 92.3869 81.9252 92.5309 81.9252C92.6689 81.9252 92.7809 81.9912 92.7809 82.0722ZM60.4339 82.3062C60.3959 82.3322 60.2329 82.4532 60.0729 82.5762C59.8229 82.7672 59.7809 82.7612 59.7809 82.5292C59.7809 82.3632 59.9199 82.2592 60.1419 82.2592C60.3409 82.2592 60.4719 82.2802 60.4339 82.3062ZM67.4419 82.3842C67.4279 82.7122 66.9389 83.1002 66.4299 83.1882L65.8639 83.2862L66.6139 82.7832C67.4739 82.2062 67.4489 82.2182 67.4419 82.3842ZM50.3299 82.7172C50.2699 82.8772 50.1709 83.0462 50.1089 83.0922C50.0469 83.1382 49.8909 83.3792 49.7619 83.6272C49.6009 83.9392 49.4599 84.0362 49.3049 83.9402C49.0739 83.7972 49.2109 83.5562 49.9889 82.7342C50.3549 82.3472 50.4679 82.3412 50.3299 82.7172ZM95.4739 82.6802C94.9839 82.8932 94.8729 82.8922 94.5619 82.6742C94.2289 82.4412 94.2639 82.4262 95.1189 82.4322L96.0309 82.4382L95.4739 82.6802ZM47.4119 83.3142C47.0739 83.8432 46.6139 84.1282 46.6139 83.8082C46.6139 83.6532 47.6579 82.5802 47.7339 82.6572C47.7669 82.6892 47.6219 82.9852 47.4119 83.3142ZM43.8499 83.4852C43.7929 83.6352 43.6289 83.7592 43.4869 83.7592C43.2689 83.7592 43.2759 83.7072 43.5319 83.4242C43.8719 83.0492 44.0079 83.0742 43.8499 83.4852ZM61.2809 83.2272C61.2809 83.7772 60.5719 84.0922 59.3319 84.0922H58.0629L58.4419 83.7642C59.0239 83.2582 59.4389 83.1832 59.7009 83.5352C59.9209 83.8322 59.9499 83.8302 60.5629 83.4852C60.9119 83.2892 61.2159 83.1202 61.2389 83.1102C61.2619 83.1002 61.2809 83.1532 61.2809 83.2272ZM51.8909 84.0382C51.5669 84.3622 51.2909 83.9822 51.5679 83.5922L51.8639 83.1752L51.9189 83.5652C51.9499 83.7792 51.9369 83.9922 51.8909 84.0382ZM53.6719 83.7242C53.6149 83.9422 53.4449 84.0922 53.2559 84.0922C52.8969 84.0922 53.0819 83.5242 53.4869 83.3792C53.7709 83.2782 53.7829 83.3002 53.6719 83.7242ZM93.1809 83.9642C93.4439 84.1402 93.0799 84.1182 92.8009 83.9412C92.6629 83.8532 92.6249 83.7092 92.7069 83.5772C92.8159 83.4012 92.8569 83.4052 92.9199 83.6002C92.9629 83.7332 93.0799 83.8972 93.1809 83.9642Z" fill="#FFFEFE" stroke="black" stroke-width="0.05"/>
</svg>
