<svg width="200" height="141" viewBox="0 0 200 141" fill="none" xmlns="http://www.w3.org/2000/svg">
<g clip-path="url(#clip0)">
<path d="M86.7133 0.00999634C124.323 0.00999634 161.932 0.0066645 199.54 0C199.915 0 200 0.0849724 200 0.458184C199.99 46.872 199.99 93.2847 200 139.696C200 140.069 199.915 140.154 199.54 140.154C133.18 140.144 66.8194 140.144 0.458104 140.154C0.0832917 140.154 0 140.069 0 139.696C0.009995 93.1336 0.0127744 46.5715 0.00833222 0.00999634H84.616C84.5327 0.328226 84.2362 0.274912 84.018 0.329895C82.5704 0.691444 81.3177 1.35956 80.4731 2.63414C79.5286 4.06201 79.3753 5.63317 79.7501 7.26597C79.7578 7.29824 79.7724 7.32848 79.7928 7.35464C79.8132 7.3808 79.839 7.40227 79.8684 7.41759C80.0183 7.52256 80.3032 7.41759 80.3298 7.71416C80.2553 7.76777 80.1707 7.80586 80.0811 7.82618C79.9916 7.84649 79.8988 7.84863 79.8084 7.83245C79.0905 7.8108 78.3825 7.93242 77.6695 7.98574C77.4546 8.00798 77.2375 7.98875 77.0298 7.92909C75.9154 7.5742 74.8542 7.62918 74.0513 8.56388C73.1701 9.58855 73.0352 10.7898 73.5516 12.0278C74.2679 13.7205 75.7171 14.3603 77.408 14.6502C78.5474 14.8418 79.6602 14.6786 80.7813 14.5136C81.6892 14.3803 82.2805 13.8122 82.7503 13.1091C83.056 12.6117 83.5407 12.2503 84.1046 12.0994C85.7988 11.6196 87.4446 10.9581 89.2221 10.7998C91.1644 10.6332 93.0818 10.6699 94.9192 11.403C97.7178 12.5193 99.2787 14.6802 99.6702 17.581C100.242 21.5741 99.458 25.6436 97.4446 29.1389C96.1669 31.3898 94.1129 32.4561 91.5342 32.5094C88.7955 32.5947 86.0724 32.0676 83.5632 30.9666C81.1827 29.9036 79.277 28.2908 78.2009 25.8449C77.2714 23.7339 77.3063 21.598 78.1859 19.4937C78.7894 17.9875 79.7485 16.6498 80.9812 15.5949C81.038 15.5528 81.0976 15.5144 81.1594 15.48C81.0893 15.5099 81.0241 15.5503 80.9662 15.5999C80.2482 16.2664 79.4669 16.8462 78.8206 17.6076C77.5795 19.0838 76.72 20.7283 76.4468 22.641C76.077 25.2201 76.625 27.6044 78.1409 29.7403C79.6918 31.923 81.8341 33.3058 84.3045 34.2105C87.0698 35.2219 89.9484 35.4668 92.8602 35.3168C94.4561 35.2335 95.8421 34.5454 97.0365 33.4841C99.1204 31.6414 100.368 29.2771 101.219 26.678C101.997 24.352 102.346 21.9042 102.249 19.4537C102.134 16.8029 101.583 14.2637 99.9067 12.1127C98.5307 10.355 96.6933 9.45526 94.4761 9.20868C93.4 9.08871 92.3572 9.29698 91.2994 9.30864C91.2454 9.30332 91.1941 9.28282 91.1513 9.24949C91.1086 9.21616 91.0761 9.17139 91.0578 9.12037C91.056 9.00323 91.0982 8.88968 91.1761 8.80214C92.9519 6.14967 91.7891 2.16096 88.8639 0.848057C88.3041 0.599211 87.7217 0.4045 87.1248 0.266581C86.9698 0.233259 86.7283 0.27491 86.7133 0.00999634Z" fill="#FEFEFE"/>
<path d="M81.1095 15.5799C79.8351 16.8062 78.7773 18.1874 78.1876 19.8702C77.1131 22.9409 77.7012 25.7016 79.8384 28.1309C81.6609 30.1935 84.0513 31.2682 86.6883 31.8563C88.3308 32.2229 89.9884 32.4644 91.6858 32.3861C94.1846 32.2695 96.1036 31.1732 97.3946 29.0206C98.5874 27.0312 99.1304 24.8236 99.4986 22.5677C99.8101 20.6683 99.8717 18.7622 99.4136 16.8712C98.624 13.6156 96.2485 11.4679 92.9319 10.9981C90.8012 10.6861 88.6276 10.8569 86.5717 11.4979C85.6055 11.7995 84.6394 12.0994 83.6698 12.3876C83.5569 12.4103 83.4509 12.4594 83.3606 12.531C83.2702 12.6025 83.1981 12.6944 83.1501 12.7992C83.1188 12.857 83.0838 12.9126 83.0452 12.9658C82.4188 13.9538 81.6125 14.6003 80.3798 14.7385C78.8373 14.9052 77.328 14.9635 75.8588 14.3887C73.8814 13.6156 72.8103 11.7379 73.2417 9.83681C73.6115 8.21733 75.0125 7.29097 76.615 7.69584C77.2105 7.83515 77.8266 7.86395 78.4325 7.78081C79.0599 7.70756 79.6915 7.67583 80.3232 7.68584C80.3465 7.66251 80.3748 7.63086 80.4048 7.63252C81.6975 7.65085 83.5299 8.29897 83.8681 9.8668C83.9331 10.165 84.013 10.2833 84.3145 10.0617C84.9992 9.5619 85.7721 9.19535 86.5034 8.76715C87.1038 8.44101 87.6546 8.03091 88.1393 7.54922C88.8439 6.80612 89.0438 5.94807 88.704 4.97172C88.1709 3.44055 86.705 2.59916 85.0641 2.88074C82.5487 3.31393 80.9612 4.85343 79.9784 7.12103C79.9286 7.29465 79.8448 7.45663 79.7318 7.59754C78.9655 5.19665 79.6219 1.96937 82.7553 0.599813C83.3617 0.334899 84.0213 0.266586 84.6244 0.00500488H86.7217C87.0398 0.189945 87.4096 0.188279 87.7511 0.28658C91.2361 1.28626 92.7986 4.25696 91.8807 7.82913C91.7412 8.31056 91.4782 8.74711 91.1178 9.09538C91.1261 9.26199 91.1261 9.26199 91.331 9.20701C92.7536 9.00374 94.1762 8.91877 95.5955 9.24033C98.4708 9.89179 100.305 11.7395 101.383 14.387C102.325 16.7196 102.535 19.1538 102.349 21.638C102.122 24.627 101.349 27.4694 99.9001 30.0936C98.8606 31.9696 97.5312 33.5924 95.6089 34.6387C94.6412 35.166 93.5606 35.4518 92.4588 35.4718C89.4036 35.5584 86.4118 35.2452 83.5649 34.0539C80.6897 32.8526 78.3808 30.9983 77.0682 28.1025C75.2657 24.1322 76.3419 19.4653 79.6902 16.5246C80.1082 16.1431 80.5536 15.7929 81.0228 15.4766C81.1161 15.445 81.1378 15.49 81.1095 15.5799Z" fill="#17D2E3"/>
<path d="M87.4513 139.946C79.2443 139.946 71.0368 139.95 62.8286 139.958C62.3289 139.958 62.2289 139.823 62.2389 139.353C62.2723 137.972 62.2656 136.589 62.2389 135.208C62.2389 134.824 62.3472 134.743 62.7137 134.743C64.2779 134.743 65.8438 134.821 67.4047 134.658C67.5196 134.644 67.6379 134.643 67.7529 134.626C69.6219 134.338 70.085 133.808 70.2133 131.814C70.2416 131.349 70.2416 130.881 70.2416 130.416C70.2416 121.559 70.2416 112.702 70.2416 103.846C70.2601 103.014 70.196 102.183 70.05 101.364C69.8718 100.471 69.3654 99.9708 68.4775 99.7958C67.6135 99.6193 66.7354 99.5211 65.8538 99.5026C64.7877 99.4859 63.7232 99.4893 62.6571 99.5026C62.3839 99.5026 62.2356 99.4776 62.2406 99.136C62.2589 97.6715 62.2539 96.207 62.2406 94.7408C62.2406 94.4809 62.3189 94.3709 62.5821 94.4076C62.6814 94.4134 62.781 94.4134 62.8803 94.4076C79.2788 94.4076 95.6778 94.4042 112.077 94.3976C112.557 94.3976 112.714 94.4809 112.712 95.0074C112.689 100.65 112.689 106.293 112.712 111.937C112.712 112.41 112.569 112.503 112.131 112.497C110.55 112.472 108.966 112.478 107.386 112.497C107.072 112.497 106.963 112.417 106.945 112.09C106.84 110.181 106.67 108.276 106.192 106.415C106.067 105.932 105.919 105.456 105.766 104.982C104.831 102.1 102.679 100.701 99.8485 100.106C97.9907 99.7197 96.0987 99.5226 94.2013 99.5176C89.9717 99.4943 85.7439 99.5176 81.5143 99.4959C81.1345 99.4959 81.0462 99.6009 81.0462 99.9691C81.0595 104.331 81.0595 108.693 81.0462 113.055C81.0462 113.298 81.0179 113.503 81.3894 113.496C83.3334 113.456 85.2858 113.585 87.2198 113.288C87.6129 113.228 88.0044 113.148 88.3859 113.06C89.8851 112.727 90.818 111.789 91.2844 110.334C91.7708 108.82 91.9807 107.257 92.1606 105.687C92.1923 105.411 92.2423 105.289 92.5621 105.287C94.2091 105.274 95.8566 105.244 97.5046 105.196C97.8378 105.187 97.9611 105.264 97.9611 105.627C97.9511 112.968 97.9511 120.31 97.9611 127.652C97.9611 127.962 97.8961 128.083 97.5496 128.08C95.9016 128.062 94.2535 128.062 92.6054 128.08C92.2873 128.08 92.194 127.997 92.1723 127.672C92.0947 126.127 91.8716 124.593 91.506 123.09C90.803 120.424 89.6319 119.389 86.8899 118.985C85.0575 118.711 83.2018 118.818 81.3577 118.78C81.0579 118.78 81.0429 118.926 81.0462 119.151C81.0462 119.799 81.0462 120.449 81.0462 121.099C81.0462 125.476 81.0462 129.854 81.0345 134.233C81.0345 134.681 81.1545 134.778 81.5876 134.776C86.1003 134.758 90.6114 134.776 95.1225 134.753C97.1765 134.741 99.2021 134.496 101.148 133.771C102.927 133.105 104.2 131.949 104.954 130.191C105.8 128.218 106.27 126.151 106.577 124.04C106.718 123.07 106.812 122.092 106.91 121.116C106.94 120.801 107.03 120.667 107.388 120.672C109.019 120.694 110.651 120.691 112.282 120.672C112.605 120.672 112.704 120.754 112.702 121.086C112.692 127.246 112.692 133.405 112.702 139.565C112.702 139.978 112.502 139.959 112.214 139.959C106.82 139.959 101.426 139.959 96.032 139.959L87.4513 139.946Z" fill="#FEEC00"/>
<path d="M16.8184 94.4027C21.1962 94.4027 25.574 94.3761 29.9501 94.4027C34.3263 94.4294 38.6491 94.9026 42.807 96.3854C47.6563 98.1048 51.5293 101.029 54.0048 105.622C55.3874 108.19 56.0904 110.966 56.3803 113.855C56.7317 117.354 56.6035 120.837 55.6956 124.253C53.8632 131.121 49.4254 135.549 42.827 137.93C39.9301 138.977 36.9233 139.496 33.8632 139.763C31.9191 139.93 29.9751 139.951 28.0328 139.95C18.9262 139.95 9.81963 139.953 0.713067 139.96C0.236638 139.96 0.0983766 139.853 0.111703 139.365C0.148352 137.984 0.136691 136.602 0.111703 135.221C0.111703 134.855 0.193329 134.743 0.574805 134.743C2.13902 134.743 3.70491 134.823 5.26579 134.66C5.38074 134.648 5.49901 134.648 5.61395 134.631C7.4647 134.368 7.96778 133.798 8.08438 131.827C8.11437 131.312 8.1127 130.796 8.1127 130.279C8.1127 121.542 8.1127 112.804 8.1127 104.065C8.1127 103.168 8.1127 102.272 7.91947 101.384C7.85748 101.022 7.69021 100.687 7.43862 100.421C7.18703 100.154 6.86232 99.9672 6.50518 99.8843C5.62186 99.6427 4.7106 99.5183 3.79486 99.5144C2.71318 99.4888 1.6315 99.4888 0.549819 99.5144C0.188332 99.5144 0.106706 99.4044 0.111703 99.0629C0.130027 97.6816 0.136691 96.2988 0.111703 94.9176C0.101708 94.496 0.228311 94.4011 0.63644 94.4027C6.03041 94.416 11.4238 94.4188 16.8167 94.411L16.8184 94.4027Z" fill="#FEEC00"/>
<path d="M144.259 94.4026C152.101 94.4026 159.942 94.3993 167.783 94.3926C168.259 94.3926 168.424 94.4693 168.421 95.0024C168.399 100.895 168.399 106.787 168.421 112.68C168.421 113.212 168.264 113.301 167.784 113.291C166.187 113.261 164.588 113.266 162.99 113.291C162.607 113.291 162.525 113.183 162.524 112.818C162.512 110.444 162.235 108.106 161.423 105.857C160.075 102.137 157.356 100.147 153.5 99.5959C152.361 99.4505 151.213 99.3815 150.065 99.3893C149.668 99.3893 149.565 99.4976 149.565 99.8892C149.58 103.201 149.565 106.514 149.565 109.826C149.565 116.651 149.565 123.477 149.565 130.303C149.551 130.952 149.596 131.601 149.697 132.242C150.013 134.013 150.571 134.501 152.382 134.658C154.426 134.836 156.475 134.736 158.521 134.746C158.942 134.746 159.044 134.859 159.037 135.269C159.008 136.65 159.008 138.032 159.037 139.415C159.047 139.85 158.942 139.963 158.496 139.963C152.152 139.946 145.809 139.942 139.467 139.951C136.253 139.951 133.04 139.951 129.827 139.961C129.417 139.961 129.292 139.866 129.3 139.443C129.329 138.028 129.322 136.611 129.3 135.198C129.3 134.854 129.389 134.745 129.742 134.75C131.289 134.766 132.839 134.761 134.386 134.75C135.302 134.757 136.215 134.663 137.11 134.468C137.894 134.283 138.344 133.801 138.529 133.03C138.679 132.381 138.752 131.717 138.746 131.051C138.746 120.645 138.746 110.241 138.746 99.8375C138.746 99.6459 138.844 99.3977 138.469 99.3927C136.303 99.366 134.178 99.5293 132.139 100.341C129.32 101.465 127.716 103.65 126.85 106.455C126.233 108.455 126.017 110.521 125.937 112.605C125.907 113.398 126.02 113.271 125.227 113.271C123.645 113.271 122.062 113.271 120.481 113.283C120.128 113.283 120.042 113.185 120.043 112.838C120.053 106.84 120.053 100.847 120.043 94.8591C120.043 94.4276 120.21 94.3893 120.558 94.3893C128.466 94.3982 136.367 94.4026 144.259 94.4026Z" fill="#FEEC00"/>
<path d="M121.489 4.21365C121.303 5.53655 120.863 6.79447 120.48 8.06406C118.577 14.387 116.005 20.4017 112.277 25.8916C109.907 29.3995 107.06 32.5605 103.818 35.2835C103.697 35.3655 103.602 35.4815 103.546 35.6169C103.49 35.7523 103.475 35.9011 103.503 36.045C104.433 42.6611 105.416 49.2673 106.993 55.7669C107.679 58.5993 108.456 61.3967 109.69 64.0459C110.054 64.8685 110.524 65.6403 111.088 66.3418C111.726 67.1115 112.442 67.6114 113.545 67.3764C114.423 67.1898 114.846 67.5431 115.091 68.4161C115.168 68.7732 115.268 69.1249 115.391 69.4691C115.86 70.5737 115.107 71.2252 114.479 71.8833C114.209 72.1848 113.851 72.3933 113.456 72.4789C113.06 72.5644 112.648 72.5228 112.277 72.3598C111.953 72.2317 111.601 72.1892 111.256 72.2365L103.192 73.2429C102.942 73.2745 102.774 73.3245 102.814 73.6694C103.183 76.8717 103.488 80.084 104.098 83.2529C104.494 85.3123 104.959 87.3533 105.812 89.281C106.3 90.384 106.888 91.4269 107.949 92.1001C108.022 92.1405 108.096 92.1767 108.173 92.2084C108.211 92.2983 108.189 92.3367 108.089 92.3033C104.986 91.6919 103.193 89.6659 102.196 86.8051C101.339 84.3476 101.216 81.7951 101.276 79.2209C101.331 77.4084 101.512 75.6018 101.817 73.8143C101.872 73.4811 101.829 73.4411 101.484 73.4811C96.4151 74.2059 91.3693 75.0706 86.3252 75.9203C85.7971 76.0103 85.8171 76.2785 85.8437 76.6684C85.982 78.6828 85.967 80.6904 85.5505 82.6798C85.1332 84.59 84.2528 86.3682 82.9868 87.8581C81.8932 89.158 80.6783 90.3508 79.3586 91.4203C77.5062 92.9581 75.384 93.4929 73.0285 93.253C72.2239 93.1714 71.4143 93.1347 70.4797 93.0697L72.6953 91.5586C74.6943 90.1874 76.7033 88.8095 78.4891 87.1483C81.0511 84.7641 82.7236 81.7901 84.1212 78.6344C84.4694 77.848 84.7976 77.05 85.1591 76.2002C84.4094 76.2286 83.7498 76.3985 83.0884 76.5251C79.2215 77.2682 75.3567 78.0246 71.4942 78.7944C69.7518 79.1426 68.1709 79.9473 66.5534 80.6438C65.1341 81.2536 63.7414 81.9317 62.2405 82.3299C61.5742 82.5065 60.9079 82.6415 60.2748 82.1933C59.5752 81.6934 59.287 81.027 59.4969 80.1939C59.7951 79.0077 60.5364 78.0846 61.3526 77.2232C63.4249 75.0356 65.5955 72.9446 67.7344 70.822C70.7846 67.798 73.8081 64.7473 76.4268 61.3251C80.0916 56.5416 82.6187 51.1834 84.5211 45.4969C84.5794 45.3303 84.6377 45.1503 84.6876 44.9771C84.6924 44.9166 84.6924 44.8559 84.6876 44.7955C75.1491 46.8298 65.6771 45.6285 56.2102 44.2656C58.8122 44.059 61.4143 43.8574 64.0163 43.6442C67.8627 43.3259 71.6925 42.8761 75.5106 42.2546C80.0083 41.5182 84.4511 40.5302 88.7673 39.0357C92.9318 37.5978 96.8732 35.7467 100.376 33.0476C102.73 31.2565 104.759 29.0906 106.718 26.8696C110.781 22.2495 114.461 17.341 117.59 12.0411C119.129 9.43029 120.533 6.75282 121.391 3.82544C121.644 3.89375 121.501 4.07036 121.489 4.21365Z" fill="#17D2E3"/>
<path d="M124.08 93.5879C124.811 93.8678 125.489 93.6646 126.149 93.3513C127.648 92.6416 128.922 91.5936 130.235 90.5939C134.31 87.4916 137.028 83.3429 139.369 78.886C141.709 74.4291 143.748 69.8156 145.941 65.2805C146.213 64.6535 146.586 64.0755 147.045 63.5693C147.438 63.1645 147.878 62.7813 148.481 62.9545C149.084 63.1278 149.254 63.656 149.352 64.1908C149.519 65.1055 149.614 66.0352 149.809 66.9432C150.563 70.4421 152.074 73.6411 153.888 76.7001C156.029 80.3089 158.543 83.6328 161.601 86.5302C162.197 87.1113 162.837 87.6444 163.517 88.1247C163.638 88.1613 163.683 88.1247 163.647 87.9964C162.481 85.3489 161.314 82.7081 160.267 80.0107C158.649 75.832 157.348 71.5651 156.67 67.1249C156.012 62.8163 155.922 58.4827 156.099 54.1291C156.192 51.8515 156.347 49.5789 156.54 47.3096C156.597 46.6432 156.658 45.9767 156.732 45.3236C156.758 45.0737 156.702 44.9387 156.434 44.8538C151.651 43.3326 147.516 40.6684 143.623 37.5828C141.359 35.7754 139.253 33.777 137.33 31.6097C137.208 31.4731 137.083 31.3415 136.958 31.2049C136.792 31.3048 136.867 31.4531 136.865 31.5681C136.865 34.9486 137.123 38.3142 137.425 41.6781C137.86 46.5399 138.019 51.4016 137.591 56.2784C137.258 60.0538 136.872 63.8209 136.277 67.5664C135.006 75.5838 131.841 82.7414 126.703 89.0294C125.746 90.1957 124.776 91.362 123.768 92.4933C123.68 92.5216 123.633 92.5049 123.672 92.4C126.75 86.8934 128.759 80.977 130.473 74.9356C131.796 70.2672 132.735 65.4984 133.28 60.6769C133.677 57.1897 133.925 53.6909 134.181 50.1937C134.565 44.9387 134.974 39.6854 135.961 34.4971C136.162 33.4375 136.392 32.3828 136.627 31.3315C136.666 31.2151 136.675 31.0904 136.652 30.9697C136.628 30.8491 136.574 30.7366 136.494 30.6434C131.794 25.1452 128.293 18.9172 125.377 12.336C124.065 9.37362 122.865 6.36571 121.778 3.31226C121.736 3.20896 121.778 3.1923 121.873 3.21729C125.409 9.6402 129.347 15.8015 133.867 21.578C137.683 26.4547 141.834 31.0149 146.748 34.8237C149.925 37.2845 153.31 39.4072 157.218 40.4885C162.091 41.8214 166.975 41.9197 171.768 40.0686C174.11 39.1639 176.115 37.7094 177.981 36.0549C178.516 35.5818 179.036 35.0886 179.565 34.6004C179.577 34.6404 179.605 34.6804 179.595 34.6987C177.66 38.0926 175.293 41.105 171.966 43.2543C168.546 45.4619 164.803 46.245 160.766 45.7951C159.658 45.6855 158.561 45.4741 157.491 45.1636C157.005 45.017 156.96 45.187 156.957 45.6085C156.937 49.1707 156.987 52.7295 157.225 56.2867C157.447 59.9883 158.005 63.6622 158.891 67.2631C159.977 71.5651 161.593 75.6754 163.388 79.7208C164.633 82.5332 165.927 85.3223 167.197 88.123C167.594 88.9662 167.86 89.8652 167.986 90.7888C168.071 91.3841 168.014 91.9909 167.82 92.5599C167.466 93.5596 166.623 93.9961 165.601 93.7529C164.971 93.6046 164.435 93.253 163.908 92.9198C160.577 90.8188 157.808 88.088 155.359 85.0374C151.668 80.4289 148.919 75.3255 147.39 69.5607C147.187 69.6524 147.152 69.844 147.082 69.9922C145.967 72.3348 144.886 74.6907 143.75 77.02C142.084 80.4205 140 83.5545 137.373 86.2736C134.643 89.096 131.584 91.5286 128.019 93.253C127.303 93.6084 126.534 93.8479 125.742 93.9628C125.099 94.0511 124.481 93.9978 123.928 93.6112C123.947 93.5908 123.972 93.5774 124 93.5731C124.027 93.5689 124.056 93.5741 124.08 93.5879V93.5879Z" fill="#17D2E3"/>
<path d="M191.509 117.167V130.349C191.49 131.148 191.55 131.947 191.688 132.734C191.916 133.9 192.367 134.343 193.557 134.548C195.222 134.838 196.91 134.738 198.589 134.75C199.862 134.76 199.862 134.75 199.862 136.002C199.862 137.169 199.85 138.335 199.862 139.501C199.862 139.835 199.795 139.958 199.429 139.958C190.473 139.948 181.518 139.948 172.562 139.958C172.207 139.958 172.117 139.855 172.122 139.51C172.14 138.066 172.14 136.617 172.122 135.164C172.122 134.831 172.217 134.75 172.544 134.748C174.223 134.735 175.905 134.831 177.583 134.661C177.781 134.641 177.979 134.621 178.176 134.586C179.797 134.3 180.268 133.793 180.396 132.155C180.448 131.489 180.48 130.822 180.48 130.156C180.48 121.468 180.48 112.779 180.48 104.089C180.493 103.246 180.437 102.402 180.315 101.567C180.17 100.669 179.69 100.101 178.796 99.8625C177.909 99.6368 176.997 99.5193 176.082 99.5126C174.916 99.491 173.75 99.4926 172.584 99.5126C172.251 99.5126 172.122 99.446 172.127 99.0794C172.148 97.6643 172.148 96.2498 172.127 94.8358C172.127 94.4693 172.252 94.4043 172.584 94.4043C181.523 94.4121 190.463 94.4121 199.404 94.4043C199.783 94.4043 199.878 94.5076 199.873 94.8775C199.851 96.2759 199.851 97.6738 199.873 99.0711C199.873 99.4243 199.772 99.5126 199.427 99.516C197.846 99.526 196.262 99.4277 194.686 99.6026C194.339 99.635 193.993 99.6867 193.652 99.7576C192.201 100.077 191.752 100.574 191.614 102.053C191.551 102.72 191.519 103.386 191.518 104.053C191.512 108.418 191.509 112.789 191.509 117.167Z" fill="#FEEC00"/>
<path d="M167.318 11.0097C165.552 10.7132 163.781 10.4466 161.914 10.2883C162.104 10.529 162.365 10.7038 162.66 10.7881C163.683 11.158 164.326 11.8944 164.758 12.8658C165.386 14.297 165.671 15.8165 165.914 17.3427C166.247 19.4653 166.43 21.6013 166.225 23.7539C165.915 27.0228 164.951 30.0069 162.469 32.3195C160.708 33.9898 158.397 34.9571 155.972 35.0386C150.228 35.2718 145.69 33.0126 142.565 28.1325C141.489 26.4497 141.006 24.5503 140.85 22.5626C140.668 20.2817 140.645 18.0091 141.156 15.7615C142.256 10.9297 145.474 8.4089 150.152 7.80243C153.677 7.34591 157.111 7.91073 160.526 8.7138C160.68 8.74879 160.86 8.92707 161.01 8.7138C160.971 8.61217 160.936 8.5122 161.113 8.53219C161.066 8.87541 161.308 8.93539 161.559 9.00204C163.543 9.53579 165.496 10.1748 167.411 10.9164C167.446 10.9964 167.421 11.0414 167.318 11.0097Z" fill="#17D2E3"/>
<path d="M78.7455 15.6199C77.7576 16.0015 77.6127 16.7945 77.5261 17.596C77.2912 19.7619 76.275 21.4847 74.6075 22.8576C72.5386 24.5587 70.2897 24.4004 68.6205 22.2994C66.8897 20.1218 66.3117 17.6076 66.943 14.8852C67.4328 12.7759 69.0703 11.5413 71.2476 11.4913C71.8125 11.4825 72.3772 11.5232 72.935 11.6129C73.0172 11.6378 73.0969 11.6702 73.1733 11.7095C72.5885 11.9744 72.0621 12.2094 71.6024 12.5559C69.5867 14.1104 69.0303 17.5443 70.4579 19.6469C71.1243 20.625 71.8989 20.7699 72.8734 20.0951C73.9229 19.367 74.7591 18.4157 75.622 17.4927C76.1334 16.9462 76.6432 16.398 77.2762 15.9848C77.6986 15.6739 78.2268 15.5427 78.7455 15.6199V15.6199Z" fill="#17D2E3"/>
<path d="M79.7319 7.59753C80.2817 5.02336 83.3101 2.15263 86.5802 2.81242C87.7862 3.054 88.4859 3.91539 88.8624 5.0317C89.2089 6.06136 88.9124 6.96107 88.1594 7.72082C87.7505 8.11195 87.2958 8.4521 86.8051 8.73383C85.8422 9.31864 84.8061 9.77848 83.8732 10.5316C83.63 8.35061 82.0408 7.94408 80.325 7.67917C80.1367 7.53088 79.9218 7.62752 79.7319 7.59753Z" fill="#FEFEFE"/>
<path d="M121.489 4.21362C121.434 4.087 121.534 3.92205 121.389 3.81875C121.426 3.65214 121.464 3.4772 121.501 3.30725C121.579 3.61882 121.638 3.92205 121.489 4.21362Z" fill="#82E6EF"/>
<path d="M161.121 8.51887L161.018 8.70048C160.878 8.50721 160.934 8.29728 160.959 8.07568C161.031 8.12214 161.085 8.19045 161.114 8.27035C161.143 8.35026 161.146 8.43746 161.121 8.51887V8.51887Z" fill="#BDF1F6"/>
<path d="M81.1093 15.58L81.0127 15.48C81.1365 15.3297 81.3116 15.2306 81.5041 15.2018C81.4144 15.3654 81.2766 15.4974 81.1093 15.58V15.58Z" fill="#7CE5EF"/>
<path d="M121.866 3.21397L121.771 3.30894C121.647 3.18898 121.629 3.0307 121.593 2.8241C121.662 2.86707 121.722 2.92381 121.769 2.99085C121.816 3.05788 121.849 3.13381 121.866 3.21397V3.21397Z" fill="#70E3ED"/>
<path d="M167.318 11.0097L167.42 10.903C167.486 10.9019 167.551 10.9152 167.611 10.942C167.671 10.9687 167.725 11.0083 167.768 11.058C167.697 11.0961 167.616 11.1118 167.536 11.1032C167.455 11.0946 167.38 11.062 167.318 11.0097V11.0097Z" fill="#78E4EE"/>
<path d="M108.089 92.3083L108.173 92.2134L108.599 92.365C108.346 92.4033 108.218 92.44 108.089 92.3083Z" fill="#A7EDF4"/>
<path d="M123.672 92.4032L123.768 92.4965C123.748 92.5558 123.716 92.6102 123.673 92.6561C123.631 92.702 123.579 92.7385 123.522 92.7631C123.51 92.695 123.517 92.625 123.544 92.5612C123.57 92.4974 123.615 92.4426 123.672 92.4032V92.4032Z" fill="#91E9F1"/>
<path d="M91.3227 9.21197C91.2144 9.29861 91.0762 9.35193 90.9729 9.25696C90.9213 9.21031 91.0329 9.13033 91.1095 9.10034C91.1528 9.19198 91.2461 9.18532 91.3227 9.21197Z" fill="#B6F0F5"/>
<path d="M163.647 87.9913C163.726 88.0696 163.833 88.1746 163.733 88.2662C163.677 88.3179 163.567 88.2079 163.517 88.1196L163.647 87.9913Z" fill="#B2EFF5"/>
<path d="M124.08 93.5879L123.923 93.6012C123.875 93.6016 123.829 93.5851 123.792 93.5546C123.755 93.5241 123.73 93.4816 123.721 93.4346C123.789 93.4245 123.859 93.4334 123.922 93.4605C123.985 93.4876 124.04 93.5317 124.08 93.5879V93.5879Z" fill="#88E7F0"/>
<path d="M79.3988 12.416C78.3993 12.431 77.3998 12.3177 76.4802 11.8978C76.0794 11.7296 75.7238 11.4694 75.4424 11.138C74.851 10.4083 74.976 9.51357 75.7456 8.97208C76.1283 8.6996 76.5822 8.54497 77.0516 8.52722C78.4942 8.46724 79.8419 8.77547 81.003 9.69351C81.591 10.1567 81.7892 10.6932 81.5927 11.2563C81.4863 11.5774 81.287 11.8596 81.0201 12.0672C80.7532 12.2748 80.4307 12.3985 80.0934 12.4226C79.8585 12.4293 79.6253 12.416 79.3988 12.416Z" fill="#FEFEFE"/>
<path d="M86.7082 10.6882L83.4448 12.3544C83.5698 11.9095 83.668 11.5396 83.778 11.1764C83.8246 11.0248 83.9729 11.0181 84.1112 10.9865C84.8999 10.7954 85.7017 10.6629 86.51 10.5899C86.6049 10.5499 86.7165 10.5 86.7082 10.6882Z" fill="#FBFDFE"/>
<path d="M86.7083 10.6882L86.5017 10.5866C86.5662 10.5445 86.6387 10.5161 86.7146 10.5032C86.7906 10.4903 86.8684 10.4931 86.9431 10.5116C86.9268 10.5616 86.8955 10.6053 86.8535 10.6369C86.8115 10.6685 86.7608 10.6864 86.7083 10.6882Z" fill="#B9F0F6"/>
<path d="M18.9488 117.093C18.9488 111.419 18.946 105.743 18.9405 100.067C18.9405 99.6358 19.0171 99.4726 19.5002 99.4809C22.7769 99.5375 26.0586 99.4009 29.3286 99.5975C31.3892 99.7225 33.4282 99.9641 35.4072 100.621C39.172 101.87 41.5808 104.453 42.9585 108.103C44.3528 111.784 44.6859 115.601 44.3977 119.491C44.1878 122.293 43.5748 124.989 42.3771 127.567C40.583 131.427 37.4412 133.417 33.4332 134.241C31.1277 134.716 28.7689 134.741 26.4267 134.749C24.1129 134.759 21.799 134.739 19.4852 134.763C19.0537 134.763 18.9321 134.668 18.9321 134.22C18.9521 128.511 18.9577 122.803 18.9488 117.093Z" fill="#FEFEFE"/>
<path d="M69.6885 74.5191C71.1294 72.8963 72.4488 71.3134 73.6865 69.669C78.7706 62.9545 82.2938 55.4836 84.5144 47.3762C84.7243 46.6065 84.9259 45.8351 85.1108 45.0603C85.1259 44.9478 85.1777 44.8435 85.2581 44.7633C85.3385 44.6832 85.443 44.6319 85.5555 44.6171C91.9773 43.0993 97.6945 40.1486 102.854 36.0732C102.94 36.0049 103.02 35.9066 103.187 35.9066C103.25 36.7947 103.322 37.6827 103.378 38.5724C103.765 44.5971 104.27 50.6102 105.196 56.5799C105.695 59.8005 106.274 63.0045 107.395 66.0768C107.583 66.5909 107.806 67.0918 108.061 67.5763C108.236 67.9096 108.093 67.9612 107.814 67.9979C105.771 68.2633 103.728 68.5321 101.684 68.8043C97.9127 69.3141 94.1529 69.9106 90.3998 70.542C85.2207 71.4117 80.055 72.3498 74.9075 73.4078C73.1984 73.7727 71.4942 74.1375 69.6885 74.5191Z" fill="#FEFEFE"/>
<path d="M157.986 10.1101C159.002 10.0634 159.997 10.185 160.996 10.2034C161.095 10.1966 161.193 10.219 161.278 10.2679C161.364 10.3169 161.433 10.3901 161.478 10.4783C161.65 10.7669 161.899 11.0017 162.197 11.1564C163.277 11.7462 163.841 12.6942 164.04 13.8622C164.719 17.8775 164.693 21.8596 163.128 25.6917C161.839 28.844 159.549 30.88 156.09 31.3248C153.152 31.7014 150.491 30.8583 148.094 29.1589C145.429 27.2745 144.045 24.6603 143.746 21.4264C143.592 19.7503 143.616 18.0941 144.183 16.4997C145.032 14.1004 146.787 12.5793 149.064 11.5913C151.041 10.7349 153.132 10.37 155.264 10.2034C156.168 10.1152 157.078 10.0841 157.986 10.1101V10.1101Z" fill="#FEFEFE"/>
</g>
<defs>
<clipPath id="clip0">
<rect width="200" height="140.154" fill="white"/>
</clipPath>
</defs>
</svg>
