<svg width="200" height="100" viewBox="0 0 200 100" fill="none" xmlns="http://www.w3.org/2000/svg">
<g clip-path="url(#clip0)">
<path d="M100.029 99.938C67.421 99.938 34.7941 99.938 2.14805 99.938C0.544385 99.938 -0.0283523 99.752 0.000284599 97.7061C0.000284599 65.9434 0.000284599 34.1496 0.000284599 2.32488C0.000284599 0.588987 0.172022 -0.0310059 2.06206 -0.0310059C67.2969 -0.0310059 132.551 -0.0310059 197.824 -0.0310059C199.428 -0.0310059 200 0.124053 200 2.16993C200 33.974 200 65.7781 200 97.5822C200 99.3181 199.828 99.938 197.938 99.938C165.35 99.8967 132.713 99.8967 100.029 99.938Z" fill="white"/>
<path d="M22.2222 48.6364C19.267 50.8104 17.2122 54.1469 16.4948 57.9358C15.9783 59.8244 15.07 61.5602 13.8391 63.0107C12.6083 64.4612 11.0874 65.5882 9.39277 66.3054C9.01633 66.4308 8.63406 66.5342 8.2474 66.6153C8.2474 65.6543 8.90603 65.2514 9.30695 64.7244C11.0252 62.7482 11.958 60.1207 11.9044 57.4075C11.8509 54.6943 10.8152 52.1123 9.02047 50.2173C6.892 47.6446 4.97557 44.8752 3.2931 41.9408C2.59767 40.7254 2.18723 39.3445 2.09739 37.9183C2.00755 36.492 2.24106 35.0636 2.77765 33.7573C2.94948 34.0053 3.17861 34.1292 3.17861 34.2842C3.30306 36.1043 3.86209 37.8582 4.8008 39.3742C5.73951 40.8902 7.02572 42.1165 8.5337 42.9327C11.0865 44.0772 13.234 46.0759 14.662 48.6364C15.1489 49.7833 15.6356 48.6364 16.0365 48.4194C16.9088 47.6187 18.0249 47.1975 19.168 47.2376C20.3111 47.2777 21.3997 47.7762 22.2222 48.6364Z" fill="#1983B5"/>
<path d="M139.605 57.8114C139.09 59.8573 138.603 61.8722 138.087 64.011C137.887 64.879 137.801 65.685 136.598 65.716C135.395 65.747 135.195 64.9101 134.966 63.9801C134.364 61.2213 133.734 58.4934 133.19 55.7346C133.19 55.2386 132.417 54.3397 133.591 54.1847C134.765 54.0297 135.052 54.1847 135.252 55.2386C135.581 57.2538 136.099 59.2272 136.798 61.1282C137.285 59.2994 137.772 57.4394 138.173 55.5795C138.191 55.3616 138.249 55.1499 138.344 54.9571C138.44 54.7643 138.571 54.5946 138.729 54.4583C138.887 54.322 139.069 54.222 139.264 54.1643C139.459 54.1066 139.662 54.0924 139.863 54.1226C140.922 54.1226 141.266 54.6496 141.466 55.6725C141.81 57.5634 142.325 59.4233 142.927 61.8722C143.442 59.4543 143.929 57.5944 144.215 55.6725C144.416 54.5256 144.731 53.8127 145.905 54.0607C147.079 54.3087 146.335 55.5485 146.22 56.1375C145.733 58.8963 144.989 61.5932 144.416 64.3521C144.215 65.251 143.872 65.561 143.041 65.561C142.875 65.5964 142.704 65.5944 142.539 65.555C142.373 65.5156 142.217 65.4398 142.08 65.3321C141.943 65.2245 141.828 65.0874 141.742 64.9294C141.656 64.7715 141.601 64.596 141.581 64.414C141.065 62.2132 140.521 60.0433 139.977 57.8424L139.605 57.8114Z" fill="#1D83B5"/>
<path d="M40.9221 39.3989C42.3253 38.5619 42.3827 37.322 42.8122 36.299C43.004 35.7829 43.3205 35.3321 43.7286 34.994C44.1368 34.6558 44.6214 34.4427 45.1318 34.3772C45.5614 34.3772 46.1626 34.1292 46.2772 34.9042C46.3917 35.6791 46.2773 35.9581 45.6759 36.0821C43.8718 36.4541 44.2726 38.6239 43.2704 39.6778C42.8408 40.1118 43.528 40.3598 43.7571 40.6388C44.7903 42.2066 45.646 43.903 46.3059 45.6915C42.3253 46.8074 43.4422 41.9097 40.9221 40.9798C40.9221 42.2817 40.9221 43.4907 40.9221 44.6996C40.9221 45.9085 40.693 45.9085 39.8626 45.9085C39.0321 45.9085 38.8317 45.4435 38.8603 44.6376C38.889 43.8316 38.8603 42.3437 38.8603 41.0418C36.3689 41.9097 37.4571 46.7765 33.6484 45.7535C34.1409 44.1868 34.784 42.6802 35.567 41.2588C35.8248 40.6388 37.0561 40.4528 36.4548 39.5848C35.8534 38.7169 35.882 36.6711 34.4215 36.1751C33.6769 35.9271 33.276 35.6171 33.5337 34.8421C33.7915 34.0672 34.5933 34.3462 35.1374 34.4702C36.3688 34.7181 36.7985 35.8651 37.2567 36.9501C37.7149 38.035 37.629 38.7169 38.8603 39.1509V35.8341C38.8603 35.0901 38.8603 34.3771 39.8626 34.3461C40.8649 34.3151 40.9221 34.9351 40.9221 35.7411C40.9221 36.547 40.9221 37.9729 40.9221 39.3989Z" fill="#1E82B5"/>
<path d="M101.06 65.4993C97.7092 65.4993 97.7092 65.4993 97.7092 61.9655C97.7092 59.8266 97.7092 57.6568 97.7092 55.5179C97.7092 54.34 98.0528 53.968 99.1124 54.0299C100.172 54.0919 101.976 54.0299 103.408 54.0299C103.896 54.0056 104.38 54.1336 104.803 54.3986C105.226 54.6636 105.569 55.0546 105.792 55.5249C106.016 55.9952 106.109 56.5251 106.062 57.0514C106.015 57.5778 105.829 58.0784 105.527 58.4937C105.241 59.0517 104.926 59.3617 105.527 59.8886C106.029 60.2921 106.378 60.8792 106.51 61.5407C106.642 62.2022 106.547 62.893 106.243 63.4844C106.015 64.0913 105.614 64.6042 105.1 64.9495C104.585 65.2948 103.983 65.4547 103.379 65.4063L101.06 65.4993Z" fill="#1E83B5"/>
<path d="M86.4547 39.7088C86.7124 38.2209 85.6527 35.834 86.9128 34.7491C88.1728 33.6642 90.0629 34.3461 91.6666 34.4701C92.583 34.4701 94.2438 33.5712 94.2725 35.4001C94.3011 37.229 92.5828 36.175 91.6951 36.423C91.0115 36.5316 90.3169 36.5316 89.6333 36.423C88.8028 36.423 88.6024 36.8261 88.6024 37.632C88.6024 38.438 88.8029 38.9958 89.7193 38.9958C90.7543 38.9599 91.7899 39.0326 92.812 39.2128C93.4896 39.3317 94.1052 39.71 94.5467 40.279C94.9882 40.8479 95.2264 41.5697 95.2175 42.3127C95.2931 43.0975 95.0892 43.8841 94.6476 44.5119C94.2059 45.1397 93.5597 45.5615 92.8406 45.6914C90.997 45.9241 89.1384 45.9863 87.2851 45.8774C86.5119 45.8774 86.4833 45.2885 86.4547 44.6685V39.7088Z" fill="#1F83B6"/>
<path d="M165.579 64.662C165.296 64.9736 164.956 65.2171 164.581 65.3765C164.205 65.536 163.803 65.6078 163.4 65.5873C162.998 65.5668 162.603 65.4544 162.243 65.2576C161.883 65.0608 161.566 64.7839 161.312 64.4451C160.741 63.6072 160.405 62.6093 160.345 61.5704C160.284 60.5316 160.5 59.4957 160.968 58.5864C161.284 58.008 161.764 57.5563 162.337 57.2991C162.911 57.0419 163.546 56.9933 164.147 57.1605C164.554 57.3516 164.992 57.4503 165.435 57.4503C165.879 57.4503 166.317 57.3516 166.724 57.1605C167.354 56.8505 167.841 57.1605 167.812 58.2144C167.812 60.7253 167.812 63.2361 167.812 65.747C167.812 67.1109 167.182 68.3509 165.836 68.5058C164.49 68.6608 162.543 69.1878 161.168 67.6999C160.973 67.5447 160.834 67.3197 160.776 67.0645C160.719 66.8094 160.746 66.5405 160.854 66.305C161.083 65.84 161.598 66.057 161.97 66.15C162.371 66.2275 162.752 66.3966 163.087 66.6459C163.381 66.9074 163.741 67.0654 164.12 67.0987C164.499 67.1319 164.878 67.0388 165.206 66.8319C165.951 66.4289 165.836 65.592 165.579 64.662Z" fill="#1E83B5"/>
<path d="M10.7959 34.47C14.0259 33.65 17.4217 34.1446 20.3367 35.8594C23.2517 37.5743 25.4821 40.3896 26.6035 43.7695C28.5508 49.2252 27.4913 55.7348 24.0263 58.0287C25.3191 55.1344 25.9383 51.9419 25.8302 48.7292C25.6977 45.5462 24.5493 42.5115 22.5804 40.1429C20.6116 37.7744 17.9445 36.2186 15.0342 35.741C13.8888 35.462 12.7432 35.338 11.5691 35.152C11.3973 34.904 10.5954 35.276 10.7959 34.47Z" fill="#F8EC32"/>
<path d="M86.0539 60.7873C85.7389 62.0272 85.3953 63.1431 85.1662 64.2901C84.9371 65.437 84.6794 65.592 83.7917 65.561C82.904 65.53 82.7608 65.1271 82.5603 64.4141C82.0449 62.4922 81.4434 60.6013 80.8993 58.6794C80.8993 58.2145 80.1548 57.5325 81.0712 57.2535C81.9875 56.9746 82.4457 57.0675 82.6748 58.1215C82.9039 59.1754 83.3334 60.5703 83.8775 62.4612C84.3357 60.6323 84.6507 59.3614 84.9084 58.2764C84.9512 57.95 85.1096 57.6543 85.3501 57.4519C85.5905 57.2495 85.8942 57.1561 86.1971 57.1916C86.9989 57.1916 87.2853 57.6565 87.4571 58.3385C87.629 59.0204 87.9154 60.4463 88.2304 61.7792C89.2899 60.7563 89.2327 59.4854 89.5191 58.4624C89.8054 57.4395 90.235 57.0055 91.1227 57.2535C92.0105 57.5015 91.4949 58.4315 91.3517 59.0205C90.8649 60.7873 90.2922 62.5232 89.8054 64.2901C89.6049 65.065 89.3472 65.592 88.4309 65.592C87.5145 65.592 87.3713 64.91 87.1422 64.1971C86.9744 62.9982 86.6056 61.8426 86.0539 60.7873V60.7873Z" fill="#1F83B5"/>
<path d="M163.173 45.7222C161.312 46.3112 160.309 45.7222 159.908 44.0483C159.821 43.6927 159.675 43.3568 159.479 43.0564C159.049 42.3435 158.877 40.9485 157.99 41.1965C157.102 41.4445 157.732 42.7463 157.589 43.5523C157.546 43.9954 157.546 44.4422 157.589 44.8853C157.589 45.8462 157.102 45.9702 156.386 45.9392C155.67 45.9082 155.412 45.6602 155.412 44.9162C155.412 41.8164 155.412 38.7166 155.412 35.6168C155.412 34.7178 155.756 34.4699 156.529 34.4699C157.302 34.4699 157.617 34.8419 157.589 35.6788C157.56 36.5158 157.589 37.3217 157.589 38.1276C157.589 38.9336 157.417 39.1196 157.99 39.2126C158.562 39.3056 158.677 38.8097 158.849 38.4067L159.765 36.1748C159.971 35.6567 160.316 35.2173 160.755 34.9133C161.194 34.6094 161.707 34.4549 162.228 34.4699C162.658 34.4699 163.087 34.4699 163.144 35.0899C163.202 35.7098 163.144 36.0818 162.658 36.1438C160.739 36.4228 161.14 38.5927 160.195 39.6466C159.708 40.1736 160.195 40.3905 160.51 40.6695C161.545 42.2574 162.437 43.9495 163.173 45.7222V45.7222Z" fill="#1E83B5"/>
<path d="M166.466 45.3811C166.466 46.373 166.466 47.2409 166.466 48.1089C166.466 48.9768 166.037 49.0698 165.407 49.1008C164.777 49.1318 164.376 48.8838 164.404 48.1089V38.5615C164.404 37.9415 164.777 37.3525 165.235 37.6625C166.438 38.5614 167.44 37.6625 168.528 37.4765C169.122 37.4209 169.717 37.5672 170.23 37.895C170.744 38.2229 171.15 38.7159 171.392 39.3054C171.804 40.1206 172.003 41.0419 171.967 41.9703C171.932 42.8988 171.664 43.7993 171.191 44.5751C170.886 45.1178 170.433 45.5457 169.895 45.8007C169.357 46.0558 168.76 46.1257 168.184 46.001C167.6 45.8332 167.027 45.6262 166.466 45.3811V45.3811Z" fill="#1E83B5"/>
<path d="M104.324 41.9402C104.324 42.8391 104.324 43.7381 104.324 44.6061C104.324 45.474 104.324 46.0009 103.207 45.9699C102.09 45.9389 102.205 45.443 102.234 44.668C102.234 43.3661 102.234 42.0022 102.234 40.7003C102.234 39.3984 101.747 39.3674 100.859 39.3674C99.9711 39.3674 99.3984 39.3673 99.4557 40.6692C99.513 41.9712 99.4557 42.9012 99.4557 44.0171C99.4557 45.815 98.3102 46.1559 96.907 46.0009C95.5038 45.8459 95.8188 44.73 96.3629 44.513C98.167 43.862 97.4511 42.3742 97.4797 41.1963C97.4797 37.6005 97.4797 37.6005 100.888 37.6005C104.295 37.6005 104.324 37.6004 104.324 41.9402Z" fill="#2183B6"/>
<path d="M126.604 41.3513C125.859 42.5913 125.086 43.7692 124.427 45.0401C124.255 45.4079 123.967 45.6973 123.615 45.8563C123.264 46.0154 122.872 46.0337 122.509 45.9081C121.621 45.6911 121.993 44.8231 121.964 44.2341C121.964 42.4672 121.964 40.7003 121.964 38.9024C121.964 38.1895 121.965 37.6006 122.91 37.6006C123.855 37.6006 123.855 38.2515 123.855 38.9645C123.795 40.0628 123.911 41.1639 124.198 42.2193C124.914 41.0413 125.687 39.8944 126.346 38.6545C126.516 38.2501 126.816 37.9263 127.19 37.7438C127.564 37.5613 127.987 37.5324 128.379 37.6625C129.382 37.9105 128.952 38.8405 128.952 39.4914C128.952 41.1963 128.952 42.9013 128.952 44.6062C128.952 45.5051 128.78 46.001 127.835 45.97C126.89 45.939 126.947 45.2572 126.947 44.6062V41.5064L126.604 41.3513Z" fill="#1F83B5"/>
<path d="M175.688 42.2194C176.403 41.0415 177.177 39.8946 177.835 38.6546C178.011 38.2478 178.316 37.9233 178.695 37.741C179.074 37.5587 179.501 37.5309 179.897 37.6627C180.9 37.8797 180.47 38.8406 180.498 39.4916C180.498 41.2585 180.498 43.0254 180.498 44.8232C180.498 45.6912 180.155 45.9702 179.382 45.9702C178.609 45.9702 178.465 45.5362 178.465 44.8543C178.534 43.6516 178.408 42.4453 178.093 41.2895C177.377 42.4984 176.633 43.7073 175.945 44.9162C175.79 45.2915 175.52 45.5977 175.182 45.7838C174.843 45.97 174.455 46.0248 174.084 45.9392C173.024 45.7222 173.454 44.7922 173.425 44.1413C173.425 42.3744 173.425 40.6075 173.425 38.8096C173.425 38.1896 173.425 37.6627 174.256 37.6007C175.086 37.5387 175.287 38.0657 175.258 38.8406V41.9404L175.688 42.2194Z" fill="#1F83B5"/>
<path d="M62.285 37.9726C63.2301 37.9726 63.8887 39.0885 63.5451 39.5535C62.056 41.4754 65.0055 43.4592 63.2873 45.2261C61.2195 45.9522 59.029 46.1745 56.8726 45.8771C56.4431 45.5671 56.5003 45.1022 56.5003 44.6682C56.5003 42.7463 56.5003 40.7934 56.5003 38.8716C56.5003 38.0966 56.6436 37.5386 57.5027 37.6006C58.998 37.4864 60.5006 37.5907 61.9701 37.9106C60.9442 38.473 59.7681 38.6266 58.6481 38.3445C58.6481 38.3445 58.8199 38.3445 58.7913 38.6235C58.8952 38.8026 58.9635 39.0032 58.9917 39.2125C59.1349 39.7705 59.2495 40.4214 59.9368 40.3594C60.6241 40.2974 60.4237 39.3985 60.5096 38.8405C60.5955 38.2826 61.7409 38.4066 62.285 37.9726Z" fill="#1F83B5"/>
<path d="M75.9165 46.0634C75.3839 46.1049 74.8493 46.0219 74.349 45.8201C73.8486 45.6182 73.3941 45.3023 73.0166 44.8936C72.639 44.4849 72.3471 43.993 72.1607 43.4514C71.9742 42.9098 71.8975 42.3312 71.9359 41.7547C71.9359 40.6202 72.3522 39.5321 73.0933 38.7299C73.8344 37.9277 74.8397 37.4769 75.8878 37.4769C76.9359 37.4769 77.941 37.9277 78.6821 38.7299C79.4232 39.5321 79.8397 40.6202 79.8397 41.7547C79.8594 42.321 79.7717 42.8857 79.5822 43.414C79.3928 43.9422 79.1055 44.423 78.738 44.8266C78.3705 45.2302 77.9306 45.5481 77.4453 45.7609C76.9601 45.9736 76.4398 46.0765 75.9165 46.0634V46.0634Z" fill="#1F83B6"/>
<path d="M138.173 41.7852C138.173 40.8243 138.173 39.8633 138.173 38.9023C138.173 37.9414 138.173 37.6005 139.147 37.6005C140.12 37.6005 140.292 37.9105 140.206 38.7784C140.12 39.6464 140.206 40.7003 141.638 40.7003C143.07 40.7003 143.213 39.9873 143.099 38.8093C142.984 37.6314 143.328 37.6005 144.13 37.6005C144.932 37.6005 145.161 38.0344 145.161 38.8404C145.161 40.6073 145.161 42.3741 145.161 44.141C145.161 44.947 145.504 46.0009 144.101 45.9699C142.698 45.9389 143.185 44.978 143.127 44.234C143.07 43.4901 143.414 42.4051 142.039 42.4051C140.665 42.4051 140.035 42.4052 140.235 44.1721C140.235 44.947 140.579 46.0319 139.175 45.9699C137.772 45.9079 138.288 44.761 138.23 43.9861C138.168 43.2545 138.149 42.5194 138.173 41.7852V41.7852Z" fill="#2083B6"/>
<path d="M126.575 62.8645C128.093 63.1745 128.036 63.9494 126.976 64.8174C126.376 65.3788 125.621 65.7105 124.829 65.7609C124.037 65.8113 123.252 65.5777 122.595 65.0963C121.843 64.5646 121.284 63.7682 121.013 62.8418C120.742 61.9154 120.774 60.9159 121.105 60.0126C121.24 59.1246 121.682 58.3257 122.342 57.7785C123.002 57.2312 123.829 56.9771 124.656 57.0678C125.46 57.0473 126.242 57.3545 126.847 57.9287C127.452 58.5028 127.835 59.302 127.921 60.1676C127.921 60.7566 128.093 61.3146 128.179 61.9035C126.976 62.7095 125.544 62.3995 124.084 62.8025C125.057 63.3295 125.831 62.2135 126.575 62.8645Z" fill="#2183B5"/>
<path d="M112.572 42.3433C112.572 42.7153 112.572 43.0563 112.572 43.4283C112.572 44.7922 113.517 47.3341 110.624 45.3812C110.453 45.3812 109.908 45.7221 109.536 45.8771C107.789 46.435 106.329 45.8771 105.957 44.3582C105.584 42.8393 106.3 41.7234 108.219 41.1034C109.021 40.8555 110.681 41.1034 110.309 39.8634C109.937 38.6235 108.706 39.1815 107.818 39.8634C107.572 40.0179 107.282 40.0654 107.005 39.9963C106.729 39.9273 106.487 39.7467 106.329 39.4915C105.957 38.9025 106.529 38.3756 106.93 38.0656C107.563 37.6142 108.29 37.3409 109.045 37.2705C109.8 37.2001 110.559 37.3349 111.254 37.6626C112.543 38.1586 112.6 39.4295 112.572 40.7624V42.3433Z" fill="#2083B5"/>
<path d="M198.167 43.1494C198.167 43.3974 198.167 44.1413 198.167 44.8853C198.167 45.6292 197.938 46.2182 197.337 45.9082C196.105 45.2262 195.046 45.9082 193.929 45.9082C193.641 45.9754 193.343 45.9785 193.054 45.9173C192.764 45.8561 192.489 45.7319 192.246 45.5521C192.002 45.3724 191.794 45.1408 191.636 44.8717C191.477 44.6025 191.371 44.3013 191.323 43.9863C191.252 43.6778 191.242 43.3565 191.293 43.0434C191.344 42.7303 191.456 42.4324 191.621 42.1692C191.786 41.9059 192 41.6833 192.25 41.5157C192.499 41.3481 192.779 41.2393 193.07 41.1965C193.679 41.0641 194.281 40.8986 194.874 40.7005C195.275 40.5455 196.134 40.7005 195.905 39.7396C195.676 38.7786 195.075 39.0886 194.53 39.1196C193.986 39.1506 194.072 39.1196 193.958 39.1196C193.213 39.8635 192.096 40.2665 191.781 39.1196C191.466 37.9727 192.669 37.4457 193.614 37.1977C196.965 36.7017 198.167 38.0657 198.167 43.1494Z" fill="#2083B5"/>
<path d="M61.054 62.8643C63.1445 63.5153 61.8559 64.4762 61.054 65.0032C60.377 65.5199 59.5618 65.7817 58.7339 65.7481C57.9061 65.7145 57.1114 65.3874 56.472 64.8172C55.812 64.1049 55.3745 63.187 55.2204 62.192C55.0663 61.197 55.2036 60.1748 55.613 59.2685C55.9462 58.4767 56.5215 57.8335 57.2418 57.4473C57.9621 57.0611 58.7835 56.9557 59.5673 57.1486C60.3511 57.3416 61.0495 57.8213 61.5447 58.5067C62.0398 59.1922 62.3014 60.0415 62.2854 60.9114C62.2854 61.2834 62.2854 61.6554 62.2854 61.9964C61.1399 62.5543 59.88 62.3683 58.3908 62.8643C59.479 63.1743 60.2809 61.9964 61.054 62.8643Z" fill="#2083B6"/>
<path d="M119.473 61.5004C119.473 62.2444 119.473 62.9883 119.473 63.7323C119.473 65.4372 119.015 66.2741 117.554 65.0962C116.867 64.5692 116.724 65.0962 116.352 65.3442C114.061 66.2431 112.543 65.3442 112.457 62.6164C112.457 61.2835 112.457 59.9505 112.457 58.5866C112.457 57.7806 112.457 57.1607 113.545 57.1917C114.633 57.2227 114.548 57.9046 114.548 58.6796C114.548 59.4545 114.548 60.9115 114.548 62.0274C114.548 63.1434 114.548 63.9183 115.75 63.9183C116.953 63.9183 117.325 63.1434 117.354 62.0274C117.383 60.9115 117.354 59.6715 117.354 58.4936C117.354 57.3157 117.354 57.1607 118.328 57.1917C119.301 57.2227 119.445 57.5637 119.416 58.4006C119.387 59.2376 119.473 60.4775 119.473 61.5004Z" fill="#2283B6"/>
<path d="M79.6967 61.469C79.6967 62.6035 79.2802 63.6917 78.5391 64.4939C77.7979 65.2961 76.7929 65.7468 75.7448 65.7468C74.6967 65.7468 73.6914 65.2961 72.9503 64.4939C72.2092 63.6917 71.7929 62.6035 71.7929 61.469C71.7725 60.8946 71.8625 60.3219 72.0571 59.7871C72.2518 59.2523 72.5469 58.7671 72.9237 58.3621C73.3006 57.9571 73.7509 57.6411 74.2463 57.4343C74.7418 57.2274 75.2714 57.1342 75.8019 57.1603C76.3252 57.1423 76.8462 57.2422 77.332 57.4536C77.8178 57.665 78.2577 57.9833 78.6238 58.3884C78.99 58.7935 79.2745 59.2765 79.4591 59.8068C79.6438 60.3371 79.7247 60.9031 79.6967 61.469V61.469Z" fill="#1F83B5"/>
<path d="M55.5271 54.2466C54.8971 55.3316 54.4389 56.2305 53.8948 57.0675C53.089 58.0243 52.4766 59.1526 52.0969 60.3803C51.7172 61.608 51.5785 62.908 51.6897 64.197C51.6897 64.848 51.6897 65.5609 50.8306 65.5609C49.9715 65.5609 49.4561 65.5609 49.5992 64.569C50.2865 60.6942 48.0242 58.0284 46.3346 55.1146C46.3346 54.8666 46.1342 54.5876 45.991 54.3086C47.7951 53.9676 47.7951 53.9676 50.6875 58.1834C52.4057 57.1294 51.9761 53.2547 55.5271 54.2466Z" fill="#1F83B5"/>
<path d="M151.747 61.3761V59.3613C151.747 57.8733 151.575 56.2615 153.752 57.7494C154.21 58.0904 154.468 57.5324 154.811 57.3774C157.074 56.4475 158.649 57.3774 158.735 60.0742C158.735 61.4072 158.735 62.7401 158.735 64.073C158.735 64.848 158.735 65.5609 157.732 65.5609C156.73 65.5609 156.644 65.003 156.673 64.166C156.701 63.3291 156.673 61.7791 156.673 60.6012C156.673 59.4232 156.673 58.8963 155.527 58.8343C154.382 58.7723 153.895 59.5162 153.809 60.6012C153.723 61.6861 153.809 62.5231 153.809 63.4841C153.809 64.445 154.353 65.6229 152.778 65.5299C151.203 65.437 151.948 64.166 151.833 63.3911C151.747 62.7238 151.718 62.0492 151.747 61.3761V61.3761Z" fill="#2083B6"/>
<path d="M51.0021 46.063C50.4698 46.1087 49.9346 46.03 49.4329 45.832C48.9312 45.6341 48.4749 45.3216 48.0946 44.9158C47.7143 44.5101 47.4191 44.0205 47.229 43.4804C47.039 42.9403 46.9584 42.3622 46.9929 41.7854C46.9739 40.6509 47.3721 39.5546 48.0998 38.7378C48.8275 37.921 49.8252 37.4507 50.8733 37.4301C51.9214 37.4096 52.934 37.8405 53.6886 38.6282C54.4431 39.4159 54.8777 40.4958 54.8967 41.6303C54.9325 42.2041 54.8578 42.7797 54.6773 43.3205C54.4969 43.8614 54.2148 44.3558 53.8487 44.7725C53.4826 45.1892 53.0406 45.5191 52.5506 45.7412C52.0606 45.9634 51.5333 46.0729 51.0021 46.063V46.063Z" fill="#1D82B5"/>
<path d="M172.738 65.6229C172.258 65.6956 171.769 65.6557 171.304 65.506C170.84 65.3562 170.411 65.1001 170.046 64.755C169.673 64.383 168.986 63.887 169.387 63.329C169.505 63.1939 169.647 63.0863 169.804 63.0127C169.962 62.9392 170.132 62.9012 170.303 62.9012C170.475 62.9012 170.645 62.9392 170.802 63.0127C170.96 63.0863 171.102 63.1939 171.22 63.329C171.457 63.582 171.716 63.8103 171.993 64.0109C172.738 64.4139 173.683 64.4449 173.998 63.639C174.313 62.833 173.282 62.7711 172.738 62.4921H172.337C171.134 62.0581 169.673 61.9341 169.473 60.1362C169.367 59.6599 169.424 59.1579 169.635 58.7243C169.846 58.2907 170.196 57.9551 170.619 57.7804C171.325 57.3845 172.117 57.1987 172.912 57.2423C173.707 57.2859 174.477 57.5572 175.143 58.0283C175.515 58.2763 176.002 58.7413 175.802 59.2682C175.601 59.7952 174.857 59.7022 174.341 59.6712C173.826 59.6402 173.797 59.2683 173.482 59.1133C173.167 58.9583 171.821 58.5553 171.563 59.4852C171.306 60.4152 172.394 60.1982 172.938 60.4462H173.539C174.914 60.9422 176.546 61.2521 176.203 63.546C175.859 65.8399 174.37 65.6849 172.738 65.6229Z" fill="#2083B5"/>
<path d="M120.819 45.7222C117.955 46.8381 118.385 43.4903 116.896 42.6224C116.352 43.3044 116.609 44.1103 116.609 44.8543C116.609 45.5982 116.352 46.0631 115.521 46.0631C114.691 46.0631 114.519 45.5673 114.548 44.7923V39.0266C114.548 38.3137 114.548 37.6937 115.464 37.6937C116.38 37.6937 116.609 38.2206 116.581 39.0886C116.552 39.9565 116.581 40.2356 116.581 40.8865C117.64 40.6075 117.526 39.6156 117.869 38.9336C118.033 38.525 118.313 38.184 118.668 37.9608C119.024 37.7375 119.437 37.6439 119.845 37.6937C120.59 37.6937 120.876 38.5927 120.389 38.8717C117.325 40.6385 119.015 42.5604 120.075 44.5132C120.418 44.7922 120.418 45.1952 120.819 45.7222Z" fill="#2383B6"/>
<path d="M189.691 45.5675C188.431 46.4044 187.829 46.0633 187.887 44.4204C187.887 43.3045 187.887 42.1886 187.887 41.1037C187.887 40.0188 187.686 39.3678 186.455 39.3368C185.223 39.3058 185.023 40.0187 185.08 41.1346C185.138 42.2506 185.08 43.0566 185.08 44.0175C185.08 45.7844 183.935 46.1874 182.503 46.0014C181.558 46.0014 181.558 44.7614 181.902 44.6375C183.706 43.9245 183.047 42.3436 183.076 41.1037C183.076 37.6009 183.076 37.5699 186.312 37.6319C187.457 37.6319 188.631 37.2599 189.691 37.9418C187.946 38.2157 186.18 38.2885 184.422 38.1589C185.624 38.1589 186.827 38.1589 188.001 38.1589C189.175 38.1589 189.691 38.7168 189.691 40.0188C189.634 41.8477 189.548 43.7076 189.691 45.5675Z" fill="#1D83B5"/>
<path d="M133.648 37.6005H136.111C136.684 37.6005 137.027 37.7864 137.085 38.4374C137.142 39.0883 136.827 39.4604 136.254 39.3674C134.708 39.1194 134.622 40.1423 134.679 41.3822C134.736 42.6222 134.679 43.5831 134.679 44.6991C134.679 45.815 134.536 45.9389 133.677 45.9699C132.818 46.0009 132.474 45.536 132.503 44.637C132.531 43.7381 132.503 43.0251 132.503 42.1881C132.503 40.8552 133.104 39.0884 130.727 39.3364C130.183 39.3364 130.154 38.8404 130.183 38.3754C130.212 37.9104 130.527 37.6315 130.985 37.6005H133.648Z" fill="#2A85B7"/>
<path d="M67.9839 37.6005H70.4466C70.9907 37.6005 71.3631 37.7865 71.3917 38.4994C71.4203 39.2124 71.0767 39.4604 70.504 39.3674C68.9576 39.1194 68.8431 40.1113 68.929 41.3822C69.0149 42.6532 68.929 43.6141 68.929 44.6991C68.929 45.784 68.9289 45.9699 67.9266 45.9699C66.9243 45.9699 66.8384 45.598 66.867 44.761C66.8957 43.9241 66.867 42.2502 66.867 40.9792C66.867 39.7083 66.8671 39.2434 65.5498 39.3674C65.0057 39.3674 64.4043 39.3673 64.4043 38.5304C64.4043 37.6934 65.1203 37.6315 65.7217 37.6005H67.9839Z" fill="#2484B6"/>
<path d="M110.481 59.8263C110.481 61.3762 110.481 62.9261 110.481 64.476C110.481 65.4059 110.052 65.561 109.336 65.561C108.62 65.561 108.419 65.127 108.419 64.4451V55.1456C108.419 54.4327 108.62 54.0607 109.336 54.0607C110.052 54.0607 110.51 54.2776 110.481 55.1766C110.453 56.6955 110.453 58.2764 110.481 59.8263Z" fill="#2284B6"/>
<path d="M68.1557 59.6094C68.1557 58.1215 68.1557 56.5095 68.1557 55.1766C68.1557 54.3086 68.4994 54.0297 69.2726 54.0297C70.0458 54.0297 70.189 54.4637 70.189 55.1456V64.4451C70.189 65.0961 70.189 65.561 69.3013 65.561C68.4135 65.561 68.1271 65.375 68.1557 64.476C68.1844 62.8331 68.1557 61.2213 68.1557 59.6094Z" fill="#2885B7"/>
<path d="M64.0035 59.5784C64.0035 58.0904 64.0035 56.4786 64.0035 55.1456C64.0035 54.2157 64.4332 54.0297 65.1491 54.0297C65.865 54.0297 66.0941 54.4327 66.0941 55.1146V64.4141C66.0941 65.096 65.8936 65.499 65.1491 65.499C64.4045 65.499 63.9749 65.499 64.0035 64.4141C64.0322 62.8332 64.0035 61.2213 64.0035 59.5784Z" fill="#2684B6"/>
<path d="M149.227 41.8782V44.978C149.227 45.784 148.855 45.9699 148.225 45.9699C147.595 45.9699 147.165 45.784 147.165 44.978C147.165 42.8392 147.165 40.7313 147.165 38.5924C147.165 37.7865 147.566 37.6005 148.196 37.6005C148.826 37.6005 149.256 37.7865 149.256 38.5924C149.256 39.3984 149.227 40.7933 149.227 41.8782Z" fill="#2484B6"/>
<path d="M149.685 61.5312C149.685 62.4922 149.685 63.4531 149.685 64.4141C149.685 65.375 149.427 65.592 148.626 65.561C147.824 65.53 147.623 65.313 147.623 64.5381C147.623 62.3992 147.623 60.2913 147.623 58.1525C147.623 57.3155 148.081 57.1915 148.683 57.1915C149.284 57.1915 149.685 57.4705 149.685 58.2144C149.685 58.9584 149.685 60.4153 149.685 61.5312Z" fill="#2584B6"/>
<path d="M83.1901 42.9015C82.4742 42.6535 81.2429 43.4905 81.2715 41.7546C81.3001 40.0187 82.6174 40.7317 83.3906 40.7007C84.1638 40.6697 85.3378 40.0807 85.3092 41.7546C85.2806 43.4285 83.8488 42.5605 83.1901 42.9015Z" fill="#2A85B7"/>
<path d="M94.6448 60.1982C95.3321 60.5082 96.5635 59.5473 96.6208 61.2522C96.678 62.9571 95.3607 62.3991 94.5875 62.4301C93.8143 62.4611 92.6689 63.05 92.583 61.4071C92.4971 59.7642 93.843 60.5082 94.6448 60.1982Z" fill="#2B85B7"/>
<path d="M189.691 45.5673C188.688 44.0174 189.261 42.2814 189.261 40.6385C189.261 38.9956 188.889 38.1587 187.199 38.3757C186.095 38.5192 184.974 38.3702 183.935 37.9417H189.662C190.058 40.4646 190.068 43.0409 189.691 45.5673V45.5673Z" fill="#217FB2"/>
<path d="M61.0541 62.8643C60.0805 62.6163 59.7941 64.0422 58.7345 63.8872C57.675 63.7322 57.5891 63.4532 57.5032 62.7402C57.4173 62.0273 58.133 62.0273 58.5912 62.0273C59.8226 62.0273 61.0541 62.0273 62.2855 62.0273L61.0541 62.8643Z" fill="white"/>
<path d="M126.575 62.8641C125.945 62.8641 125.544 63.5461 125.029 63.856C124.779 63.9777 124.5 64.0102 124.233 63.9489C123.965 63.8876 123.722 63.7356 123.54 63.515C123.374 63.3768 123.254 63.1846 123.198 62.9669C123.141 62.7492 123.15 62.5176 123.224 62.3061C123.482 61.7482 124.055 62.0271 124.513 61.9961L128.179 61.8412C127.978 62.8021 126.947 62.1821 126.575 62.8641Z" fill="white"/>
<path d="M149.685 55.1146C149.685 56.0446 149.255 56.1685 148.539 56.1685C147.824 56.1685 147.623 55.7965 147.594 55.0836C147.566 54.3706 148.081 54.0297 148.769 53.9987C149.456 53.9677 149.742 54.3707 149.685 55.1146Z" fill="#3789BA"/>
<path d="M148.253 36.5776C147.509 36.5776 147.165 36.3607 147.137 35.4928C147.108 34.6248 147.537 34.3768 148.253 34.4078C148.969 34.4388 149.256 34.5938 149.256 35.3687C149.256 36.1437 149.055 36.6706 148.253 36.5776Z" fill="#3288B8"/>
<path d="M58.6197 38.9958C58.4479 38.2828 57.6461 38.6239 57.2166 37.9109H61.9704C61.9891 37.8851 62.013 37.8642 62.0403 37.8499C62.0676 37.8355 62.0975 37.8281 62.1279 37.8281C62.1582 37.8281 62.1881 37.8355 62.2154 37.8499C62.2427 37.8642 62.2666 37.8851 62.2853 37.9109L60.5099 38.8408C60.2633 39.1057 59.9376 39.2668 59.5912 39.2953C59.2448 39.3237 58.9003 39.2175 58.6197 38.9958V38.9958Z" fill="#217FB2"/>
<path d="M10.7961 34.4698L11.5693 35.2137H9.24976C9.4392 34.9718 9.67661 34.7793 9.94435 34.6505C10.2121 34.5217 10.5032 34.4599 10.7961 34.4698V34.4698Z" fill="#F7EC50"/>
<path d="M101.89 63.5463C100.859 63.5463 99.8566 63.8563 99.828 62.1514C99.7993 60.4465 100.515 60.4465 101.603 60.5705C102.692 60.6945 104.209 60.1365 104.295 61.9964C104.381 63.8563 102.806 63.3603 101.89 63.5463Z" fill="#F6F8FB"/>
<path d="M101.804 58.5864C100.831 58.5864 99.8284 58.9273 99.8284 57.3154C99.8284 55.7035 100.401 55.7966 101.346 55.9206C102.291 56.0446 103.809 55.5175 103.923 57.2224C104.038 58.9273 102.549 58.4004 101.804 58.5864Z" fill="white"/>
<path d="M90.5213 43.8935C89.6336 43.8935 88.6026 44.2965 88.5454 42.5296C88.4881 40.7627 89.3758 40.9797 90.3495 41.0107C91.3231 41.0417 92.8695 40.7627 92.9554 42.4056C93.0413 44.0485 91.5522 43.8315 90.5213 43.8935Z" fill="#F7F9FB"/>
<path d="M162.4 61.1903C162.4 59.9503 162.743 58.7414 164.204 58.8034C165.664 58.8654 165.779 59.9814 165.779 61.1593C165.779 62.3373 165.464 63.6701 164.118 63.7011C162.772 63.7321 162.486 62.4302 162.4 61.1903Z" fill="white"/>
<path d="M169.817 41.7854C169.817 43.0253 169.531 44.3272 168.042 44.2342C166.552 44.1412 166.467 42.8393 166.467 41.5994C166.467 40.3595 166.724 39.2745 168.07 39.2745C169.416 39.2745 169.702 40.5765 169.817 41.7854Z" fill="white"/>
<path d="M59.8511 44.5751C59.1066 44.5751 58.5339 44.5751 58.5053 43.4902C58.4767 42.4052 59.1352 42.3742 59.8511 42.4052C60.5671 42.4362 61.7413 42.4052 61.7413 43.4902C61.7413 44.5751 60.653 44.5131 59.8511 44.5751Z" fill="white"/>
<path d="M58.6197 38.9958H60.5098C61.0539 39.3678 61.9417 39.6159 61.3976 40.6078C60.8535 41.5998 60.0516 41.2277 59.3356 41.1347C57.9324 40.8867 58.7343 39.7398 58.6197 38.9958Z" fill="white"/>
<path d="M74.0266 41.8476C74.0266 40.6076 74.3704 39.3987 75.7449 39.3057C77.1195 39.2127 77.7494 40.4527 77.7494 41.7856C77.7494 43.1185 77.3486 44.2035 75.9167 44.2035C74.4849 44.2035 74.1698 43.1185 74.0266 41.8476Z" fill="#FBFDFD"/>
<path d="M124.599 60.6945C124.112 60.4775 123.224 61.0975 123.253 59.9505C123.282 58.8036 123.797 58.8346 124.484 58.8036C124.654 58.773 124.829 58.7805 124.996 58.8256C125.163 58.8706 125.32 58.9523 125.457 59.0656C125.594 59.1789 125.708 59.3214 125.792 59.4843C125.876 59.6471 125.928 59.8269 125.945 60.0125C126.145 61.1284 125.057 60.4465 124.599 60.6945Z" fill="white"/>
<path d="M110.538 42.9943C110.531 43.2116 110.484 43.4251 110.398 43.6219C110.313 43.8187 110.192 43.9948 110.042 44.1396C109.892 44.2844 109.717 44.3949 109.526 44.4644C109.336 44.534 109.135 44.5611 108.935 44.5443C108.794 44.5582 108.653 44.5358 108.522 44.479C108.392 44.4222 108.276 44.3325 108.183 44.2174C108.091 44.1023 108.025 43.9652 107.992 43.8172C107.958 43.6692 107.957 43.5146 107.99 43.3663C108.161 42.1884 109.221 42.3744 109.937 42.1264C110.653 41.8784 110.538 42.4984 110.538 42.9943Z" fill="white"/>
<path d="M193.414 43.3973C193.585 42.1574 194.588 42.2813 195.332 42.0023C196.077 41.7234 196.22 42.0023 196.163 42.7773C196.152 43.1917 196.005 43.5883 195.747 43.8954C195.49 44.2024 195.14 44.3996 194.76 44.4512C194.044 44.6992 193.643 44.2032 193.414 43.3973Z" fill="white"/>
<path d="M58.7342 60.6943C58.276 60.4774 57.4169 61.0354 57.5028 60.0434C57.517 59.8571 57.5657 59.6757 57.646 59.5102C57.7262 59.3446 57.8363 59.1982 57.9698 59.0796C58.1034 58.9611 58.2577 58.8727 58.4234 58.82C58.5891 58.7672 58.7631 58.7511 58.9347 58.7725C59.6219 58.7725 60.2232 59.1754 60.2232 59.9194C60.2805 61.2213 59.221 60.4154 58.7342 60.6943Z" fill="white"/>
<path d="M77.6059 61.7173C77.6059 62.7402 77.205 63.8252 75.7731 63.8252C74.3413 63.8252 73.9405 62.7092 73.9118 61.4073C73.8832 60.1054 74.37 58.8345 75.8591 58.8965C77.3482 58.9585 77.6059 60.1054 77.6059 61.7173Z" fill="#F5F8FA"/>
<path d="M52.8063 41.8163C52.8063 43.0872 52.3767 44.2031 50.9735 44.2341C49.5703 44.2651 49.1121 43.2112 49.1121 41.8473C49.1121 40.4834 49.5131 39.2435 51.0022 39.3055C52.4913 39.3674 52.7777 40.4834 52.8063 41.8163Z" fill="white"/>
</g>
<defs>
<clipPath id="clip0">
<rect width="200" height="100" fill="white"/>
</clipPath>
</defs>
</svg>
