<svg width="200" height="120" viewBox="0 0 200 120" fill="none" xmlns="http://www.w3.org/2000/svg">
<g clip-path="url(#clip0)">
<path d="M0.709256 119.969C0.137305 120.082 0.0114746 119.877 0.0114746 119.353C0.0114746 79.7655 0.0114746 40.1746 0.0114746 0.58035C0.0114746 0.0667612 0.171628 0 0.697823 0C66.9069 0 133.114 0 199.319 0C199.846 0 200.006 0.0564945 200.006 0.585491C199.983 40.1935 199.983 79.8048 200.006 119.42C200.006 119.656 200.212 120.072 199.6 119.969C199.538 119.906 199.488 119.835 199.451 119.759C199.353 119.316 199.326 118.863 199.371 118.413C199.371 79.6199 199.371 40.8269 199.371 2.03381C199.371 0.426274 199.531 0.590624 197.741 0.590624H2.55667C0.777897 0.590624 0.938033 0.431412 0.938033 2.04408C0.938033 40.8406 0.938033 79.6336 0.938033 118.423C0.98003 118.871 0.953094 119.322 0.857969 119.764C0.820668 119.839 0.770483 119.908 0.709256 119.969V119.969Z" fill="#FDFAFA"/>
<path d="M0.709221 119.969C0.709221 119.969 0.709228 119.923 0.680631 119.897C0.678071 119.884 0.678071 119.87 0.680631 119.856C0.879906 119.713 1.12923 119.639 1.38412 119.646H198.101C198.587 119.646 199.113 119.533 199.554 119.846V119.969H0.709221Z" fill="#E83F53"/>
<path d="M199.554 119.846H1.7159H0.686373C0.686373 119.62 0.640625 119.399 0.640625 119.173C0.640625 79.798 0.640625 40.4314 0.640625 1.07338C0.640625 0.457069 0.800771 0.297852 1.49855 0.297852C67.2501 0.297852 133.004 0.297852 198.759 0.297852C199.434 0.297852 199.617 0.426254 199.617 1.05797C199.617 40.4331 199.617 79.8082 199.617 119.183C199.583 119.394 199.565 119.62 199.554 119.846Z" fill="#E1001A"/>
<path d="M44.4006 41.3695C45.0774 41.7025 45.696 42.123 46.2366 42.6176C47.7122 44.0864 48.1583 45.8891 48.2613 47.7791C48.4541 49.9383 47.937 52.1008 46.7742 53.9987C45.9044 55.2963 44.5217 56.2518 42.9021 56.6745C41.9452 56.9541 40.9456 57.0979 39.9394 57.1008C37.2855 57.1008 34.6374 57.1008 31.9893 57.1008C31.5431 57.1008 31.4173 57.0032 31.4173 56.5872C31.4173 46.8393 31.4173 37.0896 31.4173 27.3383C31.4173 27.102 31.343 26.8247 31.8005 26.8555C34.8147 26.9223 37.8346 26.6963 40.8431 26.9891C43.2567 27.2253 45.3844 28.1446 46.4082 30.2041C48.0497 33.4962 48.3013 36.8448 46.025 40.0599C45.8132 40.3263 45.561 40.5649 45.2757 40.7687C45.024 40.9844 44.7495 41.1487 44.4006 41.3695Z" fill="#FEFEFE"/>
<path d="M51.1954 42.0988C51.1954 39.798 51.1611 37.5022 51.1954 35.2065C51.22 33.4992 51.6327 31.8145 52.4079 30.2555C53.6719 27.7389 55.9998 26.5833 58.9739 26.3933C60.849 26.2225 62.7401 26.523 64.4361 27.2613C66.8669 28.3912 67.9764 30.3428 68.5713 32.6334C68.8588 33.795 68.9989 34.9821 68.9888 36.172C68.9888 38.5345 68.9888 40.8919 68.9888 43.2544C68.9888 43.7937 68.8058 43.8707 68.2681 43.8707C64.5848 43.8707 60.9071 43.8707 57.2295 43.8707C56.6861 43.8707 56.5431 43.9991 56.5603 44.4768C56.6118 46.4027 56.5145 48.3338 56.892 50.2443C56.9856 50.7283 57.1531 51.1984 57.3896 51.6413C57.6176 52.0823 57.9833 52.4543 58.4422 52.7123C58.9011 52.9703 59.4335 53.1032 59.9748 53.0948C60.4927 53.1262 61.0094 53.0196 61.4601 52.7885C61.9108 52.5573 62.2756 52.2119 62.5086 51.7954C63.0097 50.9862 63.2992 50.0852 63.3551 49.1607C63.3951 48.5803 63.5724 48.3133 64.3159 48.3492C65.6829 48.4211 67.0613 48.38 68.4283 48.3492C68.8229 48.3492 69.0002 48.4006 68.9659 48.8114C68.8691 50.701 68.3024 52.5472 67.3073 54.2144C66.7448 55.126 65.9448 55.9016 64.9756 56.475C64.0064 57.0483 62.8969 57.4022 61.7422 57.5065C59.8801 57.7668 57.9747 57.5898 56.2114 56.9929C53.4603 56.0376 52.2077 54.0244 51.5672 51.6002C51.2636 50.4218 51.1214 49.2145 51.1439 48.0051C51.1439 46.0329 51.1439 44.0659 51.1439 42.0937L51.1954 42.0988Z" fill="#FEFEFE"/>
<path d="M115.008 77.9217C115.06 75.9187 114.888 73.4535 115.094 70.9934C115.148 69.2658 115.648 67.573 116.552 66.0475C117.142 65.0744 117.994 64.2493 119.03 63.6474C120.066 63.0454 121.253 62.6858 122.483 62.6013C123.666 62.4656 124.866 62.516 126.03 62.7503C127.546 63.0342 128.939 63.7037 130.044 64.679C131.148 65.6543 131.917 66.8941 132.258 68.2508C132.719 69.9023 132.929 71.6024 132.882 73.3045C132.882 75.3589 132.882 77.4492 132.882 79.5241C132.882 79.9966 132.761 80.1507 132.201 80.1455C128.592 80.1455 124.983 80.1455 121.368 80.1455C120.333 80.1455 120.476 80.0428 120.476 80.9775C120.381 82.9254 120.508 84.8768 120.853 86.8016C121.179 88.2191 122.06 89.1487 123.359 89.3234C125.297 89.5853 126.619 88.743 127.03 86.9763C127.155 86.6251 127.228 86.2608 127.248 85.8926C127.191 85.1119 127.671 85.076 128.34 85.0914C129.576 85.1273 130.811 85.1325 132.046 85.0914C132.676 85.0657 132.882 85.1633 132.824 85.8001C132.716 87.9207 131.899 89.9628 130.479 91.6602C129.754 92.4645 128.782 93.0593 127.682 93.3704C125.33 94.101 122.774 94.1136 120.413 93.4064C117.793 92.6514 116.467 90.8385 115.66 88.6146C115.219 87.2816 115.007 85.8962 115.031 84.5059C114.991 82.4413 115.008 80.4126 115.008 77.9217Z" fill="#FEFEFE"/>
<path d="M48.044 78.2658C48.044 83.1089 48.044 87.9521 48.044 92.7952C48.044 93.3088 47.9067 93.4167 47.3691 93.4012C45.9964 93.367 44.6238 93.367 43.2511 93.4012C42.6791 93.4012 42.4961 93.3037 42.5018 92.7439C42.5018 84.5932 42.5018 76.4477 42.5018 68.297C42.5018 67.7834 42.3874 67.5677 41.7411 67.5883C40.2769 67.6396 38.8127 67.6448 37.3542 67.5883C36.6565 67.5575 36.5535 67.768 36.5535 68.333C36.5535 76.4425 36.5535 84.547 36.5878 92.6566C36.5878 93.2369 36.462 93.4321 35.7757 93.4012C34.4087 93.3499 33.036 93.3653 31.6633 93.4012C31.1486 93.4012 31.0113 93.2883 31.017 92.826C31.017 89.6418 31.017 86.4627 31.017 83.2784C31.017 76.773 31.017 70.247 31.017 63.7004C31.017 63.1868 31.1429 63.0533 31.7205 63.0584C36.9329 63.079 42.1434 63.079 47.3519 63.0584C47.9239 63.0584 48.0097 63.2176 48.0097 63.6747C48.0383 68.5384 48.044 73.4021 48.044 78.2658Z" fill="#FEFEFE"/>
<path d="M93.9373 78.2196C93.9373 73.3764 93.9373 68.5333 93.9373 63.6902C93.9373 63.1766 94.0802 63.0379 94.6465 63.0585C96.042 63.0995 97.4376 63.0944 98.8274 63.0585C99.3651 63.0585 99.4566 63.2022 99.4566 63.6439C99.4566 67.4188 99.4566 71.1937 99.4566 74.9686C99.4566 75.4822 99.5653 75.6362 100.154 75.6208C101.756 75.5849 103.357 75.59 104.953 75.6208C105.445 75.6208 105.554 75.4822 105.554 75.0662C105.554 71.2707 105.554 67.4753 105.554 63.6799C105.554 63.2228 105.639 63.0379 106.211 63.0585C107.653 63.0995 109.071 63.0841 110.53 63.0585C110.947 63.0585 111.067 63.1406 111.067 63.5309C111.067 73.3131 111.067 83.1004 111.067 92.8928C111.067 93.3037 110.93 93.4064 110.495 93.4064C109.077 93.4064 107.635 93.3653 106.246 93.4064C105.634 93.4064 105.554 93.2267 105.554 92.7439C105.554 88.7636 105.554 84.7833 105.582 80.8029C105.582 80.2894 105.468 80.0993 104.844 80.1199C103.266 80.1661 101.687 80.1558 100.114 80.1199C99.5881 80.1199 99.4795 80.2483 99.4795 80.7002C99.4795 84.7216 99.4795 88.743 99.4795 92.7644C99.4795 93.278 99.3193 93.4116 98.7588 93.3962C97.3918 93.3602 96.0192 93.3551 94.6465 93.3962C94.0288 93.3962 93.9658 93.2113 93.9658 92.7336C93.9372 87.9007 93.9373 83.0576 93.9373 78.2196Z" fill="#FEFEFE"/>
<path d="M92.456 41.9962C92.456 39.5566 92.4217 37.1119 92.456 34.6724C92.487 33.1083 92.9155 31.5713 93.7086 30.1785C94.2097 29.2484 94.9487 28.4378 95.8652 27.813C96.7816 27.1882 97.8496 26.7669 98.982 26.5834C100.908 26.185 102.92 26.283 104.787 26.8658C108.019 27.893 109.392 30.235 109.986 33.0649C110.176 34.0156 110.266 34.9802 110.255 35.9461C110.255 39.8853 110.255 43.8245 110.255 47.7586C110.365 49.9264 109.868 52.0843 108.808 54.0347C108.382 54.7761 107.795 55.4337 107.082 55.969C106.369 56.5043 105.544 56.9065 104.656 57.1522C102.56 57.7818 100.296 57.8016 98.187 57.2087C95.1671 56.3766 93.6114 54.3582 92.8678 51.7492C92.5564 50.6554 92.4064 49.5295 92.4217 48.4006C92.4217 46.2641 92.4217 44.1327 92.4217 41.9962H92.456Z" fill="#FEFEFE"/>
<path d="M89.6934 81.8814C89.6934 85.4766 89.6934 89.1025 89.6934 92.7182C89.6934 93.2317 89.6076 93.4166 88.9613 93.4064C85.6268 93.3653 82.2923 93.4064 78.9521 93.3601C78.0032 93.3322 77.0699 93.1349 76.2068 92.7798C74.3079 92.0556 73.2727 90.6433 72.7751 88.9638C71.9635 86.3584 71.9793 83.601 72.8208 81.0032C73.8332 77.896 76.3269 76.1652 80.0903 75.8673C81.2971 75.7697 82.5097 75.8108 83.7165 75.8005C83.9567 75.8005 84.2541 75.8622 84.2427 75.4975C84.1855 73.6948 84.3971 71.9024 84.0196 70.0946C83.8409 69.3315 83.5012 68.6063 83.0187 67.9581C82.115 66.6895 79.3868 66.7922 78.5117 68.0813C77.7953 69.1095 77.4185 70.2992 77.425 71.5121C77.425 71.9743 77.2649 72.0976 76.7558 72.0873C75.3145 72.0513 73.8961 72.0873 72.4376 72.0873C72.1574 72.0873 71.8942 72.1335 71.9286 71.7278C72.1116 69.355 72.6264 67.0798 74.4452 65.236C77.0876 62.5551 80.7366 61.8207 84.46 63.1817C87.3713 64.2345 89.007 66.4019 89.4932 69.2266C89.6501 70.1168 89.7304 71.0165 89.7334 71.9178C89.7105 75.2356 89.6972 78.5568 89.6934 81.8814Z" fill="#FEFEFE"/>
<path d="M169.115 81.6914C169.115 85.403 169.115 89.1179 169.115 92.8363C169.115 93.1547 169.178 93.4115 168.617 93.4064C165.237 93.3704 161.851 93.3807 158.471 93.3653C157.646 93.3509 156.829 93.2102 156.057 92.9493C153.769 92.22 152.591 90.6022 152.053 88.6043C151.338 86.0387 151.418 83.3465 152.282 80.8183C153.38 77.7727 155.834 76.196 159.517 75.8776C160.724 75.78 161.937 75.8211 163.143 75.8108C163.361 75.8108 163.63 75.8673 163.618 75.5335C163.538 73.6332 163.824 71.7175 163.338 69.8327C163.152 69.1569 162.828 68.5179 162.383 67.9478C161.382 66.6433 158.802 66.823 157.859 68.1738C157.168 69.238 156.795 70.4447 156.778 71.6765C156.778 72 156.669 72.0925 156.309 72.0925C154.804 72.0925 153.294 72.0925 151.784 72.0925C151.51 72.0925 151.287 72.0924 151.315 71.7483C151.521 69.1136 152.145 66.6125 154.387 64.7173C155.605 63.6367 157.158 62.9115 158.843 62.6366C160.528 62.3617 162.266 62.5499 163.83 63.1765C166.604 64.2037 168.28 66.2119 168.811 68.9236C168.986 69.7501 169.078 70.5888 169.086 71.4299C169.109 74.835 169.115 78.2658 169.115 81.6914Z" fill="#FEFEFE"/>
<path d="M80.4451 36.8654L79.1582 42.8076C78.3956 46.389 77.633 49.967 76.8704 53.5416C76.6531 54.5688 76.4415 55.596 76.247 56.6231C76.1784 56.9929 76.001 57.1367 75.5778 57.1059C74.0678 57.1059 72.5636 57.1059 71.0537 57.1059C70.5961 57.1059 70.5389 57.0134 70.6361 56.6283C71.597 52.7044 72.535 48.7806 73.4959 44.8568C74.8877 39.0533 76.2737 33.2497 77.654 27.4462C77.7627 26.9993 77.9343 26.8504 78.449 26.8607C79.8846 26.8966 81.3088 26.8915 82.7672 26.8607C83.2076 26.8607 83.3392 26.9993 83.4307 27.3742C84.6127 32.3389 85.8024 37.3036 86.9997 42.2683C88.1436 46.9933 89.2589 51.7184 90.4314 56.4382C90.5744 57.0186 90.4314 57.1521 89.7965 57.1316C88.401 57.0905 87.0073 57.0905 85.6156 57.1316C85.0836 57.1316 84.9178 56.9672 84.832 56.5461C83.9626 52.4031 83.0856 48.2585 82.201 44.1121C81.6863 41.7034 81.1601 39.2947 80.6396 36.8859L80.4451 36.8654Z" fill="#FEFEFE"/>
<path d="M60.6612 73.1607C60.0149 76.1498 59.3686 79.1029 58.7337 82.0612C58.0988 85.0195 57.4811 87.9315 56.8577 90.8693C56.709 91.578 56.5431 92.2765 56.423 92.9852C56.3715 93.2883 56.2628 93.4013 55.914 93.3961C54.3354 93.3961 52.7568 93.3961 51.1782 93.3961C50.7607 93.3961 50.7492 93.2729 50.8236 92.9596C52.0171 88.0325 53.201 83.1072 54.3754 78.1836C55.5498 73.26 56.7261 68.3552 57.9044 63.4693C57.973 63.1714 58.0702 63.0584 58.4191 63.0636C59.9748 63.0636 61.5305 63.0636 63.0862 63.0636C63.3779 63.0636 63.4866 63.1201 63.561 63.4179C65.0309 69.581 66.5294 75.7081 68.0107 81.8558C68.8858 85.4971 69.7266 89.1487 70.6246 92.7901C70.7332 93.2472 70.6817 93.4218 70.0526 93.4064C68.5941 93.3653 67.1299 93.3756 65.6657 93.4064C65.2368 93.4064 65.0938 93.2934 64.9965 92.8928C63.927 87.8237 62.8346 82.7546 61.7536 77.6854C61.4562 76.2936 61.1816 74.9069 60.8785 73.5151C60.8778 73.4445 60.8576 73.3751 60.8196 73.3133C60.7817 73.2514 60.7272 73.199 60.6612 73.1607Z" fill="#FEFEFE"/>
<path d="M139.379 80.4537C139.379 76.3707 139.379 72.2876 139.379 68.2046C139.379 67.691 139.23 67.5934 138.704 67.6037C137.125 67.6345 135.547 67.6037 133.974 67.6037C133.545 67.6037 133.431 67.501 133.436 67.1209C133.463 65.9157 133.463 64.7053 133.436 63.4899C133.436 63.1457 133.539 63.0482 133.928 63.0482C139.385 63.0482 144.845 63.0482 150.309 63.0482C150.698 63.0482 150.812 63.1509 150.806 63.495C150.806 64.7071 150.806 65.9191 150.806 67.1261C150.806 67.5215 150.658 67.6037 150.234 67.5986C148.684 67.5986 147.129 67.5986 145.573 67.5986C145.001 67.5986 144.818 67.7115 144.818 68.2662C144.818 76.3912 144.818 84.5162 144.852 92.6411C144.852 93.242 144.721 93.4475 144.012 93.4115C142.668 93.355 141.312 93.3704 139.968 93.4115C139.436 93.4115 139.327 93.278 139.333 92.826C139.385 88.6711 139.379 84.5624 139.379 80.4537Z" fill="#FEFEFE"/>
<path d="M38.4924 43.8399C38.6297 43.8399 38.7669 43.8399 38.8985 43.8399C41.1291 43.7321 42.1929 44.749 42.6333 46.6647C42.8853 47.8156 42.856 49.0019 42.5475 50.1417C42.4404 50.8321 42.0518 51.4622 41.4569 51.9101C40.862 52.3579 40.1032 52.5916 39.3275 52.5658C38.5385 52.6375 37.7426 52.6168 36.9596 52.5042C36.9596 51.8519 36.9138 51.1997 36.9138 50.5474C36.9138 48.4931 36.9138 46.4387 36.9138 44.3843C36.9138 43.9272 37.0282 43.7526 37.5487 43.8143C37.8622 43.8427 38.1776 43.8512 38.4924 43.8399Z" fill="#E1001A"/>
<path d="M36.9138 35.2938C36.9138 34.1485 36.9138 32.9981 36.9138 31.8528C36.9138 31.5087 37.0168 31.3854 37.4057 31.4111C38.0406 31.4522 38.6812 31.4111 39.316 31.483C39.9441 31.5403 40.5345 31.7791 40.9986 32.1634C41.4627 32.5477 41.7755 33.0569 41.8898 33.6144C42.2205 34.7944 42.2205 36.0295 41.8898 37.2095C41.7719 37.7356 41.4705 38.2143 41.0294 38.5762C40.5882 38.9382 40.0302 39.1646 39.4361 39.2228C38.7126 39.2946 37.9848 39.3255 37.257 39.3152C36.828 39.3152 36.9196 39.079 36.9196 38.8684C36.9081 37.6666 36.9138 36.4802 36.9138 35.2938Z" fill="#E1001A"/>
<path d="M60.0492 39.0738C59.0483 39.0738 58.0416 39.0738 57.0407 39.0738C56.7319 39.0738 56.5832 39.0122 56.5946 38.704C56.6404 36.963 56.5431 35.2219 56.9492 33.5014C57.3953 31.6114 58.5736 30.8102 60.5582 31.0208C61.0728 31.0723 61.5607 31.2535 61.9655 31.5434C62.3703 31.8333 62.6756 32.2201 62.8461 32.6591C63.2684 33.6781 63.4871 34.7561 63.4923 35.8434C63.5495 36.7832 63.4924 37.7231 63.5381 38.6681C63.5381 38.9968 63.4237 39.079 63.0691 39.0738C62.0568 39.0584 61.0501 39.0738 60.0492 39.0738Z" fill="#E1001A"/>
<path d="M123.908 75.3846C122.901 75.3846 121.894 75.3846 120.888 75.3846C120.573 75.3846 120.447 75.3178 120.453 75.0096C120.401 73.4317 120.477 71.8525 120.682 70.2846C120.827 69.4963 121.134 68.7389 121.585 68.0505C122.415 66.8076 125.337 66.8847 126.161 68.1224C127.133 69.5296 127.254 71.091 127.305 72.6677C127.334 73.4278 127.305 74.2084 127.305 74.948C127.305 75.3075 127.179 75.3948 126.802 75.3897C125.869 75.3743 124.891 75.3846 123.908 75.3846Z" fill="#E1001A"/>
<path d="M104.77 42.4481C104.713 44.4203 104.879 46.8239 104.661 49.2224C104.613 49.999 104.419 50.7629 104.089 51.4822C103.857 51.9667 103.472 52.3791 102.98 52.668C102.489 52.957 101.913 53.1096 101.326 53.1068C100.739 53.1041 100.165 52.9461 99.6772 52.6527C99.1891 52.3592 98.8081 51.9431 98.5816 51.4565C98.0895 50.2847 97.8677 49.0354 97.9296 47.7843C97.9296 43.7441 97.9296 39.7021 97.9296 35.6585C97.9152 34.6929 98.0934 33.7327 98.4558 32.8235C98.9877 31.5652 99.8971 30.9591 101.264 30.9489C101.909 30.9163 102.547 31.0808 103.075 31.4156C103.603 31.7505 103.988 32.2358 104.17 32.7927C104.601 33.9836 104.795 35.2338 104.742 36.4854C104.804 38.3035 104.77 40.1524 104.77 42.4481Z" fill="#E1001A"/>
<path d="M84.1512 84.7678C84.1512 86.1237 84.1512 87.4744 84.1512 88.8252C84.1512 89.2669 83.9967 89.3901 83.5277 89.3644C82.8242 89.3336 82.115 89.3644 81.4058 89.3644C79.0379 89.3644 77.9741 88.6043 77.5852 86.4986C77.338 85.2855 77.3809 84.039 77.711 82.8419C78.2143 81.0854 79.221 80.3356 81.2228 80.2277C82.0635 80.1815 82.9101 80.2277 83.7565 80.2277C84.1512 80.2277 84.1969 80.3869 84.1912 80.6745C84.1912 82.0458 84.1912 83.4171 84.1912 84.7832L84.1512 84.7678Z" fill="#E1001A"/>
<path d="M163.63 84.7884C163.63 86.1391 163.63 87.495 163.63 88.8457C163.63 89.2309 163.544 89.385 163.058 89.3593C162.143 89.3234 161.233 89.3593 160.318 89.3593C159.578 89.3859 158.851 89.173 158.271 88.7592C157.69 88.3454 157.294 87.7583 157.155 87.1047C156.678 85.424 156.78 83.653 157.447 82.0253C158.019 80.6797 159.34 80.2842 160.816 80.2226C161.588 80.1917 162.366 80.2226 163.143 80.2226C163.55 80.2226 163.635 80.351 163.63 80.6848C163.63 82.0561 163.63 83.4274 163.63 84.7935V84.7884Z" fill="#E1001A"/>
</g>
<defs>
<clipPath id="clip0">
<rect width="200" height="120" fill="white"/>
</clipPath>
</defs>
</svg>
