<svg width="200" height="93" viewBox="0 0 200 93" fill="none" xmlns="http://www.w3.org/2000/svg">
<path d="M49.7238 26.5193H44.199V48.6188H49.7238V26.5193Z" fill="black"/>
<path d="M49.7238 48.6188H44.199V70.7183H49.7238V48.6188Z" fill="#FF0000"/>
<path d="M49.7238 70.7182H44.199V92.8177H49.7238V70.7182Z" fill="#FFCC00"/>
<path d="M32.1313 50.0128C32.7257 50.8907 33.7104 52.1888 35.1056 53.2575C33.1019 53.2575 31.7733 53.3043 30.0779 50.6242L29.6966 50.0128L25.3795 43.1043C25.1014 43.2114 24.8191 43.3107 24.5318 43.4047L28.6606 50.0128L29.8428 51.9041C30.3614 52.7298 31.469 54.3639 33.1189 55.6296C31.1164 55.6296 29.7881 55.6752 28.0927 52.995L26.2297 50.0128L22.4328 43.935C22.1075 44.4563 22.0003 44.9134 22.0003 45.3692C22.0003 47.0492 22.6497 48.6151 23.6436 50.0128C24.3332 50.9822 25.1916 51.8742 26.1097 52.6697C25.9673 52.7335 25.7177 52.7571 25.4855 52.7571C25.0244 52.7571 24.7239 52.7298 24.5149 52.6946C25.0347 53.8739 26.1502 55.3983 26.7132 56.1885C27.4474 56.0568 28.5145 55.9534 29.2145 55.9534C29.9462 55.9534 30.0282 56.3805 30.0282 56.7621C30.0282 57.4269 29.7174 57.9599 29.3556 58.2551C29.2211 57.9087 28.9467 57.4583 27.5961 57.4583C27.8547 57.9037 29.0919 58.9041 29.0919 59.71C29.0919 60.2431 28.5079 61.0424 27.7359 61.0424C27.7818 60.8702 27.7752 60.7108 27.7752 60.5933C27.7752 59.9426 27.1978 59.1798 26.7106 58.647C26.7248 58.8048 26.7172 58.7891 26.7172 58.972C26.7172 60.5147 26.5774 61.2228 25.5989 61.2228C25.1196 61.2228 24.788 60.9601 24.6742 60.883C25.3091 60.2953 25.3415 59.8367 25.3415 58.9708L25.3365 58.2224C25.3352 58.0266 25.339 57.7638 25.3692 57.573C25.019 57.5249 24.8779 57.5262 24.6076 57.5262C24.6076 57.5262 23.2164 57.4152 22.882 58.14C22.5058 57.7927 21.9573 57.3052 21.9573 56.7646C21.9573 56.4094 22.1258 56.0059 22.8418 56.0059C23.1133 56.0059 23.9664 56.1715 24.6808 56.1715C24.4888 55.7443 23.6332 54.4959 22.8952 53.5891C22.7827 53.9418 22.6092 54.3233 22.221 54.6317C22.1676 54.0502 21.8253 52.2086 20.9135 51.1309C20.8078 51.8572 20.6642 52.6044 20.6642 54.1797C20.6642 58.0109 21.5864 60.84 23.5417 61.3822C23.2871 61.8276 22.7487 62.2233 22.1911 62.2233C21.4754 62.2233 21.086 61.412 20.6878 60.6505C20.4813 61.215 19.9092 62.5942 19.337 62.5942C18.7636 62.5942 18.1915 61.215 17.9864 60.6505C17.588 61.412 17.1988 62.2233 16.483 62.2233C15.9239 62.2233 15.3858 61.8276 15.131 61.3822C17.0877 60.84 18.0099 58.0109 18.0099 54.1797C18.0099 52.6044 17.8663 51.8572 17.7604 51.1309C16.8488 52.2086 16.5065 54.0502 16.4542 54.6317C16.0663 54.3233 15.8913 53.9418 15.7789 53.5891C15.0396 54.4959 14.1867 55.7443 13.9933 56.1715C14.7079 56.1715 15.5608 56.0059 15.8325 56.0059C16.5483 56.0059 16.7168 56.4094 16.7168 56.7646C16.7168 57.3052 16.1682 57.7927 15.7907 58.14C15.4576 57.4152 14.0665 57.5262 14.0665 57.5262C13.7961 57.5262 13.655 57.5249 13.305 57.573C13.3351 57.7638 13.3402 58.0266 13.3376 58.2224L13.3324 58.9708C13.3324 59.8367 13.3637 60.2953 14.0012 60.883C13.8849 60.9601 13.5544 61.2228 13.0751 61.2228C12.0967 61.2228 11.9557 60.5147 11.9557 58.972C11.9557 58.7891 11.9492 58.8048 11.9635 58.647C11.4763 59.1798 10.899 59.9426 10.899 60.5933C10.899 60.7108 10.8924 60.8702 10.9381 61.0424C10.1675 61.0424 9.58231 60.2431 9.58231 59.71C9.58231 58.9041 10.8193 57.9037 11.2138 57.4649C9.72729 57.4583 9.45297 57.9087 9.31711 58.2551C8.95659 57.9599 8.64573 57.4269 8.64573 56.7621C8.64573 56.3805 8.72675 55.9534 9.45823 55.9534C10.1584 55.9534 11.2268 56.0568 11.9609 56.1885C12.5239 55.3983 13.638 53.8739 14.1593 52.6946C13.9502 52.7298 13.6498 52.7571 13.1874 52.7571C12.9562 52.7571 12.7067 52.7335 12.563 52.6697C13.4826 51.8742 14.3408 50.9822 15.0305 50.0103C16.0232 48.6101 16.6737 47.0492 16.6737 45.3692C16.6737 44.9134 16.5652 44.4563 16.4112 43.9677L12.4442 50.0128L10.5815 52.995C8.8861 55.6752 7.55766 55.6296 5.55399 55.6296C7.205 54.3639 8.31264 52.7298 8.83118 51.9041L10.0134 50.0128L14.1423 43.4047C13.8549 43.3107 13.5715 43.2114 13.2945 43.1043L8.97749 50.0128L8.59481 50.6242C6.90067 53.3043 5.57222 53.2575 3.56981 53.2575C4.96222 52.1888 5.94838 50.8907 6.54149 50.0025L6.84582 49.5323L11.4096 42.2291C11.1497 42.0867 10.8964 41.9366 10.6521 41.7811L6.91238 47.7661C6.12478 49.0124 5.41554 49.668 4.68138 50.0128C3.83627 50.4126 2.95722 50.4007 1.88611 50.4007L2.36285 50.0116C3.76186 48.81 4.6879 47.4292 5.16338 46.673L8.99839 40.5337C8.7724 40.3286 8.5582 40.1196 8.35578 39.9028L5.63752 44.2538C3.94337 46.9354 2.61501 46.887 0.611261 46.887C2.27539 45.6096 3.36347 43.9978 3.88853 43.1578L7.04698 38.1054C6.87717 37.792 6.73212 37.4706 6.61331 37.1414L5.02752 39.682C3.33211 42.3636 2.00367 42.3153 0 42.3153C1.65753 41.0457 2.75605 39.4195 3.27852 38.5875L6.37561 33.6343C6.67601 32.1021 7.46887 30.6717 8.65226 29.6085C8.2552 29.457 7.92344 29.299 7.72354 29.1475C9.74685 29.1475 11.7493 28.1194 12.8531 28.1194C13.5623 28.1194 14.0195 28.544 14.0195 29.1057C13.9711 29.7287 13.3298 30.3635 12.1425 30.3635C11.8734 30.3635 11.5299 30.3283 11.1524 30.2669C10.5097 31.1629 9.98982 31.9728 9.98982 33.1261C9.98982 35.2958 12.5853 36.9873 15.2029 36.9873L15.6405 36.9703C16.159 35.2122 17.2628 34.0601 18.1445 32.9342C17.0877 32.5488 15.9083 31.5444 15.9083 31.0898C16.0415 31.0128 18.0687 31.6476 18.2777 31.7037C18.6591 31.6306 18.8655 31.2714 18.8655 31.2348C18.6487 31.1982 17.3777 31.0349 16.5104 30.7175C15.8495 30.4758 15.515 30.0382 15.515 29.8724C15.728 29.8384 16.53 30.2604 17.7121 30.2604C18.1484 30.2604 18.232 30.2434 18.6656 30.1898C18.3613 29.4636 17.7892 28.8509 17.1452 28.8509C16.8866 28.8509 16.3197 29.0116 15.8469 29.2507C15.5164 28.7373 15.2277 28.0646 15.2277 27.6962C15.2277 27.2599 15.6574 26.7519 16.8697 26.7519C17.2092 26.7519 17.5253 26.7806 17.8193 26.8355C18.0569 26.8812 18.2555 26.9348 18.4684 27.017C18.4422 26.697 18.5951 26.5193 19.1633 26.5193C20.1613 26.5193 21.1841 26.8485 22.4379 26.8485C22.7632 26.8485 22.9838 26.8355 23.1709 26.7558C23.0898 27.0065 22.7371 27.3736 22.4159 27.6727C22.6155 27.9444 23.1316 28.6014 23.1316 29.6634C23.1316 31.3706 22.0082 32.7787 22.0082 34.5029C22.0082 35.5283 22.7971 36.4335 23.0335 36.9703L23.4698 36.9873C26.0889 36.9873 28.683 35.2958 28.683 33.1261C28.683 31.9728 28.1643 31.1629 27.5216 30.2669C27.1441 30.3283 26.8009 30.3635 26.5315 30.3635C25.3443 30.3635 24.7016 29.7287 24.656 29.1057C24.656 28.544 25.1105 28.1194 25.8211 28.1194C26.9247 28.1194 28.9272 29.1475 30.9504 29.1475C30.7493 29.299 30.4189 29.457 30.0204 29.6085C31.2053 30.6717 31.998 32.1021 32.2985 33.6343L35.3954 38.5875C35.9166 39.4195 37.0167 41.0457 38.674 42.3153C36.6703 42.3153 35.342 42.3636 33.6479 39.682L32.0596 37.1414C31.9421 37.4706 31.7956 37.792 31.6271 38.1054L34.7841 43.1578C35.3106 43.9978 36.3975 45.6096 38.0627 46.887C36.0589 46.887 34.7307 46.9354 33.0365 44.2538L30.3171 39.9028C30.1159 40.1196 29.9003 40.3286 29.6743 40.5337L33.5108 46.673C33.9861 47.4292 34.9123 48.8112 36.3113 50.0116L36.7878 50.4007C35.717 50.4007 34.8378 50.4111 33.9927 50.0128C33.2572 49.6693 32.5493 49.0124 31.7617 47.7661L28.022 41.7811C27.7765 41.9366 27.5244 42.0867 27.2645 42.2291L31.8283 49.5323L32.1313 50.0128Z" fill="black"/>
<path fill-rule="evenodd" clip-rule="evenodd" d="M15.6642 53.1871C15.5545 52.786 15.4474 52.4921 15.0281 52.4921C14.8139 52.4921 14.712 52.5298 14.5827 52.5782C14.1307 53.8349 12.3883 56.195 12.114 56.5568C11.3616 56.4342 10.3101 56.3022 9.45848 56.3022C9.25991 56.3022 8.9856 56.2827 8.9856 56.7621C8.9856 57.0402 9.10841 57.5249 9.25858 57.6855C9.63347 57.2427 10.2788 57.1106 11.0781 57.1106C11.389 57.1106 11.7652 57.2191 11.9076 57.253C10.89 58.2849 9.92995 59.1392 9.92995 59.71C9.92995 60.03 10.2618 60.4521 10.54 60.5932C10.54 59.7506 11.4126 58.5867 12.2668 57.9363C12.2668 58.0514 12.3073 58.4927 12.3073 58.972C12.3073 60.5618 12.464 60.8767 13.0754 60.8767C13.1863 60.8767 13.3784 60.8362 13.4503 60.7928C13.1211 60.4156 12.9826 59.9153 12.9826 58.9707C12.9826 58.6992 12.9904 58.443 12.9904 58.2211C12.9904 57.8018 12.9421 57.5067 12.9107 57.2753C13.1458 57.2427 13.6762 57.1669 14.0668 57.1669C14.8988 57.1669 15.4148 57.248 15.7909 57.6227C16.0613 57.4177 16.3631 57.0311 16.3631 56.7646C16.3631 56.3805 16.1044 56.3544 15.8328 56.3544C15.4108 56.3544 15.0647 56.5216 13.4659 56.5216C13.7807 55.6205 14.7029 54.3547 15.6642 53.1871Z" fill="white"/>
<path d="M25.2086 56.5216C23.6097 56.5216 23.2624 56.3544 22.8418 56.3544C22.5712 56.3544 22.3113 56.3805 22.3113 56.7646C22.3113 57.0311 22.613 57.4177 22.8821 57.6227C23.2583 57.248 23.7757 57.1669 24.6077 57.1669C24.9968 57.1669 25.5286 57.2427 25.7624 57.2753C25.731 57.5067 25.6839 57.8018 25.6839 58.2211C25.6839 58.443 25.6917 58.6992 25.6917 58.9707C25.6917 59.9153 25.5534 60.4156 25.2243 60.7928C25.296 60.8362 25.488 60.8767 25.599 60.8767C26.2103 60.8767 26.3672 60.5618 26.3672 58.972C26.3672 58.4927 26.4077 58.0514 26.4077 57.9363C27.262 58.5867 28.133 59.7506 28.133 60.5932C28.4127 60.4521 28.7443 60.03 28.7443 59.71C28.7443 59.1392 27.7832 58.2849 26.7667 57.253C26.9094 57.2191 27.2853 57.1106 27.5961 57.1106C28.3958 57.1106 29.041 57.2427 29.4157 57.6855C29.5659 57.5249 29.6876 57.0402 29.6876 56.7621C29.6876 56.2827 29.4132 56.3022 29.2145 56.3022C28.3643 56.3022 27.3114 56.4342 26.5605 56.5568C26.2861 56.195 24.5435 53.8349 24.0919 52.5782C23.9624 52.5298 23.8605 52.4921 23.6462 52.4921C23.2269 52.4921 23.12 52.786 23.0103 53.1871C23.9715 54.3547 24.8937 55.6205 25.2086 56.5216Z" fill="white"/>
<path d="M30.3732 33.8642C30.3732 31.9779 29.0006 30.4823 28.5172 30.063L28.1699 30.1427C28.6832 30.771 29.5896 31.82 29.5896 33.211C29.5896 35.9475 26.6964 38.3236 23.3955 38.3692C23.4219 38.6514 23.4203 38.8982 23.4203 39.1112C23.4203 39.503 23.393 39.8858 23.3486 40.2554C27.0949 40.19 30.3732 37.144 30.3732 33.8642Z" fill="white"/>
<path d="M9.08469 33.211C9.08469 31.82 9.98991 30.771 10.5045 30.1427L10.1571 30.063C9.67379 30.4823 8.30103 31.9779 8.30103 33.8642C8.30103 37.1675 11.6279 40.2345 15.4068 40.2593C15.3663 39.9002 15.3427 39.5174 15.3427 39.1112C15.3427 38.8564 15.3545 38.6083 15.3767 38.3718C12.0355 38.3718 9.08469 35.9723 9.08469 33.211Z" fill="white"/>
<path d="M19.2429 30.6641C19.4154 30.2709 19.648 29.8007 19.648 29.2821C19.648 27.8505 18.4605 27.166 16.8696 27.166C16.0532 27.166 15.6404 27.43 15.6404 27.6963C15.6404 27.9602 15.9095 28.5428 16.0153 28.723C16.3092 28.5937 16.8382 28.4383 17.1452 28.4383C18.2358 28.4383 19.0523 29.6596 19.2429 30.6641Z" fill="white"/>
<path fill-rule="evenodd" clip-rule="evenodd" d="M20.0246 28.8327C20.9531 29.0142 21.588 27.8282 20.7051 27.6165C20.8277 28.0072 20.232 28.2853 20.232 28.2853C20.232 28.2853 20.006 27.7577 20.2974 27.4585C19.7593 27.196 19.6219 27.516 19.6116 27.8516C19.8234 28.1338 19.963 28.4656 20.0246 28.8327Z" fill="white"/>
<path d="M60.5642 33.0029H57.2228V36.5193H56.1728V28.5568H61.1056V29.4209H57.2228V32.1443H60.5642V33.0029ZM64.5399 36.6287C63.7379 36.6287 63.0853 36.3662 62.5821 35.8412C62.079 35.3126 61.8274 34.6071 61.8274 33.7248V33.5389C61.8274 32.9519 61.9386 32.4287 62.161 31.9693C62.3871 31.5063 62.7006 31.1454 63.1017 30.8865C63.5063 30.624 63.9438 30.4928 64.4142 30.4928C65.1834 30.4928 65.7813 30.7462 66.2079 31.2529C66.6345 31.7597 66.8478 32.4852 66.8478 33.4295V33.8506H62.8392C62.8537 34.4339 63.0233 34.9061 63.3478 35.267C63.6759 35.6243 64.0915 35.8029 64.5946 35.8029C64.9519 35.8029 65.2545 35.73 65.5024 35.5842C65.7504 35.4384 65.9673 35.2451 66.1532 35.0045L66.7712 35.4858C66.2754 36.2477 65.5316 36.6287 64.5399 36.6287ZM64.4142 31.324C64.0058 31.324 63.6631 31.4735 63.386 31.7725C63.109 32.0678 62.9376 32.4834 62.872 33.0193H65.836V32.9428C65.8069 32.4287 65.6683 32.0313 65.4204 31.7506C65.1725 31.4662 64.8371 31.324 64.4142 31.324ZM67.7774 33.5115C67.7774 32.6037 67.9925 31.8746 68.4228 31.324C68.853 30.7699 69.4162 30.4928 70.1126 30.4928C70.8053 30.4928 71.354 30.7298 71.7587 31.2037V28.1193H72.7704V36.5193H71.8407L71.7915 35.885C71.3868 36.3808 70.8235 36.6287 70.1017 36.6287C69.4162 36.6287 68.8566 36.348 68.4228 35.7865C67.9925 35.2251 67.7774 34.4923 67.7774 33.5881V33.5115ZM68.7892 33.6264C68.7892 34.2972 68.9277 34.8222 69.2048 35.2014C69.4819 35.5805 69.8647 35.7701 70.3532 35.7701C70.9949 35.7701 71.4634 35.4821 71.7587 34.9061V32.1881C71.4561 31.6303 70.9912 31.3514 70.3642 31.3514C69.8683 31.3514 69.4819 31.5428 69.2048 31.9256C68.9277 32.3084 68.7892 32.8753 68.7892 33.6264ZM76.8009 36.6287C75.9988 36.6287 75.3462 36.3662 74.8431 35.8412C74.3399 35.3126 74.0884 34.6071 74.0884 33.7248V33.5389C74.0884 32.9519 74.1996 32.4287 74.422 31.9693C74.648 31.5063 74.9616 31.1454 75.3626 30.8865C75.7673 30.624 76.2048 30.4928 76.6751 30.4928C77.4444 30.4928 78.0423 30.7462 78.4688 31.2529C78.8954 31.7597 79.1087 32.4852 79.1087 33.4295V33.8506H75.1001C75.1147 34.4339 75.2842 34.9061 75.6087 35.267C75.9368 35.6243 76.3524 35.8029 76.8556 35.8029C77.2129 35.8029 77.5155 35.73 77.7634 35.5842C78.0113 35.4384 78.2282 35.2451 78.4142 35.0045L79.0321 35.4858C78.5363 36.2477 77.7925 36.6287 76.8009 36.6287ZM76.6751 31.324C76.2668 31.324 75.9241 31.4735 75.647 31.7725C75.3699 32.0678 75.1985 32.4834 75.1329 33.0193H78.097V32.9428C78.0678 32.4287 77.9293 32.0313 77.6813 31.7506C77.4334 31.4662 77.098 31.324 76.6751 31.324ZM83.1446 31.51C82.9915 31.4845 82.8256 31.4717 82.647 31.4717C81.9834 31.4717 81.5332 31.7542 81.2962 32.3193V36.5193H80.2845V30.6022H81.2688L81.2853 31.2858C81.617 30.7571 82.0873 30.4928 82.6962 30.4928C82.8931 30.4928 83.0425 30.5183 83.1446 30.5693V31.51ZM87.5142 36.5193C87.4558 36.4027 87.4084 36.1949 87.372 35.8959C86.9017 36.3845 86.3402 36.6287 85.6876 36.6287C85.1043 36.6287 84.6248 36.4647 84.2493 36.1365C83.8774 35.8048 83.6915 35.3855 83.6915 34.8787C83.6915 34.2626 83.9248 33.785 84.3915 33.4459C84.8618 33.1032 85.5217 32.9318 86.3712 32.9318H87.3556V32.467C87.3556 32.1134 87.2498 31.8326 87.0384 31.6248C86.8269 31.4134 86.5152 31.3076 86.1032 31.3076C85.7423 31.3076 85.4397 31.3988 85.1954 31.5811C84.9511 31.7634 84.829 31.9839 84.829 32.2428H83.8118C83.8118 31.9475 83.9157 31.6631 84.1235 31.3897C84.335 31.1126 84.6194 30.8938 84.9767 30.7334C85.3376 30.573 85.7332 30.4928 86.1634 30.4928C86.8451 30.4928 87.3793 30.6641 87.7657 31.0068C88.1522 31.3459 88.3527 31.8144 88.3673 32.4123V35.1358C88.3673 35.679 88.4366 36.111 88.5751 36.4318V36.5193H87.5142ZM85.8353 35.7483C86.1524 35.7483 86.4532 35.6662 86.7376 35.5022C87.022 35.3381 87.228 35.1248 87.3556 34.8623V33.6483H86.5626C85.323 33.6483 84.7032 34.011 84.7032 34.7365C84.7032 35.0537 84.809 35.3016 85.0204 35.4803C85.2319 35.6589 85.5035 35.7483 85.8353 35.7483ZM91.0524 36.5193H90.0407V28.1193H91.0524V36.5193ZM96.9696 28.5568L99.5728 35.0537L102.176 28.5568H103.538V36.5193H102.488V33.4186L102.586 30.0717L99.972 36.5193H99.1681L96.5595 30.0881L96.6634 33.4186V36.5193H95.6134V28.5568H96.9696ZM106.332 36.5193H105.32V30.6022H106.332V36.5193ZM105.238 29.0326C105.238 28.8686 105.288 28.73 105.386 28.617C105.488 28.504 105.638 28.4475 105.834 28.4475C106.031 28.4475 106.181 28.504 106.283 28.617C106.385 28.73 106.436 28.8686 106.436 29.0326C106.436 29.1967 106.385 29.3334 106.283 29.4428C106.181 29.5522 106.031 29.6068 105.834 29.6068C105.638 29.6068 105.488 29.5522 105.386 29.4428C105.288 29.3334 105.238 29.1967 105.238 29.0326ZM108.913 30.6022L108.946 31.3459C109.398 30.7772 109.989 30.4928 110.718 30.4928C111.969 30.4928 112.599 31.1983 112.61 32.6092V36.5193H111.599V32.6037C111.595 32.1772 111.496 31.8618 111.303 31.6576C111.114 31.4535 110.817 31.3514 110.412 31.3514C110.084 31.3514 109.796 31.4389 109.548 31.6139C109.3 31.7889 109.107 32.0186 108.968 32.3029V36.5193H107.956V30.6022H108.913ZM115.235 36.5193H114.224V30.6022H115.235V36.5193ZM114.142 29.0326C114.142 28.8686 114.191 28.73 114.289 28.617C114.391 28.504 114.541 28.4475 114.738 28.4475C114.934 28.4475 115.084 28.504 115.186 28.617C115.288 28.73 115.339 28.8686 115.339 29.0326C115.339 29.1967 115.288 29.3334 115.186 29.4428C115.084 29.5522 114.934 29.6068 114.738 29.6068C114.541 29.6068 114.391 29.5522 114.289 29.4428C114.191 29.3334 114.142 29.1967 114.142 29.0326ZM120.305 34.9498C120.305 34.6764 120.201 34.4649 119.993 34.3154C119.789 34.1623 119.43 34.0311 118.916 33.9217C118.405 33.8123 117.999 33.6811 117.696 33.5279C117.397 33.3748 117.175 33.1925 117.029 32.9811C116.887 32.7696 116.816 32.518 116.816 32.2264C116.816 31.7415 117.02 31.3313 117.428 30.9959C117.84 30.6605 118.365 30.4928 119.003 30.4928C119.674 30.4928 120.217 30.666 120.633 31.0123C121.052 31.3587 121.262 31.8016 121.262 32.3412H120.245C120.245 32.0641 120.126 31.8253 119.889 31.6248C119.656 31.4243 119.361 31.324 119.003 31.324C118.635 31.324 118.347 31.4042 118.139 31.5647C117.931 31.7251 117.827 31.9347 117.827 32.1936C117.827 32.4378 117.924 32.622 118.117 32.7459C118.311 32.8699 118.659 32.9884 119.162 33.1014C119.669 33.2144 120.079 33.3493 120.392 33.5061C120.706 33.6628 120.937 33.8524 121.087 34.0748C121.24 34.2936 121.317 34.5615 121.317 34.8787C121.317 35.4074 121.105 35.8321 120.682 36.1529C120.259 36.4701 119.711 36.6287 119.036 36.6287C118.562 36.6287 118.143 36.5449 117.778 36.3772C117.414 36.2095 117.127 35.9761 116.92 35.6772C116.715 35.3746 116.613 35.0483 116.613 34.6983H117.625C117.643 35.0373 117.778 35.3071 118.03 35.5076C118.285 35.7045 118.62 35.8029 119.036 35.8029C119.419 35.8029 119.725 35.7264 119.955 35.5733C120.188 35.4165 120.305 35.2087 120.305 34.9498ZM124.007 29.1693V30.6022H125.112V31.3842H124.007V35.0537C124.007 35.2907 124.056 35.4693 124.155 35.5897C124.253 35.7063 124.421 35.7647 124.658 35.7647C124.775 35.7647 124.935 35.7428 125.139 35.699V36.5193C124.873 36.5923 124.614 36.6287 124.363 36.6287C123.911 36.6287 123.57 36.492 123.34 36.2186C123.11 35.9451 122.995 35.5568 122.995 35.0537V31.3842H121.918V30.6022H122.995V29.1693H124.007ZM129.159 31.51C129.006 31.4845 128.84 31.4717 128.661 31.4717C127.997 31.4717 127.547 31.7542 127.31 32.3193V36.5193H126.299V30.6022H127.283L127.299 31.2858C127.631 30.7571 128.101 30.4928 128.71 30.4928C128.907 30.4928 129.057 30.5183 129.159 30.5693V31.51ZM132.128 35.0373L133.506 30.6022H134.589L132.21 37.4326C131.842 38.417 131.257 38.9092 130.455 38.9092L130.263 38.8928L129.886 38.8217V38.0014L130.159 38.0233C130.502 38.0233 130.768 37.954 130.958 37.8154C131.151 37.6769 131.31 37.4235 131.434 37.0553L131.658 36.4537L129.547 30.6022H130.652L132.128 35.0373Z" fill="black"/>
<path d="M56.5118 49.779V44.6439H55.5767V43.8618H56.5118V43.2548C56.5118 42.6204 56.6813 42.1301 57.0204 41.7837C57.3595 41.4374 57.8389 41.2642 58.4587 41.2642C58.692 41.2642 58.9235 41.2952 59.1532 41.3571L59.0985 42.1775C58.9272 42.1446 58.7449 42.1282 58.5517 42.1282C58.2235 42.1282 57.9701 42.2249 57.7915 42.4181C57.6129 42.6077 57.5235 42.8811 57.5235 43.2384V43.8618H58.7868V44.6439H57.5235V49.779H56.5118ZM59.6399 46.7657C59.6399 46.1861 59.753 45.6647 59.979 45.2017C60.2087 44.7387 60.5259 44.3814 60.9306 44.1298C61.3389 43.8782 61.8037 43.7525 62.3251 43.7525C63.1308 43.7525 63.7816 44.0314 64.2774 44.5892C64.7769 45.147 65.0267 45.8889 65.0267 46.815V46.8861C65.0267 47.4621 64.9155 47.9798 64.6931 48.4392C64.4743 48.8949 64.159 49.2504 63.747 49.5056C63.3386 49.7608 62.8683 49.8884 62.336 49.8884C61.534 49.8884 60.8832 49.6095 60.3837 49.0517C59.8879 48.4939 59.6399 47.7556 59.6399 46.8368V46.7657ZM60.6571 46.8861C60.6571 47.5423 60.8084 48.0691 61.111 48.4665C61.4173 48.8639 61.8256 49.0626 62.336 49.0626C62.8501 49.0626 63.2584 48.8621 63.561 48.4611C63.8636 48.0564 64.0149 47.4913 64.0149 46.7657C64.0149 46.1168 63.86 45.5918 63.5501 45.1907C63.2438 44.7861 62.8355 44.5837 62.3251 44.5837C61.8256 44.5837 61.4228 44.7824 61.1165 45.1798C60.8103 45.5772 60.6571 46.1459 60.6571 46.8861ZM69.1556 44.7696C69.0024 44.7441 68.8366 44.7314 68.6579 44.7314C67.9944 44.7314 67.5441 45.0139 67.3071 45.579V49.779H66.2954V43.8618H67.2798L67.2962 44.5454C67.628 44.0168 68.0983 43.7525 68.7071 43.7525C68.904 43.7525 69.0535 43.778 69.1556 43.829V44.7696ZM77.5282 46.0986H74.0774V48.9204H78.086V49.779H73.0274V41.8165H78.0313V42.6806H74.0774V45.24H77.5282V46.0986ZM81.4985 49.0626C81.8595 49.0626 82.1748 48.9532 82.4446 48.7345C82.7144 48.5157 82.8639 48.2423 82.8931 47.9142H83.8501C83.8319 48.2532 83.7152 48.5759 83.5001 48.8821C83.285 49.1884 82.997 49.4327 82.636 49.615C82.2787 49.7973 81.8996 49.8884 81.4985 49.8884C80.6928 49.8884 80.0511 49.6204 79.5735 49.0845C79.0996 48.5449 78.8626 47.8084 78.8626 46.8751V46.7056C78.8626 46.1295 78.9683 45.6173 79.1798 45.1689C79.3912 44.7204 79.6938 44.3723 80.0876 44.1243C80.485 43.8764 80.9535 43.7525 81.4931 43.7525C82.1566 43.7525 82.7071 43.9512 83.1446 44.3486C83.5858 44.7459 83.8209 45.2618 83.8501 45.8962H82.8931C82.8639 45.5134 82.7181 45.1999 82.4556 44.9556C82.1967 44.7077 81.8759 44.5837 81.4931 44.5837C80.979 44.5837 80.5798 44.7696 80.2954 45.1415C80.0147 45.5098 79.8743 46.0439 79.8743 46.7439V46.9353C79.8743 47.617 80.0147 48.142 80.2954 48.5103C80.5761 48.8785 80.9772 49.0626 81.4985 49.0626ZM84.7196 46.7657C84.7196 46.1861 84.8326 45.6647 85.0587 45.2017C85.2884 44.7387 85.6056 44.3814 86.0103 44.1298C86.4186 43.8782 86.8834 43.7525 87.4048 43.7525C88.2105 43.7525 88.8613 44.0314 89.3571 44.5892C89.8566 45.147 90.1063 45.8889 90.1063 46.815V46.8861C90.1063 47.4621 89.9951 47.9798 89.7728 48.4392C89.554 48.8949 89.2386 49.2504 88.8267 49.5056C88.4183 49.7608 87.948 49.8884 87.4157 49.8884C86.6136 49.8884 85.9629 49.6095 85.4634 49.0517C84.9675 48.4939 84.7196 47.7556 84.7196 46.8368V46.7657ZM85.7368 46.8861C85.7368 47.5423 85.8881 48.0691 86.1907 48.4665C86.497 48.8639 86.9053 49.0626 87.4157 49.0626C87.9298 49.0626 88.3381 48.8621 88.6407 48.4611C88.9433 48.0564 89.0946 47.4913 89.0946 46.7657C89.0946 46.1168 88.9397 45.5918 88.6298 45.1907C88.3235 44.7861 87.9152 44.5837 87.4048 44.5837C86.9053 44.5837 86.5024 44.7824 86.1962 45.1798C85.8899 45.5772 85.7368 46.1459 85.7368 46.8861ZM92.3321 43.8618L92.3649 44.6056C92.817 44.0368 93.4076 43.7525 94.1368 43.7525C95.3873 43.7525 96.0181 44.4579 96.029 45.8689V49.779H95.0173V45.8634C95.0136 45.4368 94.9152 45.1215 94.722 44.9173C94.5324 44.7131 94.2353 44.6111 93.8306 44.6111C93.5024 44.6111 93.2144 44.6986 92.9665 44.8736C92.7186 45.0486 92.5254 45.2782 92.3868 45.5626V49.779H91.3751V43.8618H92.3321ZM97.2868 46.7657C97.2868 46.1861 97.3998 45.6647 97.6259 45.2017C97.8556 44.7387 98.1728 44.3814 98.5774 44.1298C98.9858 43.8782 99.4506 43.7525 99.972 43.7525C100.778 43.7525 101.428 44.0314 101.924 44.5892C102.424 45.147 102.674 45.8889 102.674 46.815V46.8861C102.674 47.4621 102.562 47.9798 102.34 48.4392C102.121 48.8949 101.806 49.2504 101.394 49.5056C100.986 49.7608 100.515 49.8884 99.9829 49.8884C99.1808 49.8884 98.53 49.6095 98.0306 49.0517C97.5347 48.4939 97.2868 47.7556 97.2868 46.8368V46.7657ZM98.304 46.8861C98.304 47.5423 98.4553 48.0691 98.7579 48.4665C99.0642 48.8639 99.4725 49.0626 99.9829 49.0626C100.497 49.0626 100.905 48.8621 101.208 48.4611C101.511 48.0564 101.662 47.4913 101.662 46.7657C101.662 46.1168 101.507 45.5918 101.197 45.1907C100.891 44.7861 100.482 44.5837 99.972 44.5837C99.4725 44.5837 99.0696 44.7824 98.7634 45.1798C98.4571 45.5772 98.304 46.1459 98.304 46.8861ZM104.894 43.8618L104.921 44.5181C105.355 44.0077 105.94 43.7525 106.677 43.7525C107.504 43.7525 108.068 44.0696 108.367 44.704C108.563 44.4196 108.819 44.19 109.132 44.015C109.449 43.84 109.823 43.7525 110.253 43.7525C111.551 43.7525 112.211 44.4397 112.233 45.8142V49.779H111.221V45.8743C111.221 45.4514 111.125 45.1361 110.931 44.9282C110.738 44.7168 110.414 44.6111 109.958 44.6111C109.582 44.6111 109.271 44.7241 109.023 44.9501C108.775 45.1725 108.631 45.4733 108.591 45.8525V49.779H107.574V45.9017C107.574 45.0413 107.152 44.6111 106.31 44.6111C105.647 44.6111 105.193 44.8936 104.949 45.4587V49.779H103.937V43.8618H104.894ZM114.863 49.779H113.852V43.8618H114.863V49.779ZM113.77 42.2923C113.77 42.1282 113.819 41.9897 113.917 41.8767C114.019 41.7637 114.169 41.7071 114.366 41.7071C114.563 41.7071 114.712 41.7637 114.814 41.8767C114.916 41.9897 114.967 42.1282 114.967 42.2923C114.967 42.4564 114.916 42.5931 114.814 42.7025C114.712 42.8118 114.563 42.8665 114.366 42.8665C114.169 42.8665 114.019 42.8118 113.917 42.7025C113.819 42.5931 113.77 42.4564 113.77 42.2923ZM118.861 49.0626C119.222 49.0626 119.537 48.9532 119.807 48.7345C120.077 48.5157 120.226 48.2423 120.256 47.9142H121.213C121.194 48.2532 121.078 48.5759 120.863 48.8821C120.647 49.1884 120.359 49.4327 119.999 49.615C119.641 49.7973 119.262 49.8884 118.861 49.8884C118.055 49.8884 117.414 49.6204 116.936 49.0845C116.462 48.5449 116.225 47.8084 116.225 46.8751V46.7056C116.225 46.1295 116.331 45.6173 116.542 45.1689C116.754 44.7204 117.056 44.3723 117.45 44.1243C117.847 43.8764 118.316 43.7525 118.856 43.7525C119.519 43.7525 120.07 43.9512 120.507 44.3486C120.948 44.7459 121.183 45.2618 121.213 45.8962H120.256C120.226 45.5134 120.081 45.1999 119.818 44.9556C119.559 44.7077 119.238 44.5837 118.856 44.5837C118.342 44.5837 117.942 44.7696 117.658 45.1415C117.377 45.5098 117.237 46.0439 117.237 46.7439V46.9353C117.237 47.617 117.377 48.142 117.658 48.5103C117.939 48.8785 118.34 49.0626 118.861 49.0626ZM131.144 47.2525C131.045 48.0946 130.734 48.7454 130.209 49.2048C129.687 49.6605 128.993 49.8884 128.125 49.8884C127.184 49.8884 126.43 49.5512 125.861 48.8767C125.296 48.2022 125.013 47.2999 125.013 46.1696V45.404C125.013 44.6639 125.145 44.0131 125.407 43.4517C125.673 42.8902 126.049 42.46 126.534 42.1611C127.019 41.8584 127.58 41.7071 128.218 41.7071C129.064 41.7071 129.742 41.9441 130.252 42.4181C130.763 42.8884 131.06 43.541 131.144 44.3759H130.088C129.997 43.7415 129.799 43.2821 129.492 42.9978C129.19 42.7134 128.765 42.5712 128.218 42.5712C127.547 42.5712 127.02 42.8191 126.638 43.315C126.258 43.8108 126.069 44.5163 126.069 45.4314V46.2025C126.069 47.0665 126.249 47.7538 126.61 48.2642C126.971 48.7746 127.476 49.0298 128.125 49.0298C128.708 49.0298 129.155 48.8986 129.465 48.6361C129.778 48.3699 129.986 47.9087 130.088 47.2525H131.144ZM132.156 46.7657C132.156 46.1861 132.269 45.6647 132.495 45.2017C132.724 44.7387 133.041 44.3814 133.446 44.1298C133.855 43.8782 134.319 43.7525 134.841 43.7525C135.646 43.7525 136.297 44.0314 136.793 44.5892C137.293 45.147 137.542 45.8889 137.542 46.815V46.8861C137.542 47.4621 137.431 47.9798 137.209 48.4392C136.99 48.8949 136.675 49.2504 136.263 49.5056C135.854 49.7608 135.384 49.8884 134.852 49.8884C134.05 49.8884 133.399 49.6095 132.899 49.0517C132.403 48.4939 132.156 47.7556 132.156 46.8368V46.7657ZM133.173 46.8861C133.173 47.5423 133.324 48.0691 133.627 48.4665C133.933 48.8639 134.341 49.0626 134.852 49.0626C135.366 49.0626 135.774 48.8621 136.077 48.4611C136.379 48.0564 136.531 47.4913 136.531 46.7657C136.531 46.1168 136.376 45.5918 136.066 45.1907C135.759 44.7861 135.351 44.5837 134.841 44.5837C134.341 44.5837 133.938 44.7824 133.632 45.1798C133.326 45.5772 133.173 46.1459 133.173 46.8861ZM138.543 46.7657C138.543 46.1861 138.656 45.6647 138.882 45.2017C139.112 44.7387 139.429 44.3814 139.834 44.1298C140.242 43.8782 140.707 43.7525 141.228 43.7525C142.034 43.7525 142.685 44.0314 143.181 44.5892C143.68 45.147 143.93 45.8889 143.93 46.815V46.8861C143.93 47.4621 143.819 47.9798 143.596 48.4392C143.377 48.8949 143.062 49.2504 142.65 49.5056C142.242 49.7608 141.771 49.8884 141.239 49.8884C140.437 49.8884 139.786 49.6095 139.287 49.0517C138.791 48.4939 138.543 47.7556 138.543 46.8368V46.7657ZM139.56 46.8861C139.56 47.5423 139.712 48.0691 140.014 48.4665C140.32 48.8639 140.729 49.0626 141.239 49.0626C141.753 49.0626 142.162 48.8621 142.464 48.4611C142.767 48.0564 142.918 47.4913 142.918 46.7657C142.918 46.1168 142.763 45.5918 142.453 45.1907C142.147 44.7861 141.739 44.5837 141.228 44.5837C140.729 44.5837 140.326 44.7824 140.02 45.1798C139.713 45.5772 139.56 46.1459 139.56 46.8861ZM150.197 46.8861C150.197 47.7866 149.991 48.5121 149.579 49.0626C149.167 49.6131 148.609 49.8884 147.906 49.8884C147.187 49.8884 146.622 49.6605 146.21 49.2048V52.054H145.199V43.8618H146.123L146.172 44.5181C146.584 44.0077 147.156 43.7525 147.889 43.7525C148.6 43.7525 149.162 44.0204 149.574 44.5564C149.989 45.0923 150.197 45.8379 150.197 46.7931V46.8861ZM149.185 46.7712C149.185 46.104 149.043 45.5772 148.759 45.1907C148.474 44.8043 148.084 44.6111 147.588 44.6111C146.976 44.6111 146.517 44.8827 146.21 45.4259V48.2532C146.513 48.7928 146.976 49.0626 147.599 49.0626C148.084 49.0626 148.469 48.8712 148.753 48.4884C149.041 48.1019 149.185 47.5295 149.185 46.7712ZM153.943 49.8884C153.141 49.8884 152.488 49.6259 151.985 49.1009C151.482 48.5723 151.231 47.8668 151.231 46.9845V46.7986C151.231 46.2116 151.342 45.6884 151.564 45.229C151.79 44.766 152.104 44.4051 152.505 44.1462C152.909 43.8837 153.347 43.7525 153.817 43.7525C154.587 43.7525 155.184 44.0058 155.611 44.5126C156.038 45.0194 156.251 45.7449 156.251 46.6892V47.1103H152.242C152.257 47.6936 152.426 48.1657 152.751 48.5267C153.079 48.884 153.495 49.0626 153.998 49.0626C154.355 49.0626 154.658 48.9897 154.906 48.8439C155.153 48.698 155.37 48.5048 155.556 48.2642L156.174 48.7454C155.678 49.5074 154.935 49.8884 153.943 49.8884ZM153.817 44.5837C153.409 44.5837 153.066 44.7332 152.789 45.0321C152.512 45.3275 152.341 45.7431 152.275 46.279H155.239V46.2025C155.21 45.6884 155.071 45.291 154.824 45.0103C154.576 44.7259 154.24 44.5837 153.817 44.5837ZM160.287 44.7696C160.134 44.7441 159.968 44.7314 159.789 44.7314C159.126 44.7314 158.675 45.0139 158.438 45.579V49.779H157.427V43.8618H158.411L158.427 44.5454C158.759 44.0168 159.23 43.7525 159.838 43.7525C160.035 43.7525 160.185 43.778 160.287 43.829V44.7696ZM164.656 49.779C164.598 49.6624 164.551 49.4545 164.514 49.1556C164.044 49.6441 163.482 49.8884 162.83 49.8884C162.246 49.8884 161.767 49.7243 161.392 49.3962C161.02 49.0644 160.834 48.6452 160.834 48.1384C160.834 47.5223 161.067 47.0446 161.534 46.7056C162.004 46.3629 162.664 46.1915 163.513 46.1915H164.498V45.7267C164.498 45.373 164.392 45.0923 164.181 44.8845C163.969 44.673 163.657 44.5673 163.245 44.5673C162.884 44.5673 162.582 44.6584 162.338 44.8407C162.093 45.023 161.971 45.2436 161.971 45.5025H160.954C160.954 45.2071 161.058 44.9228 161.266 44.6493C161.477 44.3723 161.762 44.1535 162.119 43.9931C162.48 43.8327 162.875 43.7525 163.306 43.7525C163.987 43.7525 164.521 43.9238 164.908 44.2665C165.294 44.6056 165.495 45.0741 165.509 45.672V48.3954C165.509 48.9387 165.579 49.3707 165.717 49.6915V49.779H164.656ZM162.977 49.0079C163.295 49.0079 163.595 48.9259 163.88 48.7618C164.164 48.5978 164.37 48.3845 164.498 48.122V46.9079H163.705C162.465 46.9079 161.845 47.2707 161.845 47.9962C161.845 48.3134 161.951 48.5613 162.163 48.74C162.374 48.9186 162.646 49.0079 162.977 49.0079ZM168.468 42.429V43.8618H169.573V44.6439H168.468V48.3134C168.468 48.5504 168.517 48.729 168.616 48.8493C168.714 48.966 168.882 49.0243 169.119 49.0243C169.236 49.0243 169.396 49.0025 169.6 48.9587V49.779C169.334 49.8519 169.075 49.8884 168.824 49.8884C168.371 49.8884 168.031 49.7517 167.801 49.4782C167.571 49.2048 167.456 48.8165 167.456 48.3134V44.6439H166.379V43.8618H167.456V42.429H168.468ZM171.859 49.779H170.847V43.8618H171.859V49.779ZM170.765 42.2923C170.765 42.1282 170.814 41.9897 170.913 41.8767C171.015 41.7637 171.164 41.7071 171.361 41.7071C171.558 41.7071 171.707 41.7637 171.809 41.8767C171.912 41.9897 171.963 42.1282 171.963 42.2923C171.963 42.4564 171.912 42.5931 171.809 42.7025C171.707 42.8118 171.558 42.8665 171.361 42.8665C171.164 42.8665 171.015 42.8118 170.913 42.7025C170.814 42.5931 170.765 42.4564 170.765 42.2923ZM173.215 46.7657C173.215 46.1861 173.328 45.6647 173.554 45.2017C173.784 44.7387 174.101 44.3814 174.506 44.1298C174.914 43.8782 175.379 43.7525 175.9 43.7525C176.706 43.7525 177.357 44.0314 177.852 44.5892C178.352 45.147 178.602 45.8889 178.602 46.815V46.8861C178.602 47.4621 178.49 47.9798 178.268 48.4392C178.049 48.8949 177.734 49.2504 177.322 49.5056C176.914 49.7608 176.443 49.8884 175.911 49.8884C175.109 49.8884 174.458 49.6095 173.959 49.0517C173.463 48.4939 173.215 47.7556 173.215 46.8368V46.7657ZM174.232 46.8861C174.232 47.5423 174.383 48.0691 174.686 48.4665C174.992 48.8639 175.401 49.0626 175.911 49.0626C176.425 49.0626 176.833 48.8621 177.136 48.4611C177.439 48.0564 177.59 47.4913 177.59 46.7657C177.59 46.1168 177.435 45.5918 177.125 45.1907C176.819 44.7861 176.411 44.5837 175.9 44.5837C175.401 44.5837 174.998 44.7824 174.692 45.1798C174.385 45.5772 174.232 46.1459 174.232 46.8861ZM180.827 43.8618L180.86 44.6056C181.312 44.0368 181.903 43.7525 182.632 43.7525C183.883 43.7525 184.513 44.4579 184.524 45.8689V49.779H183.513V45.8634C183.509 45.4368 183.411 45.1215 183.217 44.9173C183.028 44.7131 182.731 44.6111 182.326 44.6111C181.998 44.6111 181.71 44.6986 181.462 44.8736C181.214 45.0486 181.021 45.2782 180.882 45.5626V49.779H179.87V43.8618H180.827Z" fill="black"/>
<path d="M59.6673 63.0387C59.609 62.922 59.5616 62.7142 59.5251 62.4153C59.0548 62.9038 58.4933 63.1481 57.8407 63.1481C57.2574 63.1481 56.778 62.984 56.4024 62.6559C56.0306 62.3241 55.8446 61.9048 55.8446 61.3981C55.8446 60.7819 56.078 60.3043 56.5446 59.9653C57.0149 59.6226 57.6748 59.4512 58.5243 59.4512H59.5087V58.9864C59.5087 58.6327 59.403 58.352 59.1915 58.1442C58.98 57.9327 58.6683 57.827 58.2563 57.827C57.8954 57.827 57.5928 57.9181 57.3485 58.1004C57.1043 58.2827 56.9821 58.5033 56.9821 58.7621H55.9649C55.9649 58.4668 56.0688 58.1824 56.2767 57.909C56.4881 57.6319 56.7725 57.4132 57.1298 57.2528C57.4907 57.0923 57.8863 57.0121 58.3165 57.0121C58.9983 57.0121 59.5324 57.1835 59.9188 57.5262C60.3053 57.8653 60.5058 58.3337 60.5204 58.9317V61.6551C60.5204 62.1983 60.5897 62.6304 60.7282 62.9512V63.0387H59.6673ZM57.9884 62.2676C58.3056 62.2676 58.6063 62.1856 58.8907 62.0215C59.1751 61.8574 59.3811 61.6442 59.5087 61.3817V60.1676H58.7157C57.4761 60.1676 56.8563 60.5304 56.8563 61.2559C56.8563 61.5731 56.9621 61.821 57.1735 61.9996C57.385 62.1783 57.6566 62.2676 57.9884 62.2676ZM63.0634 57.1215L63.0962 57.8653C63.5483 57.2965 64.1389 57.0121 64.8681 57.0121C66.1186 57.0121 66.7493 57.7176 66.7603 59.1285V63.0387H65.7485V59.1231C65.7449 58.6965 65.6465 58.3811 65.4532 58.177C65.2636 57.9728 64.9665 57.8707 64.5618 57.8707C64.2337 57.8707 63.9457 57.9582 63.6978 58.1332C63.4498 58.3082 63.2566 58.5379 63.1181 58.8223V63.0387H62.1063V57.1215H63.0634ZM68.0399 60.0309C68.0399 59.1231 68.255 58.3939 68.6853 57.8434C69.1155 57.2892 69.6787 57.0121 70.3751 57.0121C71.0678 57.0121 71.6165 57.2491 72.0212 57.7231V54.6387H73.0329V63.0387H72.1032L72.054 62.4043C71.6493 62.9002 71.086 63.1481 70.3642 63.1481C69.6787 63.1481 69.1191 62.8673 68.6853 62.3059C68.255 61.7444 68.0399 61.0116 68.0399 60.1074V60.0309ZM69.0517 60.1457C69.0517 60.8166 69.1902 61.3416 69.4673 61.7207C69.7444 62.0999 70.1272 62.2895 70.6157 62.2895C71.2574 62.2895 71.7259 62.0015 72.0212 61.4254V58.7074C71.7186 58.1496 71.2537 57.8707 70.6267 57.8707C70.1308 57.8707 69.7444 58.0621 69.4673 58.4449C69.1902 58.8278 69.0517 59.3947 69.0517 60.1457ZM77.5446 63.0387V55.0762H79.7923C80.485 55.0762 81.0975 55.2293 81.6298 55.5356C82.1621 55.8418 82.5722 56.2775 82.8603 56.8426C83.1519 57.4077 83.2996 58.0567 83.3032 58.7895V59.2981C83.3032 60.0491 83.1574 60.7072 82.8657 61.2723C82.5777 61.8374 82.1639 62.2712 81.6243 62.5739C81.0884 62.8765 80.4631 63.0314 79.7485 63.0387H77.5446ZM78.5946 55.9403V62.1801H79.6993C80.5087 62.1801 81.1376 61.9285 81.586 61.4254C82.0381 60.9223 82.2642 60.2059 82.2642 59.2762V58.8114C82.2642 57.9072 82.0509 57.2054 81.6243 56.7059C81.2014 56.2028 80.5998 55.9476 79.8196 55.9403H78.5946ZM87.1915 63.1481C86.3894 63.1481 85.7368 62.8856 85.2337 62.3606C84.7306 61.8319 84.479 61.1265 84.479 60.2442V60.0582C84.479 59.4712 84.5902 58.9481 84.8126 58.4887C85.0386 58.0257 85.3522 57.6647 85.7532 57.4059C86.1579 57.1434 86.5954 57.0121 87.0657 57.0121C87.835 57.0121 88.4329 57.2655 88.8595 57.7723C89.286 58.2791 89.4993 59.0046 89.4993 59.9489V60.3699H85.4907C85.5053 60.9533 85.6748 61.4254 85.9993 61.7864C86.3274 62.1436 86.7431 62.3223 87.2462 62.3223C87.6035 62.3223 87.9061 62.2494 88.154 62.1035C88.4019 61.9577 88.6188 61.7645 88.8048 61.5239L89.4228 62.0051C88.9269 62.7671 88.1832 63.1481 87.1915 63.1481ZM87.0657 57.8434C86.6574 57.8434 86.3147 57.9929 86.0376 58.2918C85.7605 58.5871 85.5892 59.0028 85.5235 59.5387H88.4876V59.4621C88.4584 58.9481 88.3199 58.5507 88.072 58.2699C87.8241 57.9856 87.4886 57.8434 87.0657 57.8434ZM92.5509 61.666L94.0165 57.1215H95.0501L92.9282 63.0387H92.1571L90.0134 57.1215H91.047L92.5509 61.666ZM98.4024 63.1481C97.6004 63.1481 96.9478 62.8856 96.4446 62.3606C95.9415 61.8319 95.6899 61.1265 95.6899 60.2442V60.0582C95.6899 59.4712 95.8011 58.9481 96.0235 58.4887C96.2496 58.0257 96.5631 57.6647 96.9642 57.4059C97.3688 57.1434 97.8063 57.0121 98.2767 57.0121C99.0459 57.0121 99.6438 57.2655 100.07 57.7723C100.497 58.2791 100.71 59.0046 100.71 59.9489V60.3699H96.7017C96.7162 60.9533 96.8858 61.4254 97.2103 61.7864C97.5384 62.1436 97.954 62.3223 98.4571 62.3223C98.8144 62.3223 99.117 62.2494 99.3649 62.1035C99.6129 61.9577 99.8298 61.7645 100.016 61.5239L100.634 62.0051C100.138 62.7671 99.3941 63.1481 98.4024 63.1481ZM98.2767 57.8434C97.8683 57.8434 97.5256 57.9929 97.2485 58.2918C96.9715 58.5871 96.8001 59.0028 96.7345 59.5387H99.6985V59.4621C99.6694 58.9481 99.5308 58.5507 99.2829 58.2699C99.035 57.9856 98.6996 57.8434 98.2767 57.8434ZM102.985 63.0387H101.974V54.6387H102.985V63.0387ZM104.342 60.0254C104.342 59.4457 104.455 58.9244 104.681 58.4614C104.91 57.9983 105.227 57.641 105.632 57.3895C106.04 57.1379 106.505 57.0121 107.027 57.0121C107.832 57.0121 108.483 57.291 108.979 57.8489C109.478 58.4067 109.728 59.1486 109.728 60.0746V60.1457C109.728 60.7218 109.617 61.2395 109.395 61.6989C109.176 62.1546 108.861 62.5101 108.449 62.7653C108.04 63.0205 107.57 63.1481 107.038 63.1481C106.236 63.1481 105.585 62.8692 105.085 62.3114C104.589 61.7535 104.342 61.0153 104.342 60.0965V60.0254ZM105.359 60.1457C105.359 60.802 105.51 61.3288 105.813 61.7262C106.119 62.1236 106.527 62.3223 107.038 62.3223C107.552 62.3223 107.96 62.1218 108.263 61.7207C108.565 61.316 108.717 60.7509 108.717 60.0254C108.717 59.3765 108.562 58.8515 108.252 58.4504C107.945 58.0457 107.537 57.8434 107.027 57.8434C106.527 57.8434 106.124 58.0421 105.818 58.4395C105.512 58.8369 105.359 59.4056 105.359 60.1457ZM115.995 60.1457C115.995 61.0462 115.789 61.7718 115.377 62.3223C114.965 62.8728 114.408 63.1481 113.704 63.1481C112.986 63.1481 112.421 62.9202 112.009 62.4645V65.3137H110.997V57.1215H111.921L111.97 57.7778C112.382 57.2673 112.955 57.0121 113.688 57.0121C114.399 57.0121 114.96 57.2801 115.372 57.816C115.788 58.352 115.995 59.0976 115.995 60.0528V60.1457ZM114.984 60.0309C114.984 59.3637 114.842 58.8369 114.557 58.4504C114.273 58.064 113.883 57.8707 113.387 57.8707C112.774 57.8707 112.315 58.1423 112.009 58.6856V61.5129C112.311 62.0525 112.774 62.3223 113.398 62.3223C113.883 62.3223 114.267 62.1309 114.552 61.7481C114.84 61.3616 114.984 60.7892 114.984 60.0309ZM118.238 57.1215L118.265 57.7778C118.699 57.2673 119.284 57.0121 120.02 57.0121C120.848 57.0121 121.411 57.3293 121.71 57.9637C121.907 57.6793 122.162 57.4496 122.476 57.2746C122.793 57.0996 123.167 57.0121 123.597 57.0121C124.895 57.0121 125.555 57.6994 125.577 59.0739V63.0387H124.565V59.134C124.565 58.7111 124.468 58.3957 124.275 58.1879C124.082 57.9765 123.757 57.8707 123.302 57.8707C122.926 57.8707 122.614 57.9837 122.367 58.2098C122.119 58.4322 121.975 58.733 121.934 59.1121V63.0387H120.917V59.1614C120.917 58.3009 120.496 57.8707 119.654 57.8707C118.99 57.8707 118.537 58.1533 118.292 58.7184V63.0387H117.281V57.1215H118.238ZM129.563 63.1481C128.761 63.1481 128.109 62.8856 127.606 62.3606C127.102 61.8319 126.851 61.1265 126.851 60.2442V60.0582C126.851 59.4712 126.962 58.9481 127.184 58.4887C127.411 58.0257 127.724 57.6647 128.125 57.4059C128.53 57.1434 128.967 57.0121 129.438 57.0121C130.207 57.0121 130.805 57.2655 131.231 57.7723C131.658 58.2791 131.871 59.0046 131.871 59.9489V60.3699H127.863C127.877 60.9533 128.047 61.4254 128.371 61.7864C128.699 62.1436 129.115 62.3223 129.618 62.3223C129.975 62.3223 130.278 62.2494 130.526 62.1035C130.774 61.9577 130.991 61.7645 131.177 61.5239L131.795 62.0051C131.299 62.7671 130.555 63.1481 129.563 63.1481ZM129.438 57.8434C129.029 57.8434 128.687 57.9929 128.409 58.2918C128.132 58.5871 127.961 59.0028 127.895 59.5387H130.859V59.4621C130.83 58.9481 130.692 58.5507 130.444 58.2699C130.196 57.9856 129.861 57.8434 129.438 57.8434ZM134.004 57.1215L134.037 57.8653C134.489 57.2965 135.08 57.0121 135.809 57.0121C137.059 57.0121 137.69 57.7176 137.701 59.1285V63.0387H136.689V59.1231C136.686 58.6965 136.587 58.3811 136.394 58.177C136.204 57.9728 135.907 57.8707 135.502 57.8707C135.174 57.8707 134.886 57.9582 134.638 58.1332C134.39 58.3082 134.197 58.5379 134.059 58.8223V63.0387H133.047V57.1215H134.004ZM140.599 55.6887V57.1215H141.704V57.9035H140.599V61.5731C140.599 61.8101 140.649 61.9887 140.747 62.109C140.845 62.2257 141.013 62.284 141.25 62.284C141.367 62.284 141.527 62.2621 141.731 62.2184V63.0387C141.465 63.1116 141.206 63.1481 140.955 63.1481C140.503 63.1481 140.162 63.0114 139.932 62.7379C139.702 62.4645 139.588 62.0762 139.588 61.5731V57.9035H138.51V57.1215H139.588V55.6887H140.599Z" fill="black"/>
<path d="M2.64141 7.48984L2.79453 8.53984L3.01875 7.59375L4.59375 2.0375H5.47969L7.01641 7.59375L7.23516 8.55625L7.40469 7.48438L8.64062 2.0375H9.69609L7.76562 10H6.80859L5.16797 4.19766L5.04219 3.59063L4.91641 4.19766L3.21562 10H2.25859L0.333594 2.0375H1.38359L2.64141 7.48984ZM11.807 10H10.7953V4.08281H11.807V10ZM10.7133 2.51328C10.7133 2.34922 10.7625 2.21068 10.8609 2.09766C10.963 1.98464 11.1125 1.92813 11.3094 1.92813C11.5062 1.92813 11.6557 1.98464 11.7578 2.09766C11.8599 2.21068 11.9109 2.34922 11.9109 2.51328C11.9109 2.67734 11.8599 2.81406 11.7578 2.92344C11.6557 3.03281 11.5062 3.0875 11.3094 3.0875C11.1125 3.0875 10.963 3.03281 10.8609 2.92344C10.7625 2.81406 10.7133 2.67734 10.7133 2.51328ZM14.8039 2.65V4.08281H15.9086V4.86484H14.8039V8.53438C14.8039 8.77135 14.8531 8.95 14.9516 9.07031C15.05 9.18698 15.2177 9.24531 15.4547 9.24531C15.5714 9.24531 15.7318 9.22344 15.9359 9.17969V10C15.6698 10.0729 15.4109 10.1094 15.1594 10.1094C14.7073 10.1094 14.3664 9.97266 14.1367 9.69922C13.907 9.42578 13.7922 9.0375 13.7922 8.53438V4.86484H12.7148V4.08281H13.7922V2.65H14.8039ZM18.107 4.79922C18.5555 4.2487 19.1388 3.97344 19.857 3.97344C21.1076 3.97344 21.7383 4.67891 21.7492 6.08984V10H20.7375V6.08438C20.7339 5.65781 20.6354 5.34245 20.4422 5.13828C20.2526 4.93411 19.9555 4.83203 19.5508 4.83203C19.2227 4.83203 18.9346 4.91953 18.6867 5.09453C18.4388 5.26953 18.2456 5.49922 18.107 5.78359V10H17.0953V1.6H18.107V4.79922ZM26.3812 10V4.86484H25.4461V4.08281H26.3812V3.57969C26.3812 2.91979 26.569 2.40573 26.9445 2.0375C27.3237 1.66927 27.8578 1.48516 28.5469 1.48516C28.9552 1.48516 29.4711 1.59635 30.0945 1.81875L29.925 2.67188C29.4693 2.48958 29.0354 2.39844 28.6234 2.39844C28.1896 2.39844 27.876 2.49688 27.6828 2.69375C27.4932 2.88698 27.3984 3.17865 27.3984 3.56875V4.08281H28.607V4.86484H27.3984V10H26.3812ZM30.5977 10H29.5805V4.08281H30.5977V10ZM33.2008 4.08281L33.2336 4.82656C33.6857 4.25781 34.2763 3.97344 35.0055 3.97344C36.256 3.97344 36.8867 4.67891 36.8977 6.08984V10H35.8859V6.08438C35.8823 5.65781 35.7839 5.34245 35.5906 5.13828C35.401 4.93411 35.1039 4.83203 34.6992 4.83203C34.3711 4.83203 34.0831 4.91953 33.8352 5.09453C33.5872 5.26953 33.394 5.49922 33.2555 5.78359V10H32.2437V4.08281H33.2008ZM42.0766 10C42.0182 9.88333 41.9708 9.67552 41.9344 9.37656C41.4641 9.8651 40.9026 10.1094 40.25 10.1094C39.6667 10.1094 39.1872 9.94531 38.8117 9.61719C38.4398 9.28542 38.2539 8.86615 38.2539 8.35938C38.2539 7.74323 38.4872 7.26563 38.9539 6.92656C39.4242 6.58385 40.0841 6.4125 40.9336 6.4125H41.918V5.94766C41.918 5.59401 41.8122 5.31328 41.6008 5.10547C41.3893 4.89401 41.0776 4.78828 40.6656 4.78828C40.3047 4.78828 40.0021 4.87943 39.7578 5.06172C39.5135 5.24401 39.3914 5.46458 39.3914 5.72344H38.3742C38.3742 5.42813 38.4781 5.14375 38.6859 4.87031C38.8974 4.59323 39.1818 4.37448 39.5391 4.21406C39.9 4.05365 40.2956 3.97344 40.7258 3.97344C41.4076 3.97344 41.9417 4.14479 42.3281 4.4875C42.7146 4.82656 42.9151 5.29505 42.9297 5.89297V8.61641C42.9297 9.15964 42.999 9.59167 43.1375 9.9125V10H42.0766ZM40.3977 9.22891C40.7148 9.22891 41.0156 9.14688 41.3 8.98281C41.5844 8.81875 41.7904 8.60547 41.918 8.34297V7.12891H41.125C39.8854 7.12891 39.2656 7.49167 39.2656 8.21719C39.2656 8.53438 39.3714 8.78229 39.5828 8.96094C39.7943 9.13958 40.0659 9.22891 40.3977 9.22891ZM45.4727 4.08281L45.5055 4.82656C45.9576 4.25781 46.5482 3.97344 47.2773 3.97344C48.5279 3.97344 49.1586 4.67891 49.1695 6.08984V10H48.1578V6.08438C48.1542 5.65781 48.0557 5.34245 47.8625 5.13828C47.6729 4.93411 47.3758 4.83203 46.9711 4.83203C46.643 4.83203 46.3549 4.91953 46.107 5.09453C45.8591 5.26953 45.6659 5.49922 45.5273 5.78359V10H44.5156V4.08281H45.4727ZM53.0687 9.28359C53.4297 9.28359 53.7451 9.17422 54.0148 8.95547C54.2846 8.73672 54.4341 8.46328 54.4633 8.13516H55.4203C55.4021 8.47422 55.2854 8.79688 55.0703 9.10313C54.8552 9.40938 54.5672 9.65365 54.2062 9.83594C53.849 10.0182 53.4698 10.1094 53.0687 10.1094C52.263 10.1094 51.6214 9.84141 51.1437 9.30547C50.6698 8.76589 50.4328 8.02943 50.4328 7.09609V6.92656C50.4328 6.35052 50.5385 5.83828 50.75 5.38984C50.9615 4.94141 51.2641 4.59323 51.6578 4.34531C52.0552 4.0974 52.5237 3.97344 53.0633 3.97344C53.7268 3.97344 54.2773 4.17214 54.7148 4.56953C55.156 4.96693 55.3911 5.48281 55.4203 6.11719H54.4633C54.4341 5.73438 54.2883 5.42083 54.0258 5.17656C53.7669 4.92865 53.4461 4.80469 53.0633 4.80469C52.5492 4.80469 52.15 4.99063 51.8656 5.3625C51.5849 5.73073 51.4445 6.26484 51.4445 6.96484V7.15625C51.4445 7.83802 51.5849 8.36302 51.8656 8.73125C52.1464 9.09948 52.5474 9.28359 53.0687 9.28359ZM57.657 10H56.6453V4.08281H57.657V10ZM56.5633 2.51328C56.5633 2.34922 56.6125 2.21068 56.7109 2.09766C56.813 1.98464 56.9625 1.92813 57.1594 1.92813C57.3562 1.92813 57.5057 1.98464 57.6078 2.09766C57.7099 2.21068 57.7609 2.34922 57.7609 2.51328C57.7609 2.67734 57.7099 2.81406 57.6078 2.92344C57.5057 3.03281 57.3562 3.0875 57.1594 3.0875C56.9625 3.0875 56.813 3.03281 56.7109 2.92344C56.6125 2.81406 56.5633 2.67734 56.5633 2.51328ZM62.9344 10C62.876 9.88333 62.8286 9.67552 62.7922 9.37656C62.3219 9.8651 61.7604 10.1094 61.1078 10.1094C60.5245 10.1094 60.0451 9.94531 59.6695 9.61719C59.2977 9.28542 59.1117 8.86615 59.1117 8.35938C59.1117 7.74323 59.3451 7.26563 59.8117 6.92656C60.282 6.58385 60.9419 6.4125 61.7914 6.4125H62.7758V5.94766C62.7758 5.59401 62.6701 5.31328 62.4586 5.10547C62.2471 4.89401 61.9354 4.78828 61.5234 4.78828C61.1625 4.78828 60.8599 4.87943 60.6156 5.06172C60.3714 5.24401 60.2492 5.46458 60.2492 5.72344H59.232C59.232 5.42813 59.3359 5.14375 59.5437 4.87031C59.7552 4.59323 60.0396 4.37448 60.3969 4.21406C60.7578 4.05365 61.1534 3.97344 61.5836 3.97344C62.2654 3.97344 62.7995 4.14479 63.1859 4.4875C63.5724 4.82656 63.7729 5.29505 63.7875 5.89297V8.61641C63.7875 9.15964 63.8568 9.59167 63.9953 9.9125V10H62.9344ZM61.2555 9.22891C61.5727 9.22891 61.8734 9.14688 62.1578 8.98281C62.4422 8.81875 62.6482 8.60547 62.7758 8.34297V7.12891H61.9828C60.7432 7.12891 60.1234 7.49167 60.1234 8.21719C60.1234 8.53438 60.2292 8.78229 60.4406 8.96094C60.6521 9.13958 60.9237 9.22891 61.2555 9.22891ZM66.4727 10H65.4609V1.6H66.4727V10ZM74.3203 8.43047C74.3203 8.15703 74.2164 7.94557 74.0086 7.79609C73.8044 7.64297 73.4453 7.51172 72.9312 7.40234C72.4208 7.29297 72.0143 7.16172 71.7117 7.00859C71.4128 6.85547 71.1904 6.67318 71.0445 6.46172C70.9023 6.25026 70.8312 5.9987 70.8312 5.70703C70.8312 5.22214 71.0354 4.81198 71.4437 4.47656C71.8557 4.14115 72.3807 3.97344 73.0187 3.97344C73.6896 3.97344 74.2328 4.14661 74.6484 4.49297C75.0677 4.83932 75.2773 5.28229 75.2773 5.82188H74.2602C74.2602 5.54479 74.1417 5.30599 73.9047 5.10547C73.6714 4.90495 73.376 4.80469 73.0187 4.80469C72.6505 4.80469 72.3625 4.8849 72.1547 5.04531C71.9469 5.20573 71.843 5.41536 71.843 5.67422C71.843 5.91849 71.9396 6.1026 72.1328 6.22656C72.326 6.35052 72.6742 6.46901 73.1773 6.58203C73.6841 6.69505 74.0943 6.82995 74.4078 6.98672C74.7214 7.14349 74.9529 7.33307 75.1023 7.55547C75.2555 7.77422 75.332 8.04219 75.332 8.35938C75.332 8.88802 75.1206 9.31276 74.6977 9.63359C74.2747 9.95078 73.726 10.1094 73.0516 10.1094C72.5776 10.1094 72.1583 10.0255 71.7937 9.85781C71.4292 9.6901 71.143 9.45677 70.9352 9.15781C70.731 8.85521 70.6289 8.52891 70.6289 8.17891H71.6406C71.6589 8.51797 71.7937 8.78776 72.0453 8.98828C72.3005 9.18516 72.6359 9.28359 73.0516 9.28359C73.4344 9.28359 73.7406 9.20703 73.9703 9.05391C74.2036 8.89714 74.3203 8.68932 74.3203 8.43047ZM80.3031 9.41484C79.9094 9.87786 79.3315 10.1094 78.5695 10.1094C77.9388 10.1094 77.4576 9.92708 77.1258 9.5625C76.7977 9.19427 76.6318 8.65104 76.6281 7.93281V4.08281H77.6398V7.90547C77.6398 8.80234 78.0044 9.25078 78.7336 9.25078C79.5065 9.25078 80.0206 8.96276 80.2758 8.38672V4.08281H81.2875V10H80.325L80.3031 9.41484ZM87.8281 7.10703C87.8281 8.00755 87.6221 8.73307 87.2102 9.28359C86.7982 9.83411 86.2404 10.1094 85.5367 10.1094C84.8185 10.1094 84.2534 9.88151 83.8414 9.42578V12.275H82.8297V4.08281H83.7539L83.8031 4.73906C84.2151 4.22865 84.7875 3.97344 85.5203 3.97344C86.2313 3.97344 86.7927 4.24141 87.2047 4.77734C87.6203 5.31328 87.8281 6.05885 87.8281 7.01406V7.10703ZM86.8164 6.99219C86.8164 6.325 86.6742 5.79818 86.3898 5.41172C86.1055 5.02526 85.7154 4.83203 85.2195 4.83203C84.607 4.83203 84.1477 5.10365 83.8414 5.64688V8.47422C84.144 9.0138 84.607 9.28359 85.2305 9.28359C85.7154 9.28359 86.1 9.09219 86.3844 8.70938C86.6724 8.32292 86.8164 7.75052 86.8164 6.99219ZM94.1172 7.10703C94.1172 8.00755 93.9112 8.73307 93.4992 9.28359C93.0872 9.83411 92.5294 10.1094 91.8258 10.1094C91.1076 10.1094 90.5424 9.88151 90.1305 9.42578V12.275H89.1188V4.08281H90.043L90.0922 4.73906C90.5042 4.22865 91.0766 3.97344 91.8094 3.97344C92.5203 3.97344 93.0818 4.24141 93.4938 4.77734C93.9094 5.31328 94.1172 6.05885 94.1172 7.01406V7.10703ZM93.1055 6.99219C93.1055 6.325 92.9633 5.79818 92.6789 5.41172C92.3945 5.02526 92.0044 4.83203 91.5086 4.83203C90.8961 4.83203 90.4367 5.10365 90.1305 5.64688V8.47422C90.4331 9.0138 90.8961 9.28359 91.5195 9.28359C92.0044 9.28359 92.3891 9.09219 92.6734 8.70938C92.9615 8.32292 93.1055 7.75052 93.1055 6.99219ZM95.1398 6.98672C95.1398 6.40703 95.2529 5.88568 95.4789 5.42266C95.7086 4.95964 96.0258 4.60234 96.4305 4.35078C96.8388 4.09922 97.3036 3.97344 97.825 3.97344C98.6307 3.97344 99.2815 4.25234 99.7773 4.81016C100.277 5.36797 100.527 6.1099 100.527 7.03594V7.10703C100.527 7.68307 100.415 8.20078 100.193 8.66016C99.9742 9.11589 99.6589 9.47135 99.2469 9.72656C98.8385 9.98177 98.3682 10.1094 97.8359 10.1094C97.0339 10.1094 96.3831 9.83047 95.8836 9.27266C95.3878 8.71484 95.1398 7.97656 95.1398 7.05781V6.98672ZM96.157 7.10703C96.157 7.76328 96.3083 8.2901 96.6109 8.6875C96.9172 9.0849 97.3255 9.28359 97.8359 9.28359C98.35 9.28359 98.7583 9.08307 99.0609 8.68203C99.3635 8.27734 99.5148 7.71224 99.5148 6.98672C99.5148 6.33776 99.3599 5.81276 99.05 5.41172C98.7438 5.00703 98.3354 4.80469 97.825 4.80469C97.3255 4.80469 96.9227 5.00339 96.6164 5.40078C96.3102 5.79818 96.157 6.36693 96.157 7.10703ZM104.655 4.99063C104.502 4.9651 104.336 4.95234 104.158 4.95234C103.494 4.95234 103.044 5.2349 102.807 5.8V10H101.795V4.08281H102.78L102.796 4.76641C103.128 4.23776 103.598 3.97344 104.207 3.97344C104.404 3.97344 104.553 3.99896 104.655 4.05V4.99063ZM107.237 2.65V4.08281H108.341V4.86484H107.237V8.53438C107.237 8.77135 107.286 8.95 107.384 9.07031C107.483 9.18698 107.651 9.24531 107.887 9.24531C108.004 9.24531 108.165 9.22344 108.369 9.17969V10C108.103 10.0729 107.844 10.1094 107.592 10.1094C107.14 10.1094 106.799 9.97266 106.57 9.69922C106.34 9.42578 106.225 9.0375 106.225 8.53438V4.86484H105.148V4.08281H106.225V2.65H107.237ZM112.804 10V4.86484H111.869V4.08281H112.804V3.47578C112.804 2.84141 112.973 2.35104 113.313 2.00469C113.652 1.65833 114.131 1.48516 114.751 1.48516C114.984 1.48516 115.216 1.51615 115.445 1.57813L115.391 2.39844C115.219 2.36563 115.037 2.34922 114.844 2.34922C114.516 2.34922 114.262 2.44583 114.084 2.63906C113.905 2.82865 113.816 3.10208 113.816 3.45938V4.08281H115.079V4.86484H113.816V10H112.804ZM119.06 4.99063C118.907 4.9651 118.741 4.95234 118.562 4.95234C117.899 4.95234 117.449 5.2349 117.212 5.8V10H116.2V4.08281H117.184L117.201 4.76641C117.533 4.23776 118.003 3.97344 118.612 3.97344C118.809 3.97344 118.958 3.99896 119.06 4.05V4.99063ZM119.618 6.98672C119.618 6.40703 119.731 5.88568 119.957 5.42266C120.187 4.95964 120.504 4.60234 120.909 4.35078C121.317 4.09922 121.782 3.97344 122.303 3.97344C123.109 3.97344 123.76 4.25234 124.255 4.81016C124.755 5.36797 125.005 6.1099 125.005 7.03594V7.10703C125.005 7.68307 124.893 8.20078 124.671 8.66016C124.452 9.11589 124.137 9.47135 123.725 9.72656C123.317 9.98177 122.846 10.1094 122.314 10.1094C121.512 10.1094 120.861 9.83047 120.362 9.27266C119.866 8.71484 119.618 7.97656 119.618 7.05781V6.98672ZM120.635 7.10703C120.635 7.76328 120.786 8.2901 121.089 8.6875C121.395 9.0849 121.804 9.28359 122.314 9.28359C122.828 9.28359 123.236 9.08307 123.539 8.68203C123.842 8.27734 123.993 7.71224 123.993 6.98672C123.993 6.33776 123.838 5.81276 123.528 5.41172C123.222 5.00703 122.814 4.80469 122.303 4.80469C121.804 4.80469 121.401 5.00339 121.095 5.40078C120.788 5.79818 120.635 6.36693 120.635 7.10703ZM127.225 4.08281L127.252 4.73906C127.686 4.22865 128.271 3.97344 129.008 3.97344C129.835 3.97344 130.399 4.29063 130.698 4.925C130.895 4.64063 131.15 4.41094 131.463 4.23594C131.78 4.06094 132.154 3.97344 132.584 3.97344C133.882 3.97344 134.542 4.66068 134.564 6.03516V10H133.552V6.09531C133.552 5.6724 133.456 5.35703 133.262 5.14922C133.069 4.93776 132.745 4.83203 132.289 4.83203C131.914 4.83203 131.602 4.94505 131.354 5.17109C131.106 5.39349 130.962 5.69427 130.922 6.07344V10H129.905V6.12266C129.905 5.26224 129.484 4.83203 128.641 4.83203C127.978 4.83203 127.524 5.11458 127.28 5.67969V10H126.268V4.08281H127.225ZM140.246 2.65V4.08281H141.351V4.86484H140.246V8.53438C140.246 8.77135 140.295 8.95 140.394 9.07031C140.492 9.18698 140.66 9.24531 140.897 9.24531C141.014 9.24531 141.174 9.22344 141.378 9.17969V10C141.112 10.0729 140.853 10.1094 140.602 10.1094C140.149 10.1094 139.809 9.97266 139.579 9.69922C139.349 9.42578 139.234 9.0375 139.234 8.53438V4.86484H138.157V4.08281H139.234V2.65H140.246ZM143.549 4.79922C143.998 4.2487 144.581 3.97344 145.299 3.97344C146.55 3.97344 147.18 4.67891 147.191 6.08984V10H146.18V6.08438C146.176 5.65781 146.078 5.34245 145.884 5.13828C145.695 4.93411 145.398 4.83203 144.993 4.83203C144.665 4.83203 144.377 4.91953 144.129 5.09453C143.881 5.26953 143.688 5.49922 143.549 5.78359V10H142.538V1.6H143.549V4.79922ZM151.162 10.1094C150.36 10.1094 149.707 9.84688 149.204 9.32188C148.701 8.79323 148.449 8.08776 148.449 7.20547V7.01953C148.449 6.43255 148.56 5.90938 148.783 5.45C149.009 4.98698 149.322 4.62604 149.723 4.36719C150.128 4.10469 150.566 3.97344 151.036 3.97344C151.805 3.97344 152.403 4.22682 152.83 4.73359C153.256 5.24036 153.47 5.96589 153.47 6.91016V7.33125H149.461C149.476 7.91458 149.645 8.38672 149.97 8.74766C150.298 9.10495 150.713 9.28359 151.216 9.28359C151.574 9.28359 151.876 9.21068 152.124 9.06484C152.372 8.91901 152.589 8.72578 152.775 8.48516L153.393 8.96641C152.897 9.72839 152.153 10.1094 151.162 10.1094ZM151.036 4.80469C150.628 4.80469 150.285 4.95417 150.008 5.25313C149.731 5.54844 149.559 5.96406 149.494 6.5H152.458V6.42344C152.429 5.90938 152.29 5.51198 152.042 5.23125C151.794 4.94688 151.459 4.80469 151.036 4.80469Z" fill="black"/>
</svg>
