<svg width="200" height="200" viewBox="0 0 200 200" fill="none" xmlns="http://www.w3.org/2000/svg">
<g clip-path="url(#clip0)">
<path d="M199.991 87.7511C199.991 124.835 199.991 161.92 199.991 199.004C199.991 199.855 199.817 200 198.927 200C160.375 200 121.828 200 83.2876 200C83.2489 199.962 83.2273 199.912 83.2273 199.86C83.2273 199.807 83.2489 199.757 83.2876 199.719C84.3856 199.457 85.5001 199.258 86.6246 199.123C90.0304 198.568 93.2509 197.286 96.0331 195.379C98.8153 193.472 101.083 190.992 102.659 188.134C104.487 184.856 105.353 181.19 105.171 177.503C105.129 173.208 103.624 169.036 100.871 165.586C96.8556 160.581 91.3275 158.027 84.7727 157.201C79.4091 156.436 73.9222 157.255 69.087 159.542C65.8035 161.013 62.9827 163.244 60.8956 166.02C58.8085 168.795 57.5253 172.023 57.1691 175.392C56.4232 180.325 57.5792 185.345 60.4328 189.564C64.1548 195.123 69.7012 198.187 76.5861 199.276C77.3528 199.328 78.11 199.465 78.8413 199.685C78.88 199.723 78.9015 199.773 78.9015 199.825C78.9015 199.878 78.88 199.928 78.8413 199.966H35.7536C35.8636 199.379 36.4045 199.54 36.7896 199.489C39.3076 199.221 41.7405 198.479 43.9403 197.31C45.9127 196.266 47.5481 194.751 48.6765 192.922C49.805 191.093 50.3855 189.016 50.3576 186.908C50.4122 185.127 49.9637 183.363 49.0566 181.792C48.1495 180.221 46.8155 178.898 45.1871 177.954C42.5611 176.399 39.7412 175.147 36.7896 174.225C35.2222 173.659 33.6916 173.008 32.2058 172.276L32.0133 172.174C30.299 171.221 29.5105 169.876 29.8589 168.505C30.2073 167.135 31.6007 166.216 33.6084 166.028C36.8172 165.719 40.0448 166.418 42.776 168.012C43.3393 168.365 43.9883 168.584 44.6648 168.647C45.3413 168.71 46.0242 168.617 46.6521 168.374C47.2801 168.132 47.8335 167.749 48.2626 167.259C48.6917 166.77 48.9832 166.189 49.1108 165.569C49.5234 164.299 49.4098 162.933 48.7923 161.737C48.1748 160.542 47.0982 159.604 45.7738 159.108C42.245 157.566 38.367 156.839 34.4702 156.988C30.1041 157.048 25.9055 158.558 22.6348 161.244C17.7118 165.381 17.0243 174.396 24.3217 178.711C26.6337 180.024 29.0665 181.143 31.5916 182.057C33.2142 182.678 34.8369 183.308 36.3954 184.065C37.2561 184.447 38.0188 184.996 38.6323 185.674C38.955 186.005 39.1865 186.403 39.3071 186.834C39.4277 187.266 39.4338 187.719 39.3247 188.153C39.2156 188.587 38.9947 188.991 38.6809 189.328C38.3671 189.666 37.9698 189.928 37.523 190.092C35.0661 191.13 32.5725 190.773 30.1248 190.032C28.3381 189.517 26.647 188.75 25.1101 187.76C24.6118 187.422 24.0391 187.19 23.4332 187.082C22.8272 186.974 22.203 186.992 21.6053 187.134C21.0076 187.277 20.4513 187.54 19.9763 187.906C19.5012 188.272 19.1193 188.73 18.8578 189.249C18.1275 190.36 17.8904 191.692 18.1965 192.962C18.5026 194.232 19.3281 195.343 20.4988 196.059C23.8349 198.065 27.6569 199.267 31.6191 199.557C32.0577 199.524 32.4985 199.591 32.9025 199.753C32.9228 199.771 32.9389 199.793 32.9499 199.817C32.9609 199.841 32.9665 199.867 32.9665 199.894C32.9665 199.92 32.9609 199.946 32.9499 199.97C32.9389 199.994 32.9228 200.016 32.9025 200.034C22.1765 200.034 11.4504 200.034 0.724333 200.034C0.0826023 200.034 -0.0732422 199.932 -0.0732422 199.311C-0.0732422 133.143 -0.0732422 66.9816 -0.0732422 0.825654C-0.0732422 0.178736 0.100926 0.0425568 0.77016 0.0425568C66.8623 0.0425568 132.954 0.0425568 199.047 0.0425568C199.835 0.0425568 199.963 0.229823 199.963 0.893766C199.963 27.6841 199.963 54.4745 199.963 81.2649C199.34 81.1627 199.487 80.6691 199.441 80.303C199.008 76.4438 198.104 72.6429 196.746 68.9734C194.644 63.444 191.399 58.3491 187.193 53.9751C182.023 48.5554 175.446 44.4531 168.088 42.0582C163.74 40.5979 159.161 39.8156 154.538 39.7429C152.594 39.7429 150.651 39.7429 148.707 39.7429C146.529 39.7178 144.401 40.3452 142.637 41.532C140.873 42.7187 139.569 44.4017 138.916 46.3313C138.148 48.4664 138.173 50.779 138.988 52.8992C139.802 55.0195 141.359 56.825 143.409 58.0269C144.801 58.8649 146.425 59.3086 148.084 59.3037C150.839 59.1839 153.6 59.2922 156.335 59.6272C167.208 61.4317 174.276 67.3902 177.329 77.111C178.66 81 178.896 85.1407 178.015 89.1385C177.134 93.1364 175.165 96.8581 172.296 99.9489C170.135 102.472 167.427 104.545 164.349 106.036C161.27 107.526 157.889 108.399 154.424 108.6C150.959 108.801 147.487 108.324 144.233 107.2C140.979 106.076 138.015 104.331 135.534 102.077C129.795 96.9271 127.209 90.6027 127.2 83.3078C127.2 58.9065 127.2 34.525 127.2 10.1634C127.261 7.7674 126.339 5.43942 124.621 3.65089C122.903 1.86237 120.517 0.746984 117.946 0.530583C115.375 0.314183 112.812 1.01295 110.775 2.48539C108.739 3.95783 107.381 6.09387 106.977 8.461C106.801 9.46864 106.712 10.4876 106.711 11.5083C106.711 35.7508 106.656 60.0272 106.711 84.2441C106.539 95.2423 110.747 105.912 118.528 114.207C126.339 122.591 136.212 127.656 148.139 128.856C154.013 129.534 159.974 129.101 165.662 127.581C171.35 126.06 176.647 123.486 181.234 120.012C191.493 112.445 197.332 102.486 199.175 90.475C199.234 89.7639 199.335 89.0563 199.478 88.3555C199.551 88.0661 199.551 87.7426 199.991 87.7511Z" fill="white"/>
<path d="M199.991 87.7511C199.468 88.8917 199.606 90.126 199.377 91.3006C195.985 108.802 185.753 121.306 167.501 127.12C151.659 132.176 136.872 129.265 123.909 119.416C114.146 112.002 108.709 102.213 106.876 90.6708C106.57 88.7203 106.42 86.7514 106.426 84.7804V10.4188C106.368 8.07059 107.203 5.77847 108.784 3.94481C110.365 2.11114 112.591 0.853112 115.071 0.391565C117.763 -0.0613375 120.538 0.473638 122.813 1.88373C125.087 3.29382 126.683 5.46885 127.264 7.9503C127.438 8.74864 127.521 9.56175 127.512 10.3762C127.512 34.7321 127.512 59.0796 127.512 83.4184C127.341 89.5982 129.674 95.6125 134.048 100.272C146.498 113.492 168.546 110.019 175.999 93.7096C181.711 81.2394 175.568 66.8029 162.504 61.5339C159.435 60.3241 156.139 59.6877 152.805 59.6612C150.578 59.6187 148.331 59.891 146.131 59.3973C143.624 58.7615 141.44 57.322 139.967 55.3339C138.493 53.3458 137.826 50.9375 138.082 48.5359C138.806 43.1052 143.106 39.411 148.652 39.3684C154.199 39.3258 159.479 39.3173 164.751 40.7389C180.996 45.1056 191.667 54.92 197.341 69.5778C198.702 73.1995 199.522 76.977 199.78 80.8053C199.78 80.9755 199.78 81.1542 199.991 81.2223V81.4266C199.867 81.9288 199.83 82.4459 199.881 82.9588V85.7848C199.936 86.2359 199.762 86.7041 199.991 87.1383V87.7511Z" fill="#3076AC"/>
<path d="M32.9392 199.813C28.5018 199.718 24.1772 198.496 20.4346 196.28C19.6797 195.802 19.0553 195.166 18.6112 194.425C18.1671 193.683 17.9154 192.855 17.8762 192.007C17.8371 191.159 18.0115 190.315 18.3856 189.54C18.7597 188.766 19.3232 188.083 20.0312 187.547C20.7175 187.001 21.5811 186.685 22.4838 186.65C23.3864 186.614 24.2757 186.861 25.0092 187.351C28.0987 189.181 31.344 190.56 35.0936 190.39C35.9735 190.368 36.8361 190.158 37.6146 189.777C38.0157 189.603 38.3643 189.339 38.6297 189.01C38.8951 188.681 39.069 188.296 39.136 187.889C39.2031 187.483 39.1613 187.067 39.0143 186.68C38.8672 186.292 38.6195 185.943 38.293 185.666C37.2029 184.705 35.9151 183.958 34.5068 183.47C31.8115 182.354 29.0063 181.444 26.4027 180.15C24.546 179.265 22.8606 178.1 21.4155 176.702C16.9601 172.234 17.5284 163.526 24.5233 159.448C28.353 157.297 32.8305 156.356 37.2846 156.767C40.5756 156.947 43.785 157.79 46.6906 159.236C47.4659 159.656 48.1304 160.231 48.6357 160.92C49.1409 161.609 49.4743 162.394 49.6113 163.218C49.7483 164.042 49.6856 164.883 49.4277 165.682C49.1698 166.48 48.7233 167.215 48.1207 167.833C47.4855 168.454 46.6393 168.853 45.7243 168.963C44.8094 169.073 43.8816 168.888 43.0968 168.437C40.7589 167.095 38.0951 166.319 35.3502 166.181C34.2201 166.102 33.0854 166.262 32.0316 166.65C31.539 166.796 31.0997 167.066 30.7619 167.429C30.4242 167.793 30.2013 168.236 30.1179 168.71C30.0344 169.184 30.0936 169.67 30.289 170.114C30.4843 170.559 30.8082 170.945 31.2248 171.229C32.5379 172.206 34.0281 172.959 35.6253 173.451C38.7606 174.634 41.9876 175.655 44.8662 177.366C47.7448 179.077 49.9817 181.529 50.5317 184.874C51.0338 187.709 50.4588 190.618 48.9051 193.102C47.3514 195.587 44.9156 197.493 42.0151 198.493C40.2172 199.165 38.3186 199.576 36.3862 199.711C36.1845 199.711 35.937 199.651 35.8361 199.915H35.176C34.4518 199.711 33.6726 200 32.9392 199.813Z" fill="#F98A3E"/>
<path d="M199.78 85.9295V82.8396C199.853 82.7715 199.918 82.7715 199.973 82.8396V85.904C199.918 86.0061 199.853 86.0146 199.78 85.9295Z" fill="#4296C2"/>
<path d="M32.9392 199.813C33.691 199.813 34.461 199.557 35.176 199.974H32.9759C32.9539 199.923 32.9416 199.868 32.9392 199.813V199.813Z" fill="#FFC581"/>
<path d="M82.1966 199.974H80.0055C79.9873 199.95 79.9747 199.923 79.9685 199.894C79.9623 199.865 79.9627 199.835 79.9696 199.806C79.9765 199.777 79.9897 199.75 80.0086 199.726C80.0274 199.703 80.0513 199.683 80.0789 199.668C80.4026 199.542 80.7501 199.477 81.1011 199.477C81.4521 199.477 81.7996 199.542 82.1233 199.668C82.1508 199.683 82.1748 199.703 82.1936 199.726C82.2124 199.75 82.2257 199.777 82.2326 199.806C82.2395 199.835 82.2398 199.865 82.2337 199.894C82.2275 199.923 82.2148 199.95 82.1966 199.974V199.974Z" fill="#FFC480"/>
<path d="M199.991 82.8567H199.798C199.862 82.3885 199.551 81.8693 199.991 81.4437V82.8567Z" fill="#82BAD8"/>
<path d="M199.78 85.9295C199.844 85.921 199.909 85.921 199.973 85.9295V87.1468C199.56 86.7892 199.826 86.3381 199.78 85.9295Z" fill="#80B9D7"/>
<path d="M79.987 199.804C79.987 199.855 79.987 199.915 79.987 199.974H78.887C78.8915 199.915 78.8915 199.855 78.887 199.796C78.9538 199.72 79.0381 199.659 79.1337 199.617C79.2292 199.576 79.3336 199.555 79.4392 199.555C79.5447 199.556 79.6488 199.579 79.7436 199.622C79.8384 199.665 79.9216 199.727 79.987 199.804Z" fill="#FFE2C2"/>
<path d="M82.1965 199.974C82.201 199.921 82.201 199.867 82.1965 199.813C82.2598 199.735 82.3416 199.672 82.4354 199.629C82.5292 199.586 82.6326 199.563 82.7374 199.563C82.8422 199.563 82.9456 199.586 83.0394 199.629C83.1333 199.672 83.215 199.735 83.2783 199.813C83.2783 199.864 83.2783 199.923 83.2783 199.983L82.1965 199.974Z" fill="#FFDEB8"/>
<path d="M93.6469 100.732C93.6469 107.193 93.7569 113.662 93.6469 120.114C93.5252 122.568 92.4087 124.888 90.5212 126.609C88.6338 128.329 86.1152 129.324 83.4709 129.392C80.831 129.429 78.2708 128.553 76.2882 126.934C74.3057 125.315 73.0427 123.069 72.7448 120.633C72.6478 119.785 72.6019 118.933 72.6073 118.08C72.6073 106.861 72.6073 95.639 72.6073 84.4144C72.6197 79.0041 70.6731 73.747 67.0801 69.4877C63.4871 65.2285 58.4564 62.2143 52.7961 60.9295C42.3818 58.5802 31.2615 63.2193 25.6418 72.2506C17.4826 85.3677 23.8724 102.443 38.8614 107.635C41.8568 108.601 45.0048 109.096 48.1757 109.099C50.4218 109.15 52.7045 108.844 54.9138 109.568C57.3468 110.407 59.3851 112.013 60.6734 114.106C61.9617 116.198 62.4184 118.644 61.9637 121.016C61.5782 123.319 60.3347 125.422 58.4499 126.961C56.5652 128.499 54.1588 129.375 51.6502 129.435C44.9212 129.597 38.2563 129.282 31.8757 127.034C16.0891 121.476 5.91311 111.006 1.85187 95.9142C-2.60358 79.3071 1.65016 64.4195 14.4939 52.0684C21.9322 44.8459 31.9662 40.4088 42.6934 39.5982C63.1738 37.7596 81.5457 48.919 89.4481 65.6622C92.2497 71.5467 93.6865 77.9126 93.6652 84.3463V100.766L93.6469 100.732Z" fill="#3076AC"/>
<path d="M83.3058 199.804H78.8962C73.7968 199.626 68.9064 197.877 64.9958 194.833C61.0851 191.789 58.3766 187.624 57.2974 182.993C56.5573 180.217 56.4366 177.33 56.9427 174.509C57.4488 171.689 58.5711 168.994 60.2404 166.591C61.9096 164.188 64.0907 162.127 66.6495 160.536C69.2082 158.945 72.0905 157.856 75.1192 157.337C82.5449 155.958 89.604 156.784 95.9663 160.819C98.5709 162.412 100.76 164.524 102.373 167.003C103.986 169.481 104.982 172.263 105.29 175.145C106.271 182.754 103.924 189.3 97.6897 194.476C94.2582 197.264 90.0107 199.042 85.4877 199.583C84.7634 199.668 84.0392 199.728 83.3058 199.804Z" fill="#F98A3E"/>
<path d="M114.072 178.413V162.913C114.072 159.508 116.823 157.329 120.435 157.38C127.393 157.482 134.351 157.38 141.309 157.38C141.85 157.38 142.4 157.38 142.95 157.465C144.186 157.518 145.349 158.02 146.189 158.862C147.03 159.705 147.48 160.82 147.442 161.968C147.376 163.13 146.827 164.223 145.91 165.017C144.994 165.81 143.782 166.243 142.529 166.224C137.291 166.258 132.053 166.258 126.815 166.224C125.899 166.224 125.55 166.377 125.587 167.322C125.679 169.527 125.651 171.74 125.587 173.944C125.587 174.66 125.798 174.864 126.568 174.855C130.962 174.821 135.356 174.821 139.751 174.855C140.901 174.86 142.009 175.253 142.87 175.961C143.731 176.669 144.285 177.643 144.43 178.702C144.575 179.761 144.3 180.833 143.657 181.718C143.013 182.603 142.045 183.241 140.933 183.512C140.434 183.612 139.922 183.652 139.412 183.631C135.204 183.631 130.987 183.674 126.779 183.631C125.761 183.631 125.587 183.921 125.587 184.78C125.587 188.109 125.798 191.445 125.495 194.774C125.36 196.107 124.673 197.34 123.579 198.213C122.484 199.086 121.068 199.532 119.628 199.455C118.149 199.42 116.743 198.852 115.706 197.872C114.67 196.892 114.084 195.577 114.072 194.203C114.054 188.951 114.072 183.682 114.072 178.413Z" fill="#F98A3E"/>
<path d="M165.787 180.695C165.787 176.209 165.787 171.714 165.787 167.228C165.787 166.454 165.557 166.258 164.751 166.275C162.22 166.326 159.699 166.318 157.169 166.275C155.986 166.294 154.836 165.911 153.936 165.198C153.036 164.484 152.448 163.49 152.283 162.402C152.142 161.366 152.405 160.317 153.024 159.445C153.642 158.572 154.576 157.934 155.656 157.644C156.329 157.475 157.023 157.395 157.719 157.406C166.942 157.406 176.167 157.406 185.396 157.406C187.715 157.406 189.567 158.189 190.457 160.283C190.736 160.962 190.83 161.695 190.731 162.417C190.632 163.138 190.344 163.826 189.89 164.42C189.437 165.013 188.834 165.493 188.133 165.818C187.432 166.144 186.656 166.303 185.873 166.284C183.342 166.284 180.821 166.284 178.291 166.284C177.475 166.284 177.264 166.471 177.264 167.237C177.264 176.107 177.264 184.982 177.264 193.863C177.332 194.863 177.091 195.86 176.57 196.738C176.049 197.615 175.269 198.336 174.322 198.817C173.431 199.273 172.425 199.502 171.408 199.48C170.391 199.459 169.398 199.187 168.531 198.693C167.663 198.199 166.952 197.501 166.47 196.669C165.988 195.836 165.752 194.901 165.787 193.956C165.796 189.539 165.787 185.112 165.787 180.695Z" fill="#F98A3E"/>
<path d="M93.6469 177.92C93.6469 183.512 90.6399 187.913 85.7353 189.709C83.9634 190.349 82.0577 190.606 80.163 190.46C78.2682 190.314 76.4342 189.769 74.8003 188.866C73.1663 187.963 71.7753 186.727 70.7329 185.251C69.6906 183.774 69.0242 182.097 68.7844 180.346C68.2619 176.6 68.8853 173.153 71.5347 170.225C74.78 166.641 79.0613 165.526 83.8651 166.42C88.6689 167.314 91.7767 170.148 93.1702 174.515C93.5458 175.614 93.7072 176.767 93.6469 177.92Z" fill="white"/>
</g>
<defs>
<clipPath id="clip0">
<rect width="200" height="200" fill="white"/>
</clipPath>
</defs>
</svg>
