<svg width="43" height="53" viewBox="0 0 43 53" fill="none" xmlns="http://www.w3.org/2000/svg">
<g filter="url(#filter0_d)">
<g clip-path="url(#clip0)">
<rect x="4" width="34.6154" height="45" rx="5" fill="#4A4E53"/>
<g filter="url(#filter1_d)">
<path d="M21.6923 3.84619C21.0351 4.49706 20.6346 5.34904 20.6346 6.28417C20.6736 8.33745 20.9621 10.3866 20.9872 12.4392C21.0393 14.3523 20.3819 16.1491 19.5824 17.9018C19.3161 18.3862 19.0279 18.8603 18.7396 19.3348L17.8912 19.1857C17.1279 19.0525 16.6313 18.4047 16.784 17.7383C16.9175 17.1553 17.5054 16.7504 18.1612 16.7478L18.4696 16.7766L17.781 11.7564C17.556 9.52087 16.2347 7.55996 14.2885 6.28417C13.954 6.06493 13.5996 5.86449 13.2308 5.68791V23.5183H17.9463C18.2989 25.1891 19.3523 26.6446 20.8329 27.6441C21.1851 27.856 21.4801 28.1355 21.6923 28.4616C21.9045 28.1355 22.1995 27.856 22.5517 27.6441C24.0323 26.6446 25.0857 25.1891 25.4383 23.5183H30.1538V5.68791C29.785 5.86449 29.4306 6.06493 29.0962 6.28417C27.1499 7.55996 25.8286 9.52087 25.6036 11.7564L24.915 16.7766L25.2235 16.7478C25.8792 16.7504 26.4671 17.1553 26.6007 17.7383C26.7533 18.4047 26.2567 19.0525 25.4934 19.1857L24.645 19.3348C24.3567 18.8603 24.0686 18.3862 23.8022 17.9018C23.0028 16.1491 22.3453 14.3523 22.3974 12.4392C22.4225 10.3866 22.7111 8.33745 22.75 6.28417C22.75 5.34904 22.3495 4.49706 21.6923 3.84619ZM14.641 8.25571C15.5536 9.19065 16.1661 10.3557 16.3488 11.6362L16.9162 15.7764C16.1937 16.0904 15.6459 16.6664 15.4398 17.3633H14.641V8.25571ZM28.7436 8.25571V17.3633H27.9448C27.7387 16.6664 27.1909 16.0904 26.4684 15.7764L27.0359 11.6362C27.2185 10.3557 27.831 9.19065 28.7436 8.25571ZM21.6923 16.5794C22.0711 17.661 22.5923 18.688 23.2403 19.6426C22.624 19.806 22.0876 20.1239 21.6923 20.5514C21.297 20.1239 20.7606 19.806 20.1443 19.6426C20.7923 18.688 21.3135 17.661 21.6923 16.5794ZM14.641 18.5943H15.4398C15.6916 19.4438 16.4515 20.1151 17.4175 20.3494L18.095 20.4841C17.9136 21.0582 17.8141 21.6631 17.8141 22.2873H14.641V18.5943ZM27.9448 18.5943H28.7436V22.2873H25.5705C25.5705 21.6631 25.471 21.0582 25.2896 20.4841L25.9671 20.3494C26.9331 20.1151 27.693 19.4438 27.9448 18.5943ZM19.4723 20.7678C20.3277 20.8733 20.9872 21.5116 20.9872 22.2873H19.2244C19.2244 21.7596 19.3139 21.2511 19.4723 20.7678ZM23.9124 20.7678C24.0707 21.2511 24.1603 21.7596 24.1603 22.2873H22.3974C22.3974 21.5116 23.0569 20.8733 23.9124 20.7678ZM19.3841 23.5183H20.9872V26.1101C20.2092 25.4002 19.644 24.5088 19.3841 23.5183ZM22.3974 23.5183H24.0005C23.7406 24.5088 23.1754 25.4002 22.3974 26.1101V23.5183Z" fill="#FFD500"/>
<path d="M19.6701 17.95L19.6703 17.9501L19.6734 17.9433C20.474 16.188 21.1398 14.374 21.0872 12.4373C21.0746 11.4074 20.9959 10.379 20.9158 9.35414L20.9094 9.27241C20.8313 8.27398 20.7535 7.27889 20.7346 6.28324C20.7349 5.41191 21.0941 4.61301 21.6923 3.98877C22.2906 4.61301 22.6497 5.41191 22.65 6.28324C22.6311 7.27891 22.5533 8.27401 22.4752 9.27246L22.4688 9.35414C22.3887 10.379 22.3101 11.4074 22.2975 12.4372C22.2448 14.374 22.9106 16.188 23.7112 17.9433L23.7109 17.9434L23.7146 17.95C23.981 18.4345 24.2689 18.9084 24.5558 19.3806L24.5596 19.3867L24.595 19.4451L24.6623 19.4333L25.5106 19.2842C26.3172 19.1435 26.8663 18.4504 26.6981 17.716C26.5521 17.0785 25.916 16.6506 25.2239 16.6478L25.2239 16.6473L25.2141 16.6482L25.0312 16.6653L25.7026 11.77L25.7027 11.77L25.7031 11.7664C25.9247 9.56507 27.2262 7.62949 29.151 6.36781C29.4382 6.1795 29.7404 6.00521 30.0538 5.84822V23.4183H25.4383H25.3572L25.3405 23.4977C24.994 25.1392 23.9586 26.573 22.4979 27.5598C22.1786 27.7522 21.9039 27.999 21.6923 28.2861C21.4807 27.999 21.206 27.7522 20.8867 27.5598C19.426 26.573 18.3906 25.1392 18.0442 23.4977L18.0274 23.4183H17.9463H13.3308V5.84822C13.6442 6.00521 13.9464 6.1795 14.2336 6.36781L14.2885 6.28417L14.2336 6.36781C16.1584 7.62949 17.4599 9.56507 17.6815 11.7664L17.6815 11.7664L17.682 11.77L18.3534 16.6653L18.1705 16.6482L18.1705 16.6477L18.1607 16.6478C17.4686 16.6506 16.8325 17.0785 16.6865 17.716C16.5183 18.4504 17.0674 19.1435 17.874 19.2842L18.7223 19.4333L18.7896 19.4451L18.825 19.3867L18.8287 19.3807C19.1156 18.9085 19.4036 18.4345 19.6701 17.95ZM14.7126 8.18586L14.541 8.01011V8.25571V17.3633V17.4633H14.641H15.4398H15.5145L15.5357 17.3916C15.7323 16.727 16.2567 16.172 16.956 15.8681L17.0255 15.8379L17.0152 15.7628L16.4478 11.6226L16.4478 11.6221C16.2619 10.3186 15.6386 9.13451 14.7126 8.18586ZM28.8436 8.25571V8.01011L28.672 8.18586C27.746 9.13451 27.1228 10.3186 26.9369 11.6221L26.9368 11.6226L26.3694 15.7628L26.3591 15.8379L26.4286 15.8681C27.1279 16.172 27.6523 16.727 27.8489 17.3916L27.8701 17.4633H27.9448H28.7436H28.8436V17.3633V8.25571ZM21.7867 16.5464L21.6923 16.2769L21.5979 16.5464C21.222 17.6195 20.7048 18.6388 20.0616 19.5864L19.9824 19.7031L20.1187 19.7392C20.718 19.8981 21.2374 20.2067 21.6189 20.6193L21.6923 20.6987L21.7657 20.6193C22.1472 20.2067 22.6666 19.8981 23.2659 19.7392L23.4022 19.7031L23.323 19.5864C22.6798 18.6388 22.1626 17.6195 21.7867 16.5464ZM14.641 18.4943H14.541V18.5943V22.2873V22.3873H14.641H17.8141H17.9141V22.2873C17.9141 21.6738 18.0119 21.079 18.1904 20.5142L18.224 20.4077L18.1145 20.386L17.439 20.2517C16.5033 20.0241 15.7757 19.3756 15.5357 18.5658L15.5145 18.4943H15.4398H14.641ZM27.9448 18.4943H27.8702L27.8489 18.5658C27.6089 19.3756 26.8814 20.0241 25.9456 20.2517L25.2701 20.386L25.1606 20.4077L25.1942 20.5142C25.3727 21.079 25.4705 21.6738 25.4705 22.2873V22.3873H25.5705H28.7436H28.8436V22.2873V18.5943V18.4943H28.7436H27.9448ZM19.4845 20.6685L19.4028 20.6584L19.3772 20.7366C19.2159 21.2291 19.1244 21.7482 19.1244 22.2873V22.3873H19.2244H20.9872H21.0872V22.2873C21.0872 21.4499 20.3782 20.7788 19.4845 20.6685ZM24.0074 20.7366L23.9818 20.6584L23.9001 20.6685C23.0064 20.7788 22.2974 21.4499 22.2974 22.2873V22.3873H22.3974H24.1603H24.2603V22.2873C24.2603 21.7482 24.1687 21.2291 24.0074 20.7366ZM19.3841 23.4183H19.2545L19.2874 23.5437C19.5527 24.5545 20.1289 25.4623 20.9198 26.184L21.0872 26.3368V26.1101V23.5183V23.4183H20.9872H19.3841ZM22.3974 23.4183H22.2974V23.5183V26.1101V26.3368L22.4648 26.184C23.2557 25.4623 23.8319 24.5545 24.0972 23.5437L24.1301 23.4183H24.0005H22.3974Z" stroke="black" stroke-width="0.2"/>
</g>
<g filter="url(#filter2_d)">
<path d="M13.448 34.6395V34.5395V33.3321V33.2321H13.548H14.0961C14.2802 33.2321 14.4329 33.2813 14.5432 33.3978L14.5432 33.3978C14.6549 33.5157 14.7011 33.6914 14.7011 33.8989V33.9728C14.7011 34.1803 14.655 34.356 14.5432 34.4739L13.448 34.6395ZM13.448 34.6395H13.548M13.448 34.6395H13.548M13.548 34.6395H14.0961M13.548 34.6395H14.0961M14.0961 34.6395C14.2803 34.6395 14.4329 34.5903 14.5432 34.4739L14.0961 34.6395ZM12.659 32.5292L12.6591 32.5292C12.7201 32.4749 12.8008 32.4445 12.9061 32.4445H14.1454C14.5838 32.4445 14.9324 32.564 15.1906 32.791C15.4478 33.0172 15.5872 33.3747 15.5872 33.8742V33.9112C15.5872 34.4147 15.4425 34.7756 15.1746 35.004L15.1746 35.004C14.9062 35.2328 14.5462 35.3532 14.0958 35.3532H13.5477H13.4477V35.4532V36.7413C13.4477 36.8301 13.4028 36.9086 13.3059 36.9632L13.3058 36.9633C13.2216 37.0109 13.1209 37.0365 13.0046 37.0365C12.883 37.0365 12.7814 37.0104 12.6996 36.9629L12.6996 36.9629C12.606 36.9087 12.5615 36.8304 12.5615 36.7413V32.7335C12.5615 32.6581 12.5928 32.588 12.659 32.5292Z" fill="#FFD300" stroke="black" stroke-width="0.2"/>
<path d="M19.512 32.7097L19.512 32.7097L19.5126 32.7115L20.701 36.5848C20.715 36.6404 20.716 36.6533 20.716 36.6613C20.716 36.7265 20.6923 36.8352 20.5287 36.9321L20.5287 36.9321C20.4099 37.0025 20.2888 37.0367 20.168 37.0367C20.0412 37.0367 19.9701 37.0013 19.929 36.9655C19.8863 36.9284 19.8657 36.882 19.8557 36.8449L19.8557 36.8449L19.8553 36.8433L19.6512 36.1289L19.6305 36.0563H19.555H18.4494H18.3735L18.3531 36.1294L18.1528 36.8447C18.1388 36.8902 18.1133 36.9354 18.0663 36.9701C18.0188 37.0052 17.9399 37.0367 17.8061 37.0367C17.6654 37.0367 17.5293 37.0009 17.4006 36.9292C17.3086 36.8778 17.2588 36.8225 17.2314 36.7741C17.2038 36.7254 17.1957 36.678 17.1957 36.6384C17.1957 36.6295 17.1971 36.6151 17.2088 36.5644L17.2105 36.5581L18.4009 32.6828C18.4009 32.6826 18.401 32.6825 18.401 32.6824C18.4286 32.5957 18.4923 32.5253 18.6064 32.4751L18.6065 32.4751C18.7062 32.4311 18.8225 32.4076 18.9534 32.4076C19.0841 32.4076 19.2019 32.4335 19.3046 32.4827C19.4196 32.5378 19.4848 32.6147 19.512 32.7097ZM19.3954 35.3425H19.5276L19.4916 35.2153L19.1443 33.99L19.0475 33.6484L18.9518 33.9903L18.6089 35.2156L18.5734 35.3425H18.7052H19.3954Z" fill="#FFD300" stroke="black" stroke-width="0.2"/>
<path d="M25.2215 34.6099L25.2214 34.6098C25.0756 34.5112 24.9142 34.4178 24.7416 34.3325C24.5695 34.2476 24.4086 34.1766 24.2632 34.1212L24.2988 34.0278M25.2215 34.6099L24.6896 36.1762M25.2215 34.6099C25.3704 34.7105 25.4991 34.8585 25.6019 35.0537L25.6019 35.0537C25.7023 35.244 25.7548 35.4708 25.7548 35.7301C25.7548 36.1696 25.611 36.5044 25.336 36.7383L25.3359 36.7383C25.0634 36.9703 24.6993 37.092 24.2449 37.092C23.845 37.092 23.5009 37.0078 23.2188 36.846L23.2188 36.8459C22.906 36.6666 22.7782 36.4753 22.7782 36.2851C22.7782 36.1854 22.8144 36.0808 22.8945 35.973C22.9984 35.8335 23.1062 35.811 23.1721 35.811C23.2297 35.811 23.2966 35.8337 23.3796 35.8965L23.3796 35.8966C23.4476 35.948 23.5154 36.0062 23.5809 36.0697M25.2215 34.6099L23.5809 36.0697M24.2988 34.0278L24.2633 34.1213C24.1251 34.0688 24.0054 33.9994 23.9096 33.9135L23.9763 33.839M24.2988 34.0278C24.1698 33.9788 24.0613 33.9153 23.9763 33.839M24.2988 34.0278C24.4477 34.0845 24.6115 34.1569 24.7859 34.2429C24.9623 34.33 25.1276 34.4256 25.2774 34.527L23.9964 33.4023M23.9763 33.839L23.9097 33.9136C23.8238 33.8367 23.7757 33.7457 23.7757 33.6337C23.7757 33.5702 23.7874 33.5103 23.8161 33.4552C23.8448 33.4002 23.8873 33.3564 23.9393 33.3202L23.9393 33.3202C24.0601 33.2362 24.2301 33.2014 24.43 33.2014C24.6221 33.2014 24.8011 33.2388 24.9605 33.3144L24.9606 33.3144C25.2158 33.4357 25.2616 33.4357 25.2808 33.4357H25.2809C25.3583 33.4357 25.4678 33.4103 25.5518 33.268C25.6148 33.1609 25.6439 33.0584 25.6439 32.9626C25.6439 32.8567 25.5982 32.7585 25.5025 32.6769L25.5674 32.6008L25.5026 32.677C25.4157 32.6031 25.3011 32.546 25.1586 32.5099L25.1832 32.4129L25.1588 32.5099C25.0235 32.4758 24.8942 32.451 24.7742 32.4361L24.7866 32.3369L24.7743 32.4361C24.4371 32.3945 24.1493 32.4116 23.8828 32.4808L23.8577 32.384L23.8829 32.4807C23.711 32.5255 23.5472 32.5967 23.3961 32.6925C23.2433 32.7894 23.1187 32.9267 23.0266 33.1029L23.0266 33.1029C22.9364 33.2753 22.8893 33.4781 22.8893 33.7078C22.8893 33.9126 22.9277 34.0955 23.0011 34.2529C23.0764 34.4143 23.1764 34.5431 23.2969 34.6381C23.4156 34.7317 23.5485 34.8172 23.692 34.8921L23.692 34.8921C23.8348 34.9667 23.978 35.0346 24.1173 35.094L24.1173 35.094C24.2549 35.1527 24.3834 35.2143 24.4991 35.2772L24.4992 35.2772C24.6084 35.3367 24.7001 35.4132 24.769 35.5057L24.769 35.5058C24.8359 35.5957 24.8685 35.6969 24.8685 35.8103C24.8685 35.9672 24.8139 36.0908 24.6896 36.1762M23.9763 33.839C23.9077 33.7776 23.8757 33.7123 23.8757 33.6337C23.8757 33.5317 23.913 33.4603 23.9964 33.4023M24.6896 36.1762C24.562 36.264 24.4018 36.3044 24.2203 36.3044C24.0847 36.3044 23.9572 36.2804 23.8425 36.2309M24.6896 36.1762L23.5809 36.0697M23.5809 36.0697C23.6442 36.1312 23.7344 36.1844 23.8425 36.2309M23.8425 36.2309C23.8425 36.2309 23.8424 36.2309 23.8424 36.2309L23.882 36.1391L23.8425 36.2309ZM24.0781 35.186C23.9363 35.1255 23.7908 35.0565 23.6457 34.9808C23.497 34.9032 23.3588 34.8143 23.2349 34.7167C23.1008 34.6108 22.9916 34.469 22.9105 34.2952C22.8301 34.1228 22.7893 33.9251 22.7893 33.7078C22.7893 33.4643 22.8393 33.2452 22.938 33.0565L24.0781 35.186ZM24.0781 35.186C24.2132 35.2436 24.3388 35.3039 24.4514 35.365L24.0781 35.186ZM23.9964 33.4023C24.0928 33.3353 24.2387 33.3014 24.43 33.3014C24.609 33.3014 24.7731 33.3362 24.9177 33.4047L23.9964 33.4023Z" fill="#FFD300" stroke="black" stroke-width="0.2"/>
<path d="M30.6704 35.0537L30.6704 35.0537C30.5675 34.8586 30.4388 34.7106 30.2897 34.6098L30.2897 34.6098C30.1438 34.5112 29.9825 34.4178 29.8099 34.3325C29.6377 34.2476 29.4768 34.1766 29.3315 34.1212L29.3671 34.0278M30.6704 35.0537L28.4643 32.6925C28.6155 32.5967 28.7793 32.5255 28.9511 32.4807C29.2176 32.4116 29.5053 32.3945 29.8426 32.4361L29.8548 32.3369M30.6704 35.0537C30.7708 35.2441 30.8233 35.4707 30.8231 35.73V35.7301C30.8231 36.1696 30.6793 36.5044 30.4042 36.7383L30.4042 36.7383C30.1317 36.9703 29.7676 37.092 29.3132 37.092C28.9133 37.092 28.5692 37.0078 28.2871 36.846L28.2871 36.8459C27.9742 36.6666 27.8465 36.4753 27.8465 36.2851C27.8465 36.1854 27.8826 36.0808 27.9628 35.973M30.6704 35.0537L27.9628 35.973M29.3671 34.0278L29.3316 34.1213C29.1934 34.0688 29.0737 33.9994 28.9778 33.9135L29.0446 33.839M29.3671 34.0278C29.5159 34.0845 29.6798 34.1569 29.8542 34.2429C30.0305 34.33 30.1958 34.4256 30.3457 34.527C30.5106 34.6384 30.6496 34.7999 30.7588 35.0071C30.868 35.214 30.9234 35.4572 30.9231 35.7301C30.9231 36.1934 30.7703 36.5583 30.469 36.8145C30.1747 37.065 29.7858 37.192 29.3132 37.192C28.8993 37.192 28.5373 37.1048 28.2373 36.9327C27.9116 36.746 27.7465 36.5281 27.7465 36.2851C27.7465 36.1597 27.7923 36.0347 27.8826 35.9133M29.3671 34.0278C29.2381 33.9788 29.1296 33.9153 29.0446 33.839M29.0446 33.839L28.9779 33.9136C28.8921 33.8367 28.844 33.7457 28.844 33.6337C28.844 33.5702 28.8557 33.5103 28.8844 33.4552C28.9131 33.4002 28.9555 33.3564 29.0075 33.3202L29.0076 33.3202C29.1284 33.2362 29.2983 33.2014 29.4983 33.2014C29.6904 33.2014 29.8693 33.2388 30.0288 33.3144L30.0288 33.3144C30.2841 33.4357 30.3299 33.4357 30.3491 33.4357H30.3491C30.4266 33.4357 30.5361 33.4103 30.6201 33.268C30.6831 33.1609 30.7122 33.0584 30.7122 32.9626C30.7122 32.8567 30.6665 32.7585 30.5707 32.6769L30.6356 32.6008M29.0446 33.839C28.976 33.7776 28.944 33.7123 28.944 33.6337C28.944 33.5317 28.9813 33.4603 29.0646 33.4023L29.5196 35.365M30.6356 32.6008L30.5709 32.677C30.4839 32.6031 30.3693 32.546 30.2269 32.5099L30.2514 32.4129M30.6356 32.6008C30.5349 32.5152 30.4057 32.452 30.2514 32.4129M30.6356 32.6008C30.7512 32.6993 30.8122 32.8243 30.8122 32.9626C30.8122 33.0793 30.7766 33.1991 30.7063 33.3187C30.6005 33.4981 30.4537 33.5357 30.3491 33.5357L28.926 32.384C29.2063 32.3113 29.5068 32.294 29.8548 32.3369M30.2514 32.4129L30.227 32.5099C30.0917 32.4758 29.9624 32.451 29.8425 32.4361L29.8548 32.3369M30.2514 32.4129C30.1128 32.378 29.9794 32.3524 29.8548 32.3369M29.5196 35.365C29.6179 35.4186 29.6979 35.486 29.7571 35.5654C29.8107 35.6376 29.8368 35.7177 29.8368 35.8103C29.8368 35.9402 29.7938 36.0302 29.7012 36.0938C29.5945 36.1672 29.4557 36.2044 29.2886 36.2044C29.1648 36.2044 29.051 36.1825 28.9503 36.1391M29.5196 35.365C29.4071 35.3039 29.2815 35.2436 29.1464 35.186L29.5196 35.365ZM28.9503 36.1391C28.8476 36.0949 28.7698 36.0475 28.7188 35.9979C28.6506 35.9318 28.5797 35.8708 28.5082 35.8168C28.4141 35.7456 28.3265 35.711 28.2404 35.711C28.1458 35.711 28.007 35.7462 27.8826 35.9133M28.9503 36.1391L28.9107 36.2309C28.9107 36.2309 28.9107 36.2309 28.9107 36.2309M28.9503 36.1391L28.9107 36.2309M27.8826 35.9133L27.9628 35.973M27.8826 35.9133L27.9628 35.9731C27.9628 35.9731 27.9628 35.973 27.9628 35.973M27.9628 35.973C28.0667 35.8335 28.1745 35.811 28.2404 35.811C28.2979 35.811 28.3648 35.8337 28.4478 35.8965L28.4479 35.8966C28.5159 35.948 28.5837 36.0062 28.6492 36.0697M27.9628 35.973L28.6492 36.0697M28.6492 36.0697C28.7124 36.1312 28.8026 36.1844 28.9107 36.2309M28.6492 36.0697L29.7579 36.1762C29.6303 36.264 29.47 36.3044 29.2886 36.3044C29.153 36.3044 29.0255 36.2804 28.9107 36.2309M28.0949 33.1029L28.0949 33.1029C28.0047 33.2753 27.9575 33.4781 27.9575 33.7078C27.9575 33.9126 27.996 34.0955 28.0694 34.2529C28.1446 34.4143 28.2447 34.5431 28.3651 34.6381L28.0949 33.1029ZM28.0949 33.1029C28.187 32.9267 28.3116 32.7894 28.4643 32.6925L28.0949 33.1029Z" fill="#FFD300" stroke="black" stroke-width="0.2"/>
</g>
</g>
<rect x="4.25" y="0.25" width="34.1154" height="44.5" rx="4.75" stroke="black" stroke-width="0.5"/>
</g>
<defs>
<filter id="filter0_d" x="0" y="0" width="42.6154" height="53" filterUnits="userSpaceOnUse" color-interpolation-filters="sRGB">
<feFlood flood-opacity="0" result="BackgroundImageFix"/>
<feColorMatrix in="SourceAlpha" type="matrix" values="0 0 0 0 0 0 0 0 0 0 0 0 0 0 0 0 0 0 127 0"/>
<feOffset dy="4"/>
<feGaussianBlur stdDeviation="2"/>
<feColorMatrix type="matrix" values="0 0 0 0 0 0 0 0 0 0 0 0 0 0 0 0 0 0 0.25 0"/>
<feBlend mode="normal" in2="BackgroundImageFix" result="effect1_dropShadow"/>
<feBlend mode="normal" in="SourceGraphic" in2="effect1_dropShadow" result="shape"/>
</filter>
<filter id="filter1_d" x="9.23077" y="3.84619" width="24.9231" height="32.6154" filterUnits="userSpaceOnUse" color-interpolation-filters="sRGB">
<feFlood flood-opacity="0" result="BackgroundImageFix"/>
<feColorMatrix in="SourceAlpha" type="matrix" values="0 0 0 0 0 0 0 0 0 0 0 0 0 0 0 0 0 0 127 0"/>
<feOffset dy="4"/>
<feGaussianBlur stdDeviation="2"/>
<feColorMatrix type="matrix" values="0 0 0 0 0 0 0 0 0 0 0 0 0 0 0 0 0 0 0.25 0"/>
<feBlend mode="normal" in2="BackgroundImageFix" result="effect1_dropShadow"/>
<feBlend mode="normal" in="SourceGraphic" in2="effect1_dropShadow" result="shape"/>
</filter>
<filter id="filter2_d" x="8.46154" y="32.3076" width="26.4615" height="12.8844" filterUnits="userSpaceOnUse" color-interpolation-filters="sRGB">
<feFlood flood-opacity="0" result="BackgroundImageFix"/>
<feColorMatrix in="SourceAlpha" type="matrix" values="0 0 0 0 0 0 0 0 0 0 0 0 0 0 0 0 0 0 127 0"/>
<feOffset dy="4"/>
<feGaussianBlur stdDeviation="2"/>
<feColorMatrix type="matrix" values="0 0 0 0 0 0 0 0 0 0 0 0 0 0 0 0 0 0 0.25 0"/>
<feBlend mode="normal" in2="BackgroundImageFix" result="effect1_dropShadow"/>
<feBlend mode="normal" in="SourceGraphic" in2="effect1_dropShadow" result="shape"/>
</filter>
<clipPath id="clip0">
<rect x="4" width="34.6154" height="45" rx="5" fill="white"/>
</clipPath>
</defs>
</svg>
