<svg width="100" height="100" viewBox="0 0 100 100" fill="none" xmlns="http://www.w3.org/2000/svg">
<path d="M74.3008 53.1738L73.7851 57.8125L73.4375 60.9375H29.6875L29.3398 57.8125L28.8242 53.1738C28.3658 49.0454 28.9849 44.8687 30.6211 41.0507C32.0623 37.686 32.7169 34.0367 32.5351 30.3808L32.2637 24.9746C32.1331 22.3592 32.5355 19.7446 33.4465 17.2895C34.3574 14.8345 35.7579 12.5902 37.5628 10.6929C39.3677 8.79568 41.5394 7.2851 43.946 6.25292C46.3526 5.22073 48.9439 4.68848 51.5625 4.68848C54.1811 4.68848 56.7724 5.22073 59.179 6.25292C61.5856 7.2851 63.7573 8.79568 65.5622 10.6929C67.3671 12.5902 68.7676 14.8345 69.6785 17.2895C70.5894 19.7446 70.9919 22.3592 70.8613 24.9746L70.5898 30.3808C70.408 34.0367 71.0627 37.686 72.5039 41.0507C74.1406 44.8685 74.7597 49.0454 74.3008 53.1738Z" fill="#8F4D2E"/>
<path d="M74.3008 53.1738L73.7852 57.8125H56.25V40.625L59.375 34.375V21.875C59.373 18.1083 58.1349 14.4463 55.8507 11.4511C53.5665 8.45601 50.3625 6.29328 46.7305 5.29492C49.665 4.54168 52.7354 4.48822 55.6943 5.13885C58.6532 5.78947 61.418 7.126 63.7658 9.04076C66.1136 10.9555 67.9789 13.395 69.2114 16.1626C70.4438 18.9302 71.009 21.9486 70.8613 24.9746L70.5898 30.3809C70.408 34.0368 71.0627 37.686 72.5039 41.0508C74.1406 44.8686 74.7597 49.0454 74.3008 53.1738Z" fill="#82462A"/>
<path d="M60 54.6875C59.7127 54.6877 59.4282 54.6312 59.1627 54.5213C58.8972 54.4114 58.656 54.2503 58.4529 54.0471C58.2497 53.844 58.0886 53.6028 57.9787 53.3373C57.8688 53.0718 57.8123 52.7873 57.8125 52.5V42.1875H45.3125V52.5C45.3127 52.7873 45.2562 53.0718 45.1463 53.3373C45.0364 53.6028 44.8753 53.844 44.6721 54.0471C44.469 54.2503 44.2278 54.4114 43.9623 54.5213C43.6968 54.6312 43.4123 54.6877 43.125 54.6875H40.625V64.0625H62.5V54.6875H60Z" fill="#FEC9A3"/>
<path d="M52.5047 50C54.4394 49.9788 56.3101 49.3037 57.8125 48.0846V42.1875H45.3125V48.084C46.8149 49.3033 48.6855 49.9786 50.6203 50H52.5047Z" fill="#FEB784"/>
<path d="M65.625 25V32.8125C65.625 36.5421 64.1434 40.119 61.5062 42.7562C58.869 45.3934 55.2921 46.875 51.5625 46.875C47.8329 46.875 44.256 45.3934 41.6188 42.7562C38.9816 40.119 37.5 36.5421 37.5 32.8125V25C40.5723 22.9527 43.0566 20.1385 44.707 16.8359L45.3125 15.625L46.1992 16.3652C50.0815 19.6003 54.5568 22.0482 59.375 23.5723C61.4156 24.219 63.506 24.6966 65.625 25Z" fill="#FEC9A3"/>
<path d="M65.625 25V32.8125C65.6243 36.0765 64.4887 39.2387 62.4128 41.7575C60.3369 44.2763 57.4499 45.995 54.2461 46.6191C55.8729 45.0223 57.1645 43.1168 58.0452 41.0142C58.9259 38.9117 59.378 36.6545 59.375 34.375V23.5723C61.4156 24.219 63.506 24.6966 65.625 25Z" fill="#FEC093"/>
<path d="M44.5313 31.25C44.0677 31.25 43.6146 31.1125 43.2291 30.855C42.8437 30.5975 42.5433 30.2314 42.3659 29.8032C42.1885 29.3749 42.1421 28.9037 42.2325 28.449C42.323 27.9944 42.5462 27.5767 42.874 27.249C43.2017 26.9212 43.6194 26.698 44.074 26.6075C44.5287 26.5171 44.9999 26.5635 45.4282 26.7409C45.8564 26.9183 46.2225 27.2187 46.48 27.6041C46.7375 27.9896 46.875 28.4427 46.875 28.9063C46.8743 29.5276 46.6272 30.1234 46.1878 30.5628C45.7484 31.0022 45.1526 31.2493 44.5313 31.25Z" fill="#7A432A"/>
<path d="M58.5937 31.25C58.1302 31.25 57.6771 31.1125 57.2916 30.855C56.9062 30.5975 56.6058 30.2314 56.4284 29.8032C56.251 29.3749 56.2046 28.9037 56.295 28.449C56.3855 27.9944 56.6087 27.5767 56.9365 27.249C57.2642 26.9212 57.6819 26.698 58.1365 26.6075C58.5911 26.5171 59.0624 26.5635 59.4907 26.7409C59.9189 26.9183 60.285 27.2187 60.5425 27.6041C60.8 27.9896 60.9375 28.4427 60.9375 28.9063C60.9368 29.5276 60.6897 30.1234 60.2503 30.5628C59.8109 31.0022 59.2151 31.2493 58.5937 31.25Z" fill="#7A432A"/>
<path d="M51.5625 39.0625C50.3197 39.0611 49.1283 38.5668 48.2495 37.688C47.3707 36.8092 46.8764 35.6178 46.875 34.375H50C50 34.7894 50.1646 35.1868 50.4576 35.4799C50.7507 35.7729 51.1481 35.9375 51.5625 35.9375C51.9769 35.9375 52.3743 35.7729 52.6674 35.4799C52.9604 35.1868 53.125 34.7894 53.125 34.375H56.25C56.2486 35.6178 55.7543 36.8092 54.8755 37.688C53.9967 38.5668 52.8053 39.0611 51.5625 39.0625Z" fill="#F7A468"/>
<path d="M43.75 60.9375H59.375V71.875H43.75V60.9375Z" fill="#E0E0DE"/>
<path d="M83.3926 95.2481C82.2841 95.4327 81.1461 95.2177 80.1814 94.6414C79.2167 94.0652 78.4879 93.1651 78.125 92.1016L67.8047 72.7402C68.4618 74.7047 68.6064 76.8045 68.225 78.8405C67.8436 80.8766 66.9486 82.7816 65.625 84.375V96.875H37.5V84.375C36.1572 82.7632 35.2531 80.832 34.8754 78.7684C34.4976 76.7048 34.659 74.5787 35.3438 72.5957L24.8555 92.1016C24.4529 93.2854 23.5989 94.2622 22.4795 94.8194C21.3601 95.3766 20.0659 95.4689 18.8787 95.0764C17.6916 94.6838 16.7075 93.8381 16.1409 92.7235C15.5743 91.6088 15.471 90.3155 15.8535 89.125L27.3262 60.5684C28.0233 58.8316 29.2244 57.3433 30.7748 56.2952C32.3253 55.2471 34.1539 54.6872 36.0254 54.6875H42.1875L51.5625 71.875L60.9375 54.6875H67.0762C68.9529 54.6888 70.7861 55.2528 72.3389 56.3068C73.8918 57.3607 75.0929 58.856 75.7871 60.5996L87.1289 89.125C87.3361 89.7731 87.4014 90.4581 87.3205 91.1337C87.2395 91.8092 87.0142 92.4595 86.6598 93.0403C86.3054 93.621 85.8302 94.1188 85.2665 94.4997C84.7028 94.8807 84.0637 95.1359 83.3926 95.2481Z" fill="#EC8C8C"/>
<path d="M14.498 89.6504L15.625 75H25V90.0537C25 91.4484 24.446 92.786 23.4597 93.7722C22.4735 94.7585 21.1359 95.3125 19.7412 95.3125C19.0166 95.3125 18.2999 95.1628 17.6359 94.8727C16.9719 94.5826 16.3751 94.1585 15.8827 93.6268C15.3904 93.0952 15.0133 92.4675 14.775 91.7832C14.5367 91.099 14.4424 90.3728 14.498 89.6504Z" fill="#F59898"/>
<path d="M19.301 52.2071C18.8594 52.3175 18.4483 52.5256 18.0979 52.8162C17.7476 53.1067 17.4669 53.4722 17.2767 53.8857C17.0865 54.2992 16.9916 54.7502 16.999 55.2053C17.0065 55.6604 17.116 56.108 17.3195 56.5151L18.75 59.375H13.1506C11.6952 59.3751 10.2598 59.0362 8.95801 58.3854L7.40098 57.6069C7.11512 57.464 6.79748 57.3965 6.47821 57.4109C6.15894 57.4252 5.84865 57.521 5.57678 57.689C5.30492 57.857 5.08051 58.0917 4.92487 58.3708C4.76923 58.65 4.68752 58.9642 4.6875 59.2838V63.6936C4.6875 64.274 4.84912 64.8429 5.15424 65.3365C5.45937 65.8302 5.89594 66.2292 6.41504 66.4887L8.95801 67.7604C10.2598 68.4112 11.6952 68.7501 13.1506 68.75H25V59.375L22.8604 54.026C22.5872 53.3438 22.0761 52.7836 21.4217 52.4491C20.7673 52.1147 20.0139 52.0287 19.301 52.2071Z" fill="#FEC9A3"/>
<path d="M15.625 68.75H25V75H15.625V68.75Z" fill="#E0E0DE"/>
<path d="M83.3926 95.248C82.2841 95.4327 81.1461 95.2177 80.1814 94.6414C79.2167 94.0652 78.4879 93.1651 78.125 92.1016L67.8047 72.7402C68.4618 74.7047 68.6064 76.8045 68.225 78.8405C67.8436 80.8766 66.9486 82.7816 65.625 84.375V96.875H38.0137C50.9102 88.4531 61.791 77.7656 70.9238 55.5156C73.1444 56.5134 74.8888 58.337 75.7871 60.5996L87.1289 89.125C87.3361 89.7731 87.4014 90.4581 87.3205 91.1337C87.2395 91.8092 87.0142 92.4595 86.6598 93.0402C86.3054 93.621 85.8302 94.1188 85.2665 94.4997C84.7027 94.8807 84.0637 95.1359 83.3926 95.248Z" fill="#E07F7F"/>
<path d="M73.4375 90.625L57.8125 87.5V65.625L73.4375 68.75V90.625Z" fill="#A36548"/>
<path d="M79.6875 90.625L95.3125 87.5V65.625L79.6875 68.75V90.625Z" fill="#8F4D2E"/>
<path d="M73.4375 68.75H79.6875V90.625H73.4375V68.75Z" fill="#95573A"/>
<path d="M76.5625 68.75C76.5625 67.4402 76.0978 66.1728 75.2512 65.1734C74.4046 64.1739 73.2309 63.5072 71.9389 63.2918L57.8125 60.9375V65.625L73.4375 68.75H76.5625C76.5625 67.4402 77.0272 66.1728 77.8738 65.1734C78.7204 64.1739 79.8941 63.5072 81.1861 63.2918L95.3125 60.9375V65.625L79.6875 68.75H76.5625Z" fill="#D4BD81"/>
<path d="M92.4443 90.476L86.1943 91.5178C85.9705 91.5551 85.7412 91.5432 85.5225 91.4829C85.3037 91.4226 85.1007 91.3154 84.9275 91.1687C84.7544 91.0221 84.6153 90.8394 84.5199 90.6335C84.4244 90.4277 84.375 90.2035 84.375 89.9765V84.1689C84.375 83.6875 84.5457 83.2217 84.8568 82.8543C85.168 82.487 85.5994 82.2419 86.0742 82.1627L91.3813 81.2781C91.6727 81.2295 91.9712 81.2449 92.256 81.3234C92.5409 81.4018 92.8052 81.5414 93.0307 81.7323C93.2561 81.9233 93.4372 82.1611 93.5615 82.4291C93.6857 82.6972 93.75 82.9891 93.75 83.2845V88.9348C93.75 89.3046 93.6188 89.6625 93.3797 89.9447C93.1406 90.2269 92.8092 90.4152 92.4443 90.476Z" fill="#FEC9A3"/>
</svg>
