<svg width="117" height="100" viewBox="0 0 117 100" fill="none" xmlns="http://www.w3.org/2000/svg">
<path d="M109.091 1.81836H7.27266C4.18173 1.81836 1.81805 4.18203 1.81805 7.27296V74.9093C1.81805 78.0003 4.18173 80.3639 7.27266 80.3639H109.091C112.182 80.3639 114.545 78.0003 114.545 74.9093V7.27273C114.545 4.36367 112.182 1.81836 109.091 1.81836Z" fill="#E1E6E9"/>
<path d="M109.091 82.1819H7.27265C3.27258 82.1819 0 78.9091 0 74.9092V7.27265C0 3.27258 3.27281 0 7.27265 0H109.091C113.091 0 116.363 3.27281 116.363 7.27265V74.909C116.364 78.9091 113.091 82.1819 109.091 82.1819ZM7.27265 3.63633C5.27273 3.63633 3.63633 5.27273 3.63633 7.27265V74.909C3.63633 76.9089 5.27273 78.5453 7.27265 78.5453H109.091C111.091 78.5453 112.727 76.9089 112.727 74.909V7.27265C112.727 5.27273 111.091 3.63633 109.091 3.63633H7.27265Z" fill="#193651"/>
<path d="M107.273 9.09094H9.09091V64.1819H107.273V9.09094Z" fill="white"/>
<path d="M70.1817 80.3636H46.1817L39.4544 98.1818H76.9089L70.1817 80.3636Z" fill="#CFD0D1"/>
<path d="M76.9089 100H39.4544C38.909 100 38.3634 99.6362 37.9999 99.2727C37.6361 98.7273 37.6361 98.1817 37.818 97.6363L44.3634 79.8182C44.5453 79.0909 45.2725 78.5455 45.9998 78.5455H70.1817C70.9089 78.5455 71.6362 79.0909 71.8181 79.8182L78.3635 97.2728C78.5453 97.6365 78.5453 97.8182 78.5453 98.1819C78.7272 99.0908 77.8181 100 76.9089 100ZM42.1818 96.3637H74.3636L69.0909 82.1819H47.4546L42.1818 96.3637Z" fill="#193651"/>
<path d="M81.0909 100H35.2727C34.1817 100 33.4544 99.2727 33.4544 98.1817C33.4544 97.0907 34.1817 96.3634 35.2727 96.3634H80.909C82 96.3634 82.7273 97.0907 82.7273 98.1817C82.9089 99.0908 82 100 81.0909 100Z" fill="#193651"/>
<path d="M91.8182 45.4543C89.6364 47.9999 86.5455 49.4544 83.091 49.4544C79.6366 49.4544 76.5456 47.818 74.3639 45.4543C70.0003 48.5453 66.1821 53.4543 66.1821 59.2726H100C100 53.4545 96.3637 48.5453 91.8182 45.4543Z" fill="#2EA2DB"/>
<path d="M83.0908 45.8181C87.8104 45.8181 91.6363 41.5852 91.6363 36.3636C91.6363 31.1421 87.8104 26.9092 83.0908 26.9092C78.3712 26.9092 74.5453 31.1421 74.5453 36.3636C74.5453 41.5852 78.3712 45.8181 83.0908 45.8181Z" fill="#FDBF5E"/>
<path d="M47.4546 59.6364L37.091 42.7272L26.5455 59.6364L24.3638 58.3635L37.091 37.6364L49.8183 58.3635L47.4546 59.6364Z" fill="#193651"/>
<path d="M56.7271 13.6364H17.2727C15.2728 13.6364 13.6364 15.2728 13.6364 17.2727V42.7272C13.6364 44.7271 15.2728 46.3635 17.2727 46.3635H56.7271C58.7271 46.3635 60.3635 44.7271 60.3635 42.7272V17.2727C60.3637 15.2728 58.7273 13.6364 56.7271 13.6364Z" fill="#F16051"/>
<path d="M23.4546 33.091L22.3636 35.4546H20.5453L25.2727 24.9092H27.0909L31.8183 35.4546H30L28.909 33.091H23.4546ZM28.0001 31.4546L26.0002 27.091L24.0002 31.4546H28.0001Z" fill="white"/>
<path d="M39.0909 27.4545C40.1819 27.4545 41.0908 27.8182 41.8181 28.5455C42.5454 29.2728 42.9091 30.3638 42.9091 31.4545C42.9091 32.7272 42.5454 33.6363 41.8181 34.5455C41.0908 35.2727 40.1817 35.6365 39.0909 35.6365C37.9999 35.6365 37.091 35.2727 36.3637 34.3638V35.6365H34.7273V24.3638H36.3637V28.9092C37.091 27.8182 37.9999 27.4545 39.0909 27.4545ZM36.3637 31.6364C36.3637 32.3637 36.5456 33.091 37.091 33.4547C37.6364 34.0001 38.182 34.182 38.7274 34.182C39.4547 34.182 40.0001 34.0001 40.5457 33.4547C41.0913 32.9093 41.2729 32.3637 41.2729 31.6364C41.2729 30.9092 41.0911 30.1819 40.5457 29.6365C40.0003 29.0911 39.4547 28.9092 38.7274 28.9092C38.0001 28.9092 37.4547 29.0911 37.091 29.6365C36.5454 30.1819 36.3637 30.7273 36.3637 31.6364Z" fill="white"/>
<path d="M50.1818 35.6365C49.0908 35.6365 48.1819 35.2727 47.2727 34.5455C46.5455 33.8182 46.0001 32.7272 46.0001 31.6364C46.0001 30.3638 46.3638 29.4546 47.2727 28.5455C48.1819 27.8182 49.091 27.4545 50.3637 27.4545C51.6363 27.4545 52.5454 27.8182 53.4546 28.7271L52.5454 29.9998C51.8182 29.4544 51.0909 29.0906 50.3637 29.0906C49.6364 29.0906 49.091 29.2725 48.5454 29.8179C47.9997 30.3633 47.8181 30.9089 47.8181 31.6362C47.8181 32.3634 48 33.0907 48.5454 33.4545C49.0908 33.9999 49.6364 34.1817 50.3637 34.1817C51.0909 34.1817 51.8182 33.818 52.5454 33.0907L53.4546 34.1817C52.7273 35.2727 51.4544 35.6365 50.1818 35.6365Z" fill="white"/>
<path d="M44.7272 73.9998C45.9321 73.9998 46.909 73.023 46.909 71.818C46.909 70.6131 45.9321 69.6362 44.7272 69.6362C43.5222 69.6362 42.5454 70.6131 42.5454 71.818C42.5454 73.023 43.5222 73.9998 44.7272 73.9998Z" fill="#CFD0D1"/>
<path d="M58.1817 74.909C59.8888 74.909 61.2726 73.5252 61.2726 71.8181C61.2726 70.111 59.8888 68.7272 58.1817 68.7272C56.4746 68.7272 55.0908 70.111 55.0908 71.8181C55.0908 73.5252 56.4746 74.909 58.1817 74.909Z" fill="#CFD0D1"/>
<path d="M71.6362 73.9998C72.8412 73.9998 73.818 73.023 73.818 71.818C73.818 70.6131 72.8412 69.6362 71.6362 69.6362C70.4312 69.6362 69.4544 70.6131 69.4544 71.818C69.4544 73.023 70.4312 73.9998 71.6362 73.9998Z" fill="#CFD0D1"/>
<path d="M75.0909 17.6365H71.4546V21.2728H75.0909V17.6365Z" fill="#193651"/>
<path d="M84.9091 17.6365H81.2728V21.2728H84.9091V17.6365Z" fill="#193651"/>
<path d="M94.7273 17.6365H91.091V21.2728H94.7273V17.6365Z" fill="#193651"/>
</svg>
