<svg width="110" height="100" viewBox="0 0 110 100" fill="none" xmlns="http://www.w3.org/2000/svg">
<path d="M103.774 0H5.66038C2.53424 0 0 2.53424 0 5.66038V73.5849C0 76.7111 2.53424 79.2453 5.66038 79.2453H103.774C106.9 79.2453 109.434 76.7111 109.434 73.5849V5.66038C109.434 2.53424 106.9 0 103.774 0Z" fill="#04957C"/>
<path d="M54.4969 14.4486C52.9957 14.4486 51.556 15.045 50.4944 16.1065C49.4329 17.168 48.8366 18.6078 48.8366 20.109V23.8826C48.8358 24.6789 49.0035 25.4665 49.3287 26.1934C49.6538 26.9204 50.1291 27.5703 50.7233 28.1005V35.1724H58.2705V28.1005C58.8647 27.5703 59.3401 26.9204 59.6653 26.1934C59.9904 25.4665 60.1581 24.6789 60.1573 23.8826V20.109C60.1573 18.6078 59.5609 17.168 58.4994 16.1065C57.4379 15.045 55.9982 14.4486 54.4969 14.4486Z" fill="#FDC9A6"/>
<path d="M48.8366 20.0781L48.8059 23.1441L52.2071 20.0781H60.1573L62.6271 17.6083C63.5126 16.7227 64.049 15.5474 64.1378 14.2982C64.2266 13.049 63.8618 11.8097 63.1104 10.8078C62.3124 9.74367 61.1372 9.02555 59.8262 8.80101C58.5152 8.57647 57.1679 8.86256 56.0613 9.6005L54.496 10.6441H50.6281C49.4814 10.6441 48.3816 11.0996 47.5707 11.9104C46.8639 12.6174 46.4238 13.5474 46.3253 14.5422C46.2267 15.5371 46.4759 16.5354 47.0304 17.3672L48.8366 20.0781Z" fill="#683B0D"/>
<path d="M79.2453 37.7359L75.4717 49.0566L69.3321 39.8472C68.416 38.4732 67.0982 37.4155 65.5585 36.8186L58.2707 33.9932L50.9434 33.9623L41.1276 36.7668C40.0586 37.0722 39.0649 37.5965 38.2094 38.3066C37.3539 39.0166 36.6554 39.8967 36.1582 40.8911L30.9356 51.3363C30.4444 52.3188 30.1887 53.4021 30.1887 54.5005V54.8543C30.1889 56.432 30.7165 57.9644 31.6875 59.208C32.6586 60.4515 34.0174 61.3348 35.5481 61.7175L45.283 64.151V69.8113H64.1509V50.9434L69.3495 56.142C70.8533 57.6458 72.8929 58.4906 75.0196 58.4906H75.5148C77.1609 58.4906 78.767 57.984 80.1153 57.0397C81.4635 56.0953 82.4884 54.759 83.0509 53.212L88.6792 37.7359H79.2453ZM45.283 56.6038L39.6226 54.717L45.283 45.283V56.6038Z" fill="#2CBFF4"/>
<path d="M81.1321 20.7548V24.5283C81.1321 25.5292 81.5297 26.489 82.2373 27.1967C82.945 27.9044 83.9048 28.3019 84.9057 28.3019C85.9065 28.3019 86.8663 27.9044 87.574 27.1967C88.2817 26.489 88.6793 25.5292 88.6793 24.5283V20.7548H81.1321Z" fill="#CBCBCB"/>
<path d="M45.283 60.3774V45.2831L54.717 47.1699L64.151 45.2831V60.3774L54.717 62.2642L45.283 60.3774Z" fill="#D32B39"/>
<path d="M81.1321 37.7358L79.2453 32.0755L83.0189 28.3019H86.7925L88.6793 32.0755L86.7925 37.7358H81.1321Z" fill="#FDC9A6"/>
<path d="M81.1321 20.7547L78.9192 17.4353C78.4276 16.6979 78.0956 15.8659 77.9443 14.9927C77.7931 14.1195 77.826 13.2243 78.0409 12.3646C78.3849 10.9886 79.1791 9.76702 80.2971 8.89415C81.4151 8.02128 82.7928 7.54714 84.2111 7.54712H85.6003C87.0187 7.54716 88.3964 8.02132 89.5144 8.89424C90.6324 9.76716 91.4265 10.9887 91.7706 12.3648C91.9855 13.2246 92.0183 14.1198 91.8671 14.993C91.7158 15.8662 91.3838 16.6982 90.8923 17.4356L88.6793 20.7547H81.1321Z" fill="#FBB540"/>
<path d="M31.6038 92.4529H77.8302C78.7059 92.4529 79.5457 92.8008 80.165 93.42C80.7842 94.0392 81.1321 94.8791 81.1321 95.7548V100H28.3019V95.7548C28.3019 94.8791 28.6498 94.0392 29.269 93.42C29.8882 92.8008 30.7281 92.4529 31.6038 92.4529Z" fill="#CBCBCB"/>
<path d="M71.6981 79.2452H62.2642C62.2642 81.2469 61.469 83.1665 60.0537 84.5819C58.6383 85.9973 56.7186 86.7924 54.717 86.7924C52.7154 86.7924 50.7957 85.9973 49.3804 84.5819C47.965 83.1665 47.1698 81.2469 47.1698 79.2452H37.7359L32.0755 92.4528H77.3585L71.6981 79.2452Z" fill="#A8A8A8"/>
<path d="M109.434 69.8113H0V73.5849C0 75.0861 0.59636 76.5258 1.65789 77.5874C2.71941 78.6489 4.15915 79.2452 5.66038 79.2452H103.774C105.275 79.2452 106.715 78.6489 107.776 77.5874C108.838 76.5258 109.434 75.0861 109.434 73.5849V69.8113Z" fill="#CBCBCB"/>
<path d="M45.283 56.6038H52.8302V64.1509H45.283V56.6038Z" fill="#FDC9A6"/>
<path d="M48.1792 83.0188H36.1179L37.7358 79.2452H47.1698C47.168 80.5701 47.5162 81.8718 48.1792 83.0188Z" fill="#656666"/>
<path d="M73.316 83.0188H61.2547C61.9177 81.8718 62.2659 80.5701 62.2641 79.2452H71.6981L73.316 83.0188Z" fill="#656666"/>
</svg>
