<svg width="100" height="100" viewBox="0 0 100 100" fill="none" xmlns="http://www.w3.org/2000/svg">
<path d="M79.7098 98.1171H20.2902L18.4074 96.2343V83.1756C18.4074 76.0224 21.49 69.5894 26.3992 65.1322H73.6008C78.51 69.5894 81.5926 76.0224 81.5926 83.1756V96.2343L79.7098 98.1171Z" fill="#86DCFF"/>
<path d="M19.4535 100H29.418L30.8828 98.2422L32.3477 100H67.6523L69.1172 98.2422L70.582 100H80.5465C81.1242 100 81.5926 99.5316 81.5926 98.9539V96.2344H18.4074V98.9541C18.4074 99.5316 18.8758 100 19.4535 100Z" fill="#56CAED"/>
<path d="M50 79.4059L65.7502 62.0752L65.6461 60.3063C63.0227 59.3398 60.1875 58.8115 57.2287 58.8115H42.7713C39.84 58.8115 37.0303 59.3301 34.4273 60.2793L34.5094 62.3609L50 79.4059Z" fill="#E4EEF9"/>
<path d="M34.3543 60.3073C33.5125 60.6174 32.6922 60.9717 31.8969 61.369L32.5445 64.1535L50 83.1715L67.633 63.958L68.1031 61.369C67.3078 60.9717 66.4875 60.6172 65.6457 60.3073L50.774 76.6711C50.359 77.1278 49.6408 77.1278 49.2258 76.6711L34.3543 60.3073Z" fill="#D5E0F2"/>
<path d="M50 79.406C50 79.406 52.7103 76.4235 54.4312 74.53L54.8193 72.2202L53.6652 65.8944L50 64.0112L46.3348 65.894L45.1807 72.2198L45.5687 74.5296L50 79.406Z" fill="#FF5876"/>
<path d="M53.6652 65.8942H46.3348L44.7359 58.8118H55.2641L53.6652 65.8942Z" fill="#E6485D"/>
<path d="M55.3916 75.3559L54.8193 72.22L50.774 76.6711C50.359 77.1278 49.6408 77.1278 49.2258 76.6711L45.1805 72.22L44.6082 75.3559L50 85.0543L55.3916 75.3559Z" fill="#E6485D"/>
<path d="M31.8969 61.3691C30.6551 61.9896 29.4732 62.7125 28.3631 63.5275L28.6033 65.6748L47.6775 86.6631C48.9227 88.0332 51.077 88.0332 52.3221 86.6631L71.6029 65.4475L71.6365 63.5275C70.5264 62.7127 69.3447 61.9896 68.1027 61.3691L50.7227 80.4934C50.3352 80.9197 49.6647 80.9197 49.2773 80.4934L31.8969 61.3691Z" fill="#FFCF4D"/>
<path d="M52.3223 84.7801C51.0772 86.1502 48.9229 86.1502 47.6777 84.7801L28.3635 63.5279C27.6809 64.0289 27.025 64.5642 26.3992 65.1324L47.6777 88.5457C48.9229 89.9158 51.0772 89.9158 52.3223 88.5457L73.6006 65.1322C72.9748 64.564 72.319 64.0289 71.6363 63.5277L52.3223 84.7801Z" fill="#FFB629"/>
<path d="M32.1086 38.0633L30.2258 32.9952C30.0016 32.9721 29.7742 32.9602 29.544 32.9602C26.5852 32.9602 24.0816 34.909 23.2469 37.593C23.0543 38.2124 23.2377 44.2645 29.544 44.2645L30.2762 42.3401L32.1086 38.0633Z" fill="#FFC4AD"/>
<path d="M29.5439 42.3815C26.5568 42.3815 24.0352 40.3946 23.2248 37.6708C23.0473 38.2677 22.9504 38.8991 22.9504 39.5536C22.9504 43.195 25.9023 46.1471 29.5439 46.1471C30.0047 46.1471 30.4541 46.0995 30.8883 46.0096L32.392 44.2643L30.2777 42.3397C30.0367 42.3667 29.792 42.3815 29.5439 42.3815Z" fill="#FFB69F"/>
<path d="M67.8914 38.0633L69.7742 32.9952C69.9984 32.9721 70.2258 32.9602 70.4561 32.9602C73.4148 32.9602 75.9184 34.909 76.7531 37.593C76.9457 38.2124 76.7623 44.2645 70.4561 44.2645L69.7238 42.3401L67.8914 38.0633Z" fill="#FFC4AD"/>
<path d="M70.4561 42.3815C73.4432 42.3815 75.9648 40.3946 76.7752 37.6708C76.9527 38.2677 77.0496 38.8991 77.0496 39.5536C77.0496 43.195 74.0977 46.1471 70.4561 46.1471C69.9953 46.1471 69.5459 46.0995 69.1117 46.0096L67.608 44.2643L69.7223 42.3397C69.9633 42.3667 70.208 42.3815 70.4561 42.3815Z" fill="#FFB69F"/>
<path d="M30.2258 12.6934V37.1547V39.0375C30.2258 49.9586 39.0791 58.8117 50 58.8117C60.9209 58.8117 69.7742 49.9586 69.7742 39.0375V37.1547V12.6934H30.2258Z" fill="#FFE0CC"/>
<path d="M50 56.9288C39.0791 56.9288 30.2258 48.0756 30.2258 37.1545V40.9202C30.2258 51.8413 39.0791 60.6944 50 60.6944C60.9209 60.6944 69.7742 51.8413 69.7742 40.9202V37.1545C69.7742 48.0756 60.9209 56.9288 50 56.9288Z" fill="#FFCEB3"/>
<path d="M68.8631 26.6887C65.3186 23.6663 62.2199 20.3213 62.2199 20.3213C56.5738 24.8596 52.3307 25.258 52.3307 25.258L48.1809 21.2086C41.1246 26.5241 32.9766 27.5737 30.7553 27.5184C30.4176 27.51 30.0832 27.4549 29.7596 27.3559C24.5834 25.7715 22.6277 22.6327 22.6277 22.6327C22.6277 22.6327 22.0229 21.2579 22.9777 21.0743C27.976 20.1127 29.733 16.6877 29.733 16.6877C24.1697 16.8559 22.3725 12.7315 21.8055 10.4641C21.6307 9.76527 22.1897 9.10687 22.9078 9.16332C33.2979 9.98109 35.8195 3.57797 45.5897 0.69242C55.7711 -2.31461 62.9797 5.4514 62.9797 5.4514C62.9797 5.4514 73.2982 4.45511 74.1836 14.9743C75.0299 25.0284 68.8631 26.6887 68.8631 26.6887Z" fill="#2D4456"/>
<path d="M69.0445 24.8673C66.5502 23.103 64.2611 19.8382 63.0731 17.9686C62.6816 17.3524 61.8031 17.3278 61.3563 17.905C57.0813 23.426 48.1809 21.2087 48.1809 21.2087C48.1809 21.2087 50.3666 23.885 50.3619 27.0288C50.3609 27.705 50.9799 28.2083 51.6391 28.0581C54.1512 27.4854 59.4096 25.6815 62.2199 20.3216C62.2199 20.3216 65.4139 26.0637 69.0424 28.6317C69.4686 28.9333 70.0516 28.8747 70.4084 28.4938C71.767 27.0434 74.7815 22.9063 74.1988 15.201C73.7647 20.5177 71.5295 23.5296 70.4109 24.7251C70.0537 25.1067 69.4715 25.1692 69.0445 24.8673Z" fill="#253847"/>
<path d="M48.402 19.9682C48.5439 18.9852 47.3658 18.3719 46.6516 19.062C40.3049 25.1936 32.8088 25.6868 30.7553 25.6356C30.4176 25.6272 30.0832 25.5721 29.7596 25.4731C27.2465 24.704 24.8156 22.8141 22.9775 21.0727C22.6131 21.1428 22.2316 21.2001 21.8324 21.242C20.9807 21.3313 20.5863 22.3481 21.1619 22.9823C22.9713 24.9758 26.2889 28.1764 29.7596 29.2387C30.0834 29.3377 30.4176 29.3928 30.7553 29.4012C32.9766 29.4565 41.5664 28.8749 48.1809 21.2086C48.2779 20.7391 48.35 20.328 48.402 19.9682Z" fill="#253847"/>
<path d="M32.3477 85.543V96.2344L30.8828 98.1172L29.418 96.2344V85.543C29.418 84.7324 30.0742 84.0781 30.8828 84.0781C31.6934 84.0781 32.3477 84.7324 32.3477 85.543Z" fill="#4EA1F4"/>
<path d="M29.418 96.2344H32.3477V100H29.418V96.2344Z" fill="#3292E0"/>
<path d="M70.582 85.543V96.2344L69.1172 98.1172L67.6523 96.2344V85.543C67.6523 84.7324 68.3086 84.0781 69.1172 84.0781C69.9277 84.0781 70.582 84.7324 70.582 85.543Z" fill="#4EA1F4"/>
<path d="M67.6523 96.2344H70.582V100H67.6523V96.2344Z" fill="#3292E0"/>
<path d="M50 50.9998C55.5777 50.9998 57.2641 47.0799 57.3377 46.9019C57.3379 46.9015 57.3381 46.901 57.3383 46.9008C57.7826 45.9023 56.9928 44.6974 55.8922 44.7221C55.2383 44.7221 54.6783 45.1222 54.4426 45.6908C54.3633 45.8588 53.3447 47.8619 50.0002 47.8619C46.6565 47.8619 45.6377 45.8599 45.5578 45.691C45.3221 45.1224 44.7621 44.7222 44.1082 44.7222C43.0076 44.6974 42.2178 45.9027 42.6621 46.901C42.6623 46.9012 42.6625 46.9019 42.6627 46.9021C42.7359 47.0799 44.4223 50.9998 50 50.9998Z" fill="#FF5876"/>
<path d="M40.4182 33.2738C39.5516 33.2738 38.8492 33.9763 38.8492 34.8427V39.276C38.8492 40.1426 39.5518 40.8449 40.4182 40.8449C41.2848 40.8449 41.9871 40.1424 41.9871 39.276V34.8427C41.9871 33.9763 41.2848 33.2738 40.4182 33.2738Z" fill="#2D4456"/>
<path d="M59.5818 40.8451C60.4484 40.8451 61.151 40.1426 61.151 39.2762V34.843C61.151 33.9764 60.4484 33.274 59.5818 33.274C58.7152 33.274 58.0129 33.9766 58.0129 34.843V39.2762C58.0129 40.1426 58.7152 40.8451 59.5818 40.8451Z" fill="#2D4456"/>
</svg>
