<svg id="Layer_1" enable-background="new 0 0 512 512" height="512" viewBox="0 0 512 512" width="512" xmlns="http://www.w3.org/2000/svg"><g><g><path clip-rule="evenodd" d="m171.164 54.083h167.49 2.663c12.125 0 22.041-9.916 22.041-22.042 0-10.993-8.131-20.172-18.698-21.787h-179.502c-10.567 1.615-18.698 10.794-18.698 21.787 0 12.126 9.916 22.042 22.041 22.042z" fill="#ffd4b5" fill-rule="evenodd"/></g><g><path clip-rule="evenodd" d="m146.149 259.683h217.521c7.536-18.897 10.312-38.87 8.216-58.532-2.125-19.803-9.207-39.267-21.446-57.002-7.734-11.247-14.024-20.88-17.848-30.598-6.573-16.602-6.091-33.544 6.063-59.467h-167.49c12.154 25.923 12.635 42.865 6.063 59.467-3.853 9.718-10.114 19.35-17.877 30.598-12.21 17.735-19.321 37.199-21.418 57.002-2.125 19.662.68 39.635 8.216 58.532z" fill="#ffa96b" fill-rule="evenodd"/></g><g><path clip-rule="evenodd" d="m176.349 305.608h157.121c13.57-13.911 23.656-29.521 30.2-45.925h-217.521c6.544 16.404 16.63 32.014 30.2 45.925z" fill="#ffd4b5" fill-rule="evenodd"/></g><g><path clip-rule="evenodd" d="m208.787 351.731h94.397 175.621c12.664 0 23.061-10.369 23.061-23.062s-10.397-23.062-23.061-23.062h-145.335-157.121-143.154c-12.664 0-23.004 10.313-23.061 22.948v.113.113c.057 12.636 10.397 22.948 23.061 22.948h175.592z" fill="#ffa96b" fill-rule="evenodd"/></g><g><path clip-rule="evenodd" d="m233.633 399.639h44.734 13.429c6.261 0 11.389-6.261 11.389-13.911v-33.997h-94.397v33.997c0 7.649 5.128 13.911 11.417 13.911z" fill="#e2e7ef" fill-rule="evenodd"/></g><g><path clip-rule="evenodd" d="m233.633 399.639h44.734v54.396h-44.734z" fill="#c3d3dd" fill-rule="evenodd"/></g><g><path clip-rule="evenodd" d="m143.344 502h225.312v-23.997c0-13.174-10.794-23.968-23.996-23.968h-66.293-44.734-66.322c-13.174 0-23.968 10.794-23.968 23.968v23.997z" fill="#ffa96b" fill-rule="evenodd"/></g><g><path d="m477.081 59.127h-47.879l10.41-10.411c3.905-3.905 3.905-10.237 0-14.142s-10.237-3.905-14.142 0l-27.48 27.481c-3.905 3.905-3.905 10.237 0 14.142l27.48 27.481c1.953 1.953 4.512 2.929 7.071 2.929s5.119-.977 7.071-2.929c3.905-3.905 3.906-10.237 0-14.142l-10.41-10.41h47.879c5.083 0 9.203-4.477 9.203-10s-4.12-9.999-9.203-9.999z"/><path d="m76.104 34.575c-3.905-3.905-10.237-3.905-14.142 0s-3.906 10.237 0 14.142l10.41 10.411h-48.197c-4.907 0-8.884 4.477-8.884 10s3.977 10 8.884 10h48.197l-10.41 10.41c-3.905 3.905-3.905 10.237 0 14.142 1.953 1.953 4.512 2.929 7.071 2.929s5.119-.977 7.071-2.929l27.48-27.481c3.905-3.905 3.905-10.236 0-14.142z"/></g><g><path d="m478.146 295.608h-123.106c19.559-26.669 28.846-57.398 27.412-87.789 28.125-11.699 43.544-27.337 43.544-45.198 0-25.426-31.205-46.337-85.871-57.758-3.319-11.66-2.162-23.809 5.134-41.03 16.122-1.988 28.578-15.991 28.085-32.752-.513-17.426-15.243-31.081-32.676-31.081h-171.517c-17.433 0-32.163 13.655-32.676 31.08-.493 16.761 11.962 30.764 28.085 32.752 7.298 17.224 8.453 29.373 5.13 41.031-54.663 11.421-85.867 32.332-85.867 57.757 0 12.688 7.885 30.344 43.541 45.135-1.445 30.414 7.844 61.167 27.415 87.853h-120.925c-18.498 0-34.03 15.137-33.715 33.633.306 17.968 15.017 32.491 33.056 32.491h165.592v23.998c0 13.185 9.608 23.911 21.417 23.911h3.429v34.396h-56.322c-18.76 0-33.968 15.208-33.968 33.968v23.995c0 5.523 4.477 10 10 10h67.424c5.326 0 9.977-4.019 10.321-9.335.377-5.824-4.235-10.665-9.978-10.665h-57.767v-13.997c0-7.714 6.254-13.968 13.968-13.968h177.349c7.717 0 13.996 6.266 13.996 13.968v13.997h-57.453c-5.326 0-9.977 4.019-10.321 9.335-.377 5.824 4.235 10.665 9.978 10.665h67.795c5.523 0 10-4.477 10-10v-23.997c0-18.73-15.25-33.968-33.996-33.968h-56.293v-34.396h3.429c11.794 0 21.389-10.726 21.389-23.911v-23.998h165.62c18.039 0 32.75-14.523 33.056-32.491.316-18.494-15.216-33.631-33.714-33.631zm-121.543-45.925h-203.388c-3.795-11.407-5.749-23.15-5.853-34.883 29.995 8.942 67.579 13.832 107.203 13.86 5.322.004 9.953-3.981 10.32-9.29.403-5.844-4.218-10.71-9.975-10.71-44 0-80.014-5.925-105.832-14.201 2.771-15.53 8.892-30.686 18.504-44.632 7.68-11.132 14.117-21.139 18.353-31.37.435-.771.763-1.601.982-2.469 5.708-15.133 6.443-31.005-.851-51.905h137.688c-7.3 20.918-6.559 36.801-.839 51.952.217.841.534 1.647.954 2.396 4.231 10.239 10.663 20.253 18.34 31.395 9.615 13.939 15.741 29.088 18.519 44.611-8.646 2.75-18.583 5.279-29.867 7.454-5.254 1.013-9.06 5.88-8.354 11.184.678 5.098 5.015 8.701 9.904 8.701.625 0 1.258-.059 1.894-.181 10.159-1.948 19.544-4.215 28.147-6.761-.107 11.723-2.059 23.453-5.849 34.849zm49.393-87.063c0 7.146-8.412 16.228-26.203 24.503-3.577-16.904-10.588-33.382-21.119-48.649-2.5-3.628-4.814-7.028-6.917-10.271 37.1 10.085 54.239 24.22 54.239 34.417zm-249.481-131.739c.587-6.239 6.072-10.881 12.339-10.881h172.111c6.267 0 11.752 4.642 12.339 10.881.674 7.159-4.964 13.202-11.986 13.202h-172.817c-7.022 0-12.659-6.042-11.986-13.202zm-52.693 131.739c0-10.195 17.132-24.326 54.216-34.41-2.105 3.241-4.42 6.638-6.922 10.264-10.521 15.265-17.525 31.74-21.099 48.639-17.003-7.913-26.195-16.809-26.195-24.493zm58.156 107.063h185.862c-4.981 9.088-11.221 17.795-18.699 25.925h-148.464c-7.477-8.129-13.717-16.836-18.699-25.925zm106.389 174.352h-24.733v-34.396h24.733zm24.818-58.306c0 .637-.084 1.206-.216 1.7-.349 1.309-1.544 2.21-2.898 2.21h-68.17c-1.353 0-2.548-.899-2.897-2.206-.132-.495-.216-1.065-.216-1.705v-23.998h74.397zm185.62-43.998h-445.23c-7.025 0-13.078-5.387-13.424-12.403-.37-7.5 5.625-13.72 13.045-13.72h445.23c7.025 0 13.078 5.387 13.424 12.403.369 7.5-5.626 13.72-13.045 13.72z"/><path d="m255.986 492c-7.036 0-12.375 7.266-8.921 14.705 1.531 3.297 4.959 5.295 8.594 5.295 5.331 0 9.991-4.021 10.334-9.341.376-5.821-4.266-10.659-10.007-10.659z"/></g></g></svg>