<svg width="150" height="150" viewBox="0 0 150 150" fill="none" xmlns="http://www.w3.org/2000/svg">
<g clip-path="url(#clip0)">
<path d="M96.975 15.3809V41.748L88.1859 47.0215L79.3969 15.3809H96.975Z" fill="#FF1B7C"/>
<path d="M88.1862 15.3809V47.0215L75.0026 54.9316L66.2136 15.3809H88.1862Z" fill="#FF4996"/>
<path d="M75.0026 15.3809V54.9316L53.03 41.748V15.3809H75.0026Z" fill="#FFCB63"/>
<path d="M75.0026 2.19727L53.03 15.3809L75.0026 28.5645L96.9753 15.3809L75.0026 2.19727Z" fill="#49C9FF"/>
<path d="M44.2406 72.5098C44.2406 69.2736 41.6174 66.6504 38.3813 66.6504H29.5922V98.8769H44.2406V72.5098Z" fill="#FF4996"/>
<path d="M35.4514 90.0876L29.5921 107.491H39.8463C41.7898 110.253 45.0005 112.06 48.635 112.06V101.708C48.635 97.2519 46.9736 93.1858 44.2405 90.0876H35.4514Z" fill="#FFA754"/>
<path d="M35.4516 72.5098C35.4516 69.2736 32.8283 66.6504 29.5922 66.6504H23.7328C20.4967 66.6504 17.8734 69.2736 17.8734 72.5098V98.8769H35.4516V72.5098Z" fill="#FF6B8A"/>
<path d="M35.4515 90.0876H17.8734C15.1403 93.1858 13.4789 97.2519 13.4789 101.708L13.4791 112.06C17.1137 112.06 20.3244 110.253 22.2682 107.491C24.2121 110.254 27.4227 112.06 31.0573 112.06C34.6918 112.06 37.9025 110.253 39.8463 107.491L39.846 101.708C39.846 97.2519 38.1846 93.1858 35.4515 90.0876V90.0876Z" fill="#FFCB63"/>
<path d="M126.267 66.6501H117.478V101.806H132.126V72.5095C132.126 69.2734 129.503 66.6501 126.267 66.6501Z" fill="#FF8646"/>
<path d="M117.478 66.6501H111.619C108.383 66.6501 105.759 69.2734 105.759 72.5095V90.0876L123.337 101.806V72.5095C123.337 69.2734 120.714 66.6501 117.478 66.6501Z" fill="#FFA754"/>
<path d="M132.126 90.0876H123.337L127.732 112.06H136.521V101.708C136.521 97.2519 134.859 93.1858 132.126 90.0876Z" fill="#49C9FF"/>
<path d="M123.337 90.0876H105.759C103.026 93.1858 101.365 97.2519 101.365 101.708V112.06H127.732V101.708C127.732 97.2519 126.071 93.1858 123.337 90.0876Z" fill="#7DD9FF"/>
<path d="M123.072 40.1504L118.943 57.8612C126.224 57.8612 132.127 51.9588 132.127 44.6776L123.072 40.1504Z" fill="#FFB4A9"/>
<path d="M123.338 44.6777C123.338 43.0872 123.244 41.5623 123.072 40.1504L111.032 34.1311C107.831 36.5364 105.76 40.3649 105.76 44.6774C105.76 51.9585 111.662 57.861 118.943 57.861C121.37 57.8613 123.338 51.9588 123.338 44.6777V44.6777Z" fill="#FFD9D4"/>
<path d="M118.943 31.4941L123.308 43.1637C126.066 44.1425 129.034 44.6777 132.127 44.6777C132.127 37.3966 126.224 31.4941 118.943 31.4941Z" fill="#60312C"/>
<path d="M118.943 31.4941C115.975 31.4941 113.236 32.4756 111.032 34.1314C114.118 38.2389 118.376 41.4135 123.308 43.164C123.058 36.5962 121.199 31.4941 118.943 31.4941Z" fill="#85453D"/>
<path d="M35.6833 21.2402C34.8598 19.5097 33.1005 18.3105 31.0565 18.3105C29.0124 18.3105 27.2531 19.5097 26.4296 21.2402C23.5981 21.2402 21.3026 23.5356 21.3026 26.3672C21.3026 29.1987 23.5981 31.4941 26.4296 31.4941H35.6833C38.5149 31.4941 40.8103 29.1987 40.8103 26.3672C40.8103 23.5356 38.5146 21.2402 35.6833 21.2402V21.2402Z" fill="#40211D"/>
<path d="M31.0562 31.4941V57.8613C38.3373 57.8613 44.2398 51.9589 44.2398 44.6777C44.2398 37.3966 38.3373 31.4941 31.0562 31.4941Z" fill="#F5BF93"/>
<path d="M35.4507 44.6777C35.4507 37.3966 33.4831 31.4941 31.0562 31.4941C23.775 31.4941 17.8726 37.3966 17.8726 44.6777C17.8726 51.9589 23.775 57.8613 31.0562 57.8613C33.4834 57.8613 35.4507 51.9589 35.4507 44.6777Z" fill="#FAD5B3"/>
<path d="M99.172 41.7481V15.3809C99.172 14.6092 98.7671 13.8938 98.1053 13.4968L76.1326 0.313232C75.4368 -0.104248 74.5673 -0.104248 73.8715 0.313232L51.8988 13.4968C51.237 13.8938 50.8321 14.6092 50.8321 15.3809V41.7481C50.8321 42.5198 51.237 43.2352 51.8988 43.6322L73.8715 56.8158C74.2195 57.0244 74.6106 57.129 75.002 57.129C75.3935 57.129 75.7846 57.0247 76.1326 56.8158L98.1053 43.6322C98.7671 43.2349 99.172 42.5198 99.172 41.7481ZM75.002 4.75962L92.7038 15.3809L75.002 26.0019L57.3003 15.3809L75.002 4.75962ZM55.2267 19.2616L72.8048 29.8084V51.0507L55.2267 40.5039V19.2616ZM77.1993 51.0507V29.8084L94.7774 19.2616V40.5039L77.1993 51.0507Z" fill="black"/>
<path d="M137.216 145.718L129.929 143.289V114.257H136.521C137.734 114.257 138.718 113.274 138.718 112.06V101.708C138.718 97.1756 137.163 92.7969 134.323 89.2845V72.5095C134.323 68.0669 130.709 64.4529 126.267 64.4529H111.618C107.938 64.4529 104.828 66.9349 103.869 70.3122H88.1809C86.9692 70.3122 85.9836 69.3267 85.9836 68.115C85.9836 66.9033 86.9692 65.9177 88.1809 65.9177H92.5754C93.7889 65.9177 94.7727 64.9339 94.7727 63.7205C94.7727 62.507 93.7889 61.5232 92.5754 61.5232H88.1809C84.546 61.5232 81.5891 64.4801 81.5891 68.115C81.5891 71.7498 84.546 74.7067 88.1809 74.7067H103.562V89.2845C100.722 92.7969 99.1672 97.1759 99.1672 101.708V112.06C99.1672 113.274 100.151 114.257 101.364 114.257H107.956V143.289L100.67 145.718C99.5184 146.101 98.8965 147.346 99.28 148.497C99.587 149.418 100.444 150 101.364 150C101.594 150 101.829 149.963 102.059 149.887L110.848 146.957C111.746 146.658 112.351 145.818 112.351 144.872V114.257H125.534V144.872C125.534 145.818 126.14 146.658 127.037 146.957L135.826 149.887C136.056 149.963 136.29 150 136.521 150C137.441 150 138.298 149.418 138.605 148.497C138.989 147.346 138.367 146.101 137.216 145.718V145.718ZM111.619 68.8474H126.267C128.286 68.8474 129.929 70.4901 129.929 72.5095V87.8903H107.956V72.5095C107.956 70.4901 109.599 68.8474 111.619 68.8474ZM103.562 101.708C103.562 98.2845 104.706 94.9751 106.796 92.2848H131.09C133.179 94.9754 134.324 98.2845 134.324 101.708V109.863H103.562V101.708Z" fill="black"/>
<path d="M118.943 60.0585C127.424 60.0585 134.324 53.1588 134.324 44.6776C134.324 36.1965 127.424 29.2968 118.943 29.2968C110.462 29.2968 103.562 36.1965 103.562 44.6776C103.562 53.1588 110.462 60.0585 118.943 60.0585ZM129.68 42.3573C123.776 41.7714 118.378 39.0725 114.359 34.697C115.755 34.0531 117.307 33.6913 118.943 33.6913C124.205 33.6913 128.613 37.4102 129.68 42.3573ZM110.798 37.3127C115.688 42.8214 122.393 46.1732 129.726 46.7753C128.744 51.8331 124.284 55.6639 118.943 55.6639C112.885 55.6639 107.957 50.7356 107.957 44.6776C107.957 41.8467 109.033 39.2627 110.798 37.3127V37.3127Z" fill="black"/>
<path d="M15.6753 44.6777C15.6753 53.1589 22.575 60.0586 31.0561 60.0586C39.5373 60.0586 46.437 53.1589 46.437 44.6777C46.437 39.5625 43.9245 35.0253 40.0714 32.2274C41.8526 30.89 43.0072 28.761 43.0072 26.3672C43.0072 22.776 40.4089 19.7801 36.9937 19.1604C35.6317 17.2764 33.4192 16.1133 31.0561 16.1133C28.6934 16.1133 26.4809 17.2767 25.1186 19.1604C21.7034 19.7801 19.1051 22.776 19.1051 26.3672C19.1051 28.761 20.2597 30.89 22.0409 32.2274C18.1878 35.0253 15.6753 39.5622 15.6753 44.6777V44.6777ZM42.0425 44.6777C42.0425 50.7357 37.1142 55.6641 31.0561 55.6641C24.9981 55.6641 20.0698 50.7357 20.0698 44.6777C20.0698 38.6197 24.9981 33.6914 31.0561 33.6914C37.1142 33.6914 42.0425 38.6197 42.0425 44.6777ZM26.4293 29.2969C24.8139 29.2969 23.4996 27.9826 23.4996 26.3672C23.4996 24.7518 24.8139 23.4375 26.4293 23.4375C27.2771 23.4375 28.0491 22.9497 28.4133 22.1845C28.9055 21.1503 29.9183 20.5078 31.0561 20.5078C32.194 20.5078 33.2068 21.1503 33.699 22.1845C34.0632 22.95 34.8354 23.4375 35.683 23.4375C37.2984 23.4375 38.6127 24.7518 38.6127 26.3672C38.6127 27.9826 37.2984 29.2969 35.683 29.2969H26.4293Z" fill="black"/>
<path d="M61.8185 61.5234H57.424C56.2106 61.5234 55.2268 62.5072 55.2268 63.7207C55.2268 64.9342 56.2106 65.918 57.424 65.918H61.8185C63.0303 65.918 64.0158 66.9035 64.0158 68.1152C64.0158 69.3269 63.0303 70.3125 61.8185 70.3125H46.1307C45.1715 66.9351 42.0617 64.4531 38.3811 64.4531H23.7328C19.2902 64.4531 15.6761 68.0672 15.6761 72.5097V89.2848C12.8364 92.7971 11.2816 97.1758 11.2816 101.708L11.2819 112.06C11.2819 113.274 12.2657 114.258 13.4792 114.258C15.8291 114.258 18.0999 113.612 20.0707 112.444V143.289L12.784 145.718C11.6326 146.102 11.0106 147.346 11.3941 148.497C11.7012 149.418 12.5584 150 13.4783 150C13.7086 150 13.943 149.964 14.1735 149.887L22.9625 146.957C23.8599 146.658 24.4649 145.818 24.4649 144.873V112.444C26.436 113.612 28.7071 114.258 31.0569 114.258C33.4068 114.258 35.6776 113.612 37.6484 112.444V144.873C37.6484 145.818 38.2537 146.658 39.1508 146.957L47.9398 149.887C48.1704 149.964 48.4044 150 48.635 150C49.5549 150 50.4121 149.418 50.7192 148.497C51.103 147.346 50.4807 146.102 49.3293 145.718L42.0426 143.289V112.444C44.0137 113.612 46.2848 114.258 48.6347 114.258C49.2174 114.258 49.7764 114.026 50.1883 113.614C50.6005 113.202 50.832 112.643 50.832 112.06L50.8317 101.708C50.8317 97.1758 49.2769 92.7971 46.4372 89.2848V74.707H61.818C65.4528 74.707 68.4097 71.7501 68.4097 68.1152C68.4097 64.4804 65.4534 61.5234 61.8185 61.5234V61.5234ZM23.7328 68.8476H38.3811C40.4006 68.8476 42.0432 70.4903 42.0432 72.5097V87.8905H20.0707V72.5097C20.0707 70.4903 21.7133 68.8476 23.7328 68.8476ZM46.438 109.574C44.5212 109.062 42.8126 107.888 41.6433 106.226C41.2317 105.642 40.5614 105.294 39.8463 105.294C39.1311 105.294 38.4608 105.642 38.0492 106.226C36.447 108.504 33.8331 109.863 31.0572 109.863C28.2814 109.863 25.6675 108.504 24.0653 106.226C23.6537 105.642 22.9833 105.294 22.2682 105.294C21.5531 105.294 20.8828 105.642 20.4711 106.227C19.3016 107.889 17.5933 109.062 15.6764 109.575L15.6761 101.709C15.6761 98.285 16.8202 94.9756 18.9102 92.2853H43.204C45.2937 94.9759 46.438 98.285 46.438 101.709V109.574Z" fill="black"/>
</g>
<defs>
<clipPath id="clip0">
<rect width="150" height="150" fill="white"/>
</clipPath>
</defs>
</svg>
