<svg width="68" height="68" viewBox="0 0 68 68" fill="none" xmlns="http://www.w3.org/2000/svg">
<g clip-path="url(#clip0)" filter="url(#filter0_d)">
<g filter="url(#filter1_d)">
<path d="M33.9819 11.0818C33.01 11.0818 32.2219 10.2937 32.2219 9.32168V1.76016C32.2219 0.788086 33.01 0 33.9819 0H45.3488C46.3209 0 47.1089 0.788086 47.1089 1.76016C47.1089 2.73223 46.3209 3.52031 45.3488 3.52031H35.742V9.3218C35.742 10.294 34.954 11.0818 33.9819 11.0818Z" fill="#4A696F"/>
<path d="M45.3488 3.5202H32.2219C32.2219 2.60051 32.2219 2.73211 32.2219 1.76004C32.2219 0.787969 33.01 0 33.9819 0H45.3488C46.3209 0 47.1089 0.788086 47.1089 1.76016C47.1089 2.73223 46.3209 3.5202 45.3488 3.5202Z" fill="#1930DC"/>
<path d="M21.7374 60.0001H5.56129C4.72633 60.0001 4.04945 59.3232 4.04945 58.4884V26.1031C4.04945 25.2682 4.72645 24.5913 5.56129 24.5913H21.7374V60.0001Z" fill="#FFBD00"/>
<path d="M62.4387 60H46.2626V24.5911H62.4387C63.2737 24.5911 63.9504 25.2681 63.9504 26.1029V58.488C63.9504 59.323 63.2737 60 62.4387 60Z" fill="#FF8B00"/>
<path d="M44.673 10.9258C45.5532 10.9258 46.2666 11.6393 46.2666 12.5194V18.4688V60.0003" fill="#FFDA2D"/>
<path d="M46.2626 60.0003H21.7374V26.4V60.0003V18.3742V12.5194C21.7374 11.6392 22.4508 10.9258 23.331 10.9258H44.673" fill="#FFDA2D"/>
<path d="M14.0875 40.1334H11.6022C11.2452 40.1334 10.9559 39.844 10.9559 39.487V31.4455C10.9559 31.0885 11.2452 30.7991 11.6022 30.7991H14.0876C14.4446 30.7991 14.7339 31.0885 14.7339 31.4455V39.487C14.7339 39.8441 14.4446 40.1334 14.0875 40.1334Z" fill="#CCF7FF"/>
<path d="M14.0875 53.7807H11.6022C11.2452 53.7807 10.9559 53.4914 10.9559 53.1344V45.0928C10.9559 44.7359 11.2452 44.4465 11.6022 44.4465H14.0876C14.4446 44.4465 14.7339 44.7359 14.7339 45.0928V53.1344C14.7339 53.4915 14.4446 53.7807 14.0875 53.7807Z" fill="#CCF7FF"/>
<path d="M56.255 40.1334H53.7694C53.4125 40.1334 53.1231 39.844 53.1231 39.487V31.4455C53.1231 31.0885 53.4125 30.7991 53.7694 30.7991H56.255C56.6119 30.7991 56.9013 31.0885 56.9013 31.4455V39.487C56.9013 39.8441 56.6119 40.1334 56.255 40.1334Z" fill="#80EAFF"/>
<path d="M56.255 53.7807H53.7694C53.4125 53.7807 53.1231 53.4914 53.1231 53.1344V45.0928C53.1231 44.7359 53.4125 44.4465 53.7694 44.4465H56.255C56.6119 44.4465 56.9013 44.7359 56.9013 45.0928V53.1344C56.9013 53.4915 56.6119 53.7807 56.255 53.7807Z" fill="#80EAFF"/>
<path d="M33.9143 10.9258V60.0003H46.2667V12.5194C46.2667 11.6392 45.5532 10.9258 44.6731 10.9258H33.9143Z" fill="#FFBD00"/>
<path d="M33.9752 39.635C30.4268 39.635 27.5505 42.5109 27.5505 46.0592V60.0002H40.4001C40.4001 60.0002 40.4001 49.5449 40.4001 46.0597C40.4001 42.5113 37.5236 39.635 33.9752 39.635Z" fill="#4A696F"/>
<path d="M33.9752 39.635C33.9548 39.635 33.9346 39.6363 33.9141 39.6365V60.0002H40.4C40.4 60.0002 40.4 49.5449 40.4 46.0597C40.4001 42.5113 37.5236 39.635 33.9752 39.635Z" fill="#293939"/>
<path d="M39.6653 27.2643C39.6653 30.4456 37.0865 33.0246 33.9052 33.0246C30.7239 33.0246 28.145 30.4456 28.145 27.2643C28.145 24.0831 30.7239 21.5042 33.9052 21.5042C37.0865 21.5042 39.6653 24.0832 39.6653 27.2643Z" fill="#E6FBFF"/>
<path d="M33.9143 21.5049V33.025C37.0913 33.02 39.6654 30.4431 39.6654 27.2649C39.6653 24.0868 37.0913 21.5098 33.9143 21.5049Z" fill="#CCF7FF"/>
<path d="M53.4951 13.3259L34.4317 7.63306C34.4305 7.6327 34 7.44684 33.4014 7.62602L14.315 13.3259C13.3836 13.6041 12.854 14.5846 13.1321 15.516C13.36 16.2796 14.0598 16.773 14.8178 16.773C14.9846 16.773 15.1543 16.7491 15.3222 16.6989L33.9051 11.1496L52.4877 16.6989C52.6559 16.7491 52.8252 16.773 52.9921 16.773C53.7501 16.773 54.4499 16.2795 54.678 15.516C54.956 14.5846 54.4266 13.6041 53.4951 13.3259Z" fill="#FF4B00"/>
<path d="M53.4951 13.3262L34.4317 7.6333C34.4305 7.63295 34.2197 7.54834 33.9143 7.54834V11.1524L52.4878 16.699C52.656 16.7492 52.8253 16.7731 52.9922 16.7731C53.7502 16.7731 54.45 16.2796 54.6781 15.5162C54.9561 14.5849 54.4266 13.6044 53.4951 13.3262Z" fill="#F80000"/>
</g>
</g>
<defs>
<filter id="filter0_d" x="0" y="0" width="68" height="68" filterUnits="userSpaceOnUse" color-interpolation-filters="sRGB">
<feFlood flood-opacity="0" result="BackgroundImageFix"/>
<feColorMatrix in="SourceAlpha" type="matrix" values="0 0 0 0 0 0 0 0 0 0 0 0 0 0 0 0 0 0 127 0"/>
<feOffset dy="4"/>
<feGaussianBlur stdDeviation="2"/>
<feColorMatrix type="matrix" values="0 0 0 0 0 0 0 0 0 0 0 0 0 0 0 0 0 0 0.25 0"/>
<feBlend mode="normal" in2="BackgroundImageFix" result="effect1_dropShadow"/>
<feBlend mode="normal" in="SourceGraphic" in2="effect1_dropShadow" result="shape"/>
</filter>
<filter id="filter1_d" x="0.0494537" y="0" width="67.901" height="68.0003" filterUnits="userSpaceOnUse" color-interpolation-filters="sRGB">
<feFlood flood-opacity="0" result="BackgroundImageFix"/>
<feColorMatrix in="SourceAlpha" type="matrix" values="0 0 0 0 0 0 0 0 0 0 0 0 0 0 0 0 0 0 127 0"/>
<feOffset dy="4"/>
<feGaussianBlur stdDeviation="2"/>
<feColorMatrix type="matrix" values="0 0 0 0 0 0 0 0 0 0 0 0 0 0 0 0 0 0 0.25 0"/>
<feBlend mode="normal" in2="BackgroundImageFix" result="effect1_dropShadow"/>
<feBlend mode="normal" in="SourceGraphic" in2="effect1_dropShadow" result="shape"/>
</filter>
<clipPath id="clip0">
<rect width="60" height="60" fill="white" transform="translate(4)"/>
</clipPath>
</defs>
</svg>
