<svg width="150" height="150" viewBox="0 0 150 150" fill="none" xmlns="http://www.w3.org/2000/svg">
<path d="M60.6445 58.3945H51.8555L53.3203 77.3727V99.2707C60.601 99.2707 66.5039 93.3879 66.5039 86.1319V64.234C66.5039 61.0086 63.8809 58.3945 60.6445 58.3945Z" fill="#CF301B"/>
<path d="M51.8555 58.3945H45.9961C42.7597 58.3945 40.1367 61.0086 40.1367 64.234V77.3727L31.3477 86.1319L40.1367 99.2707L46.7285 103.65L53.3203 99.2707C55.7476 99.2707 57.7148 93.3879 57.7148 86.1319V64.234C57.7148 61.0086 55.0919 58.3945 51.8555 58.3945Z" fill="#FF4128"/>
<path d="M40.1367 99.2705H31.3477L12.7441 81.7522L40.1367 86.1318V99.2705Z" fill="#A45E43"/>
<path d="M6.5918 81.7522H31.3477V99.2705H6.5918V81.7522Z" fill="#C27749"/>
<path d="M31.3477 77.3727L22.5586 81.7523L31.3477 86.1319H40.1367V77.3727H31.3477Z" fill="#E18F4E"/>
<path d="M2.19727 77.3727H31.3477V86.1319H2.19727V77.3727Z" fill="#FFA754"/>
<path d="M62.5488 99.2706L56.6895 103.65L62.5488 108.03H71.3379V99.2706H62.5488Z" fill="#E18F4E"/>
<path d="M40.1367 99.2706H62.5488V108.03H40.1367V99.2706Z" fill="#FFA754"/>
<path d="M72.3633 54.0149C69.1269 54.0149 66.5039 51.4009 66.5039 48.1755V36.4966C72.9755 36.4966 78.2227 41.7259 78.2227 48.1755C78.2227 51.4009 75.5997 54.0149 72.3633 54.0149Z" fill="#FF6337"/>
<path d="M57.4493 31.9846L53.3203 49.6353C60.601 49.6353 66.5039 43.7525 66.5039 36.4965L57.4493 31.9846Z" fill="#FFB4A9"/>
<path d="M57.7148 36.4966C57.7148 34.9113 57.621 33.3921 57.4493 31.9847L45.409 25.9856C42.2081 28.383 40.1367 32.198 40.1367 36.4966C40.1367 43.7526 46.0396 49.6354 53.3203 49.6354C55.7476 49.6354 57.7148 43.7526 57.7148 36.4966Z" fill="#FFD9D0"/>
<path d="M53.3203 23.3578L57.6851 34.9876C60.4431 35.9628 63.4106 36.4965 66.5039 36.4965C66.5039 29.2406 60.601 23.3578 53.3203 23.3578Z" fill="#FF6337"/>
<path d="M53.3203 23.3578C50.3517 23.3578 47.6131 24.3364 45.409 25.9867C48.4943 30.08 52.7527 33.2438 57.6851 34.9876C57.4344 28.4422 55.5759 23.3578 53.3203 23.3578Z" fill="#FF8646"/>
<path d="M129.785 77.3727V99.2706C137.066 99.2706 142.969 93.3878 142.969 86.1319L129.785 77.3727Z" fill="#2DADE3"/>
<path d="M134.18 86.1318V81.7522H107.812L116.602 99.2705L123.193 103.65L129.785 99.2705C132.212 99.2705 134.18 93.3878 134.18 86.1318Z" fill="#49C9FF"/>
<path d="M137.109 58.3945H128.32L134.18 86.1319H142.969V64.234C142.969 61.0086 140.346 58.3945 137.109 58.3945Z" fill="#FFCB63"/>
<path d="M128.32 58.3945H122.461C119.225 58.3945 116.602 61.0086 116.602 64.234V77.3727L107.812 86.1319H134.18V64.234C134.18 61.0086 131.557 58.3945 128.32 58.3945Z" fill="#FFE2A8"/>
<path d="M116.602 99.2705H107.812L89.209 81.7522L116.602 86.1318V99.2705Z" fill="#A45E43"/>
<path d="M83.0566 81.7522H107.812V99.2705H83.0566V81.7522Z" fill="#C27749"/>
<path d="M107.812 77.3727L99.0234 81.7523L107.812 86.1319H116.602V77.3727H107.812Z" fill="#E18F4E"/>
<path d="M78.6621 77.3727H107.812V86.1319H78.6621V77.3727Z" fill="#FFA754"/>
<path d="M139.014 99.2706L133.154 103.65L139.014 108.03H147.803V99.2706H139.014Z" fill="#E18F4E"/>
<path d="M116.602 99.2706H139.014V108.03H116.602V99.2706Z" fill="#FFA754"/>
<path d="M129.785 23.3578V49.6353C137.066 49.6353 142.969 43.7525 142.969 36.4965C142.969 29.2406 137.066 23.3578 129.785 23.3578Z" fill="#F5C5C0"/>
<path d="M134.18 36.4965C134.18 29.2406 132.212 23.3578 129.785 23.3578C122.504 23.3578 116.602 29.2406 116.602 36.4965C116.602 43.7525 122.504 49.6353 129.785 49.6353C132.212 49.6353 134.18 43.7525 134.18 36.4965Z" fill="#FFD9D0"/>
<path d="M71.3379 97.0807H64.0697C66.925 94.2967 68.7012 90.4178 68.7012 86.1318V64.2338C68.7012 59.8063 65.0871 56.2046 60.6445 56.2046H45.9961C42.3489 56.2046 39.2612 58.6339 38.2725 61.9539C28.2394 61.0142 20.3613 52.5766 20.3613 42.3359C20.3613 41.127 19.3771 40.1461 18.1641 40.1461C16.951 40.1461 15.9668 41.127 15.9668 42.3359C15.9668 54.8793 25.6382 65.209 37.9395 66.3198V75.1828H2.19727C1.61476 75.1828 1.05515 75.4132 0.643158 75.8238C0.231171 76.2355 0 76.7921 0 77.3726V86.1318C0 87.3407 0.984192 88.3215 2.19727 88.3215H4.39453V129.198C4.39453 130.407 5.37872 131.387 6.5918 131.387C7.80487 131.387 8.78906 130.407 8.78906 129.198V101.46H37.9395V129.198C37.9395 130.407 38.9236 131.387 40.1367 131.387C41.3498 131.387 42.334 130.407 42.334 129.198V110.219H69.1406V129.198C69.1406 130.407 70.1248 131.387 71.3379 131.387C72.551 131.387 73.5352 130.407 73.5352 129.198V99.2705C73.5352 98.0616 72.551 97.0807 71.3379 97.0807ZM45.9961 60.5842H60.6445C62.6644 60.5842 64.3066 62.2208 64.3066 64.2338V86.1318C64.3066 92.1696 59.3788 97.0807 53.3203 97.0807H42.334V64.2338C42.334 62.2208 43.9762 60.5842 45.9961 60.5842ZM37.9395 79.5624V83.942H4.39453V79.5624H37.9395ZM8.78906 97.0807V88.3215H37.9395V97.0807H8.78906ZM42.334 105.84V101.46H69.1406V105.84H42.334Z" fill="black"/>
<path d="M28.418 105.84C27.2049 105.84 26.2207 106.821 26.2207 108.03V124.7L18.9343 127.121C17.783 127.503 17.1604 128.743 17.5438 129.89C17.8516 130.808 18.7088 131.389 19.6278 131.389C19.8589 131.389 20.0935 131.352 20.3236 131.275L29.1126 128.355C30.0098 128.057 30.6152 127.22 30.6152 126.278V108.03C30.6152 106.821 29.631 105.84 28.418 105.84Z" fill="black"/>
<path d="M147.803 97.0807H140.535C143.39 94.2967 145.166 90.4178 145.166 86.1318V64.2338C145.166 59.8063 141.552 56.2046 137.109 56.2046H122.461C118.814 56.2046 115.726 58.6339 114.737 61.9539C104.704 61.0142 96.8262 52.5766 96.8262 42.3359C96.8262 41.127 95.8431 40.1461 94.6289 40.1461C93.4147 40.1461 92.4316 41.127 92.4316 42.3359C92.4316 54.8793 102.103 65.209 114.404 66.3198V75.1828H78.6621C77.4479 75.1828 76.4648 76.1636 76.4648 77.3726V86.1318C76.4648 87.3407 77.4479 88.3215 78.6621 88.3215H80.8594V129.198C80.8594 130.407 81.8424 131.387 83.0566 131.387C84.2709 131.387 85.2539 130.407 85.2539 129.198V101.46H114.404V129.198C114.404 130.407 115.387 131.387 116.602 131.387C117.816 131.387 118.799 130.407 118.799 129.198V110.219H145.605V129.198C145.605 130.407 146.589 131.387 147.803 131.387C149.017 131.387 150 130.407 150 129.198V99.2705C150 98.0616 149.017 97.0807 147.803 97.0807ZM118.799 97.0807V88.3215H140.551C139.53 93.3136 135.091 97.0807 129.785 97.0807H118.799ZM122.461 60.5842H137.109C139.129 60.5842 140.771 62.2208 140.771 64.2338V83.942H118.799V64.2338C118.799 62.2208 120.441 60.5842 122.461 60.5842ZM80.8594 79.5624H114.404V83.942H80.8594V79.5624ZM85.2539 97.0807V88.3215H114.404V97.0807H85.2539ZM118.799 105.84V101.46H145.605V105.84H118.799Z" fill="black"/>
<path d="M104.883 105.84C103.669 105.84 102.686 106.821 102.686 108.03V124.7L95.3991 127.121C94.2478 127.503 93.6253 128.743 94.0098 129.89C94.3165 130.808 95.1737 131.389 96.0938 131.389C96.3238 131.389 96.5584 131.352 96.7884 131.275L105.577 128.355C106.475 128.057 107.08 127.22 107.08 126.278V108.03C107.08 106.821 106.097 105.84 104.883 105.84Z" fill="black"/>
<path d="M129.785 51.8251C138.266 51.8251 145.166 44.9489 145.166 36.4966C145.166 31.6197 142.867 27.2709 139.294 24.4618L139.745 23.684C140.351 22.637 139.992 21.298 138.94 20.6936C137.889 20.0879 136.545 20.4472 135.94 21.4942L135.492 22.2663C134.38 21.8215 133.205 21.5022 131.982 21.3265V20.4381C131.982 19.2291 130.999 18.2483 129.785 18.2483C128.572 18.2483 127.588 19.2291 127.588 20.4381V21.3265C126.366 21.5022 125.191 21.8215 124.079 22.2663L123.632 21.4942C123.025 20.4472 121.68 20.0879 120.63 20.6936C119.579 21.298 119.219 22.637 119.826 23.684L120.276 24.4618C116.705 27.2709 114.405 31.6197 114.405 36.4966C114.404 44.9489 121.304 51.8251 129.785 51.8251ZM129.785 25.5476C135.844 25.5476 140.771 30.4587 140.771 36.4966C140.771 42.5344 135.844 47.4455 129.785 47.4455C123.727 47.4455 118.799 42.5344 118.799 36.4966C118.799 30.4587 123.727 25.5476 129.785 25.5476Z" fill="black"/>
<path d="M53.3203 51.8251C57.621 51.8251 61.5131 50.055 64.3066 47.2094V48.1754C64.3066 52.6029 67.9207 56.2046 72.3633 56.2046C76.8059 56.2046 80.4199 52.6029 80.4199 48.1754C80.4199 41.2251 75.2621 35.4529 68.5616 34.4596C67.5579 26.9675 61.108 21.168 53.3203 21.168C44.8391 21.168 37.9395 28.0441 37.9395 36.4965C37.9395 44.9489 44.8391 51.8251 53.3203 51.8251ZM76.0254 48.1754C76.0254 50.1884 74.3832 51.8251 72.3633 51.8251C70.3434 51.8251 68.7012 50.1884 68.7012 48.1754V38.9418C72.8954 39.9329 76.0254 43.6966 76.0254 48.1754ZM64.0583 34.1835C58.1532 33.5996 52.755 30.9103 48.737 26.5501C50.1331 25.908 51.685 25.5476 53.3203 25.5476C58.5823 25.5476 62.9894 29.2542 64.0583 34.1835ZM45.1756 29.1561C50.0656 34.6466 56.7696 37.9872 64.1029 38.5871C63.121 43.6282 58.6613 47.4455 53.3203 47.4455C47.2618 47.4455 42.334 42.5344 42.334 36.4965C42.334 33.6749 43.4109 31.0996 45.1756 29.1561Z" fill="black"/>
</svg>
