<svg width="53" height="53" viewBox="0 0 53 53" fill="none" xmlns="http://www.w3.org/2000/svg">
<g clip-path="url(#clip0)" filter="url(#filter0_d)">
<path d="M8.17287 39.7544L34.1394 41.4911C34.6237 41.5236 35.0426 41.1572 35.075 40.6729L37.5704 3.36181C37.6029 2.87745 37.2365 2.45865 36.7522 2.42622L10.7857 0.689497C10.3013 0.657066 9.88252 1.02348 9.85009 1.50776L7.35452 38.8188C7.32218 39.3032 7.68851 39.7221 8.17287 39.7544Z" fill="#FAE19E"/>
<path d="M5.53809 44.3124H25.4137L32.4414 37.3158V6.03906C32.4414 5.55364 32.0479 5.16016 31.5625 5.16016H5.53809C5.05267 5.16016 4.65918 5.55364 4.65918 6.03906V43.4335C4.65918 43.9189 5.05267 44.3124 5.53809 44.3124Z" fill="#FFF9E9"/>
<path d="M31.5626 5.16016H28.047C28.5324 5.16016 28.9259 5.55364 28.9259 6.03906V37.3159L28.9032 40.8384L32.4415 37.3159V6.03906C32.4415 5.55364 32.048 5.16016 31.5626 5.16016Z" fill="#FFF4D6"/>
<path d="M25.4137 44.3125V38.1379C25.4137 37.6525 25.8072 37.259 26.2926 37.259H32.4414L25.4137 44.3125Z" fill="#FFEEC2"/>
<path d="M45.1887 21.8479L42.2556 21.8624V17.3953C42.2556 16.5882 42.9116 15.9308 43.721 15.9268H43.7216C44.5317 15.9227 45.1888 16.5746 45.1888 17.3824V21.8479H45.1887Z" fill="#FED23A"/>
<path d="M43.723 44.3124C42.8123 43.4092 42.2996 42.1799 42.2985 40.8973L42.2931 34.3957C42.2931 34.3391 42.3391 34.293 42.396 34.2926L45.036 34.2795C45.0929 34.2793 45.139 34.325 45.139 34.3816L45.1444 40.8924C45.1455 42.1696 44.6391 43.3949 43.7368 44.2987L43.723 44.3124Z" fill="#54B1FF"/>
<path d="M43.723 41.2501H43.7221C42.4535 41.2564 41.4246 40.2357 41.4246 38.9707V20.2036C41.4246 19.6079 41.906 19.1241 42.5017 19.1212L44.9298 19.1091C45.5297 19.1062 46.0177 19.5917 46.0177 20.1916V38.9506C46.0177 40.2145 44.9905 41.2438 43.723 41.2501Z" fill="#FDF385"/>
<path d="M44.9298 19.1089L42.8407 19.1193C43.3713 19.1887 43.7818 19.6413 43.7818 20.1914V38.9505C43.7818 39.8138 43.3024 40.5674 42.5947 40.9605C42.9278 41.1464 43.3122 41.2521 43.722 41.25H43.7229C44.9904 41.2436 46.0176 40.2143 46.0176 38.9505V20.1914C46.0177 19.5915 45.5297 19.1059 44.9298 19.1089Z" fill="#FAEE6E"/>
<path d="M47.1784 21.7903L40.8841 21.8215C40.2421 21.8247 39.7217 22.346 39.7217 22.9859C39.7217 23.6258 40.2421 24.1419 40.8841 24.1387L46.0159 24.1132V30.9238C46.0159 31.5637 46.5363 32.0798 47.1784 32.0767C47.8204 32.0735 48.3408 31.5521 48.3408 30.9123V22.9431C48.3408 22.3032 47.8203 21.7871 47.1784 21.7903Z" fill="#54B1FF"/>
<path d="M47.1784 21.7903L43.7998 21.8068L43.7851 24.1193L46.0158 24.1134V30.924C46.0158 31.5639 46.5362 32.08 47.1783 32.0768C47.8203 32.0737 48.3407 31.5523 48.3407 30.9125V22.9432C48.3408 22.3032 47.8203 21.7871 47.1784 21.7903Z" fill="#3DA7FF"/>
<path d="M36.7961 1.76781L10.8297 0.0309994C9.98324 -0.0250748 9.24909 0.61679 9.1924 1.463L8.98929 4.50024H5.53809C4.69003 4.50024 4 5.19027 4 6.03832V43.4328C4 44.2809 4.69003 44.9709 5.53809 44.9709H25.4138C25.586 44.9709 25.7567 44.9005 25.8789 44.7788L28.8793 41.7917C28.9098 41.7982 28.9409 41.8034 28.9729 41.8055L34.0953 42.1481C34.9129 42.2021 35.6778 41.5371 35.7326 40.7161L38.2281 3.40521C38.2843 2.56779 37.6335 1.82379 36.7961 1.76781ZM26.0729 42.7162V38.1371C26.0729 38.016 26.1716 37.9174 26.2927 37.9174H30.8542L26.0729 42.7162ZM34.4172 40.6282C34.3957 40.7609 34.3178 40.8291 34.1834 40.8327L30.1158 40.5606L32.9065 37.7823C33.0308 37.6586 33.1007 37.4905 33.1007 37.3152V6.03841C33.1007 5.19036 32.4106 4.50033 31.5626 4.50033H24.7077C23.8555 4.50033 23.8555 5.81869 24.7077 5.81869H31.5626C31.6838 5.81869 31.7823 5.9173 31.7823 6.03841V36.599H26.2927C25.4446 36.599 24.7546 37.2891 24.7546 38.1371V43.6525H5.53809C5.41697 43.6525 5.31836 43.5539 5.31836 43.4328V6.03841C5.31836 5.9173 5.41697 5.81869 5.53809 5.81869H21.1974C22.0497 5.81869 22.0497 4.50033 21.1974 4.50033H10.3105L10.5078 1.55107C10.5292 1.41827 10.6072 1.35015 10.7417 1.34655L36.7081 3.08327C36.8409 3.10471 36.9091 3.18267 36.9127 3.31714L34.4172 40.6282Z" fill="#060606"/>
<path d="M27.5395 20.834H9.5612C9.19715 20.834 8.90202 21.1291 8.90202 21.4932C8.90202 21.8572 9.19715 22.1523 9.5612 22.1523H27.5395C27.9036 22.1523 28.1987 21.8572 28.1987 21.4932C28.1987 21.1291 27.9036 20.834 27.5395 20.834Z" fill="#060606"/>
<path d="M27.5395 25.4294H9.5612C9.19715 25.4294 8.90202 25.7246 8.90202 26.0886C8.90202 26.4527 9.19715 26.7478 9.5612 26.7478H27.5395C27.9036 26.7478 28.1987 26.4527 28.1987 26.0886C28.1987 25.7246 27.9036 25.4294 27.5395 25.4294Z" fill="#060606"/>
<path d="M8.90202 16.8979C8.90202 17.262 9.19715 17.5571 9.5612 17.5571H27.5395C27.9036 17.5571 28.1987 17.262 28.1987 16.8979C28.1987 16.5339 27.9036 16.2388 27.5395 16.2388H9.5612C9.19715 16.2388 8.90202 16.5339 8.90202 16.8979Z" fill="#060606"/>
<path d="M12.069 12.3025C12.069 12.6665 12.3641 12.9617 12.7282 12.9617H24.3725C24.7366 12.9617 25.0317 12.6665 25.0317 12.3025C25.0317 11.9384 24.7366 11.6433 24.3725 11.6433H12.7282C12.3641 11.6433 12.069 11.9384 12.069 12.3025Z" fill="#060606"/>
<path d="M21.1171 38.5651C19.9316 38.5683 18.746 38.5709 17.5605 38.5727C17.162 38.5733 16.7636 38.5738 16.3652 38.5741C15.6431 38.5746 15.1567 38.4297 14.9949 37.6355C14.8582 36.964 13.9083 37.0543 13.7237 37.6355C13.2675 39.0714 12.5131 38.5088 12.0905 37.543C11.6689 36.5794 11.5608 35.501 11.3767 34.4756C11.2413 33.7221 10.1017 33.9333 10.0819 34.6509C10.0557 35.5958 9.96742 36.5256 9.72756 37.4421C9.48015 38.3876 9.10934 39.2963 8.74126 40.1997C8.42037 40.9873 9.69636 41.3261 10.0125 40.5502C10.3387 39.7497 10.6653 38.9448 10.9084 38.1144C11.3601 39.2008 12.2948 40.4295 13.6266 39.7054C13.8743 39.5706 14.1057 39.3791 14.3089 39.1558C15.0014 39.9561 16.0323 39.893 16.9969 39.8919C18.3704 39.8901 19.7438 39.8871 21.1173 39.8835C21.9654 39.8813 21.967 38.5629 21.1171 38.5651Z" fill="#060606"/>
<path d="M48.4667 21.6597C48.1242 21.3189 47.6533 21.1441 47.1751 21.1312L46.677 21.1336V20.1915C46.677 19.6177 46.3361 19.0114 45.8479 18.7095V17.3825C45.8479 14.6519 41.5964 14.6637 41.5964 17.3954V18.7225C41.0991 19.03 40.7654 19.5787 40.7654 20.2037V21.1689C38.5712 21.3183 38.5649 24.6621 40.7679 24.7928C40.782 27.7437 40.7813 30.6463 40.7654 33.6466C40.7611 34.474 42.0793 34.5225 42.0838 33.6536C42.0996 30.6507 42.1003 27.7455 42.0863 24.7922L45.3568 24.7759C45.3568 24.7759 45.3526 34.5184 45.3526 38.9073C45.3526 41.0464 42.0814 41.0606 42.0814 38.8851L42.0826 37.683C42.134 36.8322 40.8181 36.7528 40.7666 37.6035V38.7315C40.7666 39.6983 41.0656 40.5171 41.6444 41.0931C41.6959 42.4723 42.2771 43.8069 43.2589 44.7806C43.5406 45.0601 43.9306 44.9747 44.2032 44.7646C45.2021 43.764 45.7649 42.4448 45.8001 41.0368C46.2352 40.6034 46.6709 40.167 46.6709 38.6729L46.6714 32.6655C47.8114 32.9897 49 32.1076 49 30.9124V22.9432C49 22.4578 48.8106 22.002 48.4667 21.6597ZM42.0838 21.1564V20.2036C42.0838 20.0085 42.2177 19.845 42.3978 19.7964L45.0367 19.7833C45.1106 19.8016 45.1787 19.8364 45.2339 19.8915C45.3143 19.9715 45.3586 20.0781 45.3586 20.1915V21.1402L42.0838 21.1564ZM43.7248 16.5861C44.1295 16.5861 44.5294 16.9828 44.5294 17.3825V18.4518L42.9147 18.4598V17.3954C42.9148 16.9513 43.278 16.5883 43.7248 16.5861ZM43.7238 43.2961C43.4174 42.8618 43.1957 42.3705 43.072 41.8542C43.276 41.8984 43.4828 41.9214 43.6896 41.9214C43.9205 41.9214 44.1512 41.8928 44.3785 41.8373C44.2578 42.3615 44.0365 42.8557 43.7238 43.2961ZM47.6816 30.9124C47.6816 31.5365 46.6751 31.5857 46.6751 30.9239C46.6751 30.9239 46.6763 24.686 46.677 24.1142C46.6774 23.7454 46.3708 23.4542 46.0127 23.4542L40.8808 23.4797C40.2443 23.4797 40.2592 22.4838 40.8873 22.4807L47.1816 22.4495C47.486 22.4754 47.6526 22.6401 47.6816 22.9432V30.9124H47.6816Z" fill="#060606"/>
</g>
<defs>
<filter id="filter0_d" x="0" y="0" width="53" height="53" filterUnits="userSpaceOnUse" color-interpolation-filters="sRGB">
<feFlood flood-opacity="0" result="BackgroundImageFix"/>
<feColorMatrix in="SourceAlpha" type="matrix" values="0 0 0 0 0 0 0 0 0 0 0 0 0 0 0 0 0 0 127 0"/>
<feOffset dy="4"/>
<feGaussianBlur stdDeviation="2"/>
<feColorMatrix type="matrix" values="0 0 0 0 0 0 0 0 0 0 0 0 0 0 0 0 0 0 0.25 0"/>
<feBlend mode="normal" in2="BackgroundImageFix" result="effect1_dropShadow"/>
<feBlend mode="normal" in="SourceGraphic" in2="effect1_dropShadow" result="shape"/>
</filter>
<clipPath id="clip0">
<rect width="45" height="45" fill="white" transform="translate(4)"/>
</clipPath>
</defs>
</svg>
