<svg id="Layer_1" enable-background="new 0 0 256 256" height="512" viewBox="0 0 256 256" width="512" xmlns="http://www.w3.org/2000/svg"><ellipse cx="113.333" cy="133.725" fill="#fcc24c" rx="86.048" ry="86.048" transform="matrix(.707 -.707 .707 .707 -61.363 119.306)"/><ellipse cx="113.333" cy="133.725" fill="#f4efed" rx="35.853" ry="35.853" transform="matrix(.707 -.707 .707 .707 -61.363 119.306)"/><path d="m127.675 133.725c0 7.921-6.421 14.341-14.341 14.341s-14.341-6.421-14.341-14.341 6.421-14.341 14.341-14.341 14.341 6.42 14.341 14.341z" fill="#7bac51"/><path d="m113.333 171.578c-20.873 0-37.854-16.981-37.854-37.854 0-20.872 16.981-37.853 37.854-37.853 20.872 0 37.853 16.981 37.853 37.853.001 20.873-16.98 37.854-37.853 37.854zm0-71.706c-18.667 0-33.854 15.187-33.854 33.853 0 18.667 15.187 33.854 33.854 33.854s33.853-15.187 33.853-33.854c.001-18.667-15.186-33.853-33.853-33.853z" fill="#690589"/><path d="m113.333 150.066c-9.011 0-16.341-7.331-16.341-16.341s7.331-16.341 16.341-16.341 16.341 7.331 16.341 16.341-7.33 16.341-16.341 16.341zm0-28.683c-6.805 0-12.341 5.536-12.341 12.341s5.536 12.341 12.341 12.341 12.341-5.536 12.341-12.341-5.535-12.341-12.341-12.341z" fill="#690589"/><path d="m109.917 219.452c1.736.143 3.487.228 5.249.274 46.674-.979 84.215-39.093 84.215-86.001s-37.541-85.023-84.215-86.002c-1.761.046-3.513.131-5.249.274 44.165 3.647 78.877 40.622 78.877 85.727s-34.712 82.081-78.877 85.728z" fill="#dea42e"/><path d="m116.749 47.997c-1.736-.143-3.487-.228-5.249-.274-46.673.979-84.215 39.093-84.215 86.002 0 46.908 37.542 85.022 84.215 86.001 1.761-.046 3.513-.131 5.249-.274-44.165-3.647-78.877-40.622-78.877-85.727s34.712-82.08 78.877-85.728z" fill="#fce06a"/><path d="m113.333 221.772c-48.55 0-88.048-39.498-88.048-88.048s39.498-88.048 88.048-88.048 88.048 39.498 88.048 88.048-39.498 88.048-88.048 88.048zm0-172.095c-46.344 0-84.048 37.704-84.048 84.048s37.704 84.048 84.048 84.048 84.048-37.704 84.048-84.048-37.703-84.048-84.048-84.048z" fill="#690589"/><path d="m37.633 134.072c-1.104 0-2-.896-2-2 0-4.172.422-8.345 1.254-12.402.222-1.082 1.276-1.78 2.361-1.557 1.082.222 1.779 1.279 1.557 2.361-.778 3.793-1.172 7.695-1.172 11.598 0 1.105-.896 2-2 2z" fill="#690589"/><path d="m238.872 150.304h-77.013c-1.104 0-2-.896-2-2s.896-2 2-2h77.013c1.104 0 2 .896 2 2s-.895 2-2 2z" fill="#690589"/><ellipse cx="54.987" cy="48.005" fill="#f4efed" rx="44.005" ry="44.005" transform="matrix(.159 -.987 .987 .159 -1.126 94.69)"/><path d="m54.987 4c-1.17 0-2.327.06-3.474.149 22.677 1.773 40.531 20.723 40.531 43.856s-17.854 42.083-40.531 43.856c1.148.09 2.304.149 3.474.149 24.304 0 44.005-19.702 44.005-44.005s-19.702-44.005-44.005-44.005z" fill="#d6d1cf"/><path d="m54.987 92.011c1.171 0 2.327-.059 3.474-.149-22.678-1.773-40.531-20.723-40.531-43.856s17.854-42.083 40.531-43.856c-1.148-.09-2.304-.15-3.474-.15-24.304 0-44.006 19.702-44.006 44.005 0 24.304 19.702 44.006 44.006 44.006z" fill="#fff"/><path d="m54.987 94.011c-25.368 0-46.006-20.638-46.006-46.005s20.638-46.006 46.006-46.006 46.005 20.638 46.005 46.005-20.638 46.006-46.005 46.006zm0-88.011c-23.162 0-42.006 18.844-42.006 42.005s18.844 42.005 42.006 42.005 42.005-18.844 42.005-42.005-18.844-42.005-42.005-42.005z" fill="#690589"/><path d="m31.641 70.383c1.204 3.359 6.254 4.621 11.28 2.819s8.124-5.985 6.921-9.343c-1.204-3.358-6.254-4.621-11.28-2.819-5.026 1.801-8.125 5.984-6.921 9.343z" fill="#ff4397"/><path d="m78.591 32.012-28.489 8.279v-9.544l28.489-8.279z" fill="#ff4397"/><path d="m60.094 62.035c1.204 3.359 6.254 4.621 11.28 2.819 5.026-1.801 8.124-5.985 6.92-9.343-1.204-3.359-6.254-4.621-11.28-2.819s-8.124 5.985-6.92 9.343z" fill="#ff4397"/><path d="m50.102 42.291c-.428 0-.851-.138-1.201-.4-.503-.378-.799-.97-.799-1.6v-9.544c0-.89.587-1.672 1.442-1.92l28.49-8.279c.604-.174 1.255-.057 1.759.321.503.378.799.97.799 1.6v9.544c0 .89-.587 1.672-1.442 1.92l-28.49 8.279c-.184.052-.371.079-.558.079zm2-10.043v5.378l24.49-7.116v-5.378zm26.489-.236h.01z" fill="#690589"/><path d="m50.102 67.036c-1.104 0-2-.896-2-2v-24.745c0-1.104.896-2 2-2s2 .896 2 2v24.746c0 1.104-.896 1.999-2 1.999z" fill="#690589"/><path d="m78.591 58.736c-1.104 0-2-.896-2-2v-24.745c0-1.104.896-2 2-2s2 .896 2 2v24.746c0 1.104-.895 1.999-2 1.999z" fill="#690589"/><path d="m66.798 67.686c-4.068 0-7.452-1.811-8.587-4.976-1.601-4.466 1.97-9.693 8.128-11.9 2.799-1.004 5.724-1.21 8.233-.583 2.759.689 4.802 2.37 5.604 4.61.803 2.24.293 4.835-1.399 7.121-1.54 2.079-3.93 3.777-6.729 4.78-1.792.642-3.579.948-5.25.948zm-4.821-6.326c.712 1.985 4.468 3.137 8.723 1.612 2.033-.729 3.806-1.966 4.864-3.396.519-.701 1.32-2.074.848-3.39s-1.962-1.868-2.809-2.08c-1.725-.43-3.881-.261-5.914.468-4.253 1.526-6.424 4.801-5.712 6.786z" fill="#690589"/><path d="m38.368 76.024c-1.042 0-2.053-.118-3.005-.356-2.759-.69-4.802-2.37-5.604-4.61-.803-2.24-.293-4.836 1.399-7.121 1.54-2.079 3.93-3.776 6.729-4.78 2.799-1.003 5.722-1.21 8.233-.583 2.759.69 4.802 2.37 5.604 4.61.803 2.24.293 4.835-1.399 7.121-1.54 2.079-3.93 3.777-6.729 4.78-1.737.623-3.523.939-5.228.939zm4.759-13.803c-1.251 0-2.596.237-3.89.702-2.033.729-3.806 1.966-4.864 3.395-.519.701-1.32 2.074-.848 3.391.472 1.316 1.962 1.868 2.809 2.079 1.726.432 3.881.262 5.914-.468 2.033-.729 3.806-1.966 4.864-3.396.519-.701 1.32-2.074.848-3.39s-1.962-1.868-2.809-2.079c-.627-.157-1.311-.234-2.024-.234z" fill="#690589"/><path d="m200.365 191.414c-16.305 0-29.522-13.217-29.522-29.522v-27.176c0-16.305 13.217-29.522 29.522-29.522 16.305 0 29.522 13.217 29.522 29.522v27.176c.001 16.305-13.217 29.522-29.522 29.522z" fill="#f4efed"/><path d="m200.365 105.194c-1.166 0-2.314.075-3.444.207 14.681 1.707 26.078 14.177 26.078 29.315v27.176c0 15.139-11.397 27.609-26.078 29.316 1.131.131 2.278.207 3.444.207 16.305 0 29.522-13.218 29.522-29.522v-27.176c.001-16.306-13.217-29.523-29.522-29.523z" fill="#d6d1cf"/><path d="m200.365 191.414c1.166 0 2.314-.075 3.445-.207-14.681-1.707-26.078-14.177-26.078-29.315v-27.176c0-15.139 11.397-27.609 26.078-29.316-1.131-.131-2.279-.207-3.444-.207-16.305 0-29.522 13.218-29.522 29.522v27.176c-.001 16.306 13.217 29.523 29.521 29.523z" fill="#fff"/><g fill="#690589"><path d="m200.365 193.415c-17.381 0-31.522-14.141-31.522-31.522v-27.176c0-17.381 14.141-31.522 31.522-31.522s31.522 14.141 31.522 31.522v27.176c.001 17.38-14.14 31.522-31.522 31.522zm0-86.221c-15.176 0-27.522 12.346-27.522 27.522v27.176c0 15.176 12.346 27.522 27.522 27.522s27.522-12.347 27.522-27.522v-27.176c.001-15.175-12.346-27.522-27.522-27.522z"/><path d="m181.407 136.716h-10.563c-1.104 0-2-.896-2-2s.896-2 2-2h10.563c1.104 0 2 .896 2 2s-.896 2-2 2z"/><path d="m181.407 150.304h-10.563c-1.104 0-2-.896-2-2s.896-2 2-2h10.563c1.104 0 2 .896 2 2s-.896 2-2 2z"/><path d="m181.407 163.892h-10.563c-1.104 0-2-.896-2-2s.896-2 2-2h10.563c1.104 0 2 .896 2 2s-.896 2-2 2z"/><path d="m229.888 136.716h-10.563c-1.104 0-2-.896-2-2s.896-2 2-2h10.563c1.104 0 2 .896 2 2s-.896 2-2 2z"/><path d="m229.888 150.304h-10.563c-1.104 0-2-.896-2-2s.896-2 2-2h10.563c1.104 0 2 .896 2 2s-.896 2-2 2z"/><path d="m229.888 163.892h-10.563c-1.104 0-2-.896-2-2s.896-2 2-2h10.563c1.104 0 2 .896 2 2s-.896 2-2 2z"/></g><path d="m241.082 136.495c-2.174 0-3.936 1.763-3.936 3.937v23.661c0 20.281-16.499 36.78-36.78 36.78s-36.78-16.499-36.78-36.78v-23.661c0-2.174-1.763-3.937-3.936-3.937s-3.936 1.763-3.936 3.937v23.661c0 23.295 17.933 42.469 40.717 44.47v39.501c0 2.174 1.763 3.936 3.936 3.936 2.174 0 3.937-1.763 3.937-3.936v-39.501c22.784-2.001 40.717-21.175 40.717-44.47v-23.661c-.002-2.175-1.765-3.937-3.939-3.937z" fill="#ff4397"/><path d="m200.365 254c-3.273 0-5.937-2.663-5.937-5.937v-37.706c-22.977-2.946-40.717-22.92-40.717-46.265v-23.661c0-3.273 2.663-5.937 5.937-5.937s5.937 2.663 5.937 5.937v23.661c0 19.178 15.603 34.78 34.78 34.78s34.78-15.603 34.78-34.78v-23.661c0-3.273 2.663-5.937 5.937-5.937s5.937 2.663 5.937 5.937v23.661c0 23.345-17.74 43.319-40.717 46.265v37.706c0 3.274-2.663 5.937-5.937 5.937zm-40.717-115.505c-1.068 0-1.937.869-1.937 1.937v23.661c0 21.904 17.083 40.562 38.892 42.478 1.033.09 1.825.956 1.825 1.992v39.501c0 1.068.869 1.937 1.937 1.937s1.937-.869 1.937-1.937v-39.501c0-1.037.792-1.902 1.825-1.992 21.808-1.915 38.892-20.573 38.892-42.478v-23.661c0-1.068-.869-1.937-1.937-1.937s-1.937.869-1.937 1.937v23.661c0 21.383-17.397 38.78-38.78 38.78s-38.78-17.397-38.78-38.78v-23.661c0-1.069-.869-1.937-1.937-1.937z" fill="#690589"/></svg>